<svg width="130" height="132" viewBox="0 0 130 132" fill="none" xmlns="http://www.w3.org/2000/svg">
<path d="M47.2454 61.0093C45.3492 61.1139 41.3973 62.2021 40.7588 65.7181C39.9606 70.1131 42.4554 71.8921 43.3535 72.3106C44.2517 72.7292 49.9397 73.8803 50.6382 69.7992C51.3367 65.7181 49.4406 62.8928 48.343 62.3696C47.2454 61.8464 43.8526 63.7299 43.3535 65.7181C42.8544 67.7064 41.258 68.5435 43.3535 69.7992C45.449 71.0549 46.9459 72.7292 48.343 70.2178C49.7401 67.7064 49.4406 64.6717 48.343 64.4624C47.2454 64.2532 44.7505 64.9857 44.7505 66.5553C44.7505 68.1249 45.0499 70.6364 45.8482 69.7992C46.4869 69.1295 47.0457 67.3576 47.2454 66.5553" stroke="black" stroke-width="2" stroke-linecap="round" stroke-linejoin="round"/>
<path d="M86.4031 59.4001C84.5069 59.5048 80.555 60.593 79.9165 64.109C79.1183 68.504 81.6131 70.2829 82.5112 70.7015C83.4094 71.1201 89.0974 72.2712 89.7959 68.1901C90.4945 64.109 88.5983 61.2837 87.5007 60.7605C86.4031 60.2373 83.0103 62.1208 82.5112 64.109C82.0121 66.0972 80.4157 66.9344 82.5112 68.1901C84.6067 69.4458 86.1036 71.1201 87.5007 68.6086C88.8978 66.0972 88.5983 63.0626 87.5007 62.8533C86.4031 62.644 83.9082 63.3765 83.9082 64.9462C83.9082 66.5158 84.2076 69.0272 85.0059 68.1901C85.6446 67.5204 86.2035 65.7484 86.4031 64.9462" stroke="black" stroke-width="2" stroke-linecap="round" stroke-linejoin="round"/>
<path d="M87.0823 68.0679C87.0823 68.0679 87.0823 68.0679 87.0824 68.0679" stroke="white" stroke-width="2" stroke-linecap="round" stroke-linejoin="round"/>
<path d="M44.7178 65.7994C44.4071 65.8646 43.755 65.948 43.9721 66.5161C44.1893 67.0843 45.0285 66.9577 45.2303 66.5161C45.4322 66.0746 45.0285 65.0828 45.0285 65.0828" stroke="white" stroke-width="2" stroke-linecap="round" stroke-linejoin="round"/>
<path d="M83.8751 64.1908C83.5645 64.2559 82.9123 64.3394 83.1295 64.9075C83.3467 65.4756 84.1858 65.3491 84.3877 64.9075C84.5896 64.4659 84.1858 63.4741 84.1858 63.4741" stroke="white" stroke-width="2" stroke-linecap="round" stroke-linejoin="round"/>
<path d="M41.0056 55.0859C41.8586 54.0335 44.0161 52.2445 45.8226 53.5074" stroke="black" stroke-width="2" stroke-linecap="round" stroke-linejoin="round"/>
<path d="M81.1548 51.8986C82.0077 50.8462 84.5595 50.7972 84.9807 51.8986" stroke="black" stroke-width="2" stroke-linecap="round" stroke-linejoin="round"/>
<path d="M110.957 57.28C113.829 55.7224 119.49 57.9592 119.49 64.5156C119.49 71.0721 118.589 73.5168 116.523 76.4059C114.997 78.5394 112.125 79.0174 110.265 78.6714" stroke="black" stroke-width="2" stroke-linecap="round" stroke-linejoin="round"/>
<path d="M18.0369 57.6706C11.9806 55.6765 8.33164 61.0696 9.92928 69.9001C11.6438 79.3766 18.0369 79.3476 19.8756 78.9252" stroke="black" stroke-width="2" stroke-linecap="round" stroke-linejoin="round"/>
<path d="M27.0691 36.4811C13.5347 50.6735 16.1295 86.1542 36.8292 115.792C48.7825 132.906 70.439 136.77 89.9522 121.218C117.402 99.341 113.451 49.8386 103.499 30.6372" stroke="black" stroke-width="2" stroke-linecap="round" stroke-linejoin="round"/>
<path d="M113.338 64.0335C109.976 61.0347 103.961 59.2019 101.346 62.6562C96.935 68.4818 98.0925 73.9983 102.235 74.9043C106.377 75.8102 111.832 73.7355 112.485 70.483C113.006 67.8809 112.11 65.7379 111.027 64.671" stroke="#F3722C" stroke-width="2" stroke-linecap="round" stroke-linejoin="round"/>
<path d="M101.968 26.8868C98.3869 30.8706 95.9598 38.2099 99.6933 41.6577C105.99 47.4725 112.274 46.3713 113.544 41.2953C114.814 36.2193 112.806 29.3366 109.181 28.3327C106.282 27.5296 103.814 28.5108 102.546 29.7882" stroke="#F3722C" stroke-width="2" stroke-linecap="round" stroke-linejoin="round"/>
<path d="M99.4659 23.3869C95.8215 21.9056 90.2829 22.2092 89.0548 25.8965C86.9835 32.1151 89.4832 36.375 93.1987 35.868C96.9143 35.361 100.901 31.9603 100.543 29.0411C100.257 26.7057 98.912 25.1872 97.71 24.6258" stroke="#F3722C" stroke-width="2" stroke-linecap="round" stroke-linejoin="round"/>
<path d="M37.8197 18.9533C38.7316 15.2217 37.8376 9.76453 34.4092 8.85776C28.6274 7.32851 25.1075 10.1598 25.9779 13.7953C26.8482 17.4307 30.3311 21.0918 32.8957 20.4932C34.9473 20.0142 36.151 18.5559 36.5168 17.3189" stroke="#F3722C" stroke-width="2" stroke-linecap="round" stroke-linejoin="round"/>
<path d="M90.9372 4.14358C88.688 6.68203 86.9854 12.0782 89.3234 14.339C93.2665 18.1518 97.6742 18.6708 99.4662 12.8546C100.455 9.64632 97.7316 5.82642 95.4596 5.14446C93.6419 4.59889 92.0933 5.20928 91.2975 6.02213" stroke="#F3722C" stroke-width="2" stroke-linecap="round" stroke-linejoin="round"/>
<path d="M22.8916 108.117C20.5015 112.454 20.8122 114.459 24.3377 114.741C30.2834 115.216 32.2912 110.837 30.8437 107.409C29.3961 103.982 24.819 102.929 22.389 103.976" stroke="#F3722C" stroke-width="2" stroke-linecap="round" stroke-linejoin="round"/>
<path d="M103.025 96.8579C102.712 101.097 106.721 103.615 108.676 100.601C111.973 95.5186 109.484 90.4978 106.584 88.9165C103.684 87.3351 100.71 90.6624 100.149 93.7969" stroke="#F3722C" stroke-width="2" stroke-linecap="round" stroke-linejoin="round"/>
<path d="M59.7112 25.5424C57.5657 22.4154 52.9995 19.6346 50.1372 21.8111C45.31 25.4819 45.124 30.1297 48.3421 31.7611C51.5603 33.3926 56.4729 32.9387 57.6797 30.4915C58.6451 28.5337 58.3501 26.63 57.6797 25.5424" stroke="#F3722C" stroke-width="2" stroke-linecap="round" stroke-linejoin="round"/>
<path d="M14.0069 22.8633C18.3758 19.398 23.2797 21.0815 26.5545 26.0599C27.5779 27.7915 26.9932 33.5663 25.5195 36.6833C23.6775 40.5795 16.179 41.3021 11.2668 38.7047C6.35465 36.1072 6.63861 28.7075 14.0069 22.8633Z" stroke="#F3722C" stroke-width="2" stroke-linecap="round" stroke-linejoin="round"/>
<path d="M69.8242 20.2132C71.8455 18.4074 75.8352 19.5878 76.8973 22.8313C77.5758 24.9037 77.1002 26.7431 76.4184 28.3674C75.5661 30.3979 72.0968 30.7744 69.8242 29.4208C67.5515 28.0672 66.4151 23.2588 69.8242 20.2132Z" stroke="#F3722C" stroke-width="2" stroke-linecap="round" stroke-linejoin="round"/>
<path d="M79.8546 19.6399C77.7563 16.5743 82.4453 15.762 86.8499 14.7413C89.6642 14.0891 92.0159 15.0094 94.0573 16.1863C96.609 17.6574 95.4752 20.0087 93.3892 22.9793C91.3031 25.9499 83.3934 24.8101 79.8546 19.6399Z" stroke="#F3722C" stroke-width="2" stroke-linecap="round" stroke-linejoin="round"/>
<path d="M12.5016 45.2582C14.523 43.4523 18.5127 44.6327 19.5747 47.8762C20.2533 49.9487 19.7777 51.788 19.0959 53.4123C18.2436 55.4428 14.7743 55.8194 12.5016 54.4658C10.2289 53.1122 9.09261 48.3038 12.5016 45.2582Z" stroke="#F3722C" stroke-width="2" stroke-linecap="round" stroke-linejoin="round"/>
<path d="M76.4731 26.0567C79.5051 24.2509 85.4897 25.4313 87.0827 28.6748C88.1006 30.7472 87.3871 32.5866 86.3644 34.2109C85.086 36.2414 79.8821 36.6179 76.473 35.2643C73.064 33.9107 71.3595 29.1023 76.4731 26.0567Z" stroke="#F3722C" stroke-width="2" stroke-linecap="round" stroke-linejoin="round"/>
<path d="M72.6594 3.01723C77.2075 0.655697 84.148 -0.678612 86.592 5.10431C87.8082 7.98208 86.5338 10.9112 84.9997 13.0354C83.0821 15.6905 77.439 17.5176 72.3254 15.7475C67.2118 13.9774 64.989 6.99994 72.6594 3.01723Z" stroke="#F3722C" stroke-width="2" stroke-linecap="round" stroke-linejoin="round"/>
<path d="M61.6195 7.75338C65.5383 5.71159 71.5183 4.55794 73.6242 9.55788C74.6721 12.046 73.574 14.5786 72.2522 16.4151C70.6 18.7108 65.7377 20.2905 61.3317 18.76C56.9257 17.2296 55.0105 11.1968 61.6195 7.75338Z" stroke="#F3722C" stroke-width="2" stroke-linecap="round" stroke-linejoin="round"/>
<path d="M79.0288 13.0355C83.5769 10.674 90.5173 9.3397 92.9614 15.1226C94.1776 18.0004 92.9031 20.9295 91.3691 23.0537C89.4515 25.7088 83.8083 27.5359 78.6948 25.7658C73.5812 23.9957 71.3584 17.0182 79.0288 13.0355Z" stroke="#F3722C" stroke-width="2" stroke-linecap="round" stroke-linejoin="round"/>
<path d="M20.1136 89.0062C24.6617 86.6447 31.6022 85.3104 34.0462 91.0933C35.2624 93.9711 33.988 96.9002 32.4539 99.0244C30.5363 101.68 24.8932 103.507 19.7796 101.737C14.6661 99.9664 12.4433 92.989 20.1136 89.0062Z" stroke="#F3722C" stroke-width="2" stroke-linecap="round" stroke-linejoin="round"/>
<path d="M15.2991 83.5792C17.4694 79.9645 21.655 75.7683 25.5359 77.927C27.4672 79.0013 27.7319 81.3328 27.5109 83.3241C27.2346 85.8132 24.1171 89.6567 19.9735 91.1473C15.8298 92.6378 11.6388 89.6753 15.2991 83.5792Z" stroke="#F3722C" stroke-width="2" stroke-linecap="round" stroke-linejoin="round"/>
<path d="M99.5203 80.8178C101.186 78.0445 104.397 74.8249 107.375 76.4812C108.856 77.3054 109.059 79.0943 108.89 80.6221C108.678 82.5319 106.286 85.4808 103.107 86.6244C99.9275 87.768 96.712 85.4951 99.5203 80.8178Z" stroke="#F3722C" stroke-width="2" stroke-linecap="round" stroke-linejoin="round"/>
<path d="M9.72608 101.946C11.8964 98.3312 16.082 94.135 19.9629 96.2937C21.8942 97.368 22.1589 99.6995 21.9379 101.691C21.6616 104.18 18.5441 108.023 14.4005 109.514C10.2568 111.004 6.06583 108.042 9.72608 101.946Z" stroke="#F3722C" stroke-width="2" stroke-linecap="round" stroke-linejoin="round"/>
<path d="M111.633 50.1856C113.803 46.571 117.989 42.3747 121.87 44.5335C123.801 45.6077 124.066 47.9392 123.845 49.9306C123.569 52.4197 120.451 56.2632 116.307 57.7537C112.164 59.2442 107.973 56.2818 111.633 50.1856Z" stroke="#F3722C" stroke-width="2" stroke-linecap="round" stroke-linejoin="round"/>
<path d="M103.35 49.5089C105.52 45.8943 107.49 44.5495 111.37 46.7082C113.302 47.7825 113.566 50.114 113.345 52.1053C113.069 54.5945 113.863 57.6191 109.719 59.1096C105.575 60.6002 99.6897 55.6051 103.35 49.5089Z" stroke="#F3722C" stroke-width="2" stroke-linecap="round" stroke-linejoin="round"/>
<path d="M59.0873 25.975C61.2576 22.3603 65.4432 18.164 69.3241 20.3228C71.2554 21.397 71.5201 23.7286 71.2991 25.7199C71.0228 28.209 67.9053 32.0525 63.7617 33.543C59.618 35.0336 55.427 32.0711 59.0873 25.975Z" stroke="#F3722C" stroke-width="2" stroke-linecap="round" stroke-linejoin="round"/>
<path d="M113.849 56.1001C116.02 52.4854 120.716 50.6019 124.597 52.7606C126.529 53.8349 128.976 56.0296 127.782 59.4394C126.958 61.7917 124.199 64.4486 119.422 64.0311C115.057 63.6496 110.189 62.1962 113.849 56.1001Z" stroke="#F3722C" stroke-width="2" stroke-linecap="round" stroke-linejoin="round"/>
<path d="M50.7707 6.01507C54.6842 3.96783 59.6287 5.70611 61.7317 10.7194C62.7782 13.2141 65.4494 16.839 64.1294 18.6804C62.4794 20.9822 56.0915 21.7818 51.6915 20.2473C47.2914 18.7128 44.1706 9.46771 50.7707 6.01507Z" stroke="#F3722C" stroke-width="2" stroke-linecap="round" stroke-linejoin="round"/>
<path d="M35.7243 18.0221C35.2539 13.4627 38.1764 7.16929 43.3901 6.84398C45.9847 6.68209 50.1638 8.66289 51.3516 10.6008C52.8364 13.0232 51.6721 18.2705 48.7707 22.0634C45.8692 25.8563 36.5177 25.7115 35.7243 18.0221Z" stroke="#F3722C" stroke-width="2" stroke-linecap="round" stroke-linejoin="round"/>
<path d="M2.58363 79.5399C2.42235 74.1059 5.86964 66.3279 11.2495 65.5326C13.9267 65.1368 14.6192 68.8945 15.7028 71.1274C17.0572 73.9185 18.9518 78.5991 15.7028 83.3753C12.4537 88.1515 2.85564 88.7042 2.58363 79.5399Z" stroke="#F3722C" stroke-width="2" stroke-linecap="round" stroke-linejoin="round"/>
<path d="M5.76835 92.2394C5.60707 86.8054 7.42176 84.3052 11.9424 81.145C14.3308 79.4753 18.4222 81.4167 19.5058 83.6495C20.8602 86.4406 22.1365 91.2986 18.8875 96.0748C15.6384 100.851 6.04036 101.404 5.76835 92.2394Z" stroke="#F3722C" stroke-width="2" stroke-linecap="round" stroke-linejoin="round"/>
<path d="M5.94729 69.1507C5.8248 65.0238 7.20301 63.1249 10.6363 60.7248C12.4502 59.4568 15.5576 60.9312 16.3805 62.627C17.4091 64.7467 18.3785 68.4362 15.9109 72.0637C13.4434 75.6911 6.15388 76.1108 5.94729 69.1507Z" stroke="#F3722C" stroke-width="2" stroke-linecap="round" stroke-linejoin="round"/>
<path d="M17.4105 26.1233C16.94 21.5639 21.8553 17.1874 27.0691 16.8621C29.6636 16.7002 31.4022 17.164 33.0378 18.702C34.6325 20.2015 34.7474 23.5047 31.846 27.2976C28.9445 31.0905 18.2038 33.8127 17.4105 26.1233Z" stroke="#F3722C" stroke-width="2" stroke-linecap="round" stroke-linejoin="round"/>
<path d="M19.6564 51.1125C19.2494 47.1679 23.5019 43.3816 28.0126 43.1002C30.2572 42.9601 31.7614 43.3614 33.1764 44.6919C34.5561 45.9893 34.6555 48.847 32.1453 52.1285C29.6351 55.4099 20.3428 57.7651 19.6564 51.1125Z" stroke="#F3722C" stroke-width="2" stroke-linecap="round" stroke-linejoin="round"/>
<path d="M26.8219 40.2598C26.4149 36.3152 30.6674 32.5288 35.1781 32.2474C37.4228 32.1073 38.9269 32.5086 40.3419 33.8392C41.7216 35.1365 41.821 37.9942 39.3108 41.2757C36.8006 44.5572 27.5083 46.9123 26.8219 40.2598Z" stroke="#F3722C" stroke-width="2" stroke-linecap="round" stroke-linejoin="round"/>
<path d="M16.0817 77.0374C15.5125 71.5207 21.4599 66.2253 27.7683 65.8317C30.9076 65.6358 33.0113 66.197 34.9903 68.0579C36.9198 69.8723 37.0589 73.869 33.5482 78.4583C30.0376 83.0476 17.0417 86.3414 16.0817 77.0374Z" stroke="#F3722C" stroke-width="2" stroke-linecap="round" stroke-linejoin="round"/>
<path d="M33.1909 28.5723C32.7839 24.6277 37.0364 20.8413 41.5471 20.5599C43.7918 20.4198 45.2959 20.8211 46.711 22.1517C48.0906 23.449 48.19 26.3067 45.6799 29.5882C43.1697 32.8697 33.8773 35.2248 33.1909 28.5723Z" stroke="#F3722C" stroke-width="2" stroke-linecap="round" stroke-linejoin="round"/>
<path d="M16.3382 41.2091C14.4683 36.2378 18.7042 29.73 24.4673 27.678C27.3351 26.6568 29.4252 26.6156 31.7156 27.8148C33.9487 28.984 35.0495 32.6587 32.9049 37.8593C30.7603 43.06 19.4917 49.5931 16.3382 41.2091Z" stroke="#F3722C" stroke-width="2" stroke-linecap="round" stroke-linejoin="round"/>
<path d="M102.881 28.883C101.011 23.9117 104.106 14.3225 109.869 12.2705C112.737 11.2494 115.968 14.2895 118.258 15.4887C120.491 16.6579 121.592 20.3326 119.448 25.5332C117.303 30.7339 106.034 37.267 102.881 28.883Z" stroke="#F3722C" stroke-width="2" stroke-linecap="round" stroke-linejoin="round"/>
<path d="M115.371 97.0406C119.663 94.8712 126.212 93.6455 128.519 98.9579C129.666 101.602 128.464 104.292 127.016 106.244C125.206 108.683 119.881 110.361 115.055 108.735C110.23 107.109 108.132 100.699 115.371 97.0406Z" stroke="#F3722C" stroke-width="2" stroke-linecap="round" stroke-linejoin="round"/>
<path d="M112.982 82.848C117.274 80.6786 123.824 79.4528 126.13 84.7653C127.278 87.4089 126.075 90.0997 124.628 92.0511C122.818 94.4902 117.493 96.1686 112.667 94.5426C107.842 92.9165 105.744 86.5067 112.982 82.848Z" stroke="#F3722C" stroke-width="2" stroke-linecap="round" stroke-linejoin="round"/>
<path d="M114.068 74.3164C118.174 72.6575 124.382 71.5062 126.588 75.5686C127.686 77.5902 126.894 81.2789 125.509 82.7711C123.778 84.6363 117.669 86.8303 113.053 85.5868C108.437 84.3434 107.145 77.1143 114.068 74.3164Z" stroke="#F3722C" stroke-width="2" stroke-linecap="round" stroke-linejoin="round"/>
<path d="M114.097 65.1331C118.202 63.4742 124.41 62.3229 126.616 66.3853C127.714 68.4069 129.355 69.635 127.971 71.1271C126.24 72.9924 119.052 74.4577 114.436 73.2143C109.82 71.9708 107.173 67.9309 114.097 65.1331Z" stroke="#F3722C" stroke-width="2" stroke-linecap="round" stroke-linejoin="round"/>
<path d="M8.18981 41.0727C11.6486 38.3607 17.7 39.4386 20.2925 43.3347C21.1027 44.6899 20.6398 49.2093 19.4732 51.6486C18.0149 54.6978 12.0786 55.2633 8.18981 53.2306C4.30101 51.1978 2.35662 45.6464 8.18981 41.0727Z" stroke="#F3722C" stroke-width="2" stroke-linecap="round" stroke-linejoin="round"/>
<path d="M98.4233 15.0261C101.882 12.3141 107.934 13.3919 110.526 17.2881C111.336 18.6432 110.873 23.1626 109.707 25.602C108.248 28.6512 102.312 29.2167 98.4233 27.1839C94.5345 25.1512 92.5901 19.5998 98.4233 15.0261Z" stroke="#F3722C" stroke-width="2" stroke-linecap="round" stroke-linejoin="round"/>
<path d="M16.9238 56.8522C17.1093 52.3277 21.7339 48.0956 26.2515 48.4554C29.8066 49.157 30.8097 51.8901 31.873 54.3808C33.2023 57.4942 29.8641 62.6726 25.9025 64.5444C21.9409 66.4161 16.6109 64.4828 16.9238 56.8522Z" stroke="#F3722C" stroke-width="2" stroke-linecap="round" stroke-linejoin="round"/>
<path d="M6.92246 52.8386C10.1992 49.524 12.2726 50.9206 14.7287 55.6826C15.4962 57.3389 15.8339 63.5542 14.7287 66.5356C13.3471 70.2624 8.06288 76.5337 4.37875 74.0492C0.694631 71.5647 1.39628 58.4288 6.92246 52.8386Z" stroke="#F3722C" stroke-width="2" stroke-linecap="round" stroke-linejoin="round"/>
<path d="M109.206 26.1449C109.952 21.4352 114.955 22.3828 117.09 23.5472C119.225 24.7116 122.453 29.1754 123.262 32.2599C124.272 36.1155 122.106 43.8329 117.83 44.8293C110.665 46.499 107.949 34.0878 109.206 26.1449Z" stroke="#F3722C" stroke-width="2" stroke-linecap="round" stroke-linejoin="round"/>
<path d="M64.7074 78.6406C61.5409 79.3532 59.0081 84.2853 61.5411 86.942C64.7074 90.2628 71.3578 90.9267 71.9911 86.942C72.4978 83.7543 70.971 82.0528 69.8099 81.3887" stroke="black" stroke-width="2" stroke-linecap="round" stroke-linejoin="round"/>
<path d="M51.4381 105.171C55.1866 108.577 62.1543 110.575 69.33 109.735C77.4735 108.782 82.2985 104.254 84.3416 100.803" stroke="black" stroke-width="2" stroke-linecap="round" stroke-linejoin="round"/>
<path d="M48.5652 107.479C49.8234 106.638 52.3945 104.356 52.6129 101.962" stroke="black" stroke-width="2" stroke-linecap="round" stroke-linejoin="round"/>
<path d="M82.9071 98.6767C83.7081 99.9972 85.8808 102.696 88.1633 102.928" stroke="black" stroke-width="2" stroke-linecap="round" stroke-linejoin="round"/>
</svg>
