<svg width="68" height="82" viewBox="0 0 68 82" fill="none" xmlns="http://www.w3.org/2000/svg">
<circle cx="34" cy="48" r="32.5" fill="white" stroke="black" stroke-width="3"/>
<path d="M31.293 25.9297C33.069 26.1719 33.957 26.9792 33.957 28.3516L33.8359 28.7148L32.5039 28.4727C32.1003 28.5534 31.8177 28.7552 31.6562 29.0781V29.5625H32.8672L34.6836 29.3203C40.819 36.9089 44.1693 41.7526 44.7344 43.8516C46.349 45.9505 47.1562 47.2422 47.1562 47.7266C47.1562 48.2109 47.6406 48.776 48.6094 49.4219L49.5781 51.1172C49.3359 52.651 46.9948 55.3151 42.5547 59.1094C38.3568 63.7109 35.7331 66.9805 34.6836 68.918H34.1992V68.7969L34.3203 67.2227L34.1992 67.1016H33.957C33.4727 67.5052 31.7773 68.4336 28.8711 69.8867L28.6289 69.6445V69.5234L28.9922 67.707C28.9922 67.4648 28.2253 67.1016 26.6914 66.6172L26.0859 65.8906V64.0742L25.6016 62.9844C26.0859 60.724 29.194 56.526 34.9258 50.3906C35.3294 50.3906 35.5312 50.2695 35.5312 50.0273V49.9062C35.5312 49.0182 32.4232 43.7708 26.207 34.1641C24.8346 32.1458 24.1484 30.9349 24.1484 30.5312L24.7539 30.2891L26.3281 30.8945H26.5703L27.6602 29.5625C28.6289 28.9167 29.1133 28.3516 29.1133 27.8672H28.6289L26.0859 29.0781V28.957L25.9648 28.7148C26.9336 26.8581 28.7096 25.9297 31.293 25.9297ZM27.7812 33.5586C27.7812 34.1237 28.6289 35.3346 30.3242 37.1914C30.3242 37.5951 31.4948 39.3307 33.8359 42.3984L38.8008 50.0273C38.8008 50.6732 39.3255 51.0365 40.375 51.1172H40.6172L41.1016 50.6328L35.5312 41.9141C34.0781 41.1068 33.3516 40.138 33.3516 39.0078C31.9792 37.2318 30.9701 35.6172 30.3242 34.1641C29.5169 33.1146 28.9115 32.5898 28.5078 32.5898C28.2656 32.5898 28.0234 32.9128 27.7812 33.5586ZM39.2852 39.0078V39.1289C39.6888 40.5013 41.5456 43.8112 44.8555 49.0586L44.7344 49.4219H44.6133C43.9674 49.4219 42.6354 48.332 40.6172 46.1523V46.3945C41.5859 49.3008 42.7969 50.7539 44.25 50.7539L46.9141 50.875V50.6328C45.8646 49.5026 44.0482 46.4753 41.4648 41.5508C40.4961 39.8555 39.7695 39.0078 39.2852 39.0078ZM27.2969 63.7109V64.1953L27.418 64.4375H27.7812C28.3464 64.4375 30.0013 63.2266 32.7461 60.8047C36.3789 58.0599 38.8008 55.2747 40.0117 52.4492H39.6484C39.0026 52.4492 35.0469 56.082 27.7812 63.3477C27.4583 63.3477 27.2969 63.4688 27.2969 63.7109ZM41.5859 54.3867V54.6289H41.8281C44.1693 54.6289 45.3398 54.1445 45.3398 53.1758V53.0547L44.8555 52.4492H44.25C43.5234 52.4492 42.6354 53.0951 41.5859 54.3867ZM30.5664 65.2852V65.6484L30.9297 65.8906C32.5443 65.8906 34.4414 64.3164 36.6211 61.168C36.944 61.168 37.3073 60.724 37.7109 59.8359C39.487 59.8359 40.7786 58.8268 41.5859 56.8086V56.082H41.1016C34.0781 61.8945 30.5664 64.9622 30.5664 65.2852Z" fill="black"/>
</svg>
