<svg width="158" height="78" viewBox="0 0 158 78" fill="none" xmlns="http://www.w3.org/2000/svg">
<path d="M14.014 19.504C15.484 19.504 16.8887 19.8797 18.228 20.631C19.5673 21.3497 20.6453 22.2807 21.462 23.424C22.3113 24.5673 22.736 25.7107 22.736 26.854H21.658C21.168 26.854 20.727 26.707 20.335 26.413C19.9757 26.119 19.502 25.6453 18.914 24.992C18.0647 24.0773 17.297 23.3913 16.611 22.934C15.9577 22.4767 15.1083 22.248 14.063 22.248C12.2663 22.248 10.7637 23.081 9.555 24.747C8.34633 26.3803 7.62767 28.3077 7.399 30.529C7.301 31.5417 7.252 32.5543 7.252 33.567C7.252 35.233 7.36633 36.7683 7.595 38.173C8.01967 38.2383 9.016 38.32 10.584 38.418C12.152 38.516 13.4423 38.5977 14.455 38.663C14.8143 38.663 15.5167 38.6957 16.562 38.761C16.8887 38.761 17.1173 38.8427 17.248 39.006C17.4113 39.1367 17.493 39.3817 17.493 39.741C17.493 40.623 16.4967 41.064 14.504 41.064C12.7727 41.064 10.6003 40.7537 7.987 40.133C8.34633 41.603 8.80367 42.9587 9.359 44.2C9.91433 45.4087 10.633 46.8623 11.515 48.561C12.1357 49.7697 12.593 50.717 12.887 51.403C13.181 52.0563 13.328 52.6117 13.328 53.069C13.328 53.4283 13.2137 53.6897 12.985 53.853C12.7563 53.9837 12.4297 54.049 12.005 54.049C11.123 54.049 10.29 53.118 9.506 51.256C8.75467 49.3613 7.889 46.748 6.909 43.416L6.027 40.525C5.30833 40.5903 4.41 40.7863 3.332 41.113C3.234 41.1457 2.891 41.2437 2.303 41.407C1.74767 41.5377 1.24133 41.603 0.784 41.603C0.261333 41.603 0 41.2927 0 40.672C0 39.8553 0.424667 39.3163 1.274 39.055C2.12333 38.761 2.92367 38.5977 3.675 38.565C4.42633 38.4997 4.9 38.4507 5.096 38.418C5.03067 37.1767 4.998 36.066 4.998 35.086C4.998 30.872 5.635 27.2297 6.909 24.159C8.21567 21.0557 10.584 19.504 14.014 19.504ZM26.5381 54C25.1988 51.3867 24.1371 48.316 23.3531 44.788C22.6018 41.26 22.2261 38.2057 22.2261 35.625C22.2261 34.6123 22.4548 33.959 22.9121 33.665C23.1734 33.5017 23.3694 33.42 23.5001 33.42C23.7288 33.42 23.8921 33.5997 23.9901 33.959C24.1208 34.3183 24.2514 34.9717 24.3821 35.919L24.6271 37.683C24.9864 35.919 25.6724 34.5307 26.6851 33.518C27.7304 32.4727 29.0044 31.95 30.5071 31.95C32.1731 31.95 33.4144 32.2767 34.2311 32.93C35.0478 33.5507 35.4561 34.596 35.4561 36.066C33.8228 35.282 32.3364 34.89 30.9971 34.89C29.7231 34.89 28.6288 35.233 27.7141 35.919C26.7994 36.605 26.1624 37.6177 25.8031 38.957C25.5091 39.8717 25.3621 40.7373 25.3621 41.554C25.3621 42.436 25.4764 43.269 25.7051 44.053C25.9664 44.8043 26.3584 45.7353 26.8811 46.846C27.3711 47.9893 27.7468 48.9693 28.0081 49.786C28.3021 50.6027 28.4654 51.4847 28.4981 52.432C28.4981 52.9873 28.3021 53.3957 27.9101 53.657C27.5181 53.8857 27.0608 54 26.5381 54ZM39.698 54.049C38.9467 54.049 38.3424 52.9547 37.885 50.766C37.4277 48.5447 37.1337 46.6337 37.003 45.033C36.8724 43.4323 36.6927 40.9007 36.464 37.438C36.4314 36.8827 36.415 36.164 36.415 35.282C36.415 34.1713 36.4967 33.4037 36.66 32.979C36.856 32.5543 37.1664 32.342 37.591 32.342C37.9504 32.342 38.228 32.4237 38.424 32.587C38.6527 32.7177 38.8487 32.9463 39.012 33.273L38.963 35.233C38.963 37.3237 39.061 39.3 39.257 41.162C39.4857 43.024 39.8287 45.523 40.286 48.659C40.5474 50.031 40.727 51.158 40.825 52.04C40.8904 52.4973 40.8087 52.9547 40.58 53.412C40.3514 53.8367 40.0574 54.049 39.698 54.049ZM38.473 27.099C37.7544 27.099 37.2154 26.8213 36.856 26.266C36.5294 25.7107 36.366 25.0247 36.366 24.208C36.366 23.8487 36.3824 23.5873 36.415 23.424C36.3824 22.9013 36.6764 22.64 37.297 22.64C37.7544 22.64 38.2117 22.7543 38.669 22.983C39.159 23.179 39.306 23.326 39.11 23.424C39.4367 24.2733 39.6 24.943 39.6 25.433C39.6 25.8577 39.502 26.2007 39.306 26.462C39.11 26.6907 38.8324 26.903 38.473 27.099ZM52.6187 53.951C51.0834 53.951 49.7441 53.4283 48.6007 52.383C47.4901 51.3377 46.6407 49.982 46.0527 48.316C45.4974 46.65 45.2197 44.9187 45.2197 43.122C45.2197 39.986 45.8731 37.34 47.1797 35.184C48.5191 33.028 50.5444 31.95 53.2557 31.95C54.8891 31.95 56.3101 32.244 57.5187 32.832C58.7601 33.3873 60.3771 34.3347 62.3697 35.674L63.6437 36.556C63.4804 35.478 63.2354 34.2367 62.9087 32.832C62.5821 31.4273 62.3697 30.4637 62.2717 29.941C61.7164 27.393 61.3081 25.4983 61.0467 24.257C60.8181 22.983 60.7037 21.856 60.7037 20.876C60.7037 19.1447 61.1937 18.279 62.1737 18.279C62.5331 19.063 62.9577 20.7453 63.4477 23.326C63.9377 25.874 64.5584 29.3693 65.3097 33.812C66.0937 38.516 66.7797 42.3543 67.3677 45.327C67.9557 48.2997 68.4457 50.1617 68.8377 50.913C68.8377 51.6643 68.2824 52.04 67.1717 52.04C66.3224 52.04 65.7344 51.55 65.4077 50.57C65.1137 49.59 64.9341 47.875 64.8687 45.425H64.4767C63.1047 47.9077 61.3244 49.9493 59.1357 51.55C56.9471 53.1507 54.7747 53.951 52.6187 53.951ZM53.2557 51.55C54.5951 51.55 56.0324 50.9947 57.5677 49.884C59.1357 48.7407 60.4587 47.3687 61.5367 45.768C62.6147 44.1347 63.1537 42.6647 63.1537 41.358V39.888C59.7891 36.36 56.6857 34.596 53.8437 34.596C51.8511 34.596 50.3157 35.331 49.2377 36.801C48.1597 38.2383 47.6207 40.133 47.6207 42.485L47.6697 43.514C47.8657 45.9967 48.4211 47.9567 49.3357 49.394C50.2504 50.8313 51.5571 51.55 53.2557 51.55ZM79.0064 77.912C76.2624 77.912 73.9594 77.128 72.0974 75.56C70.268 74.0247 69.1737 71.4277 68.8144 67.769C68.7817 67.2137 68.8634 66.789 69.0594 66.495C69.288 66.201 69.582 66.054 69.9414 66.054C70.3334 66.054 70.6764 66.201 70.9704 66.495C71.2644 66.8217 71.395 67.2463 71.3624 67.769C71.3624 69.925 72.0974 71.6237 73.5674 72.865C75.07 74.139 76.981 74.776 79.3004 74.776C80.6397 74.776 81.8157 74.286 82.8284 73.306C83.8737 72.326 84.674 70.954 85.2294 69.19C85.7847 67.4587 86.0624 65.466 86.0624 63.212C86.0624 59.2593 86.1114 55.421 86.2094 51.697L86.2584 49.198C84.9844 50.5373 83.8247 51.5173 82.7794 52.138C81.7667 52.7587 80.5417 53.069 79.1044 53.069C76.589 53.069 74.727 52.3993 73.5184 51.06C72.3424 49.688 71.7544 47.5973 71.7544 44.788C71.7544 43.1873 72.179 41.5213 73.0284 39.79C73.9104 38.026 75.1027 36.556 76.6054 35.38C78.1407 34.204 79.872 33.616 81.7994 33.616C82.4527 33.616 83.057 33.6813 83.6124 33.812C85.703 34.2693 87.1077 36.213 87.8264 39.643C88.545 43.073 88.9044 47.5157 88.9044 52.971C88.9044 54.4737 88.8717 56.4663 88.8064 58.949L88.7574 63.604C88.7574 65.466 88.4634 67.4913 87.8754 69.68C87.2874 71.9013 86.2584 73.8287 84.7884 75.462C83.3184 77.0953 81.391 77.912 79.0064 77.912ZM78.3694 49.835C80.7867 49.835 82.616 49.2633 83.8574 48.12C85.0987 46.944 85.7194 45.229 85.7194 42.975C85.7194 42.681 85.6867 42.1747 85.6214 41.456C85.458 39.9533 85.066 38.7773 84.4454 37.928C83.8574 37.046 82.9264 36.605 81.6524 36.605C80.313 36.605 79.088 37.0787 77.9774 38.026C76.8667 38.9733 76.001 40.1493 75.3804 41.554C74.7597 42.926 74.4494 44.2163 74.4494 45.425C74.4494 46.6337 74.8087 47.679 75.5274 48.561C76.246 49.4103 77.1934 49.835 78.3694 49.835ZM103.418 54C101.327 54 99.3999 53.5917 97.6359 52.775C95.8719 51.9583 94.4673 50.7987 93.4219 49.296C92.3766 47.7933 91.8539 46.062 91.8539 44.102C91.8539 41.9133 92.2623 39.8717 93.0789 37.977C93.8956 36.0497 95.0879 34.5143 96.6559 33.371C98.2566 32.195 100.119 31.607 102.242 31.607C104.463 31.607 106.146 32.3257 107.289 33.763C108.432 35.1677 108.971 36.948 108.906 39.104C108.906 41.0313 108.138 42.5013 106.603 43.514C105.1 44.5267 103.173 45.033 100.821 45.033C100.462 45.033 99.9226 45.0003 99.2039 44.935C98.0279 44.8043 97.1949 44.6247 96.7049 44.396C96.2149 44.1673 95.9699 43.71 95.9699 43.024C95.9699 42.7953 96.0353 42.632 96.1659 42.534C96.2966 42.4033 96.5579 42.338 96.9499 42.338C97.3746 42.338 98.1259 42.436 99.2039 42.632C100.249 42.828 101.18 42.926 101.997 42.926C105.002 42.926 106.505 41.6193 106.505 39.006C106.505 37.438 106.211 36.1967 105.623 35.282C105.068 34.3673 104.071 33.91 102.634 33.91C101.066 33.91 99.6613 34.3347 98.4199 35.184C97.1786 36.0007 96.2149 37.0787 95.5289 38.418C94.8756 39.7573 94.5489 41.1783 94.5489 42.681C94.5489 45.2617 95.2676 47.385 96.7049 49.051C98.1423 50.6843 100.364 51.501 103.369 51.501C103.728 51.501 104.333 51.4683 105.182 51.403C105.541 51.3703 105.982 51.2723 106.505 51.109C107.028 50.9457 107.403 50.8313 107.632 50.766C109.037 50.276 110.066 50.031 110.719 50.031C111.209 50.031 111.585 50.1617 111.846 50.423C111.029 51.6643 109.804 52.579 108.171 53.167C106.57 53.7223 104.986 54 103.418 54Z" fill="#FFF6DF"/>
<path d="M123.607 11.9008C123.791 11.3413 124.087 10.9303 124.496 10.6678C124.936 10.4137 125.345 10.3374 125.724 10.4388C126.102 10.5403 126.416 10.7595 126.664 11.0965C126.911 11.4334 126.985 11.7913 126.883 12.1699C126.765 12.6116 126.486 12.9596 126.045 13.2137C125.605 13.4677 125.164 13.5356 124.723 13.4172C124.628 13.3919 124.463 13.3138 124.227 13.1831C123.914 12.9639 123.7 12.7542 123.584 12.5542C123.5 12.3626 123.508 12.1448 123.607 11.9008ZM114.359 9.11848C114.486 8.64517 114.734 8.2888 115.102 8.04936C115.462 7.84147 115.879 7.80094 116.352 7.92776C116.826 8.05458 117.166 8.29803 117.374 8.6581C117.574 9.04973 117.61 9.4822 117.483 9.9555C117.339 10.4919 117.087 10.8641 116.727 11.0719C116.367 11.2798 115.951 11.3204 115.477 11.1936C114.436 10.9145 114.063 10.2229 114.359 9.11848ZM107.853 10.1126C107.929 9.82858 108.147 9.58265 108.507 9.37476C108.868 9.16687 109.205 9.1052 109.521 9.18975C109.679 9.23202 109.824 9.32162 109.956 9.45856C110.089 9.59549 110.211 9.83132 110.325 10.166C110.438 10.5007 110.558 10.8712 110.686 11.2775C111.181 12.9657 111.781 14.513 112.486 15.9195C113.191 17.326 114.384 18.7446 116.064 20.1754C117.775 21.6147 120.066 22.719 122.937 23.4884C125.493 24.1732 127.601 24.383 129.262 24.1178C130.914 23.8841 132.154 23.4216 132.982 22.7302C133.833 22.079 134.631 21.2445 135.377 20.227C135.75 19.7182 136.05 19.3587 136.275 19.1486C136.532 18.9469 136.787 18.8798 137.039 18.9475C137.923 19.1842 138.225 19.8232 137.946 20.8645C137.54 22.379 136.54 23.6499 134.946 24.6769C133.383 25.7124 131.467 26.3656 129.196 26.6365C126.916 26.9388 124.594 26.773 122.227 26.1389C119.04 25.285 116.266 23.8991 113.906 21.9815C111.576 20.0722 109.88 18.0112 108.815 15.7983C107.743 13.6171 107.422 11.7218 107.853 10.1126Z" fill="#FFF6DF"/>
</svg>
