<svg width="156" height="156" viewBox="0 0 156 156" fill="none" xmlns="http://www.w3.org/2000/svg">
<path d="M51.294 52.7726C54.0534 55.3251 57.4316 56.4633 62.2501 56.4633C62.2732 56.4656 62.2964 56.4656 62.3195 56.4633C62.4677 56.4496 62.6496 56.4366 62.8554 56.4223C63.4018 56.384 64.15 56.33 64.8848 56.2208C66.9995 55.9388 69.0359 55.2325 70.873 54.1437C72.7107 53.055 74.3108 51.606 75.5789 49.8833C76.788 48.1761 77.6431 46.242 78.0924 44.1961C78.5416 42.1502 78.5759 40.0344 78.194 37.9748C77.3881 33.2682 75.1517 30.2606 71.5565 29.0379C69.1046 28.2105 66.5069 27.906 63.9312 28.1442C61.3552 28.3824 58.857 29.1579 56.5966 30.4211C54.4237 31.6097 52.5262 33.247 51.0289 35.2251C49.5317 37.2033 48.4687 39.4776 47.9098 41.8981C46.9259 46.1257 48.0646 49.7858 51.294 52.7726ZM64.5909 36.2776C64.7204 36.2776 64.8537 36.2776 64.9825 36.2776C67.1581 36.2776 68.8767 36.5454 69.7078 38.734C70.1286 39.9246 70.1862 41.2142 69.8716 42.4377C69.5577 43.6611 68.8864 44.7623 67.9446 45.5999C65.5878 47.7488 60.5497 48.3227 57.7754 46.7594C55.9998 45.7597 55.4587 44.5157 55.9073 42.4663C56.8232 38.2816 59.582 36.3166 64.5909 36.2776Z" fill="#552204"/>
<path d="M32.7904 153.619C34.3898 153.554 36.0476 153.489 37.6561 153.489C47.4874 153.538 56.472 153.636 65.1229 153.789C78.9752 154.034 93.1181 154.333 107.153 154.68C108.299 154.742 109.439 154.902 110.558 155.157C111.107 155.266 111.658 155.374 112.206 155.462C112.241 155.468 112.276 155.471 112.311 155.471H118.934C118.967 155.471 118.999 155.468 119.032 155.464C120.359 155.269 121.691 155.09 123.023 154.914C125.903 154.534 128.882 154.141 131.778 153.526C145.075 150.706 155.739 137.039 155.551 123.06C155.426 113.712 155.45 104.204 155.474 95.0084C155.491 88.4089 155.508 81.5859 155.47 74.874C155.435 68.738 155.218 62.5044 155.008 56.4789L154.874 52.6081C154.826 51.1573 154.783 49.7057 154.745 48.2532C154.615 43.4763 154.479 38.5368 154.01 33.7002C153.515 28.9352 152.627 24.2196 151.356 19.6018C147.822 6.47176 135.303 0.302659 124.468 0.01731C121.372 -0.06394 118.237 0.155642 115.203 0.367542C112.922 0.527442 110.563 0.692542 108.253 0.726342C101.963 0.818642 95.5655 0.856349 89.3819 0.895349C81.242 0.944749 72.8251 0.99684 64.5474 1.16909L63.3016 1.19575C51.4346 1.44275 39.1624 1.69748 27.1362 2.63413C14.17 3.64358 5.57453 9.87581 1.58715 21.1592C0.918049 22.8752 0.525991 24.6874 0.425846 26.5275L0.361129 31.9588C0.163702 47.826 -0.0408441 64.2341 0.0070563 80.3736C0.02777 87.6211 0.271138 94.9843 0.506759 102.105C0.63622 106.097 0.775396 110.224 0.87055 114.281C0.975413 118.701 1.01234 122.418 0.852451 126.182C0.269881 139.843 12.1401 152.953 25.7516 153.688C28.102 153.814 30.486 153.715 32.7904 153.619ZM8.41941 38.1236C8.33908 32.3533 9.69971 26.6548 12.377 21.5486C14.8212 17.0116 18.4209 14.182 22.7882 13.3669C29.7008 12.0766 36.469 10.9028 43.2851 10.7182C60.6076 10.2476 78.2262 9.97194 95.2633 9.70544C103.854 9.57063 112.443 9.42828 121.033 9.27839C125.629 9.19259 130.182 10.5486 135.386 13.5412C141.064 16.8055 142.874 22.6926 143.896 28.0213C146.042 39.2117 146.991 48.5931 146.881 57.5436C146.838 61.0727 146.805 64.6105 146.784 68.1582C146.54 67.9326 146.304 67.6986 146.049 67.4861C142.689 64.6839 139.233 61.8869 135.889 59.1822C131.86 55.9218 127.694 52.5521 123.673 49.1507C118.426 44.7151 115.365 44.8283 110.565 49.637C99.1516 61.0698 87.4768 72.7192 76.1859 83.985L63.4208 96.725L63.1949 96.5385C62.7787 96.1946 62.4407 95.9158 62.1002 95.6415C60.3163 94.1978 58.5351 92.7509 56.7568 91.3014C52.4198 87.7693 47.9288 84.1176 43.4508 80.6024C40.2013 78.0518 37.8762 78.0869 34.8747 80.7246C26.0752 88.4596 17.1812 96.3461 8.5378 104.015C8.44977 83.6613 8.3851 61.1219 8.41941 38.1236ZM9.42855 112.187C11.1115 110.768 12.791 109.343 14.4672 107.914C17.6351 105.221 20.9104 102.437 24.167 99.7449C27.654 96.8615 31.2588 93.9645 34.7452 91.1649C36.1809 90.0105 37.6227 88.8496 39.0705 87.6829C41.0059 89.2507 42.9263 90.8055 44.8315 92.3453C49.8041 96.3656 54.5016 100.162 59.2606 104.078C63.0324 107.183 65.3229 107.068 68.6895 103.614C69.8178 102.455 70.9279 101.278 72.0374 100.104C73.4899 98.5626 74.9917 96.9694 76.5096 95.4517C87.9766 83.9902 99.6584 72.3598 110.956 61.1121L115.882 56.2077C116.358 55.7332 116.87 55.2769 117.281 54.9077L117.319 54.8739C119.423 56.5275 121.513 58.1743 123.587 59.814C129.789 64.7125 135.648 69.3399 141.727 73.949C143.267 75.0202 144.957 75.8548 146.742 76.4255C146.704 88.639 146.748 100.85 146.794 112.792C146.808 116.425 146.821 120.056 146.833 123.687C146.86 132.487 139.803 142.122 131.42 144.725C125.147 146.629 118.597 147.445 112.051 147.134C103.139 146.767 94.0774 146.336 85.3174 145.92C81.6705 145.746 78.023 145.573 74.3748 145.4H74.3444L64.495 145.395C59.1904 145.392 53.8862 145.391 48.5826 145.39C42.8268 145.39 37.071 145.394 31.3152 145.403H31.2465C24.7166 145.403 19.8198 143.755 15.8408 140.222C10.9608 135.886 8.66797 129.947 8.6246 121.53C8.60972 118.709 8.59548 115.822 8.58123 112.885C8.8667 112.657 9.15216 112.42 9.42855 112.187Z" fill="#552204"/>
</svg>
