<svg width="149" height="123" viewBox="0 0 149 123" fill="none" xmlns="http://www.w3.org/2000/svg">
<path d="M64.5178 97.6666C63.3962 100.079 64.8413 106.298 78.1169 105.271C91.3925 104.244 95.0878 95.1951 91.03 95.4106C85.5122 95.7038 81.553 100.107 73.1145 97.7321C70.1245 96.8905 65.5632 95.4177 64.5178 97.6666Z" stroke="black" stroke-width="3" stroke-linecap="round" stroke-linejoin="round"/>
<path d="M82.6531 77.2811C83.2205 78.0846 84.9415 83.4341 77.6168 84.5128C71.4112 85.4268 71.303 80.3166 71.303 78.5311" stroke="black" stroke-width="3" stroke-linecap="round" stroke-linejoin="round"/>
<path d="M44.749 46.5986C46.2486 47.5409 50.1987 48.5456 54.7747 48.012C58.7725 47.5459 60.5005 46.3227 61.6573 44.8005" stroke="black" stroke-width="3" stroke-linecap="round" stroke-linejoin="round"/>
<path d="M91.0244 43.6804C92.9474 45.7901 96.3044 46.2055 98.4087 46.305C100.513 46.4045 102.894 46.3053 104.785 45.7901" stroke="black" stroke-width="3" stroke-linecap="round" stroke-linejoin="round"/>
<path d="M28.5879 48.1604L39.8756 55.9571" stroke="black" stroke-width="3" stroke-linecap="round" stroke-linejoin="round"/>
<path d="M67.0601 60.2472C71.6356 56.5537 82.7417 56.5464 85.2623 58.1912" stroke="black" stroke-width="3" stroke-linecap="round" stroke-linejoin="round"/>
<path d="M110.353 55.5942C112.617 54.1129 119.769 46.8788 122.032 44.8279" stroke="black" stroke-width="3" stroke-linecap="round" stroke-linejoin="round"/>
<path d="M40.2889 56.6194C39.9865 60.7656 38.7741 74.1731 40.2877 76.4072C42.603 79.8245 65.0004 75.3582 66.5244 74.6791C67.9634 74.0379 68.2958 64.8517 66.0185 57.4889C64.1058 51.3047 47.5792 53.9339 40.82 55.4542" stroke="black" stroke-width="3" stroke-linecap="round" stroke-linejoin="round"/>
<path d="M41.5203 62.582L43.9854 56.6087C43.2805 60.2133 41.3086 68.9754 41.5201 70.0402C41.7845 71.3711 46.5633 55.8601 47.092 55.9433C47.6208 56.0265 43.1124 73.8277 43.1124 74.9091C43.1124 75.9904 48.4139 55.9433 49.207 55.9433C50.0001 55.9433 45.4743 73.4078 46.0031 74.4059C46.5318 75.4041 50.8593 56.4425 51.5203 55.4443C52.1812 54.4461 47.753 75.8241 48.48 75.7409C49.207 75.6577 53.9657 52.2833 54.6266 54.446C55.2876 56.6087 50.3306 78.1532 52.049 76.3232C53.7674 74.4931 56.8054 52.7824 58.0612 54.446C59.317 56.1096 54.8249 76.9055 55.9485 76.3232C57.0721 75.7409 59.9802 56.6087 60.5089 56.6087C61.0376 56.6087 59.7158 75.7409 60.1123 75.7409C60.5089 75.7409 63.0141 60.0929 63.3446 58.762C63.6751 57.4311 64.2779 58.2565 64.2118 62.582C64.1589 66.0424 63.1306 72.6631 62.8222 74.9091L65.4659 66.4244" stroke="black" stroke-width="3" stroke-linecap="round" stroke-linejoin="round"/>
<path d="M87.1284 63.7991L89.64 56.063C88.9351 59.6677 87.5782 67.1431 87.7897 68.2078C88.054 69.5388 92.2179 55.3145 92.7466 55.3976C93.2754 55.4808 89.64 70.1211 89.64 71.2025C89.64 72.2839 94.0685 55.3976 94.8616 55.3976C95.6547 55.3976 91.6891 72.0343 92.2179 73.0325C92.7466 74.0307 96.5139 55.8968 97.1748 54.8986C97.8358 53.9004 93.4076 75.2784 94.1346 75.1952C94.8616 75.1121 99.6203 51.7377 100.281 53.9004C100.942 56.063 95.7358 77.0253 97.4542 75.1952C99.1726 73.3652 102.46 52.2368 103.716 53.9004C104.972 55.564 100.479 76.3598 101.603 75.7775C102.727 75.1952 105.635 56.063 106.163 56.063C106.692 56.063 105.37 75.1952 105.767 75.1952C106.163 75.1952 108.146 60.9709 108.477 59.64C108.807 58.3091 109.534 58.9745 109.468 63.3C109.415 66.7605 108.785 72.1175 108.477 74.3634L111.12 65.8787" stroke="black" stroke-width="3" stroke-linecap="round" stroke-linejoin="round"/>
<path d="M86.8627 54.6429C92.1915 51.6481 106.607 53.6346 109.306 54.6428C112.679 55.903 112.503 71.0804 112.196 74.8609C111.89 78.6413 92.5599 75.0709 88.4207 74.8609C85.1094 74.6928 85.7479 60.6042 86.5146 55.1437" stroke="black" stroke-width="3" stroke-linecap="round" stroke-linejoin="round"/>
<path d="M32.2291 37.5204C26.8114 47.3792 23.1484 72.0645 32.2291 90.6359C42.5395 115.874 63.69 123.066 85.2937 120.517C106.897 117.968 122.278 95.6359 125.967 77.8978C129.656 60.1597 126.818 41.673 119.358 30.2402" stroke="black" stroke-width="3" stroke-linecap="round" stroke-linejoin="round"/>
<path d="M124.003 37.3823C126.307 36.0902 128.949 35.4804 130.59 39.0724C132.231 42.6643 133.419 47.278 132.061 54.3648C131.224 58.7354 129.143 59.7574 127.393 59.7574" stroke="black" stroke-width="3" stroke-linecap="round" stroke-linejoin="round"/>
<path d="M27.6939 44.3846C23.921 42.2115 19.5688 46.9055 20.7874 59.3552C21.6432 68.098 24.3234 70.0565 26.543 69.6574" stroke="black" stroke-width="3" stroke-linecap="round" stroke-linejoin="round"/>
<path d="M78.2796 23.5468C67.3189 30.7819 45.5821 41.9074 18.153 47.3157" stroke="#FF004D" stroke-width="3" stroke-linecap="round" stroke-linejoin="round"/>
<path d="M78.7434 5.7053C85.4309 4.37233 94.7543 7.3175 100.695 12.3446C112.671 22.4783 132.94 23.6179 143.554 27.7385" stroke="#FF004D" stroke-width="3" stroke-linecap="round" stroke-linejoin="round"/>
<path d="M80.7847 10.2966C92.8218 11.9482 110.376 31.2614 147.3 37.9676" stroke="#FF004D" stroke-width="3" stroke-linecap="round" stroke-linejoin="round"/>
<path d="M74.6321 5.86083C62.1522 2.35107 52.9578 6.74179 40.2687 17.8462" stroke="#FF004D" stroke-width="3" stroke-linecap="round" stroke-linejoin="round"/>
<path d="M19.243 26.1404C26.2171 22.4356 34.7371 20.0534 41.1643 11.6702" stroke="#FF004D" stroke-width="3" stroke-linecap="round" stroke-linejoin="round"/>
<path d="M57.3925 15.3473C44.4652 19.7472 21.6535 30.6252 10.5367 33.6302" stroke="#FF004D" stroke-width="3" stroke-linecap="round" stroke-linejoin="round"/>
<path d="M76.4216 13.764C69.5689 20.759 56.2288 24.3649 43.7049 29.8073" stroke="#FF004D" stroke-width="3" stroke-linecap="round" stroke-linejoin="round"/>
<path d="M76.2738 19.8958C58.7818 32.694 32.9097 31.3801 12.1433 46.7249" stroke="#FF004D" stroke-width="3" stroke-linecap="round" stroke-linejoin="round"/>
<path d="M2.39787 46.3523C19.4644 32.1658 56.5839 23.8727 68.5262 12.8119" stroke="#FF004D" stroke-width="3" stroke-linecap="round" stroke-linejoin="round"/>
<path d="M79.6519 20.1692C85.7539 27.8983 95.9713 40.7715 102.301 45.694C109.863 51.5758 114.764 54.9135 122.814 53.9156" stroke="#FF004D" stroke-width="3" stroke-linecap="round" stroke-linejoin="round"/>
<path d="M79.8003 14.0371C88.5978 19.1752 98.7327 33.0677 117.266 35.3987C130.05 37.0066 136.606 42.2757 141.652 47.1621" stroke="#FF004D" stroke-width="3" stroke-linecap="round" stroke-linejoin="round"/>
<path d="M84.5757 21.7656C90.1749 27.2477 96.8843 33.7136 105.387 38.0623C115.305 43.135 124.389 45.9012 131.858 45.4646" stroke="#FF004D" stroke-width="3" stroke-linecap="round" stroke-linejoin="round"/>
<path d="M42.4269 45.8968C38.4483 47.0126 29.2062 50.485 24.0666 55.4486" stroke="#FF004D" stroke-width="3" stroke-linecap="round" stroke-linejoin="round"/>
<path d="M51.7045 13.3246C58.2922 11.0379 69.8475 8.02476 76.6563 9.98192" stroke="#FF004D" stroke-width="3" stroke-linecap="round" stroke-linejoin="round"/>
<path d="M102.466 40.032C111.81 49.8484 126.271 46.177 131.468 57.8946" stroke="#FF004D" stroke-width="3" stroke-linecap="round" stroke-linejoin="round"/>
</svg>
