<svg width="43" height="42" viewBox="0 0 43 42" fill="none" xmlns="http://www.w3.org/2000/svg">
<path d="M42.9541 0.918105C42.9031 0.765566 42.8198 0.626048 42.7099 0.509297C42.6 0.392548 42.4659 0.301382 42.3174 0.24219C42.0656 0.136137 41.7969 0.0764705 41.5241 0.0659649L41.1726 0.0526864C40.3301 0.0202367 39.4594 -0.0129609 38.6009 0.00510764C34.5862 0.0919468 31.5079 2.03854 29.4515 5.79053C28.9189 6.72998 28.6528 7.79865 28.6823 8.8799C28.6956 9.2693 28.5489 9.47285 28.232 9.75918C27.2683 10.6302 26.2722 11.531 25.3403 12.4695C24.4188 13.398 23.4939 14.3534 22.5993 15.2773C21.3436 16.5742 20.0452 17.9153 18.738 19.2015C14.6573 23.2159 10.4895 27.2782 6.45891 31.207C4.88531 32.7406 3.31208 34.2746 1.73923 35.8091C0.490625 37.028 -0.0605099 38.2657 0.00524444 39.7044C0.00856238 40.1364 0.142319 40.5573 0.388735 40.9111C0.635151 41.2651 0.982572 41.535 1.38498 41.6856C1.84835 41.8905 2.34858 41.9974 2.85469 42C3.50769 41.9941 4.14805 41.818 4.71321 41.4887C5.96529 40.7815 7.27595 39.997 8.32948 38.874C10.0893 36.998 11.933 35.0759 13.8093 33.1584C15.4665 31.4653 17.1706 29.7617 18.8187 28.1141C23.3375 23.597 28.0102 18.9255 32.2277 13.9583C32.6803 13.4249 33.062 13.0716 33.8529 13.3854L33.9078 13.407L33.964 13.3932C34.1335 13.3517 34.3162 13.3145 34.5065 13.2756C34.9927 13.1894 35.4705 13.0617 35.9352 12.8937C36.8048 12.5734 37.5875 12.0515 38.2196 11.3702C38.8518 10.689 39.3158 9.86751 39.574 8.97227C39.9365 7.81072 40.1953 6.64584 40.4004 5.65963C40.7389 4.03438 41.3124 3.05112 42.3181 2.3717C42.5205 2.23162 42.6918 2.05036 42.8204 1.8396C42.9079 1.7051 42.9654 1.55294 42.9885 1.39376C43.0116 1.23458 42.9999 1.07223 42.9541 0.918105ZM2.26345 39.5301C2.21418 39.4675 2.17973 39.3943 2.16266 39.3163C2.14559 39.2383 2.14634 39.1573 2.16489 39.0797C2.17659 38.7921 2.24805 38.5102 2.37465 38.2523C2.50125 37.9943 2.68017 37.7659 2.89989 37.5819C3.82888 36.7677 4.71484 35.877 5.57185 35.0156C5.94421 34.6415 6.31659 34.2674 6.69317 33.8981C11.522 29.1649 16.3516 24.4326 21.182 19.7014C21.2282 19.6595 21.2767 19.6203 21.3275 19.5839L21.3663 19.5546L22.4814 20.9793C22.4338 21.0313 22.3881 21.0816 22.3438 21.1306C22.1914 21.2984 22.0542 21.4498 21.9116 21.5956L21.3267 22.1939C17.037 26.5829 12.746 30.971 8.45385 35.3583L8.31908 35.4957C7.1388 36.7026 5.9182 37.9506 4.4194 38.7919C3.85848 39.1066 3.26511 39.359 2.64988 39.5445C2.58845 39.5711 2.52191 39.5836 2.45505 39.5812C2.3882 39.5786 2.32276 39.5613 2.26345 39.5301ZM39.6647 2.20966C38.7919 3.33765 38.4487 4.60649 38.1159 5.83828C38.0212 6.18859 37.9234 6.55018 37.8155 6.8992C37.6329 7.52343 37.395 8.1298 37.1043 8.71102C36.379 10.108 34.945 10.7895 33.3631 10.4897C32.9255 10.4067 32.4896 10.3134 32.081 10.2247C31.1948 10.0328 30.8474 9.57703 30.919 8.70071C30.9446 8.28076 31.0404 7.86816 31.202 7.48014C32.5815 4.37807 34.6707 2.66026 37.5888 2.22883C37.8622 2.19102 38.1382 2.17352 38.4144 2.17649C38.6491 2.17649 38.8934 2.18493 39.1539 2.19489C39.3202 2.19987 39.4901 2.2056 39.6651 2.20966H39.6647ZM30.8155 12.3584L24.4271 19.0529L23.1911 17.6516L29.3398 11.1088L30.8155 12.3584Z" fill="#BBBBBB"/>
</svg>
