<svg width="56" height="66" viewBox="0 0 56 66" fill="none" xmlns="http://www.w3.org/2000/svg">
<path d="M4.98195 15.0048C3.9535 14.8394 3.10295 14.7414 2.27065 14.5599C0.780583 14.2351 0.0185744 13.5125 0.000328733 12.4919C-0.0185252 11.4202 0.773857 10.5036 2.31653 10.3074C4.5197 10.0273 6.75033 9.94887 8.97174 9.83726C10.1729 9.77643 11.3795 9.82661 12.7701 9.82661C12.5685 8.89662 12.4241 8.17218 12.2532 7.45446C11.8931 6.01661 12.0845 4.49599 12.7897 3.19224C13.7324 1.38273 15.1689 0.280325 17.2188 0.211898C20.9626 0.0870054 24.7079 0.0166619 28.4548 0.000847709C30.9351 -0.0110129 33.4162 0.104525 35.8967 0.163525C36.251 0.17204 36.6065 0.170523 36.9595 0.196677C39.4896 0.383406 41.1086 1.68229 41.6903 4.16146C41.9537 5.28396 41.9874 6.46184 42.1054 7.61689C42.1662 8.21296 42.1839 8.81326 42.2271 9.50239C42.6352 9.56398 43.0466 9.60153 43.4593 9.61492C46.1922 9.53767 48.9242 9.42393 51.6574 9.36432C52.3613 9.334 53.0662 9.40486 53.7501 9.5748C54.2993 9.70326 54.7926 10.005 55.1569 10.4355C55.5215 10.866 55.7377 11.4023 55.7736 11.9651C55.8682 12.5455 55.7812 13.1408 55.5251 13.6699C55.2688 14.1991 54.8555 14.6363 54.3416 14.9221C53.9174 15.1806 53.4521 15.3716 52.9245 15.6337C52.9245 17.1075 52.8743 18.5691 52.9327 20.0261C53.2797 28.6713 53.7568 37.3153 53.4354 45.9705C53.3192 49.1005 53.1073 52.2402 52.6794 55.3398C52.4419 57.0614 51.7483 58.7395 51.117 60.3821C50.8184 61.1697 50.3467 61.8802 49.7367 62.461C49.127 63.0422 48.3941 63.4786 47.5931 63.7386C46.1131 64.2462 44.5935 64.6303 43.0503 64.8864C41.6435 65.0667 40.2279 65.1668 38.8103 65.1862C33.2985 65.4599 27.7886 65.7847 22.2738 65.9632C19.9489 66.0621 17.6199 65.9614 15.3122 65.6628C9.37531 64.8274 6.14849 61.5557 5.20884 55.6138C4.93044 53.9679 4.77562 52.3032 4.74573 50.6342C4.68287 41.0718 4.66013 31.5091 4.67758 21.9463C4.68062 19.6764 4.87126 17.4058 4.98195 15.0048ZM9.52796 15.3743C9.80165 20.0945 10.0044 43.2042 10.5512 50.1628C10.7123 52.2147 11.1849 54.2471 11.5894 56.2737C11.9926 58.2937 13.3577 59.4685 15.3145 59.7848C17.504 60.1385 19.731 60.4794 21.9387 60.463C27.4553 60.4219 32.9725 60.2318 38.4846 59.9825C40.595 59.887 42.6948 59.4904 44.7924 59.1826C45.1747 59.1346 45.5323 58.967 45.8136 58.7039C46.0952 58.4406 46.2861 58.0951 46.3597 57.7168C46.6501 56.5432 47.0257 55.3751 47.1644 54.1814C47.9608 47.3256 47.7969 40.4444 47.5864 33.5655C47.4207 28.1562 47.2279 22.7477 47.0451 17.3389C47.0284 16.8523 46.995 16.3639 46.9725 15.9385C34.067 15.7502 22.542 15.5644 9.52884 15.3743H9.52796ZM17.6472 9.71771C24.0086 9.94793 30.2438 9.93789 36.5192 9.64502V5.43909C30.1744 5.22621 23.9471 4.99751 17.6472 5.61457V9.71771Z" fill="#FFF6DF"/>
<path d="M38.21 36.3872C38.1437 33.1207 37.9883 29.8101 37.8378 26.608L37.8348 26.5472C37.7807 25.3863 37.7277 24.2254 37.6754 23.0645C37.6523 22.6588 37.576 22.2579 37.4489 21.872C37.17 20.99 36.5409 20.525 35.7265 20.602C35.2332 20.6427 34.3836 20.8966 34.2325 22.1356C34.2081 22.3585 34.196 22.5826 34.196 22.8068C34.1473 26.8334 33.7797 40.1452 33.776 40.2808C33.7073 43.4811 33.6361 46.789 33.5875 50.0704C33.5622 50.9742 33.6437 51.8778 33.8308 52.7622C33.9211 53.2305 34.1738 53.652 34.5442 53.9525C34.9149 54.2529 35.3795 54.4129 35.8563 54.4044C35.9123 54.4044 35.9689 54.4023 36.0257 54.3983C36.4968 54.3852 36.9477 54.2049 37.2984 53.8901C37.6487 53.5751 37.8758 53.146 37.9391 52.6788C38.106 51.7069 38.1976 50.7233 38.2128 49.7371L38.2292 47.4738C38.256 43.8421 38.2851 40.0871 38.21 36.3872Z" fill="#FFF6DF"/>
<path d="M21.9356 20.8152H21.9341C21.6307 20.814 21.3315 20.8866 21.0624 21.0267C20.7932 21.1669 20.5621 21.3704 20.389 21.6196C20.0958 22.1442 19.9304 22.7304 19.9061 23.3309C19.8544 24.1444 19.8002 24.9576 19.7449 25.7905C19.5548 28.6556 19.3578 31.6185 19.2733 34.5426C19.1516 38.7011 19.1106 42.9269 19.0696 47.0136C19.0572 48.2645 19.044 49.5153 19.0298 50.7661C19.0291 51.2783 19.1006 51.7877 19.2426 52.2797C19.5743 53.4555 20.3726 54.1859 21.3256 54.1859H21.3561C22.3544 54.1686 23.1523 53.3803 23.3879 52.1772C23.5041 51.5404 23.5533 50.8936 23.5344 50.2467C23.4814 46.9257 23.4165 43.6057 23.3551 40.4513L23.2994 37.5993L23.3631 34.212C23.4325 30.5429 23.4978 27.0745 23.5504 23.589C23.5816 23.0046 23.495 22.4198 23.2959 21.8695C23.1737 21.5952 22.9856 21.3553 22.7483 21.1714C22.5109 20.9874 22.2317 20.8651 21.9356 20.8152Z" fill="#FFF6DF"/>
</svg>
