<svg width="429" height="411" viewBox="0 0 429 411" fill="none" xmlns="http://www.w3.org/2000/svg">
<path d="M144.342 165C142.704 165 141.248 164.402 139.974 163.206C138.7 161.984 137.608 160.333 136.698 158.253C136.178 160.307 135.346 161.841 134.202 162.855C133.058 163.843 131.797 164.337 130.419 164.337C128.469 164.337 127.026 162.66 126.09 159.306C125.18 155.952 124.725 151.935 124.725 147.255C124.725 145.903 124.829 144.837 125.037 144.057C125.245 143.251 125.635 142.848 126.207 142.848C126.441 142.848 126.623 143.29 126.753 144.174C126.909 145.058 126.987 146.176 126.987 147.528C126.987 157.252 128.235 162.114 130.731 162.114C131.667 162.114 132.46 161.854 133.11 161.334C133.76 160.814 134.371 159.969 134.943 158.799C135.229 158.097 135.372 156.94 135.372 155.328L135.333 152.871C135.463 152.637 135.697 152.52 136.035 152.52C136.269 152.52 136.49 152.585 136.698 152.715C136.932 152.819 137.088 153.001 137.166 153.261C137.348 154.639 137.712 156.043 138.258 157.473C138.83 158.877 139.584 160.073 140.52 161.061C141.482 162.023 142.613 162.504 143.913 162.504C145.707 162.504 146.981 162.114 147.735 161.334C148.489 160.528 148.866 159.449 148.866 158.097C148.866 155.159 148.658 152.806 148.242 151.038C147.852 149.244 147.332 147.554 146.682 145.968C146.396 145.214 146.188 144.655 146.058 144.291C145.954 143.927 145.902 143.55 145.902 143.16C146.084 142.744 146.331 142.536 146.643 142.536C147.215 142.536 147.839 143.225 148.515 144.603C149.217 145.981 149.815 147.84 150.309 150.18C150.803 152.494 151.05 154.99 151.05 157.668C151.05 159.15 150.738 160.45 150.114 161.568C149.516 162.66 148.697 163.505 147.657 164.103C146.643 164.701 145.538 165 144.342 165ZM162.999 165C161.335 165 159.801 164.675 158.397 164.025C156.993 163.375 155.875 162.452 155.043 161.256C154.211 160.06 153.795 158.682 153.795 157.122C153.795 155.38 154.12 153.755 154.77 152.247C155.42 150.713 156.369 149.491 157.617 148.581C158.891 147.645 160.373 147.177 162.063 147.177C163.831 147.177 165.17 147.749 166.08 148.893C166.99 150.011 167.419 151.428 167.367 153.144C167.367 154.678 166.756 155.848 165.534 156.654C164.338 157.46 162.804 157.863 160.932 157.863C160.646 157.863 160.217 157.837 159.645 157.785C158.709 157.681 158.046 157.538 157.656 157.356C157.266 157.174 157.071 156.81 157.071 156.264C157.071 156.082 157.123 155.952 157.227 155.874C157.331 155.77 157.539 155.718 157.851 155.718C158.189 155.718 158.787 155.796 159.645 155.952C160.477 156.108 161.218 156.186 161.868 156.186C164.26 156.186 165.456 155.146 165.456 153.066C165.456 151.818 165.222 150.83 164.754 150.102C164.312 149.374 163.519 149.01 162.375 149.01C161.127 149.01 160.009 149.348 159.021 150.024C158.033 150.674 157.266 151.532 156.72 152.598C156.2 153.664 155.94 154.795 155.94 155.991C155.94 158.045 156.512 159.735 157.656 161.061C158.8 162.361 160.568 163.011 162.96 163.011C163.246 163.011 163.727 162.985 164.403 162.933C164.689 162.907 165.04 162.829 165.456 162.699C165.872 162.569 166.171 162.478 166.353 162.426C167.471 162.036 168.29 161.841 168.81 161.841C169.2 161.841 169.499 161.945 169.707 162.153C169.057 163.141 168.082 163.869 166.782 164.337C165.508 164.779 164.247 165 162.999 165ZM189.489 165C186.785 165 184.432 164.532 182.43 163.596C180.454 162.634 179.466 160.957 179.466 158.565C179.466 157.707 179.726 156.875 180.246 156.069C180.766 155.263 181.533 154.613 182.547 154.119C183.561 153.599 184.796 153.339 186.252 153.339C187.37 153.339 188.319 153.391 189.099 153.495C189.879 153.599 190.776 153.885 191.79 154.353C192.804 154.821 193.857 155.562 194.949 156.576C194.533 154.782 193.909 153.209 193.077 151.857C192.245 150.505 191.309 149.465 190.269 148.737C189.255 147.983 188.254 147.606 187.266 147.606C186.798 147.606 186.356 147.697 185.94 147.879C185.55 148.035 185.069 148.269 184.497 148.581C183.847 148.997 183.366 149.205 183.054 149.205C182.924 149.205 182.807 149.166 182.703 149.088C182.625 148.984 182.586 148.867 182.586 148.737C182.586 147.697 183.041 146.891 183.951 146.319C184.887 145.747 186.018 145.487 187.344 145.539C189.164 145.643 190.828 146.423 192.336 147.879C193.844 149.309 195.027 151.09 195.885 153.222C196.769 155.354 197.211 157.447 197.211 159.501C197.211 159.839 197.185 160.32 197.133 160.944L195.885 160.866C194.897 158.864 193.623 157.447 192.063 156.615C190.529 155.757 188.982 155.328 187.422 155.328C185.42 155.328 183.99 155.627 183.132 156.225C182.274 156.823 181.845 157.694 181.845 158.838C181.845 160.034 182.443 160.996 183.639 161.724C184.835 162.452 186.369 162.816 188.241 162.816C189.281 162.816 190.113 162.764 190.737 162.66C191.361 162.53 192.011 162.361 192.687 162.153C193.233 161.971 193.714 161.841 194.13 161.763C194.546 161.685 195.079 161.646 195.729 161.646C196.457 161.646 196.912 161.698 197.094 161.802C197.302 161.906 197.406 162.14 197.406 162.504C197.406 162.764 196.873 163.089 195.807 163.479C194.741 163.869 193.545 164.22 192.219 164.532C190.893 164.844 189.983 165 189.489 165ZM203.18 165C202.114 162.92 201.269 160.476 200.645 157.668C200.047 154.86 199.748 152.429 199.748 150.375C199.748 149.569 199.93 149.049 200.294 148.815C200.502 148.685 200.658 148.62 200.762 148.62C200.944 148.62 201.074 148.763 201.152 149.049C201.256 149.335 201.36 149.855 201.464 150.609L201.659 152.013C201.945 150.609 202.491 149.504 203.297 148.698C204.129 147.866 205.143 147.45 206.339 147.45C207.665 147.45 208.653 147.71 209.303 148.23C209.953 148.724 210.278 149.556 210.278 150.726C208.978 150.102 207.795 149.79 206.729 149.79C205.715 149.79 204.844 150.063 204.116 150.609C203.388 151.155 202.881 151.961 202.595 153.027C202.361 153.755 202.244 154.444 202.244 155.094C202.244 155.796 202.335 156.459 202.517 157.083C202.725 157.681 203.037 158.422 203.453 159.306C203.843 160.216 204.142 160.996 204.35 161.646C204.584 162.296 204.714 162.998 204.74 163.752C204.74 164.194 204.584 164.519 204.272 164.727C203.96 164.909 203.596 165 203.18 165ZM220.245 165C218.581 165 217.047 164.675 215.643 164.025C214.239 163.375 213.121 162.452 212.289 161.256C211.457 160.06 211.041 158.682 211.041 157.122C211.041 155.38 211.366 153.755 212.016 152.247C212.666 150.713 213.615 149.491 214.863 148.581C216.137 147.645 217.619 147.177 219.309 147.177C221.077 147.177 222.416 147.749 223.326 148.893C224.236 150.011 224.665 151.428 224.613 153.144C224.613 154.678 224.002 155.848 222.78 156.654C221.584 157.46 220.05 157.863 218.178 157.863C217.892 157.863 217.463 157.837 216.891 157.785C215.955 157.681 215.292 157.538 214.902 157.356C214.512 157.174 214.317 156.81 214.317 156.264C214.317 156.082 214.369 155.952 214.473 155.874C214.577 155.77 214.785 155.718 215.097 155.718C215.435 155.718 216.033 155.796 216.891 155.952C217.723 156.108 218.464 156.186 219.114 156.186C221.506 156.186 222.702 155.146 222.702 153.066C222.702 151.818 222.468 150.83 222 150.102C221.558 149.374 220.765 149.01 219.621 149.01C218.373 149.01 217.255 149.348 216.267 150.024C215.279 150.674 214.512 151.532 213.966 152.598C213.446 153.664 213.186 154.795 213.186 155.991C213.186 158.045 213.758 159.735 214.902 161.061C216.046 162.361 217.814 163.011 220.206 163.011C220.492 163.011 220.973 162.985 221.649 162.933C221.935 162.907 222.286 162.829 222.702 162.699C223.118 162.569 223.417 162.478 223.599 162.426C224.717 162.036 225.536 161.841 226.056 161.841C226.446 161.841 226.745 161.945 226.953 162.153C226.303 163.141 225.328 163.869 224.028 164.337C222.754 164.779 221.493 165 220.245 165ZM246.735 165C244.031 165 241.678 164.532 239.676 163.596C237.7 162.634 236.712 160.957 236.712 158.565C236.712 157.707 236.972 156.875 237.492 156.069C238.012 155.263 238.779 154.613 239.793 154.119C240.807 153.599 242.042 153.339 243.498 153.339C244.616 153.339 245.565 153.391 246.345 153.495C247.125 153.599 248.022 153.885 249.036 154.353C250.05 154.821 251.103 155.562 252.195 156.576C251.779 154.782 251.155 153.209 250.323 151.857C249.491 150.505 248.555 149.465 247.515 148.737C246.501 147.983 245.5 147.606 244.512 147.606C244.044 147.606 243.602 147.697 243.186 147.879C242.796 148.035 242.315 148.269 241.743 148.581C241.093 148.997 240.612 149.205 240.3 149.205C240.17 149.205 240.053 149.166 239.949 149.088C239.871 148.984 239.832 148.867 239.832 148.737C239.832 147.697 240.287 146.891 241.197 146.319C242.133 145.747 243.264 145.487 244.59 145.539C246.41 145.643 248.074 146.423 249.582 147.879C251.09 149.309 252.273 151.09 253.131 153.222C254.015 155.354 254.457 157.447 254.457 159.501C254.457 159.839 254.431 160.32 254.379 160.944L253.131 160.866C252.143 158.864 250.869 157.447 249.309 156.615C247.775 155.757 246.228 155.328 244.668 155.328C242.666 155.328 241.236 155.627 240.378 156.225C239.52 156.823 239.091 157.694 239.091 158.838C239.091 160.034 239.689 160.996 240.885 161.724C242.081 162.452 243.615 162.816 245.487 162.816C246.527 162.816 247.359 162.764 247.983 162.66C248.607 162.53 249.257 162.361 249.933 162.153C250.479 161.971 250.96 161.841 251.376 161.763C251.792 161.685 252.325 161.646 252.975 161.646C253.703 161.646 254.158 161.698 254.34 161.802C254.548 161.906 254.652 162.14 254.652 162.504C254.652 162.764 254.119 163.089 253.053 163.479C251.987 163.869 250.791 164.22 249.465 164.532C248.139 164.844 247.229 165 246.735 165ZM259.139 164.727C258.567 161.893 258.125 158.539 257.813 154.665C257.527 150.765 257.384 146.995 257.384 143.355C257.384 141.535 257.423 139.923 257.501 138.519C257.501 138.181 257.761 138.012 258.281 138.012C258.697 138.012 258.957 138.116 259.061 138.324C259.191 138.532 259.256 138.857 259.256 139.299C259.256 143.511 259.334 147.112 259.49 150.102C259.646 153.066 259.854 156.264 260.114 159.696C260.27 161.906 260.374 163.401 260.426 164.181C260.452 164.597 260.231 164.805 259.763 164.805C259.607 164.805 259.399 164.779 259.139 164.727ZM264.91 164.727C264.338 161.893 263.896 158.539 263.584 154.665C263.298 150.765 263.155 146.995 263.155 143.355C263.155 141.535 263.194 139.923 263.272 138.519C263.272 138.181 263.532 138.012 264.052 138.012C264.468 138.012 264.728 138.116 264.832 138.324C264.962 138.532 265.027 138.857 265.027 139.299C265.027 143.511 265.105 147.112 265.261 150.102C265.417 153.066 265.625 156.264 265.885 159.696C266.041 161.906 266.145 163.401 266.197 164.181C266.223 164.597 266.002 164.805 265.534 164.805C265.378 164.805 265.17 164.779 264.91 164.727ZM286.71 165C285.046 165 283.512 164.675 282.108 164.025C280.704 163.375 279.586 162.452 278.754 161.256C277.922 160.06 277.506 158.682 277.506 157.122C277.506 155.38 277.831 153.755 278.481 152.247C279.131 150.713 280.08 149.491 281.328 148.581C282.602 147.645 284.084 147.177 285.774 147.177C287.542 147.177 288.881 147.749 289.791 148.893C290.701 150.011 291.13 151.428 291.078 153.144C291.078 154.678 290.467 155.848 289.245 156.654C288.049 157.46 286.515 157.863 284.643 157.863C284.357 157.863 283.928 157.837 283.356 157.785C282.42 157.681 281.757 157.538 281.367 157.356C280.977 157.174 280.782 156.81 280.782 156.264C280.782 156.082 280.834 155.952 280.938 155.874C281.042 155.77 281.25 155.718 281.562 155.718C281.9 155.718 282.498 155.796 283.356 155.952C284.188 156.108 284.929 156.186 285.579 156.186C287.971 156.186 289.167 155.146 289.167 153.066C289.167 151.818 288.933 150.83 288.465 150.102C288.023 149.374 287.23 149.01 286.086 149.01C284.838 149.01 283.72 149.348 282.732 150.024C281.744 150.674 280.977 151.532 280.431 152.598C279.911 153.664 279.651 154.795 279.651 155.991C279.651 158.045 280.223 159.735 281.367 161.061C282.511 162.361 284.279 163.011 286.671 163.011C286.957 163.011 287.438 162.985 288.114 162.933C288.4 162.907 288.751 162.829 289.167 162.699C289.583 162.569 289.882 162.478 290.064 162.426C291.182 162.036 292.001 161.841 292.521 161.841C292.911 161.841 293.21 161.945 293.418 162.153C292.768 163.141 291.793 163.869 290.493 164.337C289.219 164.779 287.958 165 286.71 165ZM304.23 165C301.526 165 299.173 164.532 297.171 163.596C295.195 162.634 294.207 160.957 294.207 158.565C294.207 157.707 294.467 156.875 294.987 156.069C295.507 155.263 296.274 154.613 297.288 154.119C298.302 153.599 299.537 153.339 300.993 153.339C302.111 153.339 303.06 153.391 303.84 153.495C304.62 153.599 305.517 153.885 306.531 154.353C307.545 154.821 308.598 155.562 309.69 156.576C309.274 154.782 308.65 153.209 307.818 151.857C306.986 150.505 306.05 149.465 305.01 148.737C303.996 147.983 302.995 147.606 302.007 147.606C301.539 147.606 301.097 147.697 300.681 147.879C300.291 148.035 299.81 148.269 299.238 148.581C298.588 148.997 298.107 149.205 297.795 149.205C297.665 149.205 297.548 149.166 297.444 149.088C297.366 148.984 297.327 148.867 297.327 148.737C297.327 147.697 297.782 146.891 298.692 146.319C299.628 145.747 300.759 145.487 302.085 145.539C303.905 145.643 305.569 146.423 307.077 147.879C308.585 149.309 309.768 151.09 310.626 153.222C311.51 155.354 311.952 157.447 311.952 159.501C311.952 159.839 311.926 160.32 311.874 160.944L310.626 160.866C309.638 158.864 308.364 157.447 306.804 156.615C305.27 155.757 303.723 155.328 302.163 155.328C300.161 155.328 298.731 155.627 297.873 156.225C297.015 156.823 296.586 157.694 296.586 158.838C296.586 160.034 297.184 160.996 298.38 161.724C299.576 162.452 301.11 162.816 302.982 162.816C304.022 162.816 304.854 162.764 305.478 162.66C306.102 162.53 306.752 162.361 307.428 162.153C307.974 161.971 308.455 161.841 308.871 161.763C309.287 161.685 309.82 161.646 310.47 161.646C311.198 161.646 311.653 161.698 311.835 161.802C312.043 161.906 312.147 162.14 312.147 162.504C312.147 162.764 311.614 163.089 310.548 163.479C309.482 163.869 308.286 164.22 306.96 164.532C305.634 164.844 304.724 165 304.23 165ZM317.92 165C316.854 162.92 316.009 160.476 315.385 157.668C314.787 154.86 314.488 152.429 314.488 150.375C314.488 149.569 314.67 149.049 315.034 148.815C315.242 148.685 315.398 148.62 315.502 148.62C315.684 148.62 315.814 148.763 315.892 149.049C315.996 149.335 316.1 149.855 316.204 150.609L316.399 152.013C316.685 150.609 317.231 149.504 318.037 148.698C318.869 147.866 319.883 147.45 321.079 147.45C322.405 147.45 323.393 147.71 324.043 148.23C324.693 148.724 325.018 149.556 325.018 150.726C323.718 150.102 322.535 149.79 321.469 149.79C320.455 149.79 319.584 150.063 318.856 150.609C318.128 151.155 317.621 151.961 317.335 153.027C317.101 153.755 316.984 154.444 316.984 155.094C316.984 155.796 317.075 156.459 317.257 157.083C317.465 157.681 317.777 158.422 318.193 159.306C318.583 160.216 318.882 160.996 319.09 161.646C319.324 162.296 319.454 162.998 319.48 163.752C319.48 164.194 319.324 164.519 319.012 164.727C318.7 164.909 318.336 165 317.92 165ZM325.977 160.398C326.341 160.112 326.692 159.969 327.03 159.969C327.342 159.969 327.641 160.06 327.927 160.242C328.239 160.424 328.551 160.658 328.863 160.944C329.175 161.204 329.422 161.399 329.604 161.529C330.202 161.997 331.021 162.361 332.061 162.621C333.101 162.881 334.206 163.011 335.376 163.011C336.702 163.011 337.885 162.764 338.925 162.27C339.991 161.75 340.524 161.061 340.524 160.203C340.524 159.423 340.238 158.812 339.666 158.37C339.094 157.902 338.405 157.564 337.599 157.356C336.793 157.148 335.727 156.953 334.401 156.771C332.607 156.563 331.177 156.303 330.111 155.991C329.071 155.679 328.239 155.172 327.615 154.47C326.991 153.742 326.679 152.728 326.679 151.428C326.679 150.024 327.342 148.984 328.668 148.308C329.994 147.606 331.515 147.255 333.231 147.255C334.791 147.255 336.117 147.593 337.209 148.269C338.327 148.919 338.899 149.855 338.925 151.077C338.977 151.779 338.873 152.338 338.613 152.754C338.353 153.144 338.041 153.339 337.677 153.339C337.469 153.339 337.287 153.261 337.131 153.105C337.001 152.949 336.936 152.741 336.936 152.481C336.936 152.065 337.079 151.61 337.365 151.116C337.235 150.492 336.806 150.024 336.078 149.712C335.376 149.4 334.531 149.244 333.543 149.244C332.087 149.244 330.93 149.517 330.072 150.063C329.214 150.583 328.785 151.207 328.785 151.935C328.785 152.715 329.097 153.313 329.721 153.729C330.345 154.145 331.099 154.444 331.983 154.626C332.893 154.782 334.18 154.938 335.844 155.094C337.222 155.276 338.34 155.497 339.198 155.757C340.082 156.017 340.823 156.524 341.421 157.278C342.019 158.006 342.318 159.059 342.318 160.437C342.318 161.867 341.655 162.998 340.329 163.83C339.003 164.636 337.417 165.039 335.571 165.039C333.205 165.039 331.086 164.636 329.214 163.83C327.368 163.024 326.289 161.88 325.977 160.398ZM347.341 165C346.873 165 346.457 164.792 346.093 164.376C345.755 163.934 345.482 163.427 345.274 162.855C345.092 162.257 345.001 161.75 345.001 161.334C345.001 160.502 345.118 159.813 345.352 159.267C345.612 158.695 345.911 158.292 346.249 158.058C346.587 157.798 346.899 157.668 347.185 157.668C348.095 157.668 348.823 158.11 349.369 158.994C349.915 159.852 350.188 160.775 350.188 161.763C350.188 162.153 350.032 162.608 349.72 163.128C349.434 163.648 349.07 164.09 348.628 164.454C348.186 164.818 347.757 165 347.341 165ZM165.818 222C165.168 222.13 164.713 221.818 164.453 221.064C164.193 220.284 164.05 219.14 164.024 217.632C163.972 215.422 163.894 213.576 163.79 212.094C163.712 210.586 163.556 209.234 163.322 208.038C160.904 209.182 158.512 210.235 156.146 211.197C153.806 212.133 152.636 212.588 152.636 212.562L152.714 220.869C152.714 221.259 152.48 221.506 152.012 221.61C151.388 221.74 150.972 221.389 150.764 220.557C150.582 219.699 150.452 218.36 150.374 216.54C150.322 214.902 150.244 213.745 150.14 213.069C149.412 213.433 148.788 213.602 148.268 213.576C148.164 213.368 148.112 212.939 148.112 212.289C148.32 212.211 148.567 212.12 148.853 212.016C149.165 211.912 149.386 211.795 149.516 211.665C149.672 211.509 149.75 211.288 149.75 211.002C149.75 209.702 149.62 207.7 149.36 204.996C149.074 202.552 148.931 200.537 148.931 198.951L148.97 197.157C149.048 196.975 149.139 196.858 149.243 196.806C149.373 196.754 149.542 196.728 149.75 196.728C150.192 196.728 150.413 196.871 150.413 197.157L152.012 210.885C152.74 210.703 153.949 210.235 155.639 209.481C157.329 208.727 159.929 207.505 163.439 205.815L163.595 197.157C163.595 196.143 163.972 195.636 164.726 195.636C165.038 195.636 165.246 195.753 165.35 195.987C165.48 196.221 165.519 196.611 165.467 197.157L165.428 203.904C165.428 206.192 165.558 209.169 165.818 212.835C165.896 213.563 165.961 214.265 166.013 214.941C166.091 215.591 166.156 216.215 166.208 216.813C166.364 218.425 166.468 219.452 166.52 219.894C166.598 220.31 166.715 220.687 166.871 221.025C166.741 221.545 166.39 221.87 165.818 222ZM177.676 222.039C176.142 222.039 174.751 221.701 173.503 221.025C172.281 220.323 171.319 219.361 170.617 218.139C169.941 216.891 169.603 215.474 169.603 213.888C169.603 211.288 170.552 209.351 172.45 208.077C174.374 206.803 176.727 206.166 179.509 206.166C180.783 206.166 181.966 206.478 183.058 207.102C184.176 207.726 185.073 208.623 185.749 209.793C186.425 210.963 186.763 212.315 186.763 213.849C186.763 215.513 186.334 216.969 185.476 218.217C184.618 219.439 183.487 220.388 182.083 221.064C180.705 221.714 179.236 222.039 177.676 222.039ZM177.247 219.816C179.665 219.816 181.498 219.27 182.746 218.178C183.994 217.086 184.618 215.487 184.618 213.381C184.618 211.951 184.124 210.716 183.136 209.676C182.174 208.636 180.822 208.116 179.08 208.116C177.91 208.116 176.727 208.337 175.531 208.779C174.335 209.221 173.347 209.884 172.567 210.768C171.787 211.652 171.397 212.718 171.397 213.966C171.397 215.006 171.657 215.981 172.177 216.891C172.697 217.775 173.399 218.49 174.283 219.036C175.193 219.556 176.181 219.816 177.247 219.816ZM206.4 221.805C204.944 221.805 203.761 221.532 202.851 220.986C201.967 220.414 201.343 219.53 200.979 218.334C200.199 219.686 199.302 220.7 198.288 221.376C197.274 222.026 196.182 222.351 195.012 222.351C192.984 222.351 191.424 221.623 190.332 220.167C189.24 218.711 188.694 216.358 188.694 213.108C188.694 211.574 188.85 210.274 189.162 209.208C189.5 208.142 190.059 207.167 190.839 206.283C191.203 206.413 191.424 206.595 191.502 206.829C191.606 207.037 191.658 207.349 191.658 207.765C191.658 208.181 191.606 208.597 191.502 209.013C191.424 209.429 191.372 209.676 191.346 209.754C191.164 210.534 191.021 211.223 190.917 211.821C190.839 212.393 190.8 213.108 190.8 213.966C190.8 215.838 191.151 217.372 191.853 218.568C192.581 219.738 193.621 220.323 194.973 220.323C196.507 220.323 197.703 219.829 198.561 218.841C199.445 217.827 199.887 216.566 199.887 215.058L199.614 211.08C199.614 210.924 199.718 210.768 199.926 210.612C200.16 210.456 200.42 210.378 200.706 210.378C201.07 210.378 201.317 210.625 201.447 211.119C201.577 211.613 201.694 212.393 201.798 213.459C201.954 214.785 202.123 215.877 202.305 216.735C202.513 217.567 202.903 218.308 203.475 218.958C204.047 219.582 204.879 219.894 205.971 219.894C207.297 219.894 208.259 219.53 208.857 218.802C209.455 218.048 209.754 217.073 209.754 215.877C209.754 214.811 209.546 213.693 209.13 212.523C208.74 211.327 208.259 210.352 207.687 209.598C207.661 209.364 207.778 209.169 208.038 209.013C208.324 208.857 208.61 208.818 208.896 208.896C209.364 209 209.793 209.416 210.183 210.144C210.599 210.872 210.924 211.782 211.158 212.874C211.418 213.966 211.548 215.058 211.548 216.15C211.548 217.788 211.132 219.14 210.3 220.206C209.494 221.272 208.194 221.805 206.4 221.805ZM232.462 222.039C229.42 222.039 227.054 221.35 225.364 219.972C223.7 218.568 222.868 216.41 222.868 213.498C222.868 212.016 223.232 210.612 223.96 209.286C224.714 207.934 225.715 206.855 226.963 206.049C228.237 205.217 229.602 204.801 231.058 204.801C232.54 204.801 233.801 205.126 234.841 205.776C235.881 206.4 236.401 207.31 236.401 208.506C236.401 209.338 236.245 209.936 235.933 210.3C235.647 210.638 235.322 210.807 234.958 210.807C234.958 209.559 234.62 208.545 233.944 207.765C233.268 206.985 232.306 206.595 231.058 206.595C229.81 206.595 228.731 206.933 227.821 207.609C226.911 208.259 226.209 209.13 225.715 210.222C225.247 211.288 225.013 212.406 225.013 213.576C225.013 216.046 225.845 217.723 227.509 218.607C229.199 219.491 231.422 219.933 234.178 219.933C235.114 219.933 236.336 219.881 237.844 219.777C237.896 219.777 238.013 219.829 238.195 219.933C238.377 220.037 238.52 220.102 238.624 220.128V220.362C238.624 221.116 237.961 221.584 236.635 221.766C235.309 221.948 233.918 222.039 232.462 222.039ZM249.44 222C246.736 222 244.383 221.532 242.381 220.596C240.405 219.634 239.417 217.957 239.417 215.565C239.417 214.707 239.677 213.875 240.197 213.069C240.717 212.263 241.484 211.613 242.498 211.119C243.512 210.599 244.747 210.339 246.203 210.339C247.321 210.339 248.27 210.391 249.05 210.495C249.83 210.599 250.727 210.885 251.741 211.353C252.755 211.821 253.808 212.562 254.9 213.576C254.484 211.782 253.86 210.209 253.028 208.857C252.196 207.505 251.26 206.465 250.22 205.737C249.206 204.983 248.205 204.606 247.217 204.606C246.749 204.606 246.307 204.697 245.891 204.879C245.501 205.035 245.02 205.269 244.448 205.581C243.798 205.997 243.317 206.205 243.005 206.205C242.875 206.205 242.758 206.166 242.654 206.088C242.576 205.984 242.537 205.867 242.537 205.737C242.537 204.697 242.992 203.891 243.902 203.319C244.838 202.747 245.969 202.487 247.295 202.539C249.115 202.643 250.779 203.423 252.287 204.879C253.795 206.309 254.978 208.09 255.836 210.222C256.72 212.354 257.162 214.447 257.162 216.501C257.162 216.839 257.136 217.32 257.084 217.944L255.836 217.866C254.848 215.864 253.574 214.447 252.014 213.615C250.48 212.757 248.933 212.328 247.373 212.328C245.371 212.328 243.941 212.627 243.083 213.225C242.225 213.823 241.796 214.694 241.796 215.838C241.796 217.034 242.394 217.996 243.59 218.724C244.786 219.452 246.32 219.816 248.192 219.816C249.232 219.816 250.064 219.764 250.688 219.66C251.312 219.53 251.962 219.361 252.638 219.153C253.184 218.971 253.665 218.841 254.081 218.763C254.497 218.685 255.03 218.646 255.68 218.646C256.408 218.646 256.863 218.698 257.045 218.802C257.253 218.906 257.357 219.14 257.357 219.504C257.357 219.764 256.824 220.089 255.758 220.479C254.692 220.869 253.496 221.22 252.17 221.532C250.844 221.844 249.934 222 249.44 222ZM263.404 222.156C263.04 222.26 262.832 222.312 262.78 222.312C262.572 222.312 262.351 222.208 262.117 222C261.259 220.726 260.635 218.503 260.245 215.331C259.881 212.159 259.699 209.429 259.699 207.141C259.699 206.777 259.959 206.595 260.479 206.595C261.259 206.595 261.649 207.024 261.649 207.882C261.649 208.116 261.636 208.311 261.61 208.467C261.844 207.921 262.286 207.362 262.936 206.79C263.586 206.218 264.34 205.737 265.198 205.347C266.056 204.957 266.927 204.762 267.811 204.762C270.593 204.762 272.621 205.997 273.895 208.467C275.169 210.911 275.806 213.953 275.806 217.593C275.806 218.841 275.676 219.842 275.416 220.596C275.156 221.324 274.805 221.688 274.363 221.688C273.895 221.688 273.661 221.545 273.661 221.259C273.843 219.881 273.934 218.529 273.934 217.203C273.934 213.849 273.349 211.314 272.179 209.598C271.009 207.856 269.462 206.985 267.538 206.985C266.602 206.985 265.692 207.219 264.808 207.687C263.95 208.155 263.248 208.805 262.702 209.637C262.182 210.469 261.922 211.418 261.922 212.484C261.922 213.68 261.987 214.72 262.117 215.604C262.247 216.488 262.455 217.554 262.741 218.802C263.053 220.024 263.274 221.142 263.404 222.156ZM304.438 221.805C302.982 221.805 301.799 221.532 300.889 220.986C300.005 220.414 299.381 219.53 299.017 218.334C298.237 219.686 297.34 220.7 296.326 221.376C295.312 222.026 294.22 222.351 293.05 222.351C291.022 222.351 289.462 221.623 288.37 220.167C287.278 218.711 286.732 216.358 286.732 213.108C286.732 211.574 286.888 210.274 287.2 209.208C287.538 208.142 288.097 207.167 288.877 206.283C289.241 206.413 289.462 206.595 289.54 206.829C289.644 207.037 289.696 207.349 289.696 207.765C289.696 208.181 289.644 208.597 289.54 209.013C289.462 209.429 289.41 209.676 289.384 209.754C289.202 210.534 289.059 211.223 288.955 211.821C288.877 212.393 288.838 213.108 288.838 213.966C288.838 215.838 289.189 217.372 289.891 218.568C290.619 219.738 291.659 220.323 293.011 220.323C294.545 220.323 295.741 219.829 296.599 218.841C297.483 217.827 297.925 216.566 297.925 215.058L297.652 211.08C297.652 210.924 297.756 210.768 297.964 210.612C298.198 210.456 298.458 210.378 298.744 210.378C299.108 210.378 299.355 210.625 299.485 211.119C299.615 211.613 299.732 212.393 299.836 213.459C299.992 214.785 300.161 215.877 300.343 216.735C300.551 217.567 300.941 218.308 301.513 218.958C302.085 219.582 302.917 219.894 304.009 219.894C305.335 219.894 306.297 219.53 306.895 218.802C307.493 218.048 307.792 217.073 307.792 215.877C307.792 214.811 307.584 213.693 307.168 212.523C306.778 211.327 306.297 210.352 305.725 209.598C305.699 209.364 305.816 209.169 306.076 209.013C306.362 208.857 306.648 208.818 306.934 208.896C307.402 209 307.831 209.416 308.221 210.144C308.637 210.872 308.962 211.782 309.196 212.874C309.456 213.966 309.586 215.058 309.586 216.15C309.586 217.788 309.17 219.14 308.338 220.206C307.532 221.272 306.232 221.805 304.438 221.805ZM321.14 222C319.476 222 317.942 221.675 316.538 221.025C315.134 220.375 314.016 219.452 313.184 218.256C312.352 217.06 311.936 215.682 311.936 214.122C311.936 212.38 312.261 210.755 312.911 209.247C313.561 207.713 314.51 206.491 315.758 205.581C317.032 204.645 318.514 204.177 320.204 204.177C321.972 204.177 323.311 204.749 324.221 205.893C325.131 207.011 325.56 208.428 325.508 210.144C325.508 211.678 324.897 212.848 323.675 213.654C322.479 214.46 320.945 214.863 319.073 214.863C318.787 214.863 318.358 214.837 317.786 214.785C316.85 214.681 316.187 214.538 315.797 214.356C315.407 214.174 315.212 213.81 315.212 213.264C315.212 213.082 315.264 212.952 315.368 212.874C315.472 212.77 315.68 212.718 315.992 212.718C316.33 212.718 316.928 212.796 317.786 212.952C318.618 213.108 319.359 213.186 320.009 213.186C322.401 213.186 323.597 212.146 323.597 210.066C323.597 208.818 323.363 207.83 322.895 207.102C322.453 206.374 321.66 206.01 320.516 206.01C319.268 206.01 318.15 206.348 317.162 207.024C316.174 207.674 315.407 208.532 314.861 209.598C314.341 210.664 314.081 211.795 314.081 212.991C314.081 215.045 314.653 216.735 315.797 218.061C316.941 219.361 318.709 220.011 321.101 220.011C321.387 220.011 321.868 219.985 322.544 219.933C322.83 219.907 323.181 219.829 323.597 219.699C324.013 219.569 324.312 219.478 324.494 219.426C325.612 219.036 326.431 218.841 326.951 218.841C327.341 218.841 327.64 218.945 327.848 219.153C327.198 220.141 326.223 220.869 324.923 221.337C323.649 221.779 322.388 222 321.14 222ZM205.963 278.922C205.833 278.948 205.69 278.454 205.534 277.44C205.404 276.426 205.222 274.684 204.988 272.214C204.624 268.158 204.208 264.44 203.74 261.06C203.298 257.68 202.739 254.755 202.063 252.285C202.011 252.077 202.089 251.895 202.297 251.739C202.505 251.583 202.791 251.505 203.155 251.505C203.337 251.505 203.48 251.518 203.584 251.544C204.234 253.312 204.689 254.872 204.949 256.224C205.235 257.576 205.495 259.24 205.729 261.216L205.924 262.737C207.484 261.801 208.914 261.333 210.214 261.333C212.58 261.333 214.257 262.412 215.245 264.57C216.259 266.702 216.766 269.744 216.766 273.696C216.766 275.204 216.675 276.478 216.493 277.518C216.311 278.532 216.09 279.039 215.83 279.039C215.492 279.039 215.115 278.792 214.699 278.298V277.011L214.738 272.76C214.738 271.954 214.712 270.953 214.66 269.757C214.582 267.729 214.166 266.195 213.412 265.155C212.684 264.115 211.423 263.595 209.629 263.595C208.433 263.595 207.315 264.037 206.275 264.921C206.275 265.909 206.314 266.923 206.392 267.963C206.496 269.003 206.613 270.017 206.743 271.005C206.925 272.383 207.055 273.605 207.133 274.671C207.237 275.711 207.289 276.868 207.289 278.142C207.133 278.454 206.951 278.662 206.743 278.766C206.561 278.87 206.301 278.922 205.963 278.922ZM228.606 279C226.942 279 225.408 278.675 224.004 278.025C222.6 277.375 221.482 276.452 220.65 275.256C219.818 274.06 219.402 272.682 219.402 271.122C219.402 269.38 219.727 267.755 220.377 266.247C221.027 264.713 221.976 263.491 223.224 262.581C224.498 261.645 225.98 261.177 227.67 261.177C229.438 261.177 230.777 261.749 231.687 262.893C232.597 264.011 233.026 265.428 232.974 267.144C232.974 268.678 232.363 269.848 231.141 270.654C229.945 271.46 228.411 271.863 226.539 271.863C226.253 271.863 225.824 271.837 225.252 271.785C224.316 271.681 223.653 271.538 223.263 271.356C222.873 271.174 222.678 270.81 222.678 270.264C222.678 270.082 222.73 269.952 222.834 269.874C222.938 269.77 223.146 269.718 223.458 269.718C223.796 269.718 224.394 269.796 225.252 269.952C226.084 270.108 226.825 270.186 227.475 270.186C229.867 270.186 231.063 269.146 231.063 267.066C231.063 265.818 230.829 264.83 230.361 264.102C229.919 263.374 229.126 263.01 227.982 263.01C226.734 263.01 225.616 263.348 224.628 264.024C223.64 264.674 222.873 265.532 222.327 266.598C221.807 267.664 221.547 268.795 221.547 269.991C221.547 272.045 222.119 273.735 223.263 275.061C224.407 276.361 226.175 277.011 228.567 277.011C228.853 277.011 229.334 276.985 230.01 276.933C230.296 276.907 230.647 276.829 231.063 276.699C231.479 276.569 231.778 276.478 231.96 276.426C233.078 276.036 233.897 275.841 234.417 275.841C234.807 275.841 235.106 275.945 235.314 276.153C234.664 277.141 233.689 277.869 232.389 278.337C231.115 278.779 229.854 279 228.606 279ZM238.249 278.727C237.677 275.893 237.235 272.539 236.923 268.665C236.637 264.765 236.494 260.995 236.494 257.355C236.494 255.535 236.533 253.923 236.611 252.519C236.611 252.181 236.871 252.012 237.391 252.012C237.807 252.012 238.067 252.116 238.171 252.324C238.301 252.532 238.366 252.857 238.366 253.299C238.366 257.511 238.444 261.112 238.6 264.102C238.756 267.066 238.964 270.264 239.224 273.696C239.38 275.906 239.484 277.401 239.536 278.181C239.562 278.597 239.341 278.805 238.873 278.805C238.717 278.805 238.509 278.779 238.249 278.727ZM246.477 292.884C245.957 292.884 245.333 291.493 244.605 288.711C243.903 285.929 243.266 282.835 242.694 279.429C242.148 276.049 241.875 273.917 241.875 273.033C241.875 270.407 242.759 268.496 244.527 267.3C246.295 266.078 248.57 265.467 251.352 265.467C252.834 265.467 254.238 265.779 255.564 266.403C256.89 267.001 257.956 267.872 258.762 269.016C259.568 270.134 259.971 271.434 259.971 272.916C259.971 274.762 259.321 276.062 258.021 276.816C256.747 277.57 255.135 277.947 253.185 277.947C251.157 277.947 249.428 277.609 247.998 276.933C246.594 276.231 245.892 275.282 245.892 274.086L245.931 273.696C246.113 273.488 246.308 273.384 246.516 273.384C246.698 273.384 246.893 273.462 247.101 273.618C247.335 273.748 247.582 273.904 247.842 274.086C248.648 274.684 249.441 275.165 250.221 275.529C251.027 275.893 252.028 276.075 253.224 276.075C254.862 276.075 256.019 275.789 256.695 275.217C257.397 274.619 257.748 273.683 257.748 272.409C257.748 271.473 257.436 270.641 256.812 269.913C256.188 269.185 255.382 268.626 254.394 268.236C253.406 267.846 252.392 267.651 251.352 267.651C248.934 267.651 247.114 268.171 245.892 269.211C244.67 270.225 244.124 271.928 244.254 274.32C244.488 278.376 244.852 281.782 245.346 284.538C245.866 287.294 246.763 289.634 248.037 291.558L248.076 291.636C248.076 291.688 248.011 291.74 247.881 291.792C247.777 291.87 247.699 291.935 247.647 291.987C247.335 292.481 246.945 292.78 246.477 292.884ZM267.222 272.019C266.52 272.019 265.87 271.863 265.272 271.551C264.674 271.239 264.375 270.667 264.375 269.835C264.375 268.821 264.596 267.872 265.038 266.988C265.48 266.078 266.156 264.947 267.066 263.595C268.002 262.191 268.704 261.008 269.172 260.046C269.666 259.084 269.913 258.044 269.913 256.926C269.913 255.652 269.575 254.677 268.899 254.001C268.249 253.325 267.365 252.987 266.247 252.987C264.167 252.987 262.828 253.481 262.23 254.469C261.892 254.313 261.723 254.053 261.723 253.689C261.723 253.351 261.918 252.987 262.308 252.597C262.698 252.207 263.231 251.882 263.907 251.622C264.609 251.362 265.402 251.232 266.286 251.232C268.184 251.232 269.627 251.765 270.615 252.831C271.629 253.897 272.136 255.483 272.136 257.589C272.136 258.629 271.889 259.604 271.395 260.514C270.927 261.398 270.199 262.503 269.211 263.829C268.327 264.999 267.664 265.974 267.222 266.754C266.806 267.508 266.598 268.288 266.598 269.094C266.598 269.406 266.728 269.64 266.988 269.796C267.274 269.952 267.651 270.03 268.119 270.03L268.782 269.991C269.016 269.991 269.185 270.082 269.289 270.264C269.393 270.42 269.445 270.706 269.445 271.122C269.445 271.408 269.211 271.629 268.743 271.785C268.301 271.941 267.794 272.019 267.222 272.019ZM266.754 279C266.286 279 265.922 278.87 265.662 278.61C265.402 278.35 265.272 277.999 265.272 277.557C265.272 277.089 265.402 276.725 265.662 276.465C265.948 276.205 266.312 276.075 266.754 276.075C267.144 276.075 267.43 276.244 267.612 276.582C267.794 276.894 267.885 277.271 267.885 277.713C267.885 278.025 267.781 278.324 267.573 278.61C267.365 278.87 267.092 279 266.754 279Z" fill="#EBE3CE"/>
<path d="M211.27 51.5535C212.23 51.129 213.467 50.8117 214.467 51.5169C215.097 56.058 215.736 56.4642 219.429 53.9136C218.835 52.5697 216.852 52.7578 216.834 51.1592C219.094 51.0783 221.081 48.8228 223.358 50.3404C222.546 51.6177 222.287 53.1092 222.966 54.6451C234.05 54.7942 234.05 54.7942 235.546 52.9854C233.822 51.682 230.75 53.0402 229.476 50.1604C239.605 48.6666 249.452 49.133 259.08 52.2207C264.448 53.9787 270.201 55.567 275.417 58.5397C280.272 61.2132 285.832 62.8863 291.093 64.9212C296.823 66.9784 302.039 69.951 307.148 73.2006C315.281 78.097 323.03 83.1632 330.136 89.8907C337.411 97.0022 344.879 104.029 350.574 112.757C353.294 116.833 356.997 120.016 359.141 124.347C361.455 129.062 364.345 133.522 366.851 138.152C369.696 143.55 372.264 148.841 375.302 154.154C378.933 160.81 382.458 167.744 383.423 175.121C384.201 180.515 386.961 185.72 386.801 191.07C386.534 196.696 387.973 202.028 388.474 207.314C389.435 216.758 389.266 226.243 388.16 235.683C387.272 242.501 385.915 249.298 382.428 255.43C376.696 265.308 370.516 274.696 361.612 282.075C355.441 287.327 349.1 292.196 343.206 297.556C330.904 309.191 316.499 317.625 303.326 327.809C295.127 334.188 285.741 337.878 275.483 340.118C266.271 342.125 256.803 343.556 247.506 345.371C237.824 347.356 228.058 349.149 218.188 349.152C206.72 349.172 195.64 346.956 185.591 340.84C182.121 338.702 178.629 337.033 175.159 334.895C163.109 327.37 152.363 318.12 142.024 308.232C135.279 301.803 129.987 294.504 125.868 286.226C125.359 285.074 124.381 283.9 123.679 282.833C122.532 281.275 121.04 281.016 119.142 281.396C104.959 285.142 90.2893 287.266 75.8741 289.967C71.9933 290.535 69.461 288.441 66.8215 286.624C65.4593 285.62 66.3165 283.405 66.7673 281.829C68.1825 277.761 70.4283 274.014 72.5892 270.075C77.8309 260.643 83.881 252.001 90.1231 243.274C93.5433 238.549 93.6949 237.334 90.4433 232.575C86.9147 227.709 85.1992 222.271 84.2517 216.493C83.2598 211.652 83.2055 206.857 82.9593 202.146C82.6908 197.904 82.1454 193.555 82.069 189.228C81.8438 174.18 84.4099 159.734 92.2815 146.385C99.3404 134.314 106.591 122.158 116.205 111.711C125.327 101.711 133.726 91.1126 143.21 81.4116C149.149 75.1141 156.428 70.2898 163.536 65.0815C167.912 61.9994 172.458 59.3012 177.79 57.8621C175.803 60.1175 174.986 63.4622 171.213 63.7534C169.891 63.8787 168.717 64.857 167.649 65.5583C167.073 65.813 166.752 66.6436 166.815 67.3044C167.047 68.3492 167.9 68.2016 168.838 68.2461C170.905 68.25 172.803 67.87 174.022 65.9541C175.348 63.7613 177.054 63.4663 178.948 65.1537C179.506 63.3005 179.765 61.8089 180.662 60.7236C181.667 59.3615 180.689 58.1874 180.179 57.0355C181.653 55.6955 183.104 54.8244 185.127 55.7661C185.293 58.2175 186.334 60.0526 188.334 61.4631C189.058 62.0613 190.273 62.2128 191.063 61.4044C191.853 60.596 191.13 59.9978 190.598 59.3148C189.343 58.0335 189.133 56.5197 188.454 54.9838C191.183 54.9251 193.786 53.5448 196.685 53.87C196.765 56.1295 195.207 57.2774 193.372 58.3183C196.015 58.0676 197.565 61.0545 199.954 60.2278C202.451 59.1243 205.349 59.4496 208.015 58.73C213.646 56.9291 213.731 57.1211 211.27 51.5535ZM78.5569 280.978C87.2784 279.417 96.2768 277.964 105.297 276.041C112.42 274.499 119.266 272.85 126.474 271.5C129.885 270.909 134.758 275.181 133.048 277.544C130.248 281.077 132.482 283.532 133.862 286.135C137.788 294.498 144.233 301.288 150.893 307.524C156.659 312.779 162.125 318.395 168.789 322.564C172.067 324.787 174.747 327.733 178.623 329.232C181.031 330.004 183.031 331.415 185.224 332.741C192.272 336.74 199.449 339.993 207.697 340.478C216.968 341.199 226.114 340.599 235.304 339.06C245.732 337.205 256.074 335.157 266.31 333.386C277.675 331.575 288.214 327.375 297.734 320.871C307.446 314.283 316.35 306.904 326.062 300.315C334.899 294.343 341.972 285.937 350.639 279.581C355.998 275.606 360.74 270.755 365.12 265.606C374.586 254.306 380.645 241.53 381.081 226.419C381.236 223.137 381.584 219.77 381.74 216.488C381.686 211.692 381.909 207.003 381.109 202.078C380.331 196.684 378.424 191.331 378.307 185.874C378.172 178.819 375.84 172.506 373.508 166.193C372.936 164.38 372.748 162.397 371.516 160.647C369.242 157.062 367.245 153.584 365.356 149.829C358.669 136.261 350.83 123.201 341.24 111.375C337.158 106.295 332.884 101.299 328.011 97.0268C318.627 88.7817 308.154 81.7067 297.038 76.2929C284.453 70.1517 271.247 65.2028 257.911 60.9997C254.95 60.0136 252.374 58.8578 249.283 58.6174C242.165 58.0922 235.002 58.5047 227.839 58.9173C216.817 59.429 205.898 61.7313 195.024 63.0958C190.675 63.6416 186.133 64.2722 181.824 65.9478C172.33 69.9153 164.793 76.231 156.617 82.1406C153.116 84.6063 150.338 87.6703 147.646 90.9261C140.189 99.5013 132.732 108.076 125.275 116.652C120.404 122.248 115.34 127.929 111.193 134.123C107.344 139.956 103.857 146.088 100.37 152.219C95.7709 159.99 92.8335 168.404 91.9191 177.759C91.0271 186.645 90.988 195.383 91.5027 204.336C91.8476 212.905 93.2375 221.242 96.8022 229.305C98.2451 232.569 98.7988 232.783 101.34 230.742C103.09 229.509 103.858 229.169 105.475 230.75C108.709 233.91 108.901 233.826 106.463 237.657C105.137 239.85 103.641 241.659 102.038 243.745C93.3399 254.705 85.7272 266.562 78.4763 278.718C78.0922 278.888 77.6859 279.527 78.5569 280.978Z" fill="#FFC12B"/>
<path d="M211.27 51.5534C213.646 56.9291 213.646 56.9291 208.207 58.6451C205.626 59.5566 202.835 58.9544 200.146 60.1429C197.842 61.1615 196.207 57.9826 193.564 58.2333C195.399 57.1925 196.873 55.8525 196.877 53.7851C197.538 53.7224 198.114 53.4678 198.967 53.3202C199.136 53.7042 199.221 53.8962 199.391 54.2802C200.155 56.0081 201.325 57.0973 203.116 56.9941C205.183 56.9981 203.951 55.248 204.464 54.3325C204.87 53.6939 205.531 53.6312 206.192 53.5685C207.322 53.5281 208.09 53.1884 208.434 51.889C209.202 51.5494 210.332 51.509 211.27 51.5534Z" fill="#FFC12B"/>
<path d="M180.648 57.0577C181.158 58.2096 182.136 59.3837 181.131 60.7459C180.318 62.0232 180.06 63.5146 179.417 65.1759C177.523 63.4884 175.817 63.7836 174.491 65.9764C173.272 67.8923 171.374 68.2723 169.307 68.2683C168.369 68.2239 167.516 68.3715 167.284 67.3267C167.221 66.6658 167.542 65.8351 168.118 65.5805C169.186 64.8792 170.36 63.901 171.682 63.7757C175.455 63.4845 176.357 60.3318 178.259 57.8844C178.92 57.8217 179.688 57.4821 180.648 57.0577Z" fill="#FFC12B"/>
<path d="M229.669 50.0755C230.665 52.8482 233.737 51.4899 235.738 52.9005C234.242 54.7093 234.242 54.7093 223.158 54.5601C222.287 53.1091 222.823 51.7248 223.55 50.2555C224.787 49.9382 225.917 49.8977 227.154 49.5804C227.664 50.7323 228.601 50.7768 229.669 50.0755Z" fill="#FFC12B"/>
<path d="M208.327 52.1659C208.09 53.1886 207.215 53.8049 206.085 53.8454C205.424 53.9081 204.678 53.7788 204.357 54.6094C203.844 55.5249 205.076 57.2751 203.009 57.2711C201.133 57.1822 199.963 56.0929 199.284 54.557C199.114 54.1731 199.029 53.9811 198.86 53.5971C201.932 52.2389 205.044 52.0104 208.327 52.1659Z" fill="#FFC12B"/>
<path d="M188.646 54.8991C189.325 56.435 189.812 58.0558 190.791 59.23C191.322 59.9131 192.046 60.5112 191.255 61.3196C190.465 62.1281 189.527 62.0836 188.527 61.3783C186.718 59.8829 185.485 58.1327 185.32 55.6813C186.387 54.98 187.517 54.9395 188.646 54.8991Z" fill="#FFC12B"/>
<path d="M216.834 51.1594C217.044 52.6731 219.027 52.4849 219.429 53.9138C215.736 56.4643 215.098 56.0581 214.467 51.5171C215.235 51.1775 216.004 50.8381 216.834 51.1594Z" fill="#FFC12B"/>
<path d="M229.477 50.1605C228.601 50.7769 227.664 50.7325 226.77 49.7503C228.03 48.9641 228.86 49.2855 229.477 50.1605Z" fill="#FFC12B"/>
</svg>
