<svg width="526" height="859" viewBox="0 0 526 859" fill="none" xmlns="http://www.w3.org/2000/svg">
<path d="M7.69161 288.602V78.7594C7.12569 58.839 17.2669 18.1834 62.3593 14.9238C134.005 7.67999 316.004 -3.27619 470.839 10.8491C490.194 13.5655 517.698 20.6961 512.944 67.8937V475.695L521.433 1192.15L484.421 1192.76L46.4005 1199.96C34.1766 1200.75 9.93269 1190.79 10.7476 1144.61C11.5625 1098.43 11.0872 968.27 10.7476 908.962L4.63569 543.265C2.59838 528.438 4.29614 496.475 27.3856 487.239C18.7837 488.937 2.19096 483.301 4.63569 447.172L7.69161 288.602Z" fill="#70C836"/>
<path d="M470.839 10.8491C316.004 -3.27619 134.005 7.67999 62.3593 14.9238C17.2669 18.1834 7.12569 58.839 7.69161 78.7594V288.602L4.63569 447.172C2.19096 483.301 18.7837 488.937 27.3856 487.239M470.839 10.8491C490.194 13.5655 517.698 20.6961 512.944 67.8937V475.695M470.839 10.8491L478.649 475.695M512.944 475.695L521.433 1192.15L484.421 1192.76M512.944 475.695H478.649M27.3856 487.239C4.29614 496.475 2.59838 528.438 4.63569 543.265L10.7476 908.962C11.0872 968.27 11.5625 1098.43 10.7476 1144.61C9.93269 1190.79 34.1766 1200.75 46.4005 1199.96L484.421 1192.76M27.3856 487.239L478.649 475.695M478.649 475.695L484.421 1192.76" stroke="#552204" stroke-width="8" stroke-linecap="round"/>
<path d="M351.317 455.322H415.493C430.32 454.643 457.122 445.95 445.713 416.613" stroke="#552102" stroke-width="8" stroke-linecap="round"/>
<path d="M195.803 257.363C199.425 246.611 215.633 222.593 251.49 212.543C287.346 202.492 297.216 187.982 297.669 181.983" stroke="#CDDE86" stroke-width="8" stroke-linecap="round"/>
<path d="M249.452 46.502C253.187 45.257 260.921 45.016 265.751 46.502C270.165 47.8602 279.672 47.747 284.086 46.502" stroke="#DCEAAE" stroke-width="8" stroke-linecap="round"/>
<path d="M246.736 261.777C252.848 255.1 269.35 240.793 286.463 236.99" stroke="#D1DB89" stroke-width="8" stroke-linecap="round"/>
<path d="M27.7255 612.534C30.2155 606.875 31.4606 594.487 31.4606 587.067C31.4605 574.504 23.9904 526.288 27.7255 520.176" stroke="#DEE9AF" stroke-width="8" stroke-linecap="round"/>
<path d="M25.688 663.806C27.4989 657.581 30.985 643.84 30.4417 638.679" stroke="#DBE9AE" stroke-width="8" stroke-linecap="round"/>
<path d="M29.0835 691.989V713.041" stroke="#DBE9AE" stroke-width="8" stroke-linecap="round"/>
<path d="M198.859 827.13C200.104 821.018 209.725 806.078 222.967 798.947C239.924 789.817 253.979 783.668 259.299 780.951" stroke="#CDDE87" stroke-width="8" stroke-linecap="round"/>
<path d="M81.7138 846.741V536.899C81.7138 535.796 81.0991 534.767 80.1094 534.279C59.4258 524.073 55.1617 540.7 52.5124 546.992C49.796 553.443 47.0796 754.118 47.0796 773.472C47.0796 788.532 52.219 818.303 54.9997 832.419C55.1466 833.164 55.572 833.819 56.1891 834.262L76.9642 849.178C78.9491 850.603 81.7138 849.184 81.7138 846.741Z" fill="#FFF4AA" stroke="#562202" stroke-width="8"/>
<path d="M81.7138 450.145V140.303C81.7138 139.2 81.0991 138.172 80.1094 137.683C59.4258 127.477 55.1617 144.104 52.5124 150.396C49.796 156.847 47.0796 357.522 47.0796 376.876C47.0796 391.936 52.219 421.707 54.9997 435.823C55.1466 436.568 55.572 437.223 56.1891 437.666L76.9642 452.582C78.9491 454.007 81.7138 452.588 81.7138 450.145Z" fill="#FFF4AA" stroke="#512200" stroke-width="8"/>
<path d="M167.281 46.9605C155.51 47.1869 127.893 42.7669 112.273 42.7669C55.6875 42.767 53.1914 42.7669 58.2225 92.7999" stroke="#DCECAB" stroke-width="8" stroke-linecap="round"/>
<path d="M510.227 68.2333V472.978H480.686L473.556 13.9051C509.956 16.8931 513.623 49.8975 510.227 68.2333Z" fill="#447921"/>
<path d="M510.227 478.411H480.687L487.138 1190.11L518.716 1189.77L510.227 478.411Z" fill="#447921"/>
<path d="M284.469 459.678C295.561 458.999 316.387 458.659 319.783 456.282" stroke="#552102" stroke-width="8" stroke-linecap="round"/>
</svg>
