<svg width="39" height="39" viewBox="0 0 39 39" fill="none" xmlns="http://www.w3.org/2000/svg">
<g clip-path="url(#clip0_23_8745)">
<path d="M19.4993 15.9545V23.5063H29.9938C29.5329 25.9349 28.15 27.9914 26.076 29.3741L32.4046 34.2846C36.0919 30.8811 38.2192 25.8819 38.2192 19.9433C38.2192 18.5606 38.0951 17.2309 37.8646 15.9547L19.4993 15.9545Z" fill="#4285F4"/>
<path d="M8.57125 23.2115L7.14391 24.3041L2.09155 28.2395C5.30018 34.6036 11.8765 39 19.4992 39C24.764 39 29.1781 37.2627 32.4045 34.2846L26.0759 29.3741C24.3386 30.5441 22.1227 31.2533 19.4992 31.2533C14.4292 31.2533 10.1216 27.8319 8.57922 23.2228L8.57125 23.2115Z" fill="#34A853"/>
<path d="M2.09142 10.7605C0.761949 13.384 -0.000244141 16.3445 -0.000244141 19.4999C-0.000244141 22.6553 0.761949 25.6158 2.09142 28.2393C2.09142 28.2569 8.57971 23.2048 8.57971 23.2048C8.18971 22.0348 7.95919 20.7939 7.95919 19.4997C7.95919 18.2054 8.18971 16.9646 8.57971 15.7946L2.09142 10.7605Z" fill="#FBBC05"/>
<path d="M19.4996 7.76454C22.3714 7.76454 24.9241 8.75724 26.9627 10.6718L32.5468 5.08779C29.1609 1.93239 24.7646 0 19.4996 0C11.8769 0 5.30018 4.37863 2.09155 10.7605L8.57964 15.795C10.1218 11.1859 14.4296 7.76454 19.4996 7.76454Z" fill="#EA4335"/>
</g>
<defs>
<clipPath id="clip0_23_8745">
<rect width="39" height="39" fill="white" transform="translate(-0.000244141)"/>
</clipPath>
</defs>
</svg>
