<svg width="41" height="48" viewBox="0 0 41 48" fill="none" xmlns="http://www.w3.org/2000/svg">
<path d="M3.62324 10.9126C2.87527 10.7923 2.25669 10.721 1.65138 10.589C0.567697 10.3528 0.0135087 9.8273 0.000239078 9.08502C-0.0134728 8.3056 0.562805 7.63895 1.68475 7.49629C3.28705 7.29258 4.90933 7.23554 6.5249 7.15437C7.39848 7.11013 8.27598 7.14663 9.28735 7.14663C9.14072 6.47027 9.03573 5.9434 8.91144 5.42142C8.64954 4.37572 8.78876 3.26981 9.30159 2.32163C9.98719 1.00562 11.0319 0.203873 12.5228 0.154108C15.2456 0.0632767 17.9694 0.0121177 20.6944 0.000616516C22.4983 -0.00800939 24.3027 0.0760185 26.1067 0.118927C26.3644 0.12512 26.6229 0.124017 26.8797 0.143038C28.7197 0.278841 29.8972 1.22348 30.3202 3.02652C30.5118 3.84288 30.5363 4.69952 30.6221 5.53955C30.6664 5.97306 30.6792 6.40964 30.7106 6.91083C31.0074 6.95562 31.3066 6.98293 31.6067 6.99267C33.5943 6.93649 35.5812 6.85377 37.569 6.81042C38.081 6.78836 38.5936 6.8399 39.091 6.96349C39.4904 7.05692 39.8491 7.27639 40.1141 7.58947C40.3793 7.90252 40.5365 8.29257 40.5626 8.70192C40.6314 9.12397 40.5681 9.55693 40.3819 9.94175C40.1955 10.3266 39.8949 10.6446 39.5212 10.8525C39.2127 11.0405 38.8743 11.1793 38.4906 11.37C38.4906 12.4418 38.4541 13.5048 38.4965 14.5645C38.7489 20.8519 39.0959 27.1384 38.8621 33.4331C38.7776 35.7094 38.6235 37.9929 38.3123 40.2471C38.1396 41.4992 37.6351 42.7197 37.176 43.9142C36.9588 44.4871 36.6158 45.0037 36.1721 45.4262C35.7287 45.8489 35.1957 46.1663 34.6132 46.3554C33.5368 46.7245 32.4317 47.0039 31.3093 47.1901C30.2862 47.3212 29.2567 47.394 28.2256 47.4082C24.2171 47.6072 20.2099 47.8434 16.1991 47.9733C14.5083 48.0452 12.8145 47.9719 11.1361 47.7547C6.8184 47.1472 4.47163 44.7678 3.78825 40.4464C3.58577 39.2494 3.47318 38.0387 3.45144 36.8248C3.40573 29.8704 3.38918 22.9157 3.40188 15.961C3.40409 14.3101 3.54274 12.6588 3.62324 10.9126ZM6.92943 11.1813C7.12847 14.6142 7.27592 31.4213 7.67356 36.482C7.79078 37.9743 8.13448 39.4524 8.42863 40.9263C8.72188 42.3954 9.71467 43.2498 11.1378 43.4798C12.7302 43.7371 14.3498 43.985 15.9554 43.9731C19.9675 43.9432 23.98 43.805 27.9888 43.6236C29.5236 43.5542 31.0507 43.2657 32.5763 43.0419C32.8543 43.007 33.1144 42.8851 33.319 42.6938C33.5238 42.5022 33.6626 42.251 33.7162 41.9758C33.9274 41.1223 34.2005 40.2728 34.3013 39.4047C34.8806 34.4187 34.7614 29.4141 34.6083 24.4113C34.4878 20.4772 34.3476 16.5438 34.2147 12.6101C34.2025 12.2562 34.1782 11.901 34.1618 11.5916C24.776 11.4547 16.3942 11.3196 6.93007 11.1813H6.92943ZM12.8343 7.06742C17.4608 7.23486 21.9955 7.22756 26.5594 7.01456V3.9557C21.945 3.80088 17.4161 3.63456 12.8343 4.08332V7.06742Z" fill="#4C4C4C"/>
<path d="M27.7889 26.4633C27.7407 24.0877 27.6277 21.68 27.5182 19.3512L27.516 19.307C27.4767 18.4627 27.4382 17.6184 27.4001 16.7741C27.3833 16.479 27.3278 16.1875 27.2354 15.9068C27.0326 15.2654 26.575 14.9272 25.9827 14.9832C25.624 15.0128 25.0061 15.1975 24.8962 16.0985C24.8785 16.2607 24.8696 16.4236 24.8696 16.5867C24.8342 19.5151 24.5669 29.1964 24.5642 29.295C24.5142 31.6225 24.4625 34.0282 24.4271 36.4147C24.4087 37.0721 24.468 37.7292 24.604 38.3724C24.6697 38.713 24.8535 39.0195 25.1229 39.2381C25.3924 39.4566 25.7304 39.5729 26.0772 39.5667C26.1179 39.5667 26.159 39.5652 26.2003 39.5623C26.5429 39.5528 26.8709 39.4216 27.1259 39.1927C27.3807 38.9636 27.5459 38.6515 27.5919 38.3118C27.7133 37.6049 27.7799 36.8896 27.7909 36.1723L27.8029 34.5263C27.8223 31.885 27.8436 29.1542 27.7889 26.4633Z" fill="#4C4C4C"/>
<path d="M15.9532 15.1383H15.9521C15.7314 15.1375 15.5139 15.1902 15.3181 15.2922C15.1223 15.3941 14.9543 15.5421 14.8284 15.7233C14.6151 16.1048 14.4948 16.5312 14.4772 16.9679C14.4396 17.5595 14.4002 18.1509 14.3599 18.7568C14.2217 20.8405 14.0784 22.9953 14.0169 25.1219C13.9285 28.1463 13.8986 31.2195 13.8688 34.1917C13.8598 35.1014 13.8502 36.0111 13.8398 36.9208C13.8393 37.2933 13.8914 37.6637 13.9946 38.0216C14.2359 38.8767 14.8164 39.4079 15.5096 39.4079H15.5317C16.2578 39.3953 16.838 38.8221 17.0094 37.9471C17.0939 37.4839 17.1296 37.0135 17.1159 36.543C17.0774 34.1278 17.0302 31.7132 16.9855 29.4191L16.945 27.3449L16.9914 24.8815C17.0418 22.213 17.0893 19.6906 17.1275 17.1556C17.1502 16.7306 17.0873 16.3053 16.9425 15.9051C16.8536 15.7056 16.7168 15.5311 16.5442 15.3974C16.3716 15.2635 16.1685 15.1746 15.9532 15.1383Z" fill="#4C4C4C"/>
</svg>
