<svg width="315" height="450" viewBox="0 0 315 450" fill="none" xmlns="http://www.w3.org/2000/svg">
<circle cx="160" cy="430" r="20" fill="#FA5457"/>
<line x1="159.5" y1="316.5" x2="159.5" y2="408.5" stroke="#FFF6DF" stroke-width="3" stroke-linecap="round" stroke-dasharray="7 7"/>
<circle cx="157.5" cy="157.5" r="153.5" fill="#FA5457" stroke="#FFF6DF" stroke-width="8"/>
<path d="M57.3116 175.145V91.7211C57.0866 83.8016 61.1183 67.6387 79.0451 66.3428C107.528 63.463 179.883 59.1073 241.439 64.7229C249.133 65.8028 260.068 68.6377 258.178 87.4014V249.525H244.544L65.141 254.115C61.7213 254.79 55.1247 252.549 56.0967 238.186L57.3116 175.145Z" fill="#70C836"/>
<path d="M241.439 64.7229C179.883 59.1073 107.528 63.463 79.0451 66.3428C61.1183 67.6387 57.0866 83.8016 57.3116 91.7211V175.145L56.0967 238.186C55.1247 252.549 61.7213 254.79 65.141 254.115L244.544 249.525M241.439 64.7229C249.133 65.8028 260.068 68.6377 258.178 87.4014V249.525H244.544M241.439 64.7229L244.544 249.525" stroke="#552204" stroke-width="8" stroke-linecap="round"/>
<path d="M193.922 241.426H219.435C225.33 241.156 235.985 237.7 231.45 226.037" stroke="#552102" stroke-width="8" stroke-linecap="round"/>
<path d="M132.096 162.726C133.536 158.452 139.98 148.903 154.235 144.907C168.49 140.912 172.414 135.143 172.594 132.758" stroke="#CDDE86" stroke-width="8" stroke-linecap="round"/>
<path d="M153.425 78.897C154.91 78.402 157.985 78.3062 159.905 78.897C161.659 79.4369 165.439 79.3919 167.194 78.897" stroke="#DCEAAE" stroke-width="8" stroke-linecap="round"/>
<path d="M152.345 164.481C154.775 161.826 161.335 156.139 168.139 154.627" stroke="#D1DB89" stroke-width="8" stroke-linecap="round"/>
<path d="M86.7395 235.845V117.268C86.7395 116.164 86.1414 115.125 85.1227 114.7C77.7408 111.624 76.1404 117.802 75.1303 120.201C74.0504 122.765 72.9705 202.545 72.9705 210.239C72.9705 215.988 74.8541 227.129 75.9828 232.975C76.1268 233.72 76.5534 234.379 77.1705 234.822L81.9899 238.282C83.9748 239.707 86.7395 238.289 86.7395 235.845Z" fill="#FFF4AA" stroke="#512200" stroke-width="8"/>
<path d="M120.757 79.0793C116.077 79.1693 105.098 77.4121 98.8887 77.4121C76.3926 77.4122 75.4002 77.4121 77.4004 97.303" stroke="#DCECAB" stroke-width="8" stroke-linecap="round"/>
<path d="M257.098 87.5364V248.445H245.354L242.519 65.9379C256.99 67.1258 258.448 80.2469 257.098 87.5364Z" fill="#447921"/>
<rect x="110.416" y="122.479" width="113.082" height="64.5639" rx="9.5" fill="#FFF6DF" stroke="black"/>
<path d="M195.386 148.302C195.246 148.119 195.153 147.89 195.293 147.661C195.525 147.753 195.805 147.478 196.037 147.661C196.177 147.753 196.27 147.844 196.409 147.707C196.549 147.524 196.456 147.341 196.316 147.25C195.712 146.884 195.2 146.472 194.921 145.786C194.828 145.604 194.595 145.466 194.363 145.421C194.037 144.78 193.991 144.094 194.037 143.408C194.084 142.402 194.502 141.854 195.525 141.625C197.06 141.213 198.409 141.625 199.665 142.54C200.549 143.18 201.153 144.049 201.851 144.826C201.991 145.009 202.084 145.192 202.316 145.238C202.642 145.009 202.688 144.689 202.828 144.415C203.525 142.677 204.177 140.939 204.874 139.247C205.06 138.744 204.967 138.378 204.735 138.012C203.898 136.457 203.293 134.857 202.781 133.165C202.363 131.839 202.409 130.513 202.595 129.186C202.735 128.409 203.06 127.631 203.991 127.403C205.2 127.128 206.223 127.494 206.967 128.409C207.246 128.729 207.618 129.141 207.665 129.644C207.665 129.781 207.758 129.918 207.851 130.055C207.944 130.238 208.13 130.421 208.363 130.33C208.595 130.284 208.595 130.055 208.595 129.872C208.502 128.683 209.246 127.814 209.711 126.854C209.944 126.351 210.363 125.894 210.921 125.619C212.177 125.071 213.293 125.757 213.386 127.128C213.432 128.226 213.014 129.095 212.642 130.055C212.549 130.238 212.409 130.421 212.363 130.65C212.177 131.153 212.363 131.381 212.874 131.29C213.479 131.153 214.037 131.016 214.642 131.107C215.525 131.198 215.991 131.564 216.084 132.433C216.13 132.89 216.084 133.394 215.851 133.805C215.293 134.948 214.688 136.092 213.758 137.006C212.037 138.653 210.13 139.887 207.572 139.613C207.014 139.567 206.874 139.75 206.642 140.253C205.618 142.585 204.828 145.055 203.898 147.387C203.805 147.57 203.758 147.799 203.898 148.119C204.688 147.113 205.805 146.564 206.549 145.604C206.735 145.329 206.967 145.238 207.293 145.192C207.525 145.146 207.758 145.101 207.898 144.963C208.828 144.232 209.851 144.46 210.828 144.597C211.618 144.735 212.316 145.512 212.223 146.289C212.177 146.793 212.13 147.341 211.898 147.753C211.2 148.896 210.828 150.268 209.618 151.045C209.432 151.869 208.735 152.326 208.223 152.92C207.618 153.606 206.874 154.155 206.037 154.521C205.758 154.658 205.712 154.064 205.339 154.43C205.06 154.704 205.2 154.933 205.2 155.207C204.735 155.161 204.177 154.704 203.898 155.481C203.805 155.527 203.758 155.573 203.665 155.618C203.432 155.573 203.246 155.573 203.014 155.527C202.316 155.39 202.316 155.39 202.084 156.122C201.944 156.533 201.805 157.036 201.386 157.219C200.874 156.945 200.642 156.442 200.27 156.076C200.223 155.984 200.177 155.893 200.177 155.801C200.642 154.795 200.642 154.795 199.712 154.247C199.386 154.064 199.014 153.972 199.107 153.469C199.153 153.286 199.06 153.149 198.921 153.103C198.084 152.829 198.595 151.503 197.525 151.457C197.525 151.457 197.479 151.32 197.479 151.274C197.525 150.725 197.293 150.268 196.967 149.856C196.688 149.994 196.828 150.36 196.549 150.451C196.316 150.268 196.223 150.039 196.13 149.765C196.13 149.674 196.13 149.536 196.13 149.445C196.13 149.033 196.967 148.988 196.642 148.53C196.27 148.027 195.758 148.439 195.386 148.302Z" fill="#89AB69"/>
<path d="M196.688 158.865C196.735 158.911 196.735 158.911 196.735 159.003C196.688 160.054 197.572 160.649 197.991 161.426C198.037 161.563 198.316 161.472 198.502 161.426C198.363 161.838 198.502 162.158 198.828 162.478C199.712 161.563 199.758 161.563 200.874 161.792C201.153 161.838 201.386 161.838 201.526 161.609C201.944 161.015 202.549 160.74 203.107 160.329C203.479 160.1 204.223 160.192 204.223 159.46C204.363 159.46 204.456 159.368 204.456 159.231C205.107 159.185 204.595 159.871 205.2 160.192C204.874 159.323 205.572 159.14 205.805 158.682C205.944 158.637 206.037 158.591 206.177 158.545C206.688 158.637 207.107 158.408 207.526 158.271C208.363 158.134 209.153 158.362 209.851 158.728C211.014 159.277 211.432 161.06 210.781 162.249C210.27 163.118 209.526 163.713 208.781 164.353C207.712 164.262 207.665 164.307 207.572 165.222C207.386 165.176 207.2 165.176 207.014 165.13C206.409 164.947 206.037 164.947 206.177 165.725C206.223 165.908 206.084 166.136 205.898 166.136C205.014 166.182 204.409 166.64 203.898 167.28C203.758 167.463 203.433 167.463 203.2 167.554C203.014 167.6 202.874 167.737 202.828 167.92C202.735 168.103 202.595 168.194 202.363 168.194C201.758 168.194 201.107 167.966 200.549 168.56C200.363 168.743 199.944 168.652 200.037 168.332C200.27 167.508 199.479 167.646 199.2 167.371C199.06 167.28 198.921 167.234 198.828 167.371C198.688 167.508 198.642 167.691 198.735 167.874C198.828 168.103 199.014 168.194 199.247 168.24C199.712 168.332 199.851 168.606 199.805 169.017C199.665 169.063 199.526 169.063 199.386 169.109C199.06 169.109 198.828 169.246 198.688 169.521C198.456 170.024 198.084 169.932 197.712 169.703C197.526 169.612 197.34 169.429 197.2 169.338C197.247 169.2 197.293 169.063 197.34 168.926C197.526 168.926 197.665 168.88 197.851 168.88C197.944 168.972 197.991 169.017 198.084 169.109C198.13 169.2 198.177 169.246 198.177 169.155C198.177 169.155 198.13 169.109 198.084 169.109C198.084 169.017 198.084 168.972 198.084 168.88C197.805 168.149 197.712 167.28 196.549 167.463C196.409 167.463 196.27 167.371 196.13 167.325C195.851 167.234 195.665 167.005 195.433 166.822C195.386 166.594 195.526 166.228 195.293 166.136C194.735 165.816 194.27 165.405 193.805 164.947C193.712 164.902 193.526 164.947 193.386 164.947C193.712 164.536 193.572 164.262 193.2 163.941C192.735 163.53 192.084 163.21 192.177 162.387C192.177 162.249 191.898 161.884 191.758 162.021C191.293 162.341 191.107 161.746 190.781 161.838C190.781 161.518 190.781 161.243 190.363 161.198C189.758 160.054 189.293 158.865 189.014 157.585C188.595 155.939 189.293 154.933 191.014 154.841C191.526 155.115 192.177 155.07 192.595 155.527C192.828 155.756 192.735 156.076 192.828 156.35C193.06 156.853 193.386 156.122 193.665 156.396C194.177 156.899 194.921 157.082 195.34 157.722C195.526 158.271 196.084 158.637 196.688 158.865ZM197.572 167.097C197.712 167.051 197.758 167.005 197.758 166.868C197.758 166.639 197.619 166.548 197.386 166.548C197.293 166.548 197.154 166.64 197.2 166.777C197.247 166.96 197.386 167.097 197.572 167.097ZM199.712 162.387C199.758 162.341 199.805 162.295 199.805 162.204C199.805 162.158 199.758 162.112 199.712 162.021C199.665 162.066 199.619 162.112 199.619 162.204C199.619 162.295 199.665 162.341 199.712 162.387Z" fill="#85A865"/>
<path d="M197.2 169.383C197.386 169.521 197.525 169.658 197.712 169.749C198.084 169.978 198.456 170.115 198.688 169.566C198.828 169.292 199.014 169.109 199.386 169.155C198.735 170.984 198.502 172.905 198.409 174.825C198.363 176.975 198.27 179.124 198.177 181.273C198.177 181.731 198.177 182.234 198.177 182.691C198.177 182.965 198.13 183.194 198.13 183.468C198.084 183.971 197.665 184.154 197.293 184.2C196.874 184.246 196.828 183.788 196.781 183.514C196.642 182.828 196.595 182.142 196.502 181.456C196.223 178.85 196.037 176.243 196.363 173.636C196.549 172.356 196.735 171.03 196.921 169.749C197.014 169.612 197.107 169.475 197.2 169.383Z" fill="#9BB982"/>
<path d="M204.223 159.46C204.223 160.192 203.479 160.054 203.107 160.329C202.549 160.695 201.944 161.015 201.526 161.609C201.34 161.838 201.153 161.884 200.874 161.792C199.758 161.564 199.758 161.564 198.828 162.478C198.502 162.204 198.409 161.838 198.502 161.426C198.735 161.518 199.014 161.609 199.06 161.198C199.153 160.695 199.2 160.146 199.619 159.689C199.898 159.734 199.991 159.826 199.898 160.1C199.805 160.375 199.665 160.695 200.037 160.878C200.316 160.603 200.177 160.283 200.223 160.009C200.27 159.734 200.409 159.643 200.642 159.643C200.688 159.917 200.595 160.237 200.781 160.512C200.781 160.1 201.06 159.78 201.06 159.414C201.06 159.048 201.06 158.683 201.06 158.317C201.247 158.271 201.479 158.271 201.433 158.042C201.34 157.768 201.153 157.494 200.828 157.539C200.549 157.585 200.642 157.905 200.642 158.088C200.223 158.042 200.13 158.637 199.665 158.545C199.805 157.676 199.944 156.762 200.13 155.893C200.502 156.259 200.735 156.762 201.246 157.036C201.712 156.853 201.805 156.396 201.944 155.939C202.177 155.207 202.177 155.207 202.874 155.344C203.107 155.39 203.293 155.39 203.526 155.436C203.433 155.527 203.386 155.664 203.293 155.664C202.316 155.847 202.084 156.533 201.944 157.356C201.805 158.362 201.619 159.323 201.433 160.42C201.944 160.375 202.363 160.283 202.688 159.963C203.153 159.643 203.712 159.551 204.223 159.46Z" fill="#9BB982"/>
<path d="M196.456 150.314C196.735 150.222 196.642 149.857 196.874 149.719C197.2 150.177 197.432 150.588 197.386 151.137C197.386 151.183 197.386 151.32 197.432 151.32C198.502 151.366 198.037 152.692 198.828 152.966C198.967 153.012 199.06 153.149 199.014 153.332C198.874 153.835 199.293 153.927 199.618 154.109C200.595 154.658 200.595 154.658 200.084 155.664C199.898 155.664 199.711 155.619 199.618 155.436C198.502 153.789 197.293 152.189 196.456 150.314Z" fill="#9BB982"/>
<path d="M196.688 158.865C196.084 158.637 195.525 158.271 195.2 157.814C194.735 157.173 193.991 156.99 193.525 156.487C193.246 156.213 192.921 156.945 192.688 156.442C192.595 156.167 192.688 155.893 192.456 155.619C191.991 155.161 191.386 155.207 190.874 154.933C191.665 154.567 192.316 155.024 192.921 155.39C194.363 156.167 195.432 157.356 196.502 158.5C196.642 158.545 196.642 158.728 196.688 158.865Z" fill="#9BB982"/>
<path d="M202.921 167.966C202.967 167.783 203.107 167.646 203.293 167.6C203.525 167.508 203.898 167.508 203.991 167.325C204.502 166.64 205.06 166.182 205.991 166.182C206.13 166.182 206.316 165.954 206.27 165.771C206.13 164.993 206.549 164.993 207.107 165.176C207.293 165.222 207.479 165.222 207.665 165.268C207.525 165.816 206.967 165.816 206.595 166.136C205.758 166.868 204.735 167.28 203.851 167.874C203.572 168.011 203.246 167.966 202.921 167.966Z" fill="#9BB982"/>
<path d="M190.688 161.929C191.06 161.838 191.246 162.432 191.665 162.112C191.805 161.975 192.13 162.341 192.084 162.478C191.991 163.301 192.642 163.621 193.107 164.033C193.479 164.353 193.619 164.627 193.293 165.039C192.084 164.262 191.386 163.073 190.688 161.929Z" fill="#9BB982"/>
<path d="M201.153 158.408C201.153 158.774 201.153 159.14 201.153 159.506C201.06 159.506 201.014 159.506 200.921 159.506C200.828 159.597 200.781 159.643 200.688 159.734C200.456 159.78 200.27 159.871 200.27 160.1C200.223 160.374 200.363 160.649 200.084 160.969C199.711 160.74 199.851 160.466 199.944 160.192C200.037 159.917 199.944 159.78 199.665 159.78C199.572 159.414 199.618 159.048 199.758 158.682C200.177 158.774 200.316 158.179 200.735 158.225C200.874 158.271 201.014 158.317 201.153 158.408Z" fill="#85A865"/>
<path d="M199.804 169.063C199.851 168.652 199.711 168.377 199.246 168.286C199.014 168.24 198.828 168.103 198.735 167.92C198.688 167.737 198.688 167.554 198.828 167.417C198.967 167.28 199.107 167.325 199.2 167.417C199.525 167.691 200.316 167.554 200.037 168.377C199.944 168.697 200.409 168.789 200.549 168.606C201.107 168.011 201.758 168.24 202.363 168.24C201.665 168.789 200.735 168.972 199.804 169.063Z" fill="#9BB982"/>
<path d="M194.363 145.466C194.595 145.512 194.828 145.603 194.921 145.832C195.2 146.518 195.712 146.93 196.316 147.296C196.502 147.387 196.549 147.57 196.409 147.753C196.316 147.89 196.177 147.799 196.037 147.707C195.805 147.524 195.526 147.799 195.293 147.707C194.595 147.067 194.595 146.198 194.363 145.466Z" fill="#9BB982"/>
<path d="M197.805 168.926C197.619 168.926 197.479 168.972 197.293 168.972C197.246 168.56 197.107 168.24 196.642 168.057C196.363 167.92 195.991 167.829 196.037 167.371C196.177 167.417 196.316 167.508 196.456 167.508C197.619 167.325 197.712 168.194 197.991 168.926C197.944 168.926 197.898 168.926 197.805 168.926Z" fill="#9BB982"/>
<path d="M198.549 161.426C198.363 161.472 198.084 161.518 198.037 161.426C197.618 160.603 196.781 160.009 196.781 159.003C197.572 159.643 198.037 160.512 198.549 161.426Z" fill="#9BB982"/>
<path d="M193.293 165.039C193.433 165.039 193.619 164.948 193.712 165.039C194.177 165.451 194.642 165.908 195.2 166.228C195.432 166.365 195.339 166.685 195.339 166.914C194.409 166.548 193.898 165.771 193.293 165.039Z" fill="#9BB982"/>
<path d="M195.386 148.302C195.758 148.439 196.27 148.027 196.502 148.347C196.874 148.85 196.037 148.896 195.991 149.262C195.991 149.354 195.991 149.491 195.991 149.582C195.619 149.262 195.665 148.713 195.386 148.302Z" fill="#9BB982"/>
<path d="M205.851 158.728C205.618 159.185 204.921 159.368 205.246 160.237C204.642 159.917 205.107 159.231 204.502 159.277C204.828 158.774 205.293 158.682 205.851 158.728Z" fill="#9BB982"/>
<path d="M207.665 165.222C207.758 164.307 207.758 164.307 208.874 164.353C208.502 164.765 208.223 165.176 207.665 165.222Z" fill="#9BB982"/>
<path d="M203.805 155.39C204.084 154.612 204.642 155.07 205.107 155.115C204.735 155.39 204.316 155.664 203.805 155.39Z" fill="#9BB982"/>
<path d="M205.153 155.07C205.153 154.795 205.014 154.567 205.293 154.292C205.665 153.926 205.758 154.567 205.99 154.384C205.711 154.658 205.432 154.887 205.153 155.07Z" fill="#9BB982"/>
<path d="M207.619 158.317C207.153 158.454 206.735 158.682 206.27 158.591C206.642 158.179 207.107 158.225 207.619 158.317Z" fill="#9BB982"/>
<path d="M190.27 161.243C190.688 161.289 190.688 161.563 190.688 161.884C190.409 161.746 190.27 161.563 190.27 161.243Z" fill="#9BB982"/>
<path d="M204.502 159.277C204.456 159.414 204.409 159.46 204.27 159.506C204.27 159.368 204.363 159.277 204.502 159.277Z" fill="#9BB982"/>
<path d="M197.572 167.097C197.34 167.097 197.247 166.96 197.2 166.777C197.154 166.64 197.293 166.594 197.386 166.548C197.619 166.502 197.712 166.64 197.758 166.868C197.805 167.005 197.712 167.097 197.572 167.097Z" fill="#9BB982"/>
<path d="M199.712 162.387C199.665 162.341 199.619 162.295 199.619 162.249C199.619 162.204 199.665 162.158 199.712 162.067C199.758 162.112 199.805 162.158 199.805 162.249C199.805 162.295 199.758 162.341 199.712 162.387Z" fill="#9BB982"/>
<path d="M197.805 168.926C197.851 168.926 197.944 168.926 197.991 168.926C197.991 169.018 197.991 169.063 197.991 169.155C197.944 169.109 197.898 169.018 197.805 168.926Z" fill="#94B278"/>
<path d="M198.037 169.155C198.084 169.155 198.132 169.201 198.132 169.201C198.084 169.294 198.084 169.248 198.037 169.155Z" fill="#94B278"/>
<path d="M201.153 158.408C201.014 158.317 200.874 158.271 200.688 158.179C200.735 157.997 200.642 157.676 200.874 157.631C201.2 157.539 201.386 157.859 201.479 158.134C201.572 158.362 201.339 158.362 201.153 158.408Z" fill="#89AB69"/>
<path d="M200.921 159.506C201.014 159.506 201.061 159.506 201.154 159.506C201.154 159.917 200.828 160.192 200.874 160.603C200.642 160.329 200.735 160.009 200.735 159.734C200.781 159.643 200.874 159.597 200.921 159.506Z" fill="#89AB69"/>
<path d="M200.921 159.506C200.828 159.597 200.781 159.643 200.688 159.734C200.781 159.643 200.874 159.597 200.921 159.506Z" fill="#9BB982"/>
<path d="M120.633 138C120.466 138.033 120.35 137.953 120.283 137.76C120.216 137.56 120.18 137.267 120.173 136.88C120.16 136.313 120.14 135.84 120.113 135.46C120.093 135.073 120.053 134.727 119.993 134.42C119.373 134.713 118.76 134.983 118.153 135.23C117.553 135.47 117.253 135.587 117.253 135.58L117.273 137.71C117.273 137.81 117.213 137.873 117.093 137.9C116.933 137.933 116.826 137.843 116.773 137.63C116.726 137.41 116.693 137.067 116.673 136.6C116.66 136.18 116.64 135.883 116.613 135.71C116.426 135.803 116.266 135.847 116.133 135.84C116.106 135.787 116.093 135.677 116.093 135.51C116.146 135.49 116.21 135.467 116.283 135.44C116.363 135.413 116.42 135.383 116.453 135.35C116.493 135.31 116.513 135.253 116.513 135.18C116.513 134.847 116.48 134.333 116.413 133.64C116.34 133.013 116.303 132.497 116.303 132.09L116.313 131.63C116.333 131.583 116.356 131.553 116.383 131.54C116.416 131.527 116.46 131.52 116.513 131.52C116.626 131.52 116.683 131.557 116.683 131.63L117.093 135.15C117.28 135.103 117.59 134.983 118.023 134.79C118.456 134.597 119.123 134.283 120.023 133.85L120.063 131.63C120.063 131.37 120.16 131.24 120.353 131.24C120.433 131.24 120.486 131.27 120.513 131.33C120.546 131.39 120.556 131.49 120.543 131.63L120.533 133.36C120.533 133.947 120.566 134.71 120.633 135.65C120.653 135.837 120.67 136.017 120.683 136.19C120.703 136.357 120.72 136.517 120.733 136.67C120.773 137.083 120.8 137.347 120.813 137.46C120.833 137.567 120.863 137.663 120.903 137.75C120.87 137.883 120.78 137.967 120.633 138ZM124.774 138C124.08 138 123.477 137.88 122.964 137.64C122.457 137.393 122.204 136.963 122.204 136.35C122.204 136.13 122.27 135.917 122.404 135.71C122.537 135.503 122.734 135.337 122.994 135.21C123.254 135.077 123.57 135.01 123.944 135.01C124.23 135.01 124.474 135.023 124.674 135.05C124.874 135.077 125.104 135.15 125.364 135.27C125.624 135.39 125.894 135.58 126.174 135.84C126.067 135.38 125.907 134.977 125.694 134.63C125.48 134.283 125.24 134.017 124.974 133.83C124.714 133.637 124.457 133.54 124.204 133.54C124.084 133.54 123.97 133.563 123.864 133.61C123.764 133.65 123.64 133.71 123.494 133.79C123.327 133.897 123.204 133.95 123.124 133.95C123.09 133.95 123.06 133.94 123.034 133.92C123.014 133.893 123.004 133.863 123.004 133.83C123.004 133.563 123.12 133.357 123.354 133.21C123.594 133.063 123.884 132.997 124.224 133.01C124.69 133.037 125.117 133.237 125.504 133.61C125.89 133.977 126.194 134.433 126.414 134.98C126.64 135.527 126.754 136.063 126.754 136.59C126.754 136.677 126.747 136.8 126.734 136.96L126.414 136.94C126.16 136.427 125.834 136.063 125.434 135.85C125.04 135.63 124.644 135.52 124.244 135.52C123.73 135.52 123.364 135.597 123.144 135.75C122.924 135.903 122.814 136.127 122.814 136.42C122.814 136.727 122.967 136.973 123.274 137.16C123.58 137.347 123.974 137.44 124.454 137.44C124.72 137.44 124.934 137.427 125.094 137.4C125.254 137.367 125.42 137.323 125.594 137.27C125.734 137.223 125.857 137.19 125.964 137.17C126.07 137.15 126.207 137.14 126.374 137.14C126.56 137.14 126.677 137.153 126.724 137.18C126.777 137.207 126.804 137.267 126.804 137.36C126.804 137.427 126.667 137.51 126.394 137.61C126.12 137.71 125.814 137.8 125.474 137.88C125.134 137.96 124.9 138 124.774 138ZM129.184 141.56C129.051 141.56 128.891 141.203 128.704 140.49C128.524 139.777 128.361 138.983 128.214 138.11C128.074 137.243 128.004 136.697 128.004 136.47C128.004 135.797 128.231 135.307 128.684 135C129.137 134.687 129.721 134.53 130.434 134.53C130.814 134.53 131.174 134.61 131.514 134.77C131.854 134.923 132.127 135.147 132.334 135.44C132.541 135.727 132.644 136.06 132.644 136.44C132.644 136.913 132.477 137.247 132.144 137.44C131.817 137.633 131.404 137.73 130.904 137.73C130.384 137.73 129.941 137.643 129.574 137.47C129.214 137.29 129.034 137.047 129.034 136.74L129.044 136.64C129.091 136.587 129.141 136.56 129.194 136.56C129.241 136.56 129.291 136.58 129.344 136.62C129.404 136.653 129.467 136.693 129.534 136.74C129.741 136.893 129.944 137.017 130.144 137.11C130.351 137.203 130.607 137.25 130.914 137.25C131.334 137.25 131.631 137.177 131.804 137.03C131.984 136.877 132.074 136.637 132.074 136.31C132.074 136.07 131.994 135.857 131.834 135.67C131.674 135.483 131.467 135.34 131.214 135.24C130.961 135.14 130.701 135.09 130.434 135.09C129.814 135.09 129.347 135.223 129.034 135.49C128.721 135.75 128.581 136.187 128.614 136.8C128.674 137.84 128.767 138.713 128.894 139.42C129.027 140.127 129.257 140.727 129.584 141.22L129.594 141.24C129.594 141.253 129.577 141.267 129.544 141.28C129.517 141.3 129.497 141.317 129.484 141.33C129.404 141.457 129.304 141.533 129.184 141.56ZM135.023 141.56C134.89 141.56 134.73 141.203 134.543 140.49C134.363 139.777 134.2 138.983 134.053 138.11C133.913 137.243 133.843 136.697 133.843 136.47C133.843 135.797 134.07 135.307 134.523 135C134.977 134.687 135.56 134.53 136.273 134.53C136.653 134.53 137.013 134.61 137.353 134.77C137.693 134.923 137.967 135.147 138.173 135.44C138.38 135.727 138.483 136.06 138.483 136.44C138.483 136.913 138.317 137.247 137.983 137.44C137.657 137.633 137.243 137.73 136.743 137.73C136.223 137.73 135.78 137.643 135.413 137.47C135.053 137.29 134.873 137.047 134.873 136.74L134.883 136.64C134.93 136.587 134.98 136.56 135.033 136.56C135.08 136.56 135.13 136.58 135.183 136.62C135.243 136.653 135.307 136.693 135.373 136.74C135.58 136.893 135.783 137.017 135.983 137.11C136.19 137.203 136.447 137.25 136.753 137.25C137.173 137.25 137.47 137.177 137.643 137.03C137.823 136.877 137.913 136.637 137.913 136.31C137.913 136.07 137.833 135.857 137.673 135.67C137.513 135.483 137.307 135.34 137.053 135.24C136.8 135.14 136.54 135.09 136.273 135.09C135.653 135.09 135.187 135.223 134.873 135.49C134.56 135.75 134.42 136.187 134.453 136.8C134.513 137.84 134.607 138.713 134.733 139.42C134.867 140.127 135.097 140.727 135.423 141.22L135.433 141.24C135.433 141.253 135.417 141.267 135.383 141.28C135.357 141.3 135.337 141.317 135.323 141.33C135.243 141.457 135.143 141.533 135.023 141.56ZM142.423 142.73C141.969 142.73 141.563 142.633 141.203 142.44C140.849 142.247 140.566 142.023 140.353 141.77C140.139 141.517 140.019 141.31 139.993 141.15C139.966 141.003 139.999 140.89 140.093 140.81C140.193 140.73 140.316 140.697 140.463 140.71C140.669 141.203 140.916 141.583 141.203 141.85C141.489 142.117 141.899 142.257 142.433 142.27C142.806 142.277 143.103 142.037 143.323 141.55C143.549 141.07 143.709 140.48 143.803 139.78C143.896 139.087 143.943 138.403 143.943 137.73C143.943 137.383 143.933 137.1 143.913 136.88C143.406 137.5 142.759 137.81 141.973 137.81C141.293 137.81 140.769 137.487 140.403 136.84C140.043 136.193 139.809 135.463 139.703 134.65C139.689 134.57 139.683 134.457 139.683 134.31C139.683 133.89 139.819 133.68 140.093 133.68C140.119 133.68 140.156 133.847 140.203 134.18C140.276 134.707 140.366 135.18 140.473 135.6C140.579 136.02 140.756 136.403 141.003 136.75C141.256 137.09 141.589 137.26 142.003 137.26C142.329 137.26 142.663 137.153 143.003 136.94C143.349 136.72 143.599 136.477 143.753 136.21C143.753 135.703 143.686 135.25 143.553 134.85C143.426 134.443 143.359 134.227 143.353 134.2C143.339 134.053 143.333 133.96 143.333 133.92C143.333 133.787 143.353 133.69 143.393 133.63C143.439 133.57 143.506 133.54 143.593 133.54C143.686 133.54 143.793 133.73 143.913 134.11C144.033 134.49 144.139 134.987 144.233 135.6C144.326 136.213 144.389 136.853 144.423 137.52C144.436 137.867 144.443 138.123 144.443 138.29C144.443 139.57 144.283 140.63 143.963 141.47C143.649 142.31 143.136 142.73 142.423 142.73ZM152.629 138.01C151.356 138.01 150.369 137.94 149.669 137.8C149.489 134.46 149.326 132.44 149.179 131.74L148.879 131.81C148.719 131.843 148.566 131.88 148.419 131.92C148.273 131.953 148.116 132.003 147.949 132.07L147.939 131.73C147.939 131.617 148.063 131.513 148.309 131.42C148.556 131.32 148.853 131.243 149.199 131.19C149.553 131.13 149.866 131.1 150.139 131.1C150.439 131.1 150.783 131.153 151.169 131.26C151.563 131.367 151.899 131.527 152.179 131.74C152.459 131.947 152.599 132.193 152.599 132.48C152.599 132.807 152.473 133.097 152.219 133.35C151.973 133.597 151.649 133.773 151.249 133.88C151.836 133.98 152.383 134.16 152.889 134.42C153.396 134.673 153.803 134.99 154.109 135.37C154.416 135.743 154.569 136.147 154.569 136.58C154.569 137.08 154.376 137.443 153.989 137.67C153.603 137.897 153.149 138.01 152.629 138.01ZM152.369 137.44C152.863 137.44 153.243 137.387 153.509 137.28C153.776 137.167 153.909 136.927 153.909 136.56C153.909 136.173 153.793 135.85 153.559 135.59C153.333 135.323 153.063 135.117 152.749 134.97C152.443 134.817 152.059 134.657 151.599 134.49C151.233 134.363 150.959 134.253 150.779 134.16C150.606 134.06 150.519 133.95 150.519 133.83C150.519 133.743 150.563 133.677 150.649 133.63C150.736 133.583 150.889 133.517 151.109 133.43C151.409 133.33 151.643 133.223 151.809 133.11C151.983 132.99 152.069 132.823 152.069 132.61C152.069 132.297 151.879 132.057 151.499 131.89C151.119 131.717 150.693 131.63 150.219 131.63C150.086 131.63 149.926 131.643 149.739 131.67C149.913 132.79 150.033 133.733 150.099 134.5C150.166 135.26 150.213 136.143 150.239 137.15C150.333 137.243 150.569 137.313 150.949 137.36C151.329 137.407 151.803 137.433 152.369 137.44ZM156.338 138.01C156.185 138.01 156.061 137.787 155.968 137.34C155.875 136.887 155.815 136.497 155.788 136.17C155.761 135.843 155.725 135.327 155.678 134.62C155.671 134.507 155.668 134.36 155.668 134.18C155.668 133.953 155.685 133.797 155.718 133.71C155.758 133.623 155.821 133.58 155.908 133.58C155.981 133.58 156.038 133.597 156.078 133.63C156.125 133.657 156.165 133.703 156.198 133.77L156.188 134.17C156.188 134.597 156.208 135 156.248 135.38C156.295 135.76 156.365 136.27 156.458 136.91C156.511 137.19 156.548 137.42 156.568 137.6C156.581 137.693 156.565 137.787 156.518 137.88C156.471 137.967 156.411 138.01 156.338 138.01ZM156.088 132.51C155.941 132.51 155.831 132.453 155.758 132.34C155.691 132.227 155.658 132.087 155.658 131.92C155.658 131.847 155.661 131.793 155.668 131.76C155.661 131.653 155.721 131.6 155.848 131.6C155.941 131.6 156.035 131.623 156.128 131.67C156.228 131.71 156.258 131.74 156.218 131.76C156.285 131.933 156.318 132.07 156.318 132.17C156.318 132.257 156.298 132.327 156.258 132.38C156.218 132.427 156.161 132.47 156.088 132.51ZM158.745 138C158.472 137.467 158.255 136.84 158.095 136.12C157.942 135.4 157.865 134.777 157.865 134.25C157.865 134.043 157.912 133.91 158.005 133.85C158.058 133.817 158.098 133.8 158.125 133.8C158.172 133.8 158.205 133.837 158.225 133.91C158.252 133.983 158.278 134.117 158.305 134.31L158.355 134.67C158.428 134.31 158.568 134.027 158.775 133.82C158.988 133.607 159.248 133.5 159.555 133.5C159.895 133.5 160.148 133.567 160.315 133.7C160.482 133.827 160.565 134.04 160.565 134.34C160.232 134.18 159.928 134.1 159.655 134.1C159.395 134.1 159.172 134.17 158.985 134.31C158.798 134.45 158.668 134.657 158.595 134.93C158.535 135.117 158.505 135.293 158.505 135.46C158.505 135.64 158.528 135.81 158.575 135.97C158.628 136.123 158.708 136.313 158.815 136.54C158.915 136.773 158.992 136.973 159.045 137.14C159.105 137.307 159.138 137.487 159.145 137.68C159.145 137.793 159.105 137.877 159.025 137.93C158.945 137.977 158.852 138 158.745 138ZM162.971 138C162.904 138.013 162.861 138.02 162.841 138.02C162.634 138.02 162.491 137.867 162.411 137.56C162.337 137.253 162.301 136.823 162.301 136.27C162.301 136.043 162.307 135.69 162.321 135.21C162.334 134.917 162.341 134.697 162.341 134.55C161.521 134.55 161.111 134.457 161.111 134.27C161.111 134.21 161.117 134.163 161.131 134.13C161.151 134.097 161.191 134.08 161.251 134.08L162.341 134.01C162.334 133.683 162.317 133.327 162.291 132.94C162.264 132.593 162.247 132.273 162.241 131.98C162.241 131.907 162.271 131.857 162.331 131.83C162.391 131.797 162.454 131.78 162.521 131.78C162.601 131.78 162.667 131.823 162.721 131.91C162.774 131.99 162.801 132.073 162.801 132.16L162.871 133.99L163.701 134.03C163.827 134.017 163.934 134.04 164.021 134.1C164.114 134.16 164.164 134.26 164.171 134.4C164.031 134.46 163.877 134.497 163.711 134.51C163.544 134.523 163.264 134.53 162.871 134.53C162.871 135.15 162.901 136.17 162.961 137.59C162.961 137.737 162.961 137.84 162.961 137.9C162.967 137.953 162.971 137.987 162.971 138ZM166.22 137.98C166.187 137.987 166.15 137.86 166.11 137.6C166.077 137.34 166.03 136.893 165.97 136.26C165.877 135.22 165.77 134.267 165.65 133.4C165.537 132.533 165.393 131.783 165.22 131.15C165.207 131.097 165.227 131.05 165.28 131.01C165.333 130.97 165.407 130.95 165.5 130.95C165.547 130.95 165.583 130.953 165.61 130.96C165.777 131.413 165.893 131.813 165.96 132.16C166.033 132.507 166.1 132.933 166.16 133.44L166.21 133.83C166.61 133.59 166.977 133.47 167.31 133.47C167.917 133.47 168.347 133.747 168.6 134.3C168.86 134.847 168.99 135.627 168.99 136.64C168.99 137.027 168.967 137.353 168.92 137.62C168.873 137.88 168.817 138.01 168.75 138.01C168.663 138.01 168.567 137.947 168.46 137.82V137.49L168.47 136.4C168.47 136.193 168.463 135.937 168.45 135.63C168.43 135.11 168.323 134.717 168.13 134.45C167.943 134.183 167.62 134.05 167.16 134.05C166.853 134.05 166.567 134.163 166.3 134.39C166.3 134.643 166.31 134.903 166.33 135.17C166.357 135.437 166.387 135.697 166.42 135.95C166.467 136.303 166.5 136.617 166.52 136.89C166.547 137.157 166.56 137.453 166.56 137.78C166.52 137.86 166.473 137.913 166.42 137.94C166.373 137.967 166.307 137.98 166.22 137.98ZM171.976 137.99C171.663 137.99 171.389 137.883 171.156 137.67C170.929 137.457 170.756 137.18 170.636 136.84C170.523 136.5 170.466 136.147 170.466 135.78C170.466 135.14 170.599 134.6 170.866 134.16C171.139 133.72 171.553 133.5 172.106 133.5C172.439 133.5 172.729 133.56 172.976 133.68C173.229 133.793 173.559 133.987 173.966 134.26L174.226 134.44C174.193 134.22 174.143 133.967 174.076 133.68C174.009 133.393 173.966 133.197 173.946 133.09C173.833 132.57 173.749 132.183 173.696 131.93C173.649 131.67 173.626 131.44 173.626 131.24C173.626 130.887 173.726 130.71 173.926 130.71C173.999 130.87 174.086 131.213 174.186 131.74C174.286 132.26 174.413 132.973 174.566 133.88C174.726 134.84 174.866 135.623 174.986 136.23C175.106 136.837 175.206 137.217 175.286 137.37C175.286 137.523 175.173 137.6 174.946 137.6C174.773 137.6 174.653 137.5 174.586 137.3C174.526 137.1 174.489 136.75 174.476 136.25H174.396C174.116 136.757 173.753 137.173 173.306 137.5C172.859 137.827 172.416 137.99 171.976 137.99ZM172.106 137.5C172.379 137.5 172.673 137.387 172.986 137.16C173.306 136.927 173.576 136.647 173.796 136.32C174.016 135.987 174.126 135.687 174.126 135.42V135.12C173.439 134.4 172.806 134.04 172.226 134.04C171.819 134.04 171.506 134.19 171.286 134.49C171.066 134.783 170.956 135.17 170.956 135.65L170.966 135.86C171.006 136.367 171.119 136.767 171.306 137.06C171.493 137.353 171.759 137.5 172.106 137.5ZM178.851 138C178.158 138 177.555 137.88 177.041 137.64C176.535 137.393 176.281 136.963 176.281 136.35C176.281 136.13 176.348 135.917 176.481 135.71C176.615 135.503 176.811 135.337 177.071 135.21C177.331 135.077 177.648 135.01 178.021 135.01C178.308 135.01 178.551 135.023 178.751 135.05C178.951 135.077 179.181 135.15 179.441 135.27C179.701 135.39 179.971 135.58 180.251 135.84C180.145 135.38 179.985 134.977 179.771 134.63C179.558 134.283 179.318 134.017 179.051 133.83C178.791 133.637 178.535 133.54 178.281 133.54C178.161 133.54 178.048 133.563 177.941 133.61C177.841 133.65 177.718 133.71 177.571 133.79C177.405 133.897 177.281 133.95 177.201 133.95C177.168 133.95 177.138 133.94 177.111 133.92C177.091 133.893 177.081 133.863 177.081 133.83C177.081 133.563 177.198 133.357 177.431 133.21C177.671 133.063 177.961 132.997 178.301 133.01C178.768 133.037 179.195 133.237 179.581 133.61C179.968 133.977 180.271 134.433 180.491 134.98C180.718 135.527 180.831 136.063 180.831 136.59C180.831 136.677 180.825 136.8 180.811 136.96L180.491 136.94C180.238 136.427 179.911 136.063 179.511 135.85C179.118 135.63 178.721 135.52 178.321 135.52C177.808 135.52 177.441 135.597 177.221 135.75C177.001 135.903 176.891 136.127 176.891 136.42C176.891 136.727 177.045 136.973 177.351 137.16C177.658 137.347 178.051 137.44 178.531 137.44C178.798 137.44 179.011 137.427 179.171 137.4C179.331 137.367 179.498 137.323 179.671 137.27C179.811 137.223 179.935 137.19 180.041 137.17C180.148 137.15 180.285 137.14 180.451 137.14C180.638 137.14 180.755 137.153 180.801 137.18C180.855 137.207 180.881 137.267 180.881 137.36C180.881 137.427 180.745 137.51 180.471 137.61C180.198 137.71 179.891 137.8 179.551 137.88C179.211 137.96 178.978 138 178.851 138ZM184.822 142.73C184.368 142.73 183.962 142.633 183.602 142.44C183.248 142.247 182.965 142.023 182.752 141.77C182.538 141.517 182.418 141.31 182.392 141.15C182.365 141.003 182.398 140.89 182.492 140.81C182.592 140.73 182.715 140.697 182.862 140.71C183.068 141.203 183.315 141.583 183.602 141.85C183.888 142.117 184.298 142.257 184.832 142.27C185.205 142.277 185.502 142.037 185.722 141.55C185.948 141.07 186.108 140.48 186.202 139.78C186.295 139.087 186.342 138.403 186.342 137.73C186.342 137.383 186.332 137.1 186.312 136.88C185.805 137.5 185.158 137.81 184.372 137.81C183.692 137.81 183.168 137.487 182.802 136.84C182.442 136.193 182.208 135.463 182.102 134.65C182.088 134.57 182.082 134.457 182.082 134.31C182.082 133.89 182.218 133.68 182.492 133.68C182.518 133.68 182.555 133.847 182.602 134.18C182.675 134.707 182.765 135.18 182.872 135.6C182.978 136.02 183.155 136.403 183.402 136.75C183.655 137.09 183.988 137.26 184.402 137.26C184.728 137.26 185.062 137.153 185.402 136.94C185.748 136.72 185.998 136.477 186.152 136.21C186.152 135.703 186.085 135.25 185.952 134.85C185.825 134.443 185.758 134.227 185.752 134.2C185.738 134.053 185.732 133.96 185.732 133.92C185.732 133.787 185.752 133.69 185.792 133.63C185.838 133.57 185.905 133.54 185.992 133.54C186.085 133.54 186.192 133.73 186.312 134.11C186.432 134.49 186.538 134.987 186.632 135.6C186.725 136.213 186.788 136.853 186.822 137.52C186.835 137.867 186.842 138.123 186.842 138.29C186.842 139.57 186.682 140.63 186.362 141.47C186.048 142.31 185.535 142.73 184.822 142.73ZM188.268 135.84C188.175 135.84 188.118 135.8 188.098 135.72C188.045 135.367 188.018 134.78 188.018 133.96L188.028 132.9C188.035 132.673 188.038 132.35 188.038 131.93C188.038 131.523 188.028 131.197 188.008 130.95C188.015 130.917 188.045 130.89 188.098 130.87C188.158 130.843 188.228 130.83 188.308 130.83C188.382 130.83 188.442 130.84 188.488 130.86C188.495 131.3 188.508 132.017 188.528 133.01C188.555 133.997 188.575 134.74 188.588 135.24L188.598 135.47C188.598 135.717 188.515 135.84 188.348 135.84H188.268ZM188.248 138.01C188.088 138.01 187.972 137.97 187.898 137.89C187.832 137.803 187.798 137.68 187.798 137.52C187.798 137.333 187.865 137.193 187.998 137.1C188.138 137.007 188.315 136.96 188.528 136.96C188.655 136.96 188.758 137.023 188.838 137.15C188.918 137.27 188.958 137.393 188.958 137.52C188.958 137.653 188.875 137.77 188.708 137.87C188.548 137.963 188.395 138.01 188.248 138.01Z" fill="black"/>
<path d="M120.107 157.842C119.687 157.842 119.314 157.688 118.987 157.382C118.661 157.068 118.381 156.645 118.147 156.112C118.014 156.638 117.801 157.032 117.507 157.292C117.214 157.545 116.891 157.672 116.537 157.672C116.037 157.672 115.667 157.242 115.427 156.382C115.194 155.522 115.077 154.492 115.077 153.292C115.077 152.945 115.104 152.672 115.157 152.472C115.211 152.265 115.311 152.162 115.457 152.162C115.517 152.162 115.564 152.275 115.597 152.502C115.637 152.728 115.657 153.015 115.657 153.362C115.657 155.855 115.977 157.102 116.617 157.102C116.857 157.102 117.061 157.035 117.227 156.902C117.394 156.768 117.551 156.552 117.697 156.252C117.771 156.072 117.807 155.775 117.807 155.362L117.797 154.732C117.831 154.672 117.891 154.642 117.977 154.642C118.037 154.642 118.094 154.658 118.147 154.692C118.207 154.718 118.247 154.765 118.267 154.832C118.314 155.185 118.407 155.545 118.547 155.912C118.694 156.272 118.887 156.578 119.127 156.832C119.374 157.078 119.664 157.202 119.997 157.202C120.457 157.202 120.784 157.102 120.977 156.902C121.171 156.695 121.267 156.418 121.267 156.072C121.267 155.318 121.214 154.715 121.107 154.262C121.007 153.802 120.874 153.368 120.707 152.962C120.634 152.768 120.581 152.625 120.547 152.532C120.521 152.438 120.507 152.342 120.507 152.242C120.554 152.135 120.617 152.082 120.697 152.082C120.844 152.082 121.004 152.258 121.177 152.612C121.357 152.965 121.511 153.442 121.637 154.042C121.764 154.635 121.827 155.275 121.827 155.962C121.827 156.342 121.747 156.675 121.587 156.962C121.434 157.242 121.224 157.458 120.957 157.612C120.697 157.765 120.414 157.842 120.107 157.842ZM124.299 157.852C124.146 157.852 124.023 157.628 123.929 157.182C123.836 156.728 123.776 156.338 123.749 156.012C123.723 155.685 123.686 155.168 123.639 154.462C123.633 154.348 123.629 154.202 123.629 154.022C123.629 153.795 123.646 153.638 123.679 153.552C123.719 153.465 123.783 153.422 123.869 153.422C123.943 153.422 123.999 153.438 124.039 153.472C124.086 153.498 124.126 153.545 124.159 153.612L124.149 154.012C124.149 154.438 124.169 154.842 124.209 155.222C124.256 155.602 124.326 156.112 124.419 156.752C124.473 157.032 124.509 157.262 124.529 157.442C124.543 157.535 124.526 157.628 124.479 157.722C124.433 157.808 124.373 157.852 124.299 157.852ZM124.049 152.352C123.903 152.352 123.793 152.295 123.719 152.182C123.653 152.068 123.619 151.928 123.619 151.762C123.619 151.688 123.623 151.635 123.629 151.602C123.623 151.495 123.683 151.442 123.809 151.442C123.903 151.442 123.996 151.465 124.089 151.512C124.189 151.552 124.219 151.582 124.179 151.602C124.246 151.775 124.279 151.912 124.279 152.012C124.279 152.098 124.259 152.168 124.219 152.222C124.179 152.268 124.123 152.312 124.049 152.352ZM125.876 156.662C125.969 156.588 126.059 156.552 126.146 156.552C126.226 156.552 126.303 156.575 126.376 156.622C126.456 156.668 126.536 156.728 126.616 156.802C126.696 156.868 126.759 156.918 126.806 156.952C126.959 157.072 127.169 157.165 127.436 157.232C127.703 157.298 127.986 157.332 128.286 157.332C128.626 157.332 128.929 157.268 129.196 157.142C129.469 157.008 129.606 156.832 129.606 156.612C129.606 156.412 129.533 156.255 129.386 156.142C129.239 156.022 129.063 155.935 128.856 155.882C128.649 155.828 128.376 155.778 128.036 155.732C127.576 155.678 127.209 155.612 126.936 155.532C126.669 155.452 126.456 155.322 126.296 155.142C126.136 154.955 126.056 154.695 126.056 154.362C126.056 154.002 126.226 153.735 126.566 153.562C126.906 153.382 127.296 153.292 127.736 153.292C128.136 153.292 128.476 153.378 128.756 153.552C129.043 153.718 129.189 153.958 129.196 154.272C129.209 154.452 129.183 154.595 129.116 154.702C129.049 154.802 128.969 154.852 128.876 154.852C128.823 154.852 128.776 154.832 128.736 154.792C128.703 154.752 128.686 154.698 128.686 154.632C128.686 154.525 128.723 154.408 128.796 154.282C128.763 154.122 128.653 154.002 128.466 153.922C128.286 153.842 128.069 153.802 127.816 153.802C127.443 153.802 127.146 153.872 126.926 154.012C126.706 154.145 126.596 154.305 126.596 154.492C126.596 154.692 126.676 154.845 126.836 154.952C126.996 155.058 127.189 155.135 127.416 155.182C127.649 155.222 127.979 155.262 128.406 155.302C128.759 155.348 129.046 155.405 129.266 155.472C129.493 155.538 129.683 155.668 129.836 155.862C129.989 156.048 130.066 156.318 130.066 156.672C130.066 157.038 129.896 157.328 129.556 157.542C129.216 157.748 128.809 157.852 128.336 157.852C127.729 157.852 127.186 157.748 126.706 157.542C126.233 157.335 125.956 157.042 125.876 156.662ZM132.414 157.822C132.381 157.828 132.344 157.702 132.304 157.442C132.271 157.182 132.224 156.735 132.164 156.102C132.071 155.062 131.964 154.108 131.844 153.242C131.731 152.375 131.587 151.625 131.414 150.992C131.401 150.938 131.421 150.892 131.474 150.852C131.527 150.812 131.601 150.792 131.694 150.792C131.741 150.792 131.777 150.795 131.804 150.802C131.971 151.255 132.087 151.655 132.154 152.002C132.227 152.348 132.294 152.775 132.354 153.282L132.404 153.672C132.804 153.432 133.171 153.312 133.504 153.312C134.111 153.312 134.541 153.588 134.794 154.142C135.054 154.688 135.184 155.468 135.184 156.482C135.184 156.868 135.161 157.195 135.114 157.462C135.067 157.722 135.011 157.852 134.944 157.852C134.857 157.852 134.761 157.788 134.654 157.662V157.332L134.664 156.242C134.664 156.035 134.657 155.778 134.644 155.472C134.624 154.952 134.517 154.558 134.324 154.292C134.137 154.025 133.814 153.892 133.354 153.892C133.047 153.892 132.761 154.005 132.494 154.232C132.494 154.485 132.504 154.745 132.524 155.012C132.551 155.278 132.581 155.538 132.614 155.792C132.661 156.145 132.694 156.458 132.714 156.732C132.741 156.998 132.754 157.295 132.754 157.622C132.714 157.702 132.667 157.755 132.614 157.782C132.567 157.808 132.501 157.822 132.414 157.822ZM142.1 162.572C141.647 162.572 141.24 162.475 140.88 162.282C140.527 162.088 140.243 161.865 140.03 161.612C139.817 161.358 139.697 161.152 139.67 160.992C139.643 160.845 139.677 160.732 139.77 160.652C139.87 160.572 139.993 160.538 140.14 160.552C140.347 161.045 140.593 161.425 140.88 161.692C141.167 161.958 141.577 162.098 142.11 162.112C142.483 162.118 142.78 161.878 143 161.392C143.227 160.912 143.387 160.322 143.48 159.622C143.573 158.928 143.62 158.245 143.62 157.572C143.62 157.225 143.61 156.942 143.59 156.722C143.083 157.342 142.437 157.652 141.65 157.652C140.97 157.652 140.447 157.328 140.08 156.682C139.72 156.035 139.487 155.305 139.38 154.492C139.367 154.412 139.36 154.298 139.36 154.152C139.36 153.732 139.497 153.522 139.77 153.522C139.797 153.522 139.833 153.688 139.88 154.022C139.953 154.548 140.043 155.022 140.15 155.442C140.257 155.862 140.433 156.245 140.68 156.592C140.933 156.932 141.267 157.102 141.68 157.102C142.007 157.102 142.34 156.995 142.68 156.782C143.027 156.562 143.277 156.318 143.43 156.052C143.43 155.545 143.363 155.092 143.23 154.692C143.103 154.285 143.037 154.068 143.03 154.042C143.017 153.895 143.01 153.802 143.01 153.762C143.01 153.628 143.03 153.532 143.07 153.472C143.117 153.412 143.183 153.382 143.27 153.382C143.363 153.382 143.47 153.572 143.59 153.952C143.71 154.332 143.817 154.828 143.91 155.442C144.003 156.055 144.067 156.695 144.1 157.362C144.113 157.708 144.12 157.965 144.12 158.132C144.12 159.412 143.96 160.472 143.64 161.312C143.327 162.152 142.813 162.572 142.1 162.572ZM147.689 157.852C147.296 157.852 146.939 157.765 146.619 157.592C146.306 157.412 146.059 157.165 145.879 156.852C145.706 156.532 145.619 156.168 145.619 155.762C145.619 155.095 145.863 154.598 146.349 154.272C146.843 153.945 147.446 153.782 148.159 153.782C148.486 153.782 148.789 153.862 149.069 154.022C149.356 154.182 149.586 154.412 149.759 154.712C149.933 155.012 150.019 155.358 150.019 155.752C150.019 156.178 149.909 156.552 149.689 156.872C149.469 157.185 149.179 157.428 148.819 157.602C148.466 157.768 148.089 157.852 147.689 157.852ZM147.579 157.282C148.199 157.282 148.669 157.142 148.989 156.862C149.309 156.582 149.469 156.172 149.469 155.632C149.469 155.265 149.343 154.948 149.089 154.682C148.843 154.415 148.496 154.282 148.049 154.282C147.749 154.282 147.446 154.338 147.139 154.452C146.833 154.565 146.579 154.735 146.379 154.962C146.179 155.188 146.079 155.462 146.079 155.782C146.079 156.048 146.146 156.298 146.279 156.532C146.413 156.758 146.593 156.942 146.819 157.082C147.053 157.215 147.306 157.282 147.579 157.282ZM155.815 157.792C155.695 157.792 155.598 157.742 155.525 157.642C155.458 157.535 155.398 157.375 155.345 157.162C155.291 156.942 155.208 156.562 155.095 156.022C154.981 156.468 154.768 156.825 154.455 157.092C154.141 157.352 153.758 157.482 153.305 157.482C152.891 157.482 152.541 157.338 152.255 157.052C151.975 156.758 151.765 156.375 151.625 155.902C151.485 155.422 151.415 154.905 151.415 154.352C151.415 154.098 151.438 153.882 151.485 153.702C151.538 153.515 151.601 153.375 151.675 153.282C151.755 153.188 151.831 153.145 151.905 153.152C151.985 153.152 152.025 153.205 152.025 153.312C152.025 153.398 152.001 153.535 151.955 153.722C151.908 153.928 151.885 154.165 151.885 154.432C151.885 154.832 151.941 155.222 152.055 155.602C152.175 155.982 152.348 156.295 152.575 156.542C152.808 156.782 153.081 156.902 153.395 156.902C153.655 156.902 153.891 156.825 154.105 156.672C154.318 156.518 154.485 156.325 154.605 156.092C154.731 155.858 154.795 155.628 154.795 155.402V153.812C154.868 153.672 154.968 153.602 155.095 153.602C155.208 153.602 155.285 153.698 155.325 153.892C155.365 154.085 155.385 154.358 155.385 154.712C155.385 155.012 155.381 155.242 155.375 155.402C155.415 155.622 155.475 155.845 155.555 156.072C155.641 156.298 155.748 156.555 155.875 156.842C156.028 157.195 156.105 157.412 156.105 157.492C156.105 157.692 156.008 157.792 155.815 157.792ZM157.948 157.842C157.828 157.842 157.721 157.788 157.628 157.682C157.541 157.568 157.471 157.438 157.418 157.292C157.371 157.138 157.348 157.008 157.348 156.902C157.348 156.688 157.378 156.512 157.438 156.372C157.505 156.225 157.581 156.122 157.668 156.062C157.755 155.995 157.835 155.962 157.908 155.962C158.141 155.962 158.328 156.075 158.468 156.302C158.608 156.522 158.678 156.758 158.678 157.012C158.678 157.112 158.638 157.228 158.558 157.362C158.485 157.495 158.391 157.608 158.278 157.702C158.165 157.795 158.055 157.842 157.948 157.842ZM160.389 157.842C160.269 157.842 160.162 157.788 160.069 157.682C159.982 157.568 159.912 157.438 159.859 157.292C159.812 157.138 159.789 157.008 159.789 156.902C159.789 156.688 159.819 156.512 159.879 156.372C159.946 156.225 160.022 156.122 160.109 156.062C160.196 155.995 160.276 155.962 160.349 155.962C160.582 155.962 160.769 156.075 160.909 156.302C161.049 156.522 161.119 156.758 161.119 157.012C161.119 157.112 161.079 157.228 160.999 157.362C160.926 157.495 160.832 157.608 160.719 157.702C160.606 157.795 160.496 157.842 160.389 157.842ZM162.83 157.842C162.71 157.842 162.604 157.788 162.51 157.682C162.424 157.568 162.354 157.438 162.3 157.292C162.254 157.138 162.23 157.008 162.23 156.902C162.23 156.688 162.26 156.512 162.32 156.372C162.387 156.225 162.464 156.122 162.55 156.062C162.637 155.995 162.717 155.962 162.79 155.962C163.024 155.962 163.21 156.075 163.35 156.302C163.49 156.522 163.56 156.758 163.56 157.012C163.56 157.112 163.52 157.228 163.44 157.362C163.367 157.495 163.274 157.608 163.16 157.702C163.047 157.795 162.937 157.842 162.83 157.842Z" fill="black"/>
<path d="M142.584 178.997C141.917 178.997 141.414 178.884 141.074 178.657C140.734 178.424 140.564 178.004 140.564 177.397C140.697 174.064 140.91 172.474 141.204 172.627C141.35 172.634 141.424 172.861 141.424 173.307C141.424 173.581 141.377 174.157 141.284 175.037C141.164 176.051 141.104 176.794 141.104 177.267L141.114 177.557C141.114 177.704 141.157 177.851 141.244 177.997C141.337 178.144 141.454 178.224 141.594 178.237L143.554 178.407C143.627 178.414 143.664 178.484 143.664 178.617C143.664 178.737 143.634 178.821 143.574 178.867C143.52 178.914 143.424 178.951 143.284 178.977L142.584 178.997ZM146.535 178.987C146.142 178.987 145.785 178.901 145.465 178.727C145.152 178.547 144.905 178.301 144.725 177.987C144.552 177.667 144.465 177.304 144.465 176.897C144.465 176.231 144.708 175.734 145.195 175.407C145.688 175.081 146.292 174.917 147.005 174.917C147.332 174.917 147.635 174.997 147.915 175.157C148.202 175.317 148.432 175.547 148.605 175.847C148.778 176.147 148.865 176.494 148.865 176.887C148.865 177.314 148.755 177.687 148.535 178.007C148.315 178.321 148.025 178.564 147.665 178.737C147.312 178.904 146.935 178.987 146.535 178.987ZM146.425 178.417C147.045 178.417 147.515 178.277 147.835 177.997C148.155 177.717 148.315 177.307 148.315 176.767C148.315 176.401 148.188 176.084 147.935 175.817C147.688 175.551 147.342 175.417 146.895 175.417C146.595 175.417 146.292 175.474 145.985 175.587C145.678 175.701 145.425 175.871 145.225 176.097C145.025 176.324 144.925 176.597 144.925 176.917C144.925 177.184 144.992 177.434 145.125 177.667C145.258 177.894 145.438 178.077 145.665 178.217C145.898 178.351 146.152 178.417 146.425 178.417ZM151.78 178.987C151.587 178.987 151.334 178.701 151.02 178.127C150.714 177.547 150.357 176.814 149.95 175.927L149.66 175.307C149.66 175.241 149.7 175.177 149.78 175.117C149.86 175.051 149.98 175.021 150.14 175.027C150.18 175.101 150.307 175.371 150.52 175.837C150.774 176.384 150.987 176.834 151.16 177.187C151.34 177.534 151.557 177.907 151.81 178.307C151.924 177.894 152.05 177.507 152.19 177.147C152.337 176.781 152.554 176.264 152.84 175.597L152.99 175.247C153.03 175.167 153.107 175.127 153.22 175.127C153.3 175.127 153.37 175.147 153.43 175.187C153.49 175.227 153.52 175.284 153.52 175.357C153.52 175.424 153.487 175.494 153.42 175.567C153.374 175.614 153.307 175.751 153.22 175.977C153.134 176.197 153.044 176.444 152.95 176.717C152.697 177.437 152.477 178.001 152.29 178.407C152.104 178.807 151.934 179.001 151.78 178.987ZM156.98 178.977C156.554 178.977 156.16 178.894 155.8 178.727C155.44 178.561 155.154 178.324 154.94 178.017C154.727 177.711 154.62 177.357 154.62 176.957C154.62 176.511 154.704 176.094 154.87 175.707C155.037 175.314 155.28 175.001 155.6 174.767C155.927 174.527 156.307 174.407 156.74 174.407C157.194 174.407 157.537 174.554 157.77 174.847C158.004 175.134 158.114 175.497 158.1 175.937C158.1 176.331 157.944 176.631 157.63 176.837C157.324 177.044 156.93 177.147 156.45 177.147C156.377 177.147 156.267 177.141 156.12 177.127C155.88 177.101 155.71 177.064 155.61 177.017C155.51 176.971 155.46 176.877 155.46 176.737C155.46 176.691 155.474 176.657 155.5 176.637C155.527 176.611 155.58 176.597 155.66 176.597C155.747 176.597 155.9 176.617 156.12 176.657C156.334 176.697 156.524 176.717 156.69 176.717C157.304 176.717 157.61 176.451 157.61 175.917C157.61 175.597 157.55 175.344 157.43 175.157C157.317 174.971 157.114 174.877 156.82 174.877C156.5 174.877 156.214 174.964 155.96 175.137C155.707 175.304 155.51 175.524 155.37 175.797C155.237 176.071 155.17 176.361 155.17 176.667C155.17 177.194 155.317 177.627 155.61 177.967C155.904 178.301 156.357 178.467 156.97 178.467C157.044 178.467 157.167 178.461 157.34 178.447C157.414 178.441 157.504 178.421 157.61 178.387C157.717 178.354 157.794 178.331 157.84 178.317C158.127 178.217 158.337 178.167 158.47 178.167C158.57 178.167 158.647 178.194 158.7 178.247C158.534 178.501 158.284 178.687 157.95 178.807C157.624 178.921 157.3 178.977 156.98 178.977ZM159.793 180.867C159.713 180.867 159.66 180.834 159.633 180.767C159.613 180.707 159.603 180.624 159.603 180.517C159.603 180.297 159.653 179.987 159.753 179.587C159.76 179.547 159.786 179.421 159.833 179.207C159.88 178.994 159.903 178.794 159.903 178.607L159.893 178.237C159.813 178.237 159.76 178.224 159.733 178.197C159.713 178.164 159.703 178.114 159.703 178.047C159.703 177.894 159.726 177.774 159.773 177.687C159.826 177.601 159.92 177.557 160.053 177.557C160.22 177.557 160.33 177.634 160.383 177.787C160.443 177.941 160.473 178.134 160.473 178.367L160.463 178.697C160.463 178.837 160.433 179.087 160.373 179.447C160.313 179.814 160.233 180.141 160.133 180.427C160.033 180.721 159.92 180.867 159.793 180.867ZM169.222 178.987C169.142 178.987 169.085 178.967 169.052 178.927C169.025 178.887 169.012 178.831 169.012 178.757C169.012 178.611 169.045 178.384 169.112 178.077C169.185 177.797 169.222 177.567 169.222 177.387C169.222 176.867 169.182 176.471 169.102 176.197H168.792C168.518 176.197 168.162 176.191 167.722 176.177L166.782 176.167H165.432L165.452 176.557C165.452 176.864 165.502 177.247 165.602 177.707C165.635 177.894 165.665 178.084 165.692 178.277C165.725 178.464 165.742 178.634 165.742 178.787V178.877C165.675 178.944 165.605 178.977 165.532 178.977C165.358 178.977 165.222 178.774 165.122 178.367C165.022 177.954 164.972 177.457 164.972 176.877C164.972 176.644 164.982 176.414 165.002 176.187C164.855 176.181 164.755 176.157 164.702 176.117C164.648 176.071 164.622 176.001 164.622 175.907C164.622 175.834 164.642 175.784 164.682 175.757C164.728 175.731 164.808 175.711 164.922 175.697L164.912 175.427L164.942 174.967C164.988 174.214 165.058 173.601 165.152 173.127C165.245 172.654 165.445 172.244 165.752 171.897C166.058 171.551 166.518 171.377 167.132 171.377C167.832 171.377 168.378 171.754 168.772 172.507C169.165 173.261 169.432 174.101 169.572 175.027C169.712 175.954 169.782 176.751 169.782 177.417C169.782 177.657 169.775 177.867 169.762 178.047C169.748 178.221 169.722 178.437 169.682 178.697C169.528 178.891 169.375 178.987 169.222 178.987ZM169.062 175.807C168.935 174.574 168.708 173.607 168.382 172.907C168.055 172.201 167.565 171.847 166.912 171.847C166.425 171.847 166.065 172.074 165.832 172.527C165.605 172.974 165.468 173.454 165.422 173.967C165.375 174.481 165.352 175.057 165.352 175.697L169.062 175.807ZM172.034 179.017C171.94 179.044 171.887 179.057 171.874 179.057C171.82 179.057 171.764 179.031 171.704 178.977C171.484 178.651 171.324 178.081 171.224 177.267C171.13 176.454 171.084 175.754 171.084 175.167C171.084 175.074 171.15 175.027 171.284 175.027C171.484 175.027 171.584 175.137 171.584 175.357C171.584 175.417 171.58 175.467 171.574 175.507C171.634 175.367 171.747 175.224 171.914 175.077C172.08 174.931 172.274 174.807 172.494 174.707C172.714 174.607 172.937 174.557 173.164 174.557C173.877 174.557 174.397 174.874 174.724 175.507C175.05 176.134 175.214 176.914 175.214 177.847C175.214 178.167 175.18 178.424 175.114 178.617C175.047 178.804 174.957 178.897 174.844 178.897C174.724 178.897 174.664 178.861 174.664 178.787C174.71 178.434 174.734 178.087 174.734 177.747C174.734 176.887 174.584 176.237 174.284 175.797C173.984 175.351 173.587 175.127 173.094 175.127C172.854 175.127 172.62 175.187 172.394 175.307C172.174 175.427 171.994 175.594 171.854 175.807C171.72 176.021 171.654 176.264 171.654 176.537C171.654 176.844 171.67 177.111 171.704 177.337C171.737 177.564 171.79 177.837 171.864 178.157C171.944 178.471 172 178.757 172.034 179.017ZM177.365 179.017C177.272 179.044 177.219 179.057 177.205 179.057C177.152 179.057 177.095 179.031 177.035 178.977C176.815 178.651 176.655 178.081 176.555 177.267C176.462 176.454 176.415 175.754 176.415 175.167C176.415 175.074 176.482 175.027 176.615 175.027C176.815 175.027 176.915 175.137 176.915 175.357C176.915 175.417 176.912 175.467 176.905 175.507C176.965 175.367 177.079 175.224 177.245 175.077C177.412 174.931 177.605 174.807 177.825 174.707C178.045 174.607 178.269 174.557 178.495 174.557C179.209 174.557 179.729 174.874 180.055 175.507C180.382 176.134 180.545 176.914 180.545 177.847C180.545 178.167 180.512 178.424 180.445 178.617C180.379 178.804 180.289 178.897 180.175 178.897C180.055 178.897 179.995 178.861 179.995 178.787C180.042 178.434 180.065 178.087 180.065 177.747C180.065 176.887 179.915 176.237 179.615 175.797C179.315 175.351 178.919 175.127 178.425 175.127C178.185 175.127 177.952 175.187 177.725 175.307C177.505 175.427 177.325 175.594 177.185 175.807C177.052 176.021 176.985 176.264 176.985 176.537C176.985 176.844 177.002 177.111 177.035 177.337C177.069 177.564 177.122 177.837 177.195 178.157C177.275 178.471 177.332 178.757 177.365 179.017ZM182.417 178.987C182.264 178.987 182.14 178.764 182.047 178.317C181.954 177.864 181.894 177.474 181.867 177.147C181.84 176.821 181.804 176.304 181.757 175.597C181.75 175.484 181.747 175.337 181.747 175.157C181.747 174.931 181.764 174.774 181.797 174.687C181.837 174.601 181.9 174.557 181.987 174.557C182.06 174.557 182.117 174.574 182.157 174.607C182.204 174.634 182.244 174.681 182.277 174.747L182.267 175.147C182.267 175.574 182.287 175.977 182.327 176.357C182.374 176.737 182.444 177.247 182.537 177.887C182.59 178.167 182.627 178.397 182.647 178.577C182.66 178.671 182.644 178.764 182.597 178.857C182.55 178.944 182.49 178.987 182.417 178.987ZM182.167 173.487C182.02 173.487 181.91 173.431 181.837 173.317C181.77 173.204 181.737 173.064 181.737 172.897C181.737 172.824 181.74 172.771 181.747 172.737C181.74 172.631 181.8 172.577 181.927 172.577C182.02 172.577 182.114 172.601 182.207 172.647C182.307 172.687 182.337 172.717 182.297 172.737C182.364 172.911 182.397 173.047 182.397 173.147C182.397 173.234 182.377 173.304 182.337 173.357C182.297 173.404 182.24 173.447 182.167 173.487ZM186.304 178.977C185.877 178.977 185.484 178.894 185.124 178.727C184.764 178.561 184.477 178.324 184.264 178.017C184.051 177.711 183.944 177.357 183.944 176.957C183.944 176.511 184.027 176.094 184.194 175.707C184.361 175.314 184.604 175.001 184.924 174.767C185.251 174.527 185.631 174.407 186.064 174.407C186.517 174.407 186.861 174.554 187.094 174.847C187.327 175.134 187.437 175.497 187.424 175.937C187.424 176.331 187.267 176.631 186.954 176.837C186.647 177.044 186.254 177.147 185.774 177.147C185.701 177.147 185.591 177.141 185.444 177.127C185.204 177.101 185.034 177.064 184.934 177.017C184.834 176.971 184.784 176.877 184.784 176.737C184.784 176.691 184.797 176.657 184.824 176.637C184.851 176.611 184.904 176.597 184.984 176.597C185.071 176.597 185.224 176.617 185.444 176.657C185.657 176.697 185.847 176.717 186.014 176.717C186.627 176.717 186.934 176.451 186.934 175.917C186.934 175.597 186.874 175.344 186.754 175.157C186.641 174.971 186.437 174.877 186.144 174.877C185.824 174.877 185.537 174.964 185.284 175.137C185.031 175.304 184.834 175.524 184.694 175.797C184.561 176.071 184.494 176.361 184.494 176.667C184.494 177.194 184.641 177.627 184.934 177.967C185.227 178.301 185.681 178.467 186.294 178.467C186.367 178.467 186.491 178.461 186.664 178.447C186.737 178.441 186.827 178.421 186.934 178.387C187.041 178.354 187.117 178.331 187.164 178.317C187.451 178.217 187.661 178.167 187.794 178.167C187.894 178.167 187.971 178.194 188.024 178.247C187.857 178.501 187.607 178.687 187.274 178.807C186.947 178.921 186.624 178.977 186.304 178.977Z" fill="black"/>
</svg>
