<svg width="315" height="450" viewBox="0 0 315 450" fill="none" xmlns="http://www.w3.org/2000/svg">
<circle cx="159" cy="430" r="20" fill="#90BE6D"/>
<line x1="158.5" y1="316.5" x2="158.5" y2="408.5" stroke="#FFF6DF" stroke-width="3" stroke-linecap="round" stroke-dasharray="7 7"/>
<circle cx="157.5" cy="157.5" r="153.5" fill="#90BE6D" stroke="#FFF6DF" stroke-width="8"/>
<rect x="38.5" y="87.2599" width="238" height="138.723" rx="9.5" fill="#FFF6DF" stroke="black"/>
<path d="M217.059 142.856C216.766 142.466 216.572 141.978 216.864 141.491C217.351 141.686 217.936 141.101 218.423 141.491C218.715 141.686 218.91 141.881 219.202 141.589C219.495 141.199 219.3 140.809 219.008 140.614C217.741 139.834 216.669 138.957 216.084 137.496C215.889 137.106 215.402 136.813 214.915 136.716C214.233 135.352 214.135 133.89 214.233 132.428C214.33 130.284 215.207 129.114 217.351 128.627C220.567 127.75 223.392 128.627 226.023 130.576C227.875 131.941 229.141 133.792 230.603 135.449C230.895 135.839 231.09 136.229 231.577 136.326C232.259 135.839 232.357 135.157 232.649 134.572C234.111 130.869 235.475 127.165 236.937 123.559C237.326 122.487 237.131 121.708 236.644 120.928C234.89 117.615 233.624 114.204 232.552 110.598C231.675 107.771 231.772 104.945 232.162 102.119C232.454 100.462 233.136 98.8055 235.085 98.3182C237.619 97.7335 239.762 98.5132 241.321 100.462C241.906 101.144 242.686 102.022 242.783 103.094C242.783 103.386 242.978 103.678 243.173 103.971C243.368 104.36 243.757 104.75 244.245 104.555C244.732 104.458 244.732 103.971 244.732 103.581C244.537 101.047 246.096 99.1953 247.07 97.1487C247.558 96.0767 248.435 95.1022 249.604 94.5175C252.235 93.348 254.573 94.8098 254.768 97.7335C254.866 100.072 253.989 101.924 253.209 103.971C253.014 104.36 252.722 104.75 252.625 105.238C252.235 106.31 252.624 106.797 253.696 106.602C254.963 106.31 256.132 106.017 257.399 106.212C259.25 106.407 260.225 107.187 260.42 109.038C260.517 110.013 260.42 111.085 259.933 111.962C258.763 114.398 257.497 116.835 255.548 118.784C251.942 122.292 247.947 124.924 242.588 124.339C241.419 124.242 241.127 124.631 240.639 125.703C238.496 130.674 236.839 135.936 234.89 140.906C234.695 141.296 234.598 141.784 234.89 142.466C236.547 140.322 238.885 139.152 240.444 137.106C240.834 136.521 241.321 136.326 242.003 136.229C242.491 136.131 242.978 136.034 243.27 135.741C245.219 134.182 247.363 134.669 249.409 134.962C251.065 135.254 252.527 136.911 252.332 138.568C252.235 139.64 252.137 140.809 251.65 141.686C250.189 144.123 249.409 147.046 246.876 148.703C246.486 150.457 245.024 151.432 243.952 152.699C242.686 154.16 241.127 155.33 239.373 156.11C238.788 156.402 238.691 155.135 237.911 155.915C237.326 156.499 237.619 156.987 237.619 157.571C236.644 157.474 235.475 156.499 234.89 158.156C234.695 158.254 234.598 158.351 234.403 158.449C233.916 158.351 233.526 158.351 233.039 158.254C231.577 157.961 231.577 157.961 231.09 159.521C230.798 160.398 230.506 161.47 229.629 161.86C228.557 161.275 228.07 160.203 227.29 159.423C227.193 159.228 227.095 159.033 227.095 158.838C228.069 156.694 228.069 156.694 226.121 155.525C225.439 155.135 224.659 154.94 224.854 153.868C224.951 153.478 224.757 153.186 224.464 153.088C222.71 152.504 223.782 149.678 221.541 149.58C221.541 149.58 221.444 149.288 221.444 149.19C221.541 148.021 221.054 147.046 220.372 146.169C219.787 146.462 220.079 147.241 219.495 147.436C219.008 147.046 218.813 146.559 218.618 145.974C218.618 145.779 218.618 145.487 218.618 145.292C218.618 144.415 220.372 144.317 219.69 143.343C218.91 142.271 217.838 143.148 217.059 142.856Z" fill="#89AB69"/>
<path d="M219.787 165.368C219.885 165.465 219.885 165.465 219.885 165.66C219.787 167.902 221.639 169.169 222.516 170.825C222.613 171.118 223.198 170.923 223.588 170.825C223.295 171.702 223.588 172.385 224.27 173.067C226.121 171.118 226.218 171.118 228.557 171.605C229.142 171.702 229.629 171.702 229.921 171.215C230.798 169.948 232.065 169.363 233.234 168.486C234.014 167.999 235.573 168.194 235.573 166.635C235.865 166.635 236.06 166.44 236.06 166.147C237.424 166.05 236.352 167.512 237.619 168.194C236.937 166.342 238.398 165.953 238.886 164.978C239.178 164.88 239.373 164.783 239.665 164.686C240.737 164.881 241.614 164.393 242.491 164.101C244.245 163.808 245.901 164.296 247.363 165.075C249.799 166.245 250.676 170.046 249.312 172.58C248.24 174.431 246.681 175.698 245.122 177.062C242.881 176.868 242.783 176.965 242.588 178.914C242.199 178.817 241.809 178.817 241.419 178.719C240.152 178.329 239.373 178.329 239.665 179.986C239.763 180.376 239.47 180.863 239.081 180.863C237.229 180.961 235.962 181.935 234.891 183.3C234.598 183.689 233.916 183.689 233.429 183.884C233.039 183.982 232.747 184.274 232.649 184.664C232.455 185.054 232.162 185.249 231.675 185.249C230.408 185.249 229.044 184.761 227.875 186.028C227.485 186.418 226.608 186.223 226.803 185.541C227.29 183.787 225.634 184.079 225.049 183.495C224.757 183.3 224.464 183.202 224.27 183.495C223.977 183.787 223.88 184.177 224.075 184.567C224.27 185.054 224.659 185.249 225.147 185.346C226.121 185.541 226.413 186.126 226.316 187.003C226.024 187.1 225.731 187.1 225.439 187.198C224.757 187.198 224.27 187.49 223.977 188.075C223.49 189.147 222.711 188.952 221.931 188.465C221.541 188.27 221.152 187.88 220.859 187.685C220.957 187.393 221.054 187.1 221.151 186.808C221.541 186.808 221.834 186.711 222.223 186.711C222.418 186.906 222.516 187.003 222.711 187.198C222.808 187.393 222.905 187.49 222.905 187.295C222.905 187.295 222.808 187.198 222.711 187.198C222.711 187.003 222.711 186.906 222.711 186.711C222.126 185.151 221.931 183.3 219.495 183.69C219.203 183.69 218.91 183.495 218.618 183.397C218.033 183.202 217.644 182.715 217.156 182.325C217.059 181.838 217.351 181.058 216.864 180.863C215.695 180.181 214.72 179.304 213.746 178.329C213.551 178.232 213.161 178.329 212.869 178.329C213.551 177.452 213.259 176.868 212.479 176.185C211.505 175.308 210.141 174.626 210.336 172.872C210.336 172.579 209.751 171.8 209.459 172.092C208.484 172.774 208.094 171.507 207.412 171.702C207.412 171.02 207.412 170.435 206.535 170.338C205.269 167.902 204.294 165.368 203.71 162.639C202.833 159.131 204.294 156.987 207.9 156.792C208.971 157.376 210.336 157.279 211.213 158.253C211.7 158.741 211.505 159.423 211.7 160.008C212.187 161.08 212.869 159.52 213.454 160.105C214.526 161.177 216.085 161.567 216.962 162.931C217.351 164.101 218.521 164.88 219.787 165.368ZM221.639 182.91C221.931 182.812 222.028 182.715 222.028 182.423C222.028 181.935 221.736 181.74 221.249 181.74C221.054 181.74 220.762 181.935 220.859 182.228C220.957 182.617 221.249 182.91 221.639 182.91ZM226.121 172.872C226.218 172.774 226.316 172.677 226.316 172.482C226.316 172.385 226.218 172.287 226.121 172.092C226.023 172.19 225.926 172.287 225.926 172.482C225.926 172.677 226.023 172.774 226.121 172.872Z" fill="#85A865"/>
<path d="M220.859 187.783C221.249 188.075 221.541 188.368 221.931 188.562C222.71 189.05 223.49 189.342 223.977 188.173C224.269 187.588 224.659 187.198 225.439 187.295C224.075 191.194 223.587 195.287 223.392 199.38C223.295 203.96 223.1 208.541 222.905 213.121C222.905 214.096 222.905 215.168 222.905 216.142C222.905 216.727 222.808 217.214 222.808 217.799C222.71 218.871 221.833 219.261 221.054 219.358C220.177 219.456 220.079 218.481 219.982 217.897C219.69 216.435 219.592 214.973 219.397 213.511C218.813 207.956 218.423 202.401 219.105 196.846C219.495 194.117 219.885 191.291 220.274 188.562C220.469 188.27 220.664 187.978 220.859 187.783Z" fill="#9BB982"/>
<path d="M235.572 166.635C235.572 168.194 234.013 167.902 233.234 168.486C232.065 169.266 230.798 169.948 229.921 171.215C229.531 171.702 229.141 171.8 228.557 171.605C226.218 171.118 226.218 171.118 224.269 173.067C223.587 172.482 223.392 171.702 223.587 170.825C224.074 171.02 224.659 171.215 224.757 170.338C224.951 169.266 225.049 168.097 225.926 167.122C226.51 167.22 226.705 167.414 226.51 167.999C226.316 168.584 226.023 169.266 226.803 169.656C227.387 169.071 227.095 168.389 227.193 167.804C227.29 167.219 227.582 167.025 228.069 167.025C228.167 167.609 227.972 168.292 228.362 168.876C228.362 167.999 228.946 167.317 228.946 166.537C228.946 165.758 228.946 164.978 228.946 164.198C229.336 164.101 229.823 164.101 229.726 163.614C229.531 163.029 229.141 162.444 228.459 162.542C227.875 162.639 228.069 163.321 228.069 163.711C227.193 163.614 226.998 164.881 226.023 164.686C226.316 162.834 226.608 160.885 226.998 159.033C227.777 159.813 228.264 160.885 229.336 161.47C230.311 161.08 230.505 160.105 230.798 159.131C231.285 157.571 231.285 157.571 232.747 157.864C233.234 157.961 233.624 157.961 234.111 158.059C233.916 158.254 233.818 158.546 233.624 158.546C231.577 158.936 231.09 160.398 230.798 162.152C230.505 164.296 230.116 166.342 229.726 168.681C230.798 168.584 231.675 168.389 232.357 167.707C233.331 167.025 234.501 166.83 235.572 166.635Z" fill="#9BB982"/>
<path d="M219.3 147.144C219.884 146.949 219.69 146.169 220.177 145.877C220.859 146.851 221.346 147.728 221.249 148.898C221.249 148.995 221.249 149.288 221.346 149.288C223.587 149.385 222.613 152.211 224.269 152.796C224.562 152.893 224.756 153.186 224.659 153.576C224.367 154.648 225.244 154.843 225.926 155.232C227.972 156.402 227.972 156.402 226.9 158.546C226.51 158.546 226.121 158.448 225.926 158.059C223.587 154.55 221.054 151.139 219.3 147.144Z" fill="#9BB982"/>
<path d="M219.787 165.368C218.52 164.88 217.351 164.101 216.669 163.126C215.694 161.762 214.135 161.372 213.161 160.3C212.576 159.715 211.894 161.275 211.407 160.203C211.212 159.618 211.407 159.033 210.92 158.448C209.946 157.474 208.679 157.571 207.607 156.987C209.263 156.207 210.628 157.181 211.894 157.961C214.915 159.618 217.156 162.152 219.397 164.588C219.69 164.686 219.69 165.075 219.787 165.368Z" fill="#9BB982"/>
<path d="M232.844 184.762C232.941 184.372 233.234 184.08 233.624 183.982C234.111 183.787 234.89 183.787 235.085 183.397C236.157 181.935 237.326 180.961 239.275 180.961C239.567 180.961 239.957 180.474 239.86 180.084C239.567 178.427 240.444 178.427 241.614 178.817C242.003 178.914 242.393 178.914 242.783 179.012C242.491 180.181 241.321 180.181 240.542 180.864C238.788 182.423 236.644 183.3 234.793 184.567C234.208 184.859 233.526 184.762 232.844 184.762Z" fill="#9BB982"/>
<path d="M207.217 171.897C207.997 171.702 208.387 172.969 209.264 172.287C209.556 171.995 210.238 172.774 210.141 173.067C209.946 174.821 211.31 175.503 212.284 176.38C213.064 177.063 213.356 177.647 212.674 178.524C210.14 176.868 208.679 174.334 207.217 171.897Z" fill="#9BB982"/>
<path d="M229.141 164.393C229.141 165.173 229.141 165.953 229.141 166.732C228.946 166.732 228.849 166.732 228.654 166.732C228.459 166.927 228.362 167.025 228.167 167.22C227.68 167.317 227.29 167.512 227.29 167.999C227.192 168.584 227.485 169.169 226.9 169.851C226.12 169.364 226.413 168.779 226.608 168.194C226.803 167.609 226.608 167.317 226.023 167.317C225.828 166.537 225.926 165.758 226.218 164.978C227.095 165.173 227.387 163.906 228.264 164.004C228.556 164.101 228.849 164.198 229.141 164.393Z" fill="#85A865"/>
<path d="M226.316 187.101C226.413 186.223 226.121 185.639 225.146 185.444C224.659 185.346 224.269 185.054 224.074 184.664C223.977 184.274 223.977 183.884 224.269 183.592C224.562 183.3 224.854 183.397 225.049 183.592C225.731 184.177 227.387 183.885 226.803 185.639C226.608 186.321 227.582 186.516 227.875 186.126C229.044 184.859 230.408 185.346 231.675 185.346C230.213 186.516 228.264 186.906 226.316 187.101Z" fill="#9BB982"/>
<path d="M214.915 136.813C215.402 136.911 215.889 137.106 216.084 137.593C216.669 139.055 217.741 139.932 219.007 140.711C219.397 140.906 219.495 141.296 219.202 141.686C219.007 141.978 218.715 141.784 218.423 141.589C217.935 141.199 217.351 141.784 216.864 141.589C215.402 140.224 215.402 138.373 214.915 136.813Z" fill="#9BB982"/>
<path d="M222.125 186.808C221.736 186.808 221.443 186.906 221.053 186.906C220.956 186.029 220.664 185.346 219.689 184.957C219.105 184.664 218.325 184.469 218.423 183.495C218.715 183.592 219.007 183.787 219.3 183.787C221.736 183.397 221.93 185.249 222.515 186.808C222.418 186.808 222.32 186.808 222.125 186.808Z" fill="#9BB982"/>
<path d="M223.685 170.825C223.295 170.923 222.71 171.02 222.613 170.825C221.736 169.071 219.982 167.804 219.982 165.66C221.638 167.025 222.613 168.876 223.685 170.825Z" fill="#9BB982"/>
<path d="M212.674 178.524C212.966 178.524 213.356 178.329 213.551 178.524C214.525 179.401 215.5 180.376 216.669 181.058C217.156 181.351 216.961 182.033 216.961 182.52C215.012 181.74 213.941 180.084 212.674 178.524Z" fill="#9BB982"/>
<path d="M217.059 142.855C217.838 143.148 218.91 142.271 219.397 142.953C220.177 144.025 218.423 144.122 218.325 144.902C218.325 145.097 218.325 145.389 218.325 145.584C217.546 144.902 217.643 143.733 217.059 142.855Z" fill="#9BB982"/>
<path d="M238.983 165.076C238.496 166.05 237.034 166.44 237.716 168.292C236.45 167.609 237.424 166.148 236.157 166.245C236.839 165.173 237.814 164.978 238.983 165.076Z" fill="#9BB982"/>
<path d="M242.783 178.914C242.978 176.965 242.978 176.965 245.316 177.063C244.537 177.94 243.952 178.817 242.783 178.914Z" fill="#9BB982"/>
<path d="M234.696 157.961C235.28 156.305 236.45 157.279 237.424 157.377C236.644 157.961 235.767 158.546 234.696 157.961Z" fill="#9BB982"/>
<path d="M237.521 157.279C237.521 156.694 237.229 156.207 237.813 155.622C238.593 154.843 238.788 156.207 239.275 155.817C238.69 156.402 238.106 156.889 237.521 157.279Z" fill="#9BB982"/>
<path d="M242.686 164.198C241.711 164.491 240.834 164.978 239.86 164.783C240.639 163.906 241.614 164.003 242.686 164.198Z" fill="#9BB982"/>
<path d="M206.34 170.436C207.217 170.533 207.217 171.118 207.217 171.8C206.633 171.508 206.34 171.118 206.34 170.436Z" fill="#9BB982"/>
<path d="M236.156 166.245C236.059 166.537 235.962 166.634 235.67 166.732C235.67 166.44 235.864 166.245 236.156 166.245Z" fill="#9BB982"/>
<path d="M221.638 182.91C221.151 182.91 220.956 182.618 220.859 182.228C220.762 181.936 221.054 181.838 221.249 181.741C221.736 181.643 221.931 181.935 222.028 182.423C222.126 182.715 221.931 182.91 221.638 182.91Z" fill="#9BB982"/>
<path d="M226.121 172.872C226.023 172.774 225.926 172.677 225.926 172.58C225.926 172.482 226.023 172.385 226.121 172.19C226.218 172.287 226.316 172.385 226.316 172.58C226.316 172.677 226.218 172.774 226.121 172.872Z" fill="#9BB982"/>
<path d="M222.126 186.808C222.223 186.808 222.418 186.808 222.515 186.808C222.515 187.003 222.515 187.1 222.515 187.295C222.418 187.197 222.32 187.003 222.126 186.808Z" fill="#94B278"/>
<path d="M222.613 187.296C222.71 187.296 222.808 187.393 222.808 187.393C222.71 187.588 222.71 187.49 222.613 187.296Z" fill="#94B278"/>
<path d="M229.141 164.393C228.849 164.198 228.557 164.101 228.167 163.906C228.264 163.516 228.07 162.834 228.557 162.736C229.239 162.542 229.629 163.224 229.823 163.808C230.018 164.296 229.531 164.296 229.141 164.393Z" fill="#89AB69"/>
<path d="M228.654 166.732C228.849 166.732 228.946 166.732 229.141 166.732C229.141 167.609 228.459 168.194 228.557 169.071C228.069 168.486 228.264 167.804 228.264 167.219C228.362 167.025 228.557 166.927 228.654 166.732Z" fill="#89AB69"/>
<path d="M228.653 166.732C228.459 166.927 228.362 167.024 228.167 167.219C228.362 167.024 228.556 166.927 228.653 166.732Z" fill="#9BB982"/>
<path d="M61.515 123C61.1817 123.067 60.9484 122.907 60.815 122.52C60.6817 122.12 60.6084 121.533 60.595 120.76C60.5684 119.627 60.5284 118.68 60.475 117.92C60.435 117.147 60.355 116.453 60.235 115.84C58.995 116.427 57.7684 116.967 56.555 117.46C55.355 117.94 54.755 118.173 54.755 118.16L54.795 122.42C54.795 122.62 54.675 122.747 54.435 122.8C54.115 122.867 53.9017 122.687 53.795 122.26C53.7017 121.82 53.635 121.133 53.595 120.2C53.5684 119.36 53.5284 118.767 53.475 118.42C53.1017 118.607 52.7817 118.693 52.515 118.68C52.4617 118.573 52.435 118.353 52.435 118.02C52.5417 117.98 52.6684 117.933 52.815 117.88C52.975 117.827 53.0884 117.767 53.155 117.7C53.235 117.62 53.275 117.507 53.275 117.36C53.275 116.693 53.2084 115.667 53.075 114.28C52.9284 113.027 52.855 111.993 52.855 111.18L52.875 110.26C52.915 110.167 52.9617 110.107 53.015 110.08C53.0817 110.053 53.1684 110.04 53.275 110.04C53.5017 110.04 53.615 110.113 53.615 110.26L54.435 117.3C54.8084 117.207 55.4284 116.967 56.295 116.58C57.1617 116.193 58.495 115.567 60.295 114.7L60.375 110.26C60.375 109.74 60.5684 109.48 60.955 109.48C61.115 109.48 61.2217 109.54 61.275 109.66C61.3417 109.78 61.3617 109.98 61.335 110.26L61.315 113.72C61.315 114.893 61.3817 116.42 61.515 118.3C61.555 118.673 61.5884 119.033 61.615 119.38C61.655 119.713 61.6884 120.033 61.715 120.34C61.795 121.167 61.8484 121.693 61.875 121.92C61.915 122.133 61.975 122.327 62.055 122.5C61.9884 122.767 61.8084 122.933 61.515 123ZM69.7961 123C68.4095 123 67.2028 122.76 66.1761 122.28C65.1628 121.787 64.6561 120.927 64.6561 119.7C64.6561 119.26 64.7895 118.833 65.0561 118.42C65.3228 118.007 65.7161 117.673 66.2361 117.42C66.7561 117.153 67.3895 117.02 68.1361 117.02C68.7095 117.02 69.1961 117.047 69.5961 117.1C69.9961 117.153 70.4561 117.3 70.9761 117.54C71.4961 117.78 72.0361 118.16 72.5961 118.68C72.3828 117.76 72.0628 116.953 71.6361 116.26C71.2095 115.567 70.7295 115.033 70.1961 114.66C69.6761 114.273 69.1628 114.08 68.6561 114.08C68.4161 114.08 68.1895 114.127 67.9761 114.22C67.7761 114.3 67.5295 114.42 67.2361 114.58C66.9028 114.793 66.6561 114.9 66.4961 114.9C66.4295 114.9 66.3695 114.88 66.3161 114.84C66.2761 114.787 66.2561 114.727 66.2561 114.66C66.2561 114.127 66.4895 113.713 66.9561 113.42C67.4361 113.127 68.0161 112.993 68.6961 113.02C69.6295 113.073 70.4828 113.473 71.2561 114.22C72.0295 114.953 72.6361 115.867 73.0761 116.96C73.5295 118.053 73.7561 119.127 73.7561 120.18C73.7561 120.353 73.7428 120.6 73.7161 120.92L73.0761 120.88C72.5695 119.853 71.9161 119.127 71.1161 118.7C70.3295 118.26 69.5361 118.04 68.7361 118.04C67.7095 118.04 66.9761 118.193 66.5361 118.5C66.0961 118.807 65.8761 119.253 65.8761 119.84C65.8761 120.453 66.1828 120.947 66.7961 121.32C67.4095 121.693 68.1961 121.88 69.1561 121.88C69.6895 121.88 70.1161 121.853 70.4361 121.8C70.7561 121.733 71.0895 121.647 71.4361 121.54C71.7161 121.447 71.9628 121.38 72.1761 121.34C72.3895 121.3 72.6628 121.28 72.9961 121.28C73.3695 121.28 73.6028 121.307 73.6961 121.36C73.8028 121.413 73.8561 121.533 73.8561 121.72C73.8561 121.853 73.5828 122.02 73.0361 122.22C72.4895 122.42 71.8761 122.6 71.1961 122.76C70.5161 122.92 70.0495 123 69.7961 123ZM78.6169 130.12C78.3503 130.12 78.0303 129.407 77.6569 127.98C77.2969 126.553 76.9703 124.967 76.6769 123.22C76.3969 121.487 76.2569 120.393 76.2569 119.94C76.2569 118.593 76.7103 117.613 77.6169 117C78.5236 116.373 79.6903 116.06 81.1169 116.06C81.8769 116.06 82.5969 116.22 83.2769 116.54C83.9569 116.847 84.5036 117.293 84.9169 117.88C85.3303 118.453 85.5369 119.12 85.5369 119.88C85.5369 120.827 85.2036 121.493 84.5369 121.88C83.8836 122.267 83.0569 122.46 82.0569 122.46C81.0169 122.46 80.1303 122.287 79.3969 121.94C78.6769 121.58 78.3169 121.093 78.3169 120.48L78.3369 120.28C78.4303 120.173 78.5303 120.12 78.6369 120.12C78.7303 120.12 78.8303 120.16 78.9369 120.24C79.0569 120.307 79.1836 120.387 79.3169 120.48C79.7303 120.787 80.1369 121.033 80.5369 121.22C80.9503 121.407 81.4636 121.5 82.0769 121.5C82.9169 121.5 83.5103 121.353 83.8569 121.06C84.2169 120.753 84.3969 120.273 84.3969 119.62C84.3969 119.14 84.2369 118.713 83.9169 118.34C83.5969 117.967 83.1836 117.68 82.6769 117.48C82.1703 117.28 81.6503 117.18 81.1169 117.18C79.8769 117.18 78.9436 117.447 78.3169 117.98C77.6903 118.5 77.4103 119.373 77.4769 120.6C77.5969 122.68 77.7836 124.427 78.0369 125.84C78.3036 127.253 78.7636 128.453 79.4169 129.44L79.4369 129.48C79.4369 129.507 79.4036 129.533 79.3369 129.56C79.2836 129.6 79.2436 129.633 79.2169 129.66C79.0569 129.913 78.8569 130.067 78.6169 130.12ZM90.2958 130.12C90.0292 130.12 89.7092 129.407 89.3358 127.98C88.9758 126.553 88.6492 124.967 88.3558 123.22C88.0758 121.487 87.9358 120.393 87.9358 119.94C87.9358 118.593 88.3892 117.613 89.2958 117C90.2025 116.373 91.3692 116.06 92.7958 116.06C93.5558 116.06 94.2758 116.22 94.9558 116.54C95.6358 116.847 96.1825 117.293 96.5958 117.88C97.0092 118.453 97.2158 119.12 97.2158 119.88C97.2158 120.827 96.8825 121.493 96.2158 121.88C95.5625 122.267 94.7358 122.46 93.7358 122.46C92.6958 122.46 91.8092 122.287 91.0758 121.94C90.3558 121.58 89.9958 121.093 89.9958 120.48L90.0158 120.28C90.1092 120.173 90.2092 120.12 90.3158 120.12C90.4092 120.12 90.5092 120.16 90.6158 120.24C90.7358 120.307 90.8625 120.387 90.9958 120.48C91.4092 120.787 91.8158 121.033 92.2158 121.22C92.6292 121.407 93.1425 121.5 93.7558 121.5C94.5958 121.5 95.1892 121.353 95.5358 121.06C95.8958 120.753 96.0758 120.273 96.0758 119.62C96.0758 119.14 95.9158 118.713 95.5958 118.34C95.2758 117.967 94.8625 117.68 94.3558 117.48C93.8492 117.28 93.3292 117.18 92.7958 117.18C91.5558 117.18 90.6225 117.447 89.9958 117.98C89.3692 118.5 89.0892 119.373 89.1558 120.6C89.2758 122.68 89.4625 124.427 89.7158 125.84C89.9825 127.253 90.4425 128.453 91.0958 129.44L91.1158 129.48C91.1158 129.507 91.0825 129.533 91.0158 129.56C90.9625 129.6 90.9225 129.633 90.8958 129.66C90.7358 129.913 90.5358 130.067 90.2958 130.12ZM105.095 132.46C104.188 132.46 103.375 132.267 102.655 131.88C101.948 131.493 101.381 131.047 100.955 130.54C100.528 130.033 100.288 129.62 100.235 129.3C100.181 129.007 100.248 128.78 100.435 128.62C100.635 128.46 100.881 128.393 101.175 128.42C101.588 129.407 102.081 130.167 102.655 130.7C103.228 131.233 104.048 131.513 105.115 131.54C105.861 131.553 106.455 131.073 106.895 130.1C107.348 129.14 107.668 127.96 107.855 126.56C108.041 125.173 108.135 123.807 108.135 122.46C108.135 121.767 108.115 121.2 108.075 120.76C107.061 122 105.768 122.62 104.195 122.62C102.835 122.62 101.788 121.973 101.055 120.68C100.335 119.387 99.8681 117.927 99.6547 116.3C99.6281 116.14 99.6147 115.913 99.6147 115.62C99.6147 114.78 99.8881 114.36 100.435 114.36C100.488 114.36 100.561 114.693 100.655 115.36C100.801 116.413 100.981 117.36 101.195 118.2C101.408 119.04 101.761 119.807 102.255 120.5C102.761 121.18 103.428 121.52 104.255 121.52C104.908 121.52 105.575 121.307 106.255 120.88C106.948 120.44 107.448 119.953 107.755 119.42C107.755 118.407 107.621 117.5 107.355 116.7C107.101 115.887 106.968 115.453 106.955 115.4C106.928 115.107 106.915 114.92 106.915 114.84C106.915 114.573 106.955 114.38 107.035 114.26C107.128 114.14 107.261 114.08 107.435 114.08C107.621 114.08 107.835 114.46 108.075 115.22C108.315 115.98 108.528 116.973 108.715 118.2C108.901 119.427 109.028 120.707 109.095 122.04C109.121 122.733 109.135 123.247 109.135 123.58C109.135 126.14 108.815 128.26 108.175 129.94C107.548 131.62 106.521 132.46 105.095 132.46ZM125.508 123.02C122.961 123.02 120.988 122.88 119.588 122.6C119.228 115.92 118.901 111.88 118.608 110.48L118.008 110.62C117.688 110.687 117.381 110.76 117.088 110.84C116.795 110.907 116.481 111.007 116.148 111.14L116.128 110.46C116.128 110.233 116.375 110.027 116.868 109.84C117.361 109.64 117.955 109.487 118.648 109.38C119.355 109.26 119.981 109.2 120.528 109.2C121.128 109.2 121.815 109.307 122.588 109.52C123.375 109.733 124.048 110.053 124.608 110.48C125.168 110.893 125.448 111.387 125.448 111.96C125.448 112.613 125.195 113.193 124.688 113.7C124.195 114.193 123.548 114.547 122.748 114.76C123.921 114.96 125.015 115.32 126.028 115.84C127.041 116.347 127.855 116.98 128.468 117.74C129.081 118.487 129.388 119.293 129.388 120.16C129.388 121.16 129.001 121.887 128.228 122.34C127.455 122.793 126.548 123.02 125.508 123.02ZM124.988 121.88C125.975 121.88 126.735 121.773 127.268 121.56C127.801 121.333 128.068 120.853 128.068 120.12C128.068 119.347 127.835 118.7 127.368 118.18C126.915 117.647 126.375 117.233 125.748 116.94C125.135 116.633 124.368 116.313 123.448 115.98C122.715 115.727 122.168 115.507 121.808 115.32C121.461 115.12 121.288 114.9 121.288 114.66C121.288 114.487 121.375 114.353 121.548 114.26C121.721 114.167 122.028 114.033 122.468 113.86C123.068 113.66 123.535 113.447 123.868 113.22C124.215 112.98 124.388 112.647 124.388 112.22C124.388 111.593 124.008 111.113 123.248 110.78C122.488 110.433 121.635 110.26 120.688 110.26C120.421 110.26 120.101 110.287 119.728 110.34C120.075 112.58 120.315 114.467 120.448 116C120.581 117.52 120.675 119.287 120.728 121.3C120.915 121.487 121.388 121.627 122.148 121.72C122.908 121.813 123.855 121.867 124.988 121.88ZM132.925 123.02C132.618 123.02 132.372 122.573 132.185 121.68C131.998 120.773 131.878 119.993 131.825 119.34C131.772 118.687 131.698 117.653 131.605 116.24C131.592 116.013 131.585 115.72 131.585 115.36C131.585 114.907 131.618 114.593 131.685 114.42C131.765 114.247 131.892 114.16 132.065 114.16C132.212 114.16 132.325 114.193 132.405 114.26C132.498 114.313 132.578 114.407 132.645 114.54L132.625 115.34C132.625 116.193 132.665 117 132.745 117.76C132.838 118.52 132.978 119.54 133.165 120.82C133.272 121.38 133.345 121.84 133.385 122.2C133.412 122.387 133.378 122.573 133.285 122.76C133.192 122.933 133.072 123.02 132.925 123.02ZM132.425 112.02C132.132 112.02 131.912 111.907 131.765 111.68C131.632 111.453 131.565 111.173 131.565 110.84C131.565 110.693 131.572 110.587 131.585 110.52C131.572 110.307 131.692 110.2 131.945 110.2C132.132 110.2 132.318 110.247 132.505 110.34C132.705 110.42 132.765 110.48 132.685 110.52C132.818 110.867 132.885 111.14 132.885 111.34C132.885 111.513 132.845 111.653 132.765 111.76C132.685 111.853 132.572 111.94 132.425 112.02ZM137.739 123C137.192 121.933 136.759 120.68 136.439 119.24C136.132 117.8 135.979 116.553 135.979 115.5C135.979 115.087 136.072 114.82 136.259 114.7C136.365 114.633 136.445 114.6 136.499 114.6C136.592 114.6 136.659 114.673 136.699 114.82C136.752 114.967 136.805 115.233 136.859 115.62L136.959 116.34C137.105 115.62 137.385 115.053 137.799 114.64C138.225 114.213 138.745 114 139.359 114C140.039 114 140.545 114.133 140.879 114.4C141.212 114.653 141.379 115.08 141.379 115.68C140.712 115.36 140.105 115.2 139.559 115.2C139.039 115.2 138.592 115.34 138.219 115.62C137.845 115.9 137.585 116.313 137.439 116.86C137.319 117.233 137.259 117.587 137.259 117.92C137.259 118.28 137.305 118.62 137.399 118.94C137.505 119.247 137.665 119.627 137.879 120.08C138.079 120.547 138.232 120.947 138.339 121.28C138.459 121.613 138.525 121.973 138.539 122.36C138.539 122.587 138.459 122.753 138.299 122.86C138.139 122.953 137.952 123 137.739 123ZM146.19 123C146.057 123.027 145.97 123.04 145.93 123.04C145.517 123.04 145.23 122.733 145.07 122.12C144.924 121.507 144.85 120.647 144.85 119.54C144.85 119.087 144.864 118.38 144.89 117.42C144.917 116.833 144.93 116.393 144.93 116.1C143.29 116.1 142.47 115.913 142.47 115.54C142.47 115.42 142.484 115.327 142.51 115.26C142.55 115.193 142.63 115.16 142.75 115.16L144.93 115.02C144.917 114.367 144.884 113.653 144.83 112.88C144.777 112.187 144.744 111.547 144.73 110.96C144.73 110.813 144.79 110.713 144.91 110.66C145.03 110.593 145.157 110.56 145.29 110.56C145.45 110.56 145.584 110.647 145.69 110.82C145.797 110.98 145.85 111.147 145.85 111.32L145.99 114.98L147.65 115.06C147.904 115.033 148.117 115.08 148.29 115.2C148.477 115.32 148.577 115.52 148.59 115.8C148.31 115.92 148.004 115.993 147.67 116.02C147.337 116.047 146.777 116.06 145.99 116.06C145.99 117.3 146.05 119.34 146.17 122.18C146.17 122.473 146.17 122.68 146.17 122.8C146.184 122.907 146.19 122.973 146.19 123ZM152.689 122.96C152.622 122.973 152.549 122.72 152.469 122.2C152.402 121.68 152.309 120.787 152.189 119.52C152.002 117.44 151.789 115.533 151.549 113.8C151.322 112.067 151.036 110.567 150.689 109.3C150.662 109.193 150.702 109.1 150.809 109.02C150.916 108.94 151.062 108.9 151.249 108.9C151.342 108.9 151.416 108.907 151.469 108.92C151.802 109.827 152.036 110.627 152.169 111.32C152.316 112.013 152.449 112.867 152.569 113.88L152.669 114.66C153.469 114.18 154.202 113.94 154.869 113.94C156.082 113.94 156.942 114.493 157.449 115.6C157.969 116.693 158.229 118.253 158.229 120.28C158.229 121.053 158.182 121.707 158.089 122.24C157.996 122.76 157.882 123.02 157.749 123.02C157.576 123.02 157.382 122.893 157.169 122.64V121.98L157.189 119.8C157.189 119.387 157.176 118.873 157.149 118.26C157.109 117.22 156.896 116.433 156.509 115.9C156.136 115.367 155.489 115.1 154.569 115.1C153.956 115.1 153.382 115.327 152.849 115.78C152.849 116.287 152.869 116.807 152.909 117.34C152.962 117.873 153.022 118.393 153.089 118.9C153.182 119.607 153.249 120.233 153.289 120.78C153.342 121.313 153.369 121.907 153.369 122.56C153.289 122.72 153.196 122.827 153.089 122.88C152.996 122.933 152.862 122.96 152.689 122.96ZM164.201 122.98C163.574 122.98 163.028 122.767 162.561 122.34C162.108 121.913 161.761 121.36 161.521 120.68C161.294 120 161.181 119.293 161.181 118.56C161.181 117.28 161.448 116.2 161.981 115.32C162.528 114.44 163.354 114 164.461 114C165.128 114 165.708 114.12 166.201 114.36C166.708 114.587 167.368 114.973 168.181 115.52L168.701 115.88C168.634 115.44 168.534 114.933 168.401 114.36C168.268 113.787 168.181 113.393 168.141 113.18C167.914 112.14 167.748 111.367 167.641 110.86C167.548 110.34 167.501 109.88 167.501 109.48C167.501 108.773 167.701 108.42 168.101 108.42C168.248 108.74 168.421 109.427 168.621 110.48C168.821 111.52 169.074 112.947 169.381 114.76C169.701 116.68 169.981 118.247 170.221 119.46C170.461 120.673 170.661 121.433 170.821 121.74C170.821 122.047 170.594 122.2 170.141 122.2C169.794 122.2 169.554 122 169.421 121.6C169.301 121.2 169.228 120.5 169.201 119.5H169.041C168.481 120.513 167.754 121.347 166.861 122C165.968 122.653 165.081 122.98 164.201 122.98ZM164.461 122C165.008 122 165.594 121.773 166.221 121.32C166.861 120.853 167.401 120.293 167.841 119.64C168.281 118.973 168.501 118.373 168.501 117.84V117.24C167.128 115.8 165.861 115.08 164.701 115.08C163.888 115.08 163.261 115.38 162.821 115.98C162.381 116.567 162.161 117.34 162.161 118.3L162.181 118.72C162.261 119.733 162.488 120.533 162.861 121.12C163.234 121.707 163.768 122 164.461 122ZM177.952 123C176.565 123 175.358 122.76 174.332 122.28C173.318 121.787 172.812 120.927 172.812 119.7C172.812 119.26 172.945 118.833 173.212 118.42C173.478 118.007 173.872 117.673 174.392 117.42C174.912 117.153 175.545 117.02 176.292 117.02C176.865 117.02 177.352 117.047 177.752 117.1C178.152 117.153 178.612 117.3 179.132 117.54C179.652 117.78 180.192 118.16 180.752 118.68C180.538 117.76 180.218 116.953 179.792 116.26C179.365 115.567 178.885 115.033 178.352 114.66C177.832 114.273 177.318 114.08 176.812 114.08C176.572 114.08 176.345 114.127 176.132 114.22C175.932 114.3 175.685 114.42 175.392 114.58C175.058 114.793 174.812 114.9 174.652 114.9C174.585 114.9 174.525 114.88 174.472 114.84C174.432 114.787 174.412 114.727 174.412 114.66C174.412 114.127 174.645 113.713 175.112 113.42C175.592 113.127 176.172 112.993 176.852 113.02C177.785 113.073 178.638 113.473 179.412 114.22C180.185 114.953 180.792 115.867 181.232 116.96C181.685 118.053 181.912 119.127 181.912 120.18C181.912 120.353 181.898 120.6 181.872 120.92L181.232 120.88C180.725 119.853 180.072 119.127 179.272 118.7C178.485 118.26 177.692 118.04 176.892 118.04C175.865 118.04 175.132 118.193 174.692 118.5C174.252 118.807 174.032 119.253 174.032 119.84C174.032 120.453 174.338 120.947 174.952 121.32C175.565 121.693 176.352 121.88 177.312 121.88C177.845 121.88 178.272 121.853 178.592 121.8C178.912 121.733 179.245 121.647 179.592 121.54C179.872 121.447 180.118 121.38 180.332 121.34C180.545 121.3 180.818 121.28 181.152 121.28C181.525 121.28 181.758 121.307 181.852 121.36C181.958 121.413 182.012 121.533 182.012 121.72C182.012 121.853 181.738 122.02 181.192 122.22C180.645 122.42 180.032 122.6 179.352 122.76C178.672 122.92 178.205 123 177.952 123ZM189.892 132.46C188.986 132.46 188.172 132.267 187.452 131.88C186.746 131.493 186.179 131.047 185.752 130.54C185.326 130.033 185.086 129.62 185.032 129.3C184.979 129.007 185.046 128.78 185.232 128.62C185.432 128.46 185.679 128.393 185.972 128.42C186.386 129.407 186.879 130.167 187.452 130.7C188.026 131.233 188.846 131.513 189.912 131.54C190.659 131.553 191.252 131.073 191.692 130.1C192.146 129.14 192.466 127.96 192.652 126.56C192.839 125.173 192.932 123.807 192.932 122.46C192.932 121.767 192.912 121.2 192.872 120.76C191.859 122 190.566 122.62 188.992 122.62C187.632 122.62 186.586 121.973 185.852 120.68C185.132 119.387 184.666 117.927 184.452 116.3C184.426 116.14 184.412 115.913 184.412 115.62C184.412 114.78 184.686 114.36 185.232 114.36C185.286 114.36 185.359 114.693 185.452 115.36C185.599 116.413 185.779 117.36 185.992 118.2C186.206 119.04 186.559 119.807 187.052 120.5C187.559 121.18 188.226 121.52 189.052 121.52C189.706 121.52 190.372 121.307 191.052 120.88C191.746 120.44 192.246 119.953 192.552 119.42C192.552 118.407 192.419 117.5 192.152 116.7C191.899 115.887 191.766 115.453 191.752 115.4C191.726 115.107 191.712 114.92 191.712 114.84C191.712 114.573 191.752 114.38 191.832 114.26C191.926 114.14 192.059 114.08 192.232 114.08C192.419 114.08 192.632 114.46 192.872 115.22C193.112 115.98 193.326 116.973 193.512 118.2C193.699 119.427 193.826 120.707 193.892 122.04C193.919 122.733 193.932 123.247 193.932 123.58C193.932 126.14 193.612 128.26 192.972 129.94C192.346 131.62 191.319 132.46 189.892 132.46ZM196.786 118.68C196.599 118.68 196.486 118.6 196.446 118.44C196.339 117.733 196.286 116.56 196.286 114.92L196.306 112.8C196.319 112.347 196.326 111.7 196.326 110.86C196.326 110.047 196.306 109.393 196.266 108.9C196.279 108.833 196.339 108.78 196.446 108.74C196.566 108.687 196.706 108.66 196.866 108.66C197.012 108.66 197.132 108.68 197.226 108.72C197.239 109.6 197.266 111.033 197.306 113.02C197.359 114.993 197.399 116.48 197.426 117.48L197.446 117.94C197.446 118.433 197.279 118.68 196.946 118.68H196.786ZM196.746 123.02C196.426 123.02 196.192 122.94 196.046 122.78C195.912 122.607 195.846 122.36 195.846 122.04C195.846 121.667 195.979 121.387 196.246 121.2C196.526 121.013 196.879 120.92 197.306 120.92C197.559 120.92 197.766 121.047 197.926 121.3C198.086 121.54 198.166 121.787 198.166 122.04C198.166 122.307 197.999 122.54 197.666 122.74C197.346 122.927 197.039 123.02 196.746 123.02Z" fill="black"/>
<path d="M59.2134 165.285C58.3734 165.285 57.6268 164.978 56.9734 164.365C56.3201 163.738 55.7601 162.891 55.2934 161.825C55.0268 162.878 54.6001 163.665 54.0134 164.185C53.4268 164.691 52.7801 164.945 52.0734 164.945C51.0734 164.945 50.3334 164.085 49.8534 162.365C49.3868 160.645 49.1534 158.585 49.1534 156.185C49.1534 155.491 49.2068 154.945 49.3134 154.545C49.4201 154.131 49.6201 153.925 49.9134 153.925C50.0334 153.925 50.1268 154.151 50.1934 154.605C50.2734 155.058 50.3134 155.631 50.3134 156.325C50.3134 161.311 50.9534 163.805 52.2334 163.805C52.7134 163.805 53.1201 163.671 53.4534 163.405C53.7868 163.138 54.1001 162.705 54.3934 162.105C54.5401 161.745 54.6134 161.151 54.6134 160.325L54.5934 159.065C54.6601 158.945 54.7801 158.885 54.9534 158.885C55.0734 158.885 55.1868 158.918 55.2934 158.985C55.4134 159.038 55.4934 159.131 55.5334 159.265C55.6268 159.971 55.8134 160.691 56.0934 161.425C56.3868 162.145 56.7734 162.758 57.2534 163.265C57.7468 163.758 58.3268 164.005 58.9934 164.005C59.9134 164.005 60.5668 163.805 60.9534 163.405C61.3401 162.991 61.5334 162.438 61.5334 161.745C61.5334 160.238 61.4268 159.031 61.2134 158.125C61.0134 157.205 60.7468 156.338 60.4134 155.525C60.2668 155.138 60.1601 154.851 60.0934 154.665C60.0401 154.478 60.0134 154.285 60.0134 154.085C60.1068 153.871 60.2334 153.765 60.3934 153.765C60.6868 153.765 61.0068 154.118 61.3534 154.825C61.7134 155.531 62.0201 156.485 62.2734 157.685C62.5268 158.871 62.6534 160.151 62.6534 161.525C62.6534 162.285 62.4934 162.951 62.1734 163.525C61.8668 164.085 61.4468 164.518 60.9134 164.825C60.3934 165.131 59.8268 165.285 59.2134 165.285ZM67.5973 165.305C67.2907 165.305 67.044 164.858 66.8573 163.965C66.6707 163.058 66.5507 162.278 66.4973 161.625C66.444 160.971 66.3707 159.938 66.2773 158.525C66.264 158.298 66.2573 158.005 66.2573 157.645C66.2573 157.191 66.2907 156.878 66.3573 156.705C66.4373 156.531 66.564 156.445 66.7373 156.445C66.884 156.445 66.9973 156.478 67.0773 156.545C67.1707 156.598 67.2507 156.691 67.3173 156.825L67.2973 157.625C67.2973 158.478 67.3373 159.285 67.4173 160.045C67.5107 160.805 67.6507 161.825 67.8373 163.105C67.944 163.665 68.0173 164.125 68.0573 164.485C68.084 164.671 68.0507 164.858 67.9573 165.045C67.864 165.218 67.744 165.305 67.5973 165.305ZM67.0973 154.305C66.804 154.305 66.584 154.191 66.4373 153.965C66.304 153.738 66.2373 153.458 66.2373 153.125C66.2373 152.978 66.244 152.871 66.2573 152.805C66.244 152.591 66.364 152.485 66.6173 152.485C66.804 152.485 66.9907 152.531 67.1773 152.625C67.3773 152.705 67.4373 152.765 67.3573 152.805C67.4907 153.151 67.5573 153.425 67.5573 153.625C67.5573 153.798 67.5173 153.938 67.4373 154.045C67.3573 154.138 67.244 154.225 67.0973 154.305ZM70.7511 162.925C70.9378 162.778 71.1178 162.705 71.2911 162.705C71.4511 162.705 71.6044 162.751 71.7511 162.845C71.9111 162.938 72.0711 163.058 72.2311 163.205C72.3911 163.338 72.5178 163.438 72.6111 163.505C72.9178 163.745 73.3378 163.931 73.8711 164.065C74.4044 164.198 74.9711 164.265 75.5711 164.265C76.2511 164.265 76.8578 164.138 77.3911 163.885C77.9378 163.618 78.2111 163.265 78.2111 162.825C78.2111 162.425 78.0644 162.111 77.7711 161.885C77.4778 161.645 77.1244 161.471 76.7111 161.365C76.2978 161.258 75.7511 161.158 75.0711 161.065C74.1511 160.958 73.4178 160.825 72.8711 160.665C72.3378 160.505 71.9111 160.245 71.5911 159.885C71.2711 159.511 71.1111 158.991 71.1111 158.325C71.1111 157.605 71.4511 157.071 72.1311 156.725C72.8111 156.365 73.5911 156.185 74.4711 156.185C75.2711 156.185 75.9511 156.358 76.5111 156.705C77.0844 157.038 77.3778 157.518 77.3911 158.145C77.4178 158.505 77.3644 158.791 77.2311 159.005C77.0978 159.205 76.9378 159.305 76.7511 159.305C76.6444 159.305 76.5511 159.265 76.4711 159.185C76.4044 159.105 76.3711 158.998 76.3711 158.865C76.3711 158.651 76.4444 158.418 76.5911 158.165C76.5244 157.845 76.3044 157.605 75.9311 157.445C75.5711 157.285 75.1378 157.205 74.6311 157.205C73.8844 157.205 73.2911 157.345 72.8511 157.625C72.4111 157.891 72.1911 158.211 72.1911 158.585C72.1911 158.985 72.3511 159.291 72.6711 159.505C72.9911 159.718 73.3778 159.871 73.8311 159.965C74.2978 160.045 74.9578 160.125 75.8111 160.205C76.5178 160.298 77.0911 160.411 77.5311 160.545C77.9844 160.678 78.3644 160.938 78.6711 161.325C78.9778 161.698 79.1311 162.238 79.1311 162.945C79.1311 163.678 78.7911 164.258 78.1111 164.685C77.4311 165.098 76.6178 165.305 75.6711 165.305C74.4578 165.305 73.3711 165.098 72.4111 164.685C71.4644 164.271 70.9111 163.685 70.7511 162.925ZM83.8269 165.245C83.7602 165.258 83.6869 165.005 83.6069 164.485C83.5402 163.965 83.4469 163.071 83.3269 161.805C83.1402 159.725 82.9269 157.818 82.6869 156.085C82.4602 154.351 82.1735 152.851 81.8269 151.585C81.8002 151.478 81.8402 151.385 81.9469 151.305C82.0535 151.225 82.2002 151.185 82.3869 151.185C82.4802 151.185 82.5535 151.191 82.6069 151.205C82.9402 152.111 83.1735 152.911 83.3069 153.605C83.4535 154.298 83.5869 155.151 83.7069 156.165L83.8069 156.945C84.6069 156.465 85.3402 156.225 86.0069 156.225C87.2202 156.225 88.0802 156.778 88.5869 157.885C89.1069 158.978 89.3669 160.538 89.3669 162.565C89.3669 163.338 89.3202 163.991 89.2269 164.525C89.1335 165.045 89.0202 165.305 88.8869 165.305C88.7135 165.305 88.5202 165.178 88.3069 164.925V164.265L88.3269 162.085C88.3269 161.671 88.3135 161.158 88.2869 160.545C88.2469 159.505 88.0335 158.718 87.6469 158.185C87.2735 157.651 86.6269 157.385 85.7069 157.385C85.0935 157.385 84.5202 157.611 83.9869 158.065C83.9869 158.571 84.0069 159.091 84.0469 159.625C84.1002 160.158 84.1602 160.678 84.2269 161.185C84.3202 161.891 84.3869 162.518 84.4269 163.065C84.4802 163.598 84.5069 164.191 84.5069 164.845C84.4269 165.005 84.3335 165.111 84.2269 165.165C84.1335 165.218 84.0002 165.245 83.8269 165.245ZM103.199 174.745C102.292 174.745 101.479 174.551 100.759 174.165C100.052 173.778 99.4857 173.331 99.0591 172.825C98.6324 172.318 98.3924 171.905 98.3391 171.585C98.2857 171.291 98.3524 171.065 98.5391 170.905C98.7391 170.745 98.9857 170.678 99.2791 170.705C99.6924 171.691 100.186 172.451 100.759 172.985C101.332 173.518 102.152 173.798 103.219 173.825C103.966 173.838 104.559 173.358 104.999 172.385C105.452 171.425 105.772 170.245 105.959 168.845C106.146 167.458 106.239 166.091 106.239 164.745C106.239 164.051 106.219 163.485 106.179 163.045C105.166 164.285 103.872 164.905 102.299 164.905C100.939 164.905 99.8924 164.258 99.1591 162.965C98.4391 161.671 97.9724 160.211 97.7591 158.585C97.7324 158.425 97.7191 158.198 97.7191 157.905C97.7191 157.065 97.9924 156.645 98.5391 156.645C98.5924 156.645 98.6657 156.978 98.7591 157.645C98.9057 158.698 99.0857 159.645 99.2991 160.485C99.5124 161.325 99.8657 162.091 100.359 162.785C100.866 163.465 101.532 163.805 102.359 163.805C103.012 163.805 103.679 163.591 104.359 163.165C105.052 162.725 105.552 162.238 105.859 161.705C105.859 160.691 105.726 159.785 105.459 158.985C105.206 158.171 105.072 157.738 105.059 157.685C105.032 157.391 105.019 157.205 105.019 157.125C105.019 156.858 105.059 156.665 105.139 156.545C105.232 156.425 105.366 156.365 105.539 156.365C105.726 156.365 105.939 156.745 106.179 157.505C106.419 158.265 106.632 159.258 106.819 160.485C107.006 161.711 107.132 162.991 107.199 164.325C107.226 165.018 107.239 165.531 107.239 165.865C107.239 168.425 106.919 170.545 106.279 172.225C105.652 173.905 104.626 174.745 103.199 174.745ZM114.378 165.305C113.591 165.305 112.878 165.131 112.238 164.785C111.611 164.425 111.118 163.931 110.758 163.305C110.411 162.665 110.238 161.938 110.238 161.125C110.238 159.791 110.724 158.798 111.698 158.145C112.684 157.491 113.891 157.165 115.318 157.165C115.971 157.165 116.578 157.325 117.138 157.645C117.711 157.965 118.171 158.425 118.518 159.025C118.864 159.625 119.038 160.318 119.038 161.105C119.038 161.958 118.818 162.705 118.378 163.345C117.938 163.971 117.358 164.458 116.638 164.805C115.931 165.138 115.178 165.305 114.378 165.305ZM114.158 164.165C115.398 164.165 116.338 163.885 116.978 163.325C117.618 162.765 117.938 161.945 117.938 160.865C117.938 160.131 117.684 159.498 117.178 158.965C116.684 158.431 115.991 158.165 115.098 158.165C114.498 158.165 113.891 158.278 113.278 158.505C112.664 158.731 112.158 159.071 111.758 159.525C111.358 159.978 111.158 160.525 111.158 161.165C111.158 161.698 111.291 162.198 111.558 162.665C111.824 163.118 112.184 163.485 112.638 163.765C113.104 164.031 113.611 164.165 114.158 164.165ZM130.628 165.185C130.388 165.185 130.195 165.085 130.048 164.885C129.915 164.671 129.795 164.351 129.688 163.925C129.582 163.485 129.415 162.725 129.188 161.645C128.962 162.538 128.535 163.251 127.908 163.785C127.282 164.305 126.515 164.565 125.608 164.565C124.782 164.565 124.082 164.278 123.508 163.705C122.948 163.118 122.528 162.351 122.248 161.405C121.968 160.445 121.828 159.411 121.828 158.305C121.828 157.798 121.875 157.365 121.968 157.005C122.075 156.631 122.202 156.351 122.348 156.165C122.508 155.978 122.662 155.891 122.808 155.905C122.968 155.905 123.048 156.011 123.048 156.225C123.048 156.398 123.002 156.671 122.908 157.045C122.815 157.458 122.768 157.931 122.768 158.465C122.768 159.265 122.882 160.045 123.108 160.805C123.348 161.565 123.695 162.191 124.148 162.685C124.615 163.165 125.162 163.405 125.788 163.405C126.308 163.405 126.782 163.251 127.208 162.945C127.635 162.638 127.968 162.251 128.208 161.785C128.462 161.318 128.588 160.858 128.588 160.405V157.225C128.735 156.945 128.935 156.805 129.188 156.805C129.415 156.805 129.568 156.998 129.648 157.385C129.728 157.771 129.768 158.318 129.768 159.025C129.768 159.625 129.762 160.085 129.748 160.405C129.828 160.845 129.948 161.291 130.108 161.745C130.282 162.198 130.495 162.711 130.748 163.285C131.055 163.991 131.208 164.425 131.208 164.585C131.208 164.985 131.015 165.185 130.628 165.185ZM134.895 165.285C134.655 165.285 134.442 165.178 134.255 164.965C134.082 164.738 133.942 164.478 133.835 164.185C133.742 163.878 133.695 163.618 133.695 163.405C133.695 162.978 133.755 162.625 133.875 162.345C134.008 162.051 134.162 161.845 134.335 161.725C134.508 161.591 134.668 161.525 134.815 161.525C135.282 161.525 135.655 161.751 135.935 162.205C136.215 162.645 136.355 163.118 136.355 163.625C136.355 163.825 136.275 164.058 136.115 164.325C135.968 164.591 135.782 164.818 135.555 165.005C135.328 165.191 135.108 165.285 134.895 165.285ZM139.777 165.285C139.537 165.285 139.324 165.178 139.137 164.965C138.964 164.738 138.824 164.478 138.717 164.185C138.624 163.878 138.577 163.618 138.577 163.405C138.577 162.978 138.637 162.625 138.757 162.345C138.891 162.051 139.044 161.845 139.217 161.725C139.391 161.591 139.551 161.525 139.697 161.525C140.164 161.525 140.537 161.751 140.817 162.205C141.097 162.645 141.237 163.118 141.237 163.625C141.237 163.825 141.157 164.058 140.997 164.325C140.851 164.591 140.664 164.818 140.437 165.005C140.211 165.191 139.991 165.285 139.777 165.285ZM144.659 165.285C144.419 165.285 144.206 165.178 144.019 164.965C143.846 164.738 143.706 164.478 143.599 164.185C143.506 163.878 143.459 163.618 143.459 163.405C143.459 162.978 143.519 162.625 143.639 162.345C143.773 162.051 143.926 161.845 144.099 161.725C144.273 161.591 144.433 161.525 144.579 161.525C145.046 161.525 145.419 161.751 145.699 162.205C145.979 162.645 146.119 163.118 146.119 163.625C146.119 163.825 146.039 164.058 145.879 164.325C145.733 164.591 145.546 164.818 145.319 165.005C145.093 165.191 144.873 165.285 144.659 165.285Z" fill="black"/>
<path d="M106.521 210.367C105.188 210.367 104.181 210.14 103.501 209.687C102.821 209.22 102.481 208.38 102.481 207.167C102.748 200.5 103.174 197.32 103.761 197.627C104.054 197.64 104.201 198.094 104.201 198.987C104.201 199.534 104.108 200.687 103.921 202.447C103.681 204.474 103.561 205.96 103.561 206.907L103.581 207.487C103.581 207.78 103.668 208.074 103.841 208.367C104.028 208.66 104.261 208.82 104.541 208.847L108.461 209.187C108.608 209.2 108.681 209.34 108.681 209.607C108.681 209.847 108.621 210.014 108.501 210.107C108.394 210.2 108.201 210.274 107.921 210.327L106.521 210.367ZM114.423 210.347C113.637 210.347 112.923 210.174 112.283 209.827C111.657 209.467 111.163 208.974 110.803 208.347C110.457 207.707 110.283 206.98 110.283 206.167C110.283 204.834 110.77 203.84 111.743 203.187C112.73 202.534 113.937 202.207 115.363 202.207C116.017 202.207 116.623 202.367 117.183 202.687C117.757 203.007 118.217 203.467 118.563 204.067C118.91 204.667 119.083 205.36 119.083 206.147C119.083 207 118.863 207.747 118.423 208.387C117.983 209.014 117.403 209.5 116.683 209.847C115.977 210.18 115.223 210.347 114.423 210.347ZM114.203 209.207C115.443 209.207 116.383 208.927 117.023 208.367C117.663 207.807 117.983 206.987 117.983 205.907C117.983 205.174 117.73 204.54 117.223 204.007C116.73 203.474 116.037 203.207 115.143 203.207C114.543 203.207 113.937 203.32 113.323 203.547C112.71 203.774 112.203 204.114 111.803 204.567C111.403 205.02 111.203 205.567 111.203 206.207C111.203 206.74 111.337 207.24 111.603 207.707C111.87 208.16 112.23 208.527 112.683 208.807C113.15 209.074 113.657 209.207 114.203 209.207ZM124.914 210.347C124.527 210.347 124.021 209.774 123.394 208.627C122.781 207.467 122.067 206 121.254 204.227L120.674 202.987C120.674 202.854 120.754 202.727 120.914 202.607C121.074 202.474 121.314 202.414 121.634 202.427C121.714 202.574 121.967 203.114 122.394 204.047C122.901 205.14 123.327 206.04 123.674 206.747C124.034 207.44 124.467 208.187 124.974 208.987C125.201 208.16 125.454 207.387 125.734 206.667C126.027 205.934 126.461 204.9 127.034 203.567L127.334 202.867C127.414 202.707 127.567 202.627 127.794 202.627C127.954 202.627 128.094 202.667 128.214 202.747C128.334 202.827 128.394 202.94 128.394 203.087C128.394 203.22 128.327 203.36 128.194 203.507C128.101 203.6 127.967 203.874 127.794 204.327C127.621 204.767 127.441 205.26 127.254 205.807C126.747 207.247 126.307 208.374 125.934 209.187C125.561 209.987 125.221 210.374 124.914 210.347ZM135.314 210.327C134.461 210.327 133.674 210.16 132.954 209.827C132.234 209.494 131.661 209.02 131.234 208.407C130.808 207.794 130.594 207.087 130.594 206.287C130.594 205.394 130.761 204.56 131.094 203.787C131.428 203 131.914 202.374 132.554 201.907C133.208 201.427 133.968 201.187 134.834 201.187C135.741 201.187 136.428 201.48 136.894 202.067C137.361 202.64 137.581 203.367 137.554 204.247C137.554 205.034 137.241 205.634 136.614 206.047C136.001 206.46 135.214 206.667 134.254 206.667C134.108 206.667 133.888 206.654 133.594 206.627C133.114 206.574 132.774 206.5 132.574 206.407C132.374 206.314 132.274 206.127 132.274 205.847C132.274 205.754 132.301 205.687 132.354 205.647C132.408 205.594 132.514 205.567 132.674 205.567C132.848 205.567 133.154 205.607 133.594 205.687C134.021 205.767 134.401 205.807 134.734 205.807C135.961 205.807 136.574 205.274 136.574 204.207C136.574 203.567 136.454 203.06 136.214 202.687C135.988 202.314 135.581 202.127 134.994 202.127C134.354 202.127 133.781 202.3 133.274 202.647C132.768 202.98 132.374 203.42 132.094 203.967C131.828 204.514 131.694 205.094 131.694 205.707C131.694 206.76 131.988 207.627 132.574 208.307C133.161 208.974 134.068 209.307 135.294 209.307C135.441 209.307 135.688 209.294 136.034 209.267C136.181 209.254 136.361 209.214 136.574 209.147C136.788 209.08 136.941 209.034 137.034 209.007C137.608 208.807 138.028 208.707 138.294 208.707C138.494 208.707 138.648 208.76 138.754 208.867C138.421 209.374 137.921 209.747 137.254 209.987C136.601 210.214 135.954 210.327 135.314 210.327ZM140.939 214.107C140.779 214.107 140.672 214.04 140.619 213.907C140.579 213.787 140.559 213.62 140.559 213.407C140.559 212.967 140.659 212.347 140.859 211.547C140.872 211.467 140.926 211.214 141.019 210.787C141.112 210.36 141.159 209.96 141.159 209.587L141.139 208.847C140.979 208.847 140.872 208.82 140.819 208.767C140.779 208.7 140.759 208.6 140.759 208.467C140.759 208.16 140.806 207.92 140.899 207.747C141.006 207.574 141.192 207.487 141.459 207.487C141.792 207.487 142.012 207.64 142.119 207.947C142.239 208.254 142.299 208.64 142.299 209.107L142.279 209.767C142.279 210.047 142.219 210.547 142.099 211.267C141.979 212 141.819 212.654 141.619 213.227C141.419 213.814 141.192 214.107 140.939 214.107ZM159.797 210.347C159.637 210.347 159.523 210.307 159.457 210.227C159.403 210.147 159.377 210.034 159.377 209.887C159.377 209.594 159.443 209.14 159.577 208.527C159.723 207.967 159.797 207.507 159.797 207.147C159.797 206.107 159.717 205.314 159.557 204.767H158.937C158.39 204.767 157.677 204.754 156.797 204.727L154.917 204.707H152.217L152.257 205.487C152.257 206.1 152.357 206.867 152.557 207.787C152.623 208.16 152.683 208.54 152.737 208.927C152.803 209.3 152.837 209.64 152.837 209.947V210.127C152.703 210.26 152.563 210.327 152.417 210.327C152.07 210.327 151.797 209.92 151.597 209.107C151.397 208.28 151.297 207.287 151.297 206.127C151.297 205.66 151.317 205.2 151.357 204.747C151.063 204.734 150.863 204.687 150.757 204.607C150.65 204.514 150.597 204.374 150.597 204.187C150.597 204.04 150.637 203.94 150.717 203.887C150.81 203.834 150.97 203.794 151.197 203.767L151.177 203.227L151.237 202.307C151.33 200.8 151.47 199.574 151.657 198.627C151.843 197.68 152.243 196.86 152.857 196.167C153.47 195.474 154.39 195.127 155.617 195.127C157.017 195.127 158.11 195.88 158.897 197.387C159.683 198.894 160.217 200.574 160.497 202.427C160.777 204.28 160.917 205.874 160.917 207.207C160.917 207.687 160.903 208.107 160.877 208.467C160.85 208.814 160.797 209.247 160.717 209.767C160.41 210.154 160.103 210.347 159.797 210.347ZM159.477 203.987C159.223 201.52 158.77 199.587 158.117 198.187C157.463 196.774 156.483 196.067 155.177 196.067C154.203 196.067 153.483 196.52 153.017 197.427C152.563 198.32 152.29 199.28 152.197 200.307C152.103 201.334 152.057 202.487 152.057 203.767L159.477 203.987ZM165.421 210.407C165.234 210.46 165.127 210.487 165.101 210.487C164.994 210.487 164.881 210.434 164.761 210.327C164.321 209.674 164.001 208.534 163.801 206.907C163.614 205.28 163.521 203.88 163.521 202.707C163.521 202.52 163.654 202.427 163.921 202.427C164.321 202.427 164.521 202.647 164.521 203.087C164.521 203.207 164.514 203.307 164.501 203.387C164.621 203.107 164.847 202.82 165.181 202.527C165.514 202.234 165.901 201.987 166.341 201.787C166.781 201.587 167.227 201.487 167.681 201.487C169.107 201.487 170.147 202.12 170.801 203.387C171.454 204.64 171.781 206.2 171.781 208.067C171.781 208.707 171.714 209.22 171.581 209.607C171.447 209.98 171.267 210.167 171.041 210.167C170.801 210.167 170.681 210.094 170.681 209.947C170.774 209.24 170.821 208.547 170.821 207.867C170.821 206.147 170.521 204.847 169.921 203.967C169.321 203.074 168.527 202.627 167.541 202.627C167.061 202.627 166.594 202.747 166.141 202.987C165.701 203.227 165.341 203.56 165.061 203.987C164.794 204.414 164.661 204.9 164.661 205.447C164.661 206.06 164.694 206.594 164.761 207.047C164.827 207.5 164.934 208.047 165.081 208.687C165.241 209.314 165.354 209.887 165.421 210.407ZM176.084 210.407C175.897 210.46 175.791 210.487 175.764 210.487C175.657 210.487 175.544 210.434 175.424 210.327C174.984 209.674 174.664 208.534 174.464 206.907C174.277 205.28 174.184 203.88 174.184 202.707C174.184 202.52 174.317 202.427 174.584 202.427C174.984 202.427 175.184 202.647 175.184 203.087C175.184 203.207 175.177 203.307 175.164 203.387C175.284 203.107 175.511 202.82 175.844 202.527C176.177 202.234 176.564 201.987 177.004 201.787C177.444 201.587 177.891 201.487 178.344 201.487C179.771 201.487 180.811 202.12 181.464 203.387C182.117 204.64 182.444 206.2 182.444 208.067C182.444 208.707 182.377 209.22 182.244 209.607C182.111 209.98 181.931 210.167 181.704 210.167C181.464 210.167 181.344 210.094 181.344 209.947C181.437 209.24 181.484 208.547 181.484 207.867C181.484 206.147 181.184 204.847 180.584 203.967C179.984 203.074 179.191 202.627 178.204 202.627C177.724 202.627 177.257 202.747 176.804 202.987C176.364 203.227 176.004 203.56 175.724 203.987C175.457 204.414 175.324 204.9 175.324 205.447C175.324 206.06 175.357 206.594 175.424 207.047C175.491 207.5 175.597 208.047 175.744 208.687C175.904 209.314 176.017 209.887 176.084 210.407ZM186.187 210.347C185.881 210.347 185.634 209.9 185.447 209.007C185.261 208.1 185.141 207.32 185.087 206.667C185.034 206.014 184.961 204.98 184.867 203.567C184.854 203.34 184.847 203.047 184.847 202.687C184.847 202.234 184.881 201.92 184.947 201.747C185.027 201.574 185.154 201.487 185.327 201.487C185.474 201.487 185.587 201.52 185.667 201.587C185.761 201.64 185.841 201.734 185.907 201.867L185.887 202.667C185.887 203.52 185.927 204.327 186.007 205.087C186.101 205.847 186.241 206.867 186.427 208.147C186.534 208.707 186.607 209.167 186.647 209.527C186.674 209.714 186.641 209.9 186.547 210.087C186.454 210.26 186.334 210.347 186.187 210.347ZM185.687 199.347C185.394 199.347 185.174 199.234 185.027 199.007C184.894 198.78 184.827 198.5 184.827 198.167C184.827 198.02 184.834 197.914 184.847 197.847C184.834 197.634 184.954 197.527 185.207 197.527C185.394 197.527 185.581 197.574 185.767 197.667C185.967 197.747 186.027 197.807 185.947 197.847C186.081 198.194 186.147 198.467 186.147 198.667C186.147 198.84 186.107 198.98 186.027 199.087C185.947 199.18 185.834 199.267 185.687 199.347ZM193.961 210.327C193.108 210.327 192.321 210.16 191.601 209.827C190.881 209.494 190.308 209.02 189.881 208.407C189.454 207.794 189.241 207.087 189.241 206.287C189.241 205.394 189.408 204.56 189.741 203.787C190.074 203 190.561 202.374 191.201 201.907C191.854 201.427 192.614 201.187 193.481 201.187C194.388 201.187 195.074 201.48 195.541 202.067C196.008 202.64 196.228 203.367 196.201 204.247C196.201 205.034 195.888 205.634 195.261 206.047C194.648 206.46 193.861 206.667 192.901 206.667C192.754 206.667 192.534 206.654 192.241 206.627C191.761 206.574 191.421 206.5 191.221 206.407C191.021 206.314 190.921 206.127 190.921 205.847C190.921 205.754 190.948 205.687 191.001 205.647C191.054 205.594 191.161 205.567 191.321 205.567C191.494 205.567 191.801 205.607 192.241 205.687C192.668 205.767 193.048 205.807 193.381 205.807C194.608 205.807 195.221 205.274 195.221 204.207C195.221 203.567 195.101 203.06 194.861 202.687C194.634 202.314 194.228 202.127 193.641 202.127C193.001 202.127 192.428 202.3 191.921 202.647C191.414 202.98 191.021 203.42 190.741 203.967C190.474 204.514 190.341 205.094 190.341 205.707C190.341 206.76 190.634 207.627 191.221 208.307C191.808 208.974 192.714 209.307 193.941 209.307C194.088 209.307 194.334 209.294 194.681 209.267C194.828 209.254 195.008 209.214 195.221 209.147C195.434 209.08 195.588 209.034 195.681 209.007C196.254 208.807 196.674 208.707 196.941 208.707C197.141 208.707 197.294 208.76 197.401 208.867C197.068 209.374 196.568 209.747 195.901 209.987C195.248 210.214 194.601 210.327 193.961 210.327Z" fill="black"/>
</svg>
