<svg width="315" height="450" viewBox="0 0 315 450" fill="none" xmlns="http://www.w3.org/2000/svg">
<circle cx="160" cy="430" r="20" fill="#F3722C"/>
<line x1="159.5" y1="316.5" x2="159.5" y2="408.5" stroke="#FFF6DF" stroke-width="3" stroke-linecap="round" stroke-dasharray="7 7"/>
<circle cx="157.5" cy="157.5" r="153.5" fill="#F3722C" stroke="#FFF6DF" stroke-width="8"/>
<g clip-path="url(#clip0_20_7872)">
<path d="M100.646 62.1195L96.8126 63.6748C94.396 64.6552 92.2478 66.1972 90.5458 68.1732C87.9794 71.1528 86.5677 74.9546 86.5677 78.8871V95.243V144.191C86.5677 146.839 87.0371 149.466 87.9541 151.95C91.0908 160.447 99.0354 166.219 108.086 166.578L204.063 170.375C208.529 170.551 212.943 169.375 216.729 166.999C223.194 162.942 227.119 155.846 227.119 148.213V84.1414C227.119 79.7616 225.944 75.4621 223.716 71.691C219.312 64.2346 211.297 59.6597 202.637 59.6597H185.085H113.252C108.931 59.6597 104.65 60.4949 100.646 62.1195Z" fill="#FFF6DF" stroke="black" stroke-width="0.1"/>
<path d="M233.954 112.731C233.613 106.573 233.341 100.306 233.077 94.2458C232.82 88.344 232.555 82.241 232.225 76.241C231.749 67.5276 227.115 61.1798 218.826 57.8836C215.899 56.7205 212.297 56.1054 207.822 56.0016C195.967 55.7289 183.912 55.6029 172.254 55.4803C168.105 55.4365 163.955 55.3907 159.807 55.3429C159.702 55.2591 159.571 55.213 159.435 55.2129H149.772C141.919 55.2129 134.067 55.2152 126.216 55.2189C124.779 55.2189 123.338 55.2157 121.901 55.2119C117.583 55.1975 113.117 55.1856 108.724 55.3402C102.728 55.5505 98.11 56.6848 94.1936 58.9106C86.2619 63.4196 82.0309 69.8559 81.6181 78.0421C81.4007 82.3529 81.3274 86.7375 81.257 90.9783L81.2111 93.6334C81.1475 97.1925 81.081 100.751 81.0118 104.309C80.7886 116.032 80.5575 128.154 80.4661 140.081C80.4292 144.828 80.6768 150.445 82.7883 156.108C85.911 164.484 91.671 169.899 100.398 172.662C108.517 175.173 116.983 176.46 125.503 176.478C146.681 176.744 168.894 176.87 195.036 176.87H200.114C204.919 176.949 209.714 176.444 214.39 175.367C225.108 172.702 231.46 166.314 233.269 156.381C233.845 153.011 234.244 149.615 234.466 146.205C235.249 135.86 234.662 125.377 234.093 115.237L233.954 112.731ZM134.917 167.457C125.743 167.43 115.941 167.092 106.418 164.821C102.586 163.908 99.8457 162.838 97.6558 161.391L144.917 119.131L146.236 120.511C147.551 121.888 148.909 123.308 150.28 124.716C154.248 128.791 158.142 129.125 162.531 125.768C164.327 124.395 166.033 122.842 167.683 121.344C168.307 120.776 168.939 120.203 169.579 119.634L215.836 165.029C214.237 166.307 212.304 166.575 210.268 166.857L209.683 166.939C207.496 167.221 205.291 167.353 203.085 167.331L190.146 167.376C172.043 167.442 153.326 167.511 134.917 167.457ZM207.136 73.1137C200.215 79.1888 193.059 85.4702 186.235 91.8721C179.425 98.2603 172.749 104.955 166.292 111.432C163.619 114.112 160.86 116.88 158.135 119.581L100.658 64.7717C101.07 64.6653 101.478 64.5579 101.883 64.4493C103.45 64.0347 104.93 63.642 106.442 63.3533C113.96 61.918 121.7 62.1132 129.186 62.3048C130.858 62.3467 132.53 62.3882 134.201 62.4147C136.743 62.4534 139.331 62.5358 141.832 62.6158C144.005 62.6848 146.252 62.7566 148.465 62.7991C154.687 62.9187 160.909 63.0336 167.132 63.1436C180.582 63.3876 194.489 63.6407 208.166 63.9598C210.089 64.063 212 64.3247 213.877 64.7421C214.615 64.885 215.38 65.0318 216.14 65.1598V65.1782C213.148 67.8362 210.093 70.5191 207.135 73.1158L207.136 73.1137ZM110.332 139.787C104.568 145.117 98.6136 150.623 92.8559 156.249C90.4645 150.764 89.225 146.261 88.856 141.747C87.834 129.223 88.2587 116.757 88.7845 105.062C89.0246 99.7284 89.1206 94.304 89.2137 89.058C89.2773 85.4919 89.3431 81.8042 89.4533 78.1828C89.5668 74.3417 90.888 71.6465 93.8427 69.2645L138.753 112.162C129.61 121.961 119.811 131.023 110.329 139.792L110.332 139.787ZM223.55 155.312C223.34 156.413 223.059 157.499 222.709 158.564C222.583 158.978 222.457 159.392 222.338 159.806L222.157 159.865L174.552 114.76C191.008 98.2536 206.616 84.1765 222.226 71.7557C222.293 72.0477 222.361 72.3319 222.428 72.6091C222.706 73.615 222.891 74.6428 222.98 75.6809C223.506 86.1276 223.935 96.4373 224.25 104.253C224.546 111.587 224.798 118.823 225 125.762C225.253 134.548 225.281 144.931 223.547 155.315L223.55 155.312Z" fill="black"/>
</g>
<path d="M140.278 265.726C140.837 265.713 140.612 265.277 140.626 265.001C140.639 264.726 140.419 264.428 140.763 264.221C141.119 264.015 141.441 264.124 141.752 264.341C141.886 264.431 142.034 264.585 142.149 264.57C143.355 264.411 144.258 265.101 145.171 265.705C147.326 267.137 149.283 268.833 151.125 270.653C152.654 272.17 154.067 273.811 155.529 275.397C155.785 275.686 156.071 275.947 156.421 276.306C156.721 275.721 156.591 275.223 156.541 274.729C156.546 274.626 156.546 274.517 156.557 274.408L156.555 274.454C156.56 274.35 156.572 274.242 156.571 274.132L156.577 274.138C156.607 273.662 156.642 273.192 156.678 272.711L156.655 272.709C156.668 272.457 156.675 272.209 156.687 271.957C156.693 271.853 156.698 271.75 156.704 271.635L156.696 271.675C156.701 271.572 156.706 271.468 156.712 271.353L156.667 271.339C156.692 271.174 156.719 270.997 156.744 270.831L156.732 270.842C156.737 270.739 156.743 270.635 156.748 270.521L156.746 270.567C156.751 270.463 156.757 270.36 156.762 270.245L156.76 270.291C156.765 270.188 156.771 270.084 156.776 269.969L156.774 270.015C156.774 269.906 156.785 269.797 156.785 269.688L156.783 269.734C156.788 269.63 156.799 269.522 156.799 269.412L156.797 269.458C156.802 269.355 156.808 269.24 156.813 269.137L156.81 269.182C156.816 269.079 156.821 268.964 156.827 268.861L156.843 268.879C156.852 268.696 156.862 268.512 156.876 268.334L156.858 268.35C156.864 268.247 156.869 268.132 156.875 268.029L156.872 268.075C156.877 267.971 156.883 267.868 156.894 267.759L156.892 267.805C156.897 267.702 156.908 267.593 156.908 267.484L156.919 267.496C156.922 267.318 156.931 267.145 156.934 266.967C156.939 266.864 156.945 266.749 156.95 266.646L156.948 266.691C156.953 266.588 156.959 266.473 156.964 266.37L156.962 266.416C156.967 266.313 156.973 266.198 156.978 266.094L156.976 266.14C156.981 266.037 156.987 265.922 156.992 265.819L156.99 265.865C156.995 265.761 156.995 265.652 157.006 265.543L157.004 265.589C157.009 265.486 157.015 265.371 157.02 265.268L157.018 265.314C157.023 265.21 157.029 265.095 157.034 264.992L157.032 265.038C157.037 264.935 157.043 264.82 157.048 264.716L157.046 264.762C157.051 264.659 157.057 264.544 157.062 264.441L157.066 264.481C157.071 264.378 157.076 264.275 157.087 264.166L157.085 264.212C157.09 264.109 157.096 263.994 157.101 263.89L157.099 263.936C157.104 263.833 157.11 263.718 157.115 263.615L157.113 263.661C157.118 263.557 157.124 263.443 157.129 263.339L157.127 263.385L157.143 263.064L157.141 263.11C157.146 263.006 157.152 262.891 157.157 262.788L157.155 262.834C157.16 262.731 157.166 262.616 157.171 262.513L157.169 262.558C157.174 262.455 157.18 262.34 157.185 262.237L157.183 262.283C157.188 262.179 157.194 262.065 157.199 261.961L157.197 262.007C157.202 261.904 157.208 261.789 157.213 261.686L157.211 261.732C157.216 261.628 157.227 261.52 157.227 261.41L157.224 261.456C157.23 261.353 157.235 261.249 157.241 261.135L157.233 261.174C157.238 261.071 157.243 260.968 157.249 260.864L157.247 260.899C157.252 260.795 157.257 260.692 157.263 260.589L157.261 260.623C157.266 260.52 157.271 260.416 157.277 260.313L157.275 260.348C157.28 260.244 157.285 260.141 157.291 260.038L157.289 260.072C157.294 259.969 157.299 259.865 157.304 259.762L157.308 259.803C157.293 259.191 157.278 258.579 157.257 257.961L157.255 258.007C157.26 257.904 157.272 257.795 157.271 257.686C157.271 257.686 157.269 257.732 157.264 257.725C157.274 257.53 157.283 257.335 157.294 257.128L157.292 257.174C157.297 257.071 157.302 256.968 157.308 256.853L157.3 256.893C157.305 256.789 157.311 256.674 157.316 256.571L157.314 256.617C157.319 256.514 157.325 256.399 157.33 256.295L157.328 256.341C157.333 256.238 157.339 256.123 157.344 256.02L157.342 256.066C157.347 255.962 157.353 255.848 157.358 255.744L157.356 255.79C157.361 255.687 157.367 255.572 157.372 255.469L157.37 255.515C157.375 255.411 157.381 255.296 157.386 255.193L157.384 255.239C157.389 255.136 157.395 255.021 157.4 254.917L157.398 254.963C157.403 254.86 157.409 254.745 157.414 254.642L157.412 254.688C157.417 254.584 157.422 254.481 157.428 254.366L157.426 254.412C157.431 254.309 157.436 254.206 157.442 254.091L157.44 254.137L157.456 253.815L157.453 253.861C157.459 253.758 157.465 253.643 157.47 253.54L157.467 253.585L157.484 253.264L157.481 253.31C157.487 253.207 157.492 253.103 157.498 252.988L157.496 253.023C157.501 252.919 157.506 252.816 157.512 252.713L157.515 252.753C157.521 252.65 157.526 252.547 157.531 252.443L157.529 252.478C157.534 252.374 157.54 252.271 157.545 252.168L157.543 252.202C157.548 252.099 157.554 251.995 157.559 251.892L157.557 251.927C157.537 251.407 157.512 250.881 157.486 250.366L157.49 250.407C157.495 250.303 157.501 250.2 157.506 250.085L157.504 250.131C157.509 250.028 157.515 249.924 157.52 249.81L157.518 249.856C157.523 249.752 157.529 249.637 157.534 249.534L157.532 249.58C157.537 249.477 157.543 249.362 157.548 249.259L157.546 249.304C157.551 249.201 157.557 249.086 157.562 248.983L157.56 249.029C157.565 248.925 157.571 248.811 157.576 248.707L157.574 248.753C157.585 248.645 157.585 248.535 157.596 248.426L157.607 248.439C157.626 248.071 157.644 247.704 157.663 247.336L157.655 247.376C157.635 246.856 157.61 246.33 157.59 245.81L157.583 245.85C157.588 245.747 157.594 245.632 157.599 245.529L157.603 245.569C157.608 245.466 157.619 245.357 157.619 245.248L157.617 245.294C157.587 245.199 157.563 245.1 157.533 245.006C157.578 244.911 157.623 244.827 157.668 244.733C157.609 244.642 157.551 244.54 157.498 244.444C157.606 244.36 157.702 244.285 157.799 244.2C157.711 244.102 157.63 244.01 157.566 243.913C157.662 243.828 157.752 243.747 157.826 243.66C157.756 243.558 157.692 243.461 157.628 243.364C157.695 243.283 157.757 243.195 157.819 243.107C157.778 243.012 157.754 242.924 157.718 242.835C157.753 242.705 157.794 242.581 157.83 242.451C157.817 242.461 157.795 242.46 157.771 242.47C157.799 242.477 157.822 242.479 157.851 242.487C157.811 242.599 157.776 242.718 157.742 242.825C157.777 242.925 157.806 243.031 157.847 243.137C157.785 243.214 157.718 243.284 157.651 243.366L157.848 243.685C157.763 243.76 157.673 243.84 157.589 243.915C157.67 244.018 157.751 244.122 157.832 244.225C157.73 244.305 157.623 244.378 157.521 244.457C157.585 244.554 157.649 244.651 157.708 244.741C157.657 244.83 157.612 244.925 157.562 245.013C157.536 245.058 157.511 245.102 157.469 245.139L157.509 245.136C157.459 244.764 157.358 244.383 157.359 244.008C157.364 237.095 157.385 230.189 157.395 223.282C157.397 221.887 157.346 220.496 157.354 219.096C157.359 218.664 157.472 218.234 157.534 217.806C157.534 217.806 157.541 217.79 157.542 217.778L157.505 217.81C157.471 217.468 157.442 217.132 157.413 216.796L157.384 216.799C157.454 216.781 157.53 216.758 157.605 216.745C157.535 216.666 157.469 216.592 157.404 216.507L157.433 216.515C157.368 215.289 157.286 214.068 157.245 212.843C157.151 210.25 157.134 207.645 156.977 205.053C156.791 201.906 156.49 198.763 156.246 195.623C156.237 195.565 156.275 195.498 156.289 195.442L156.255 195.439C156.389 195.529 156.511 195.618 156.644 195.708C156.627 195.713 156.603 195.723 156.58 195.721C156.597 195.728 156.62 195.73 156.637 195.736C156.564 195.582 156.491 195.438 156.418 195.284L156.416 195.33C156.546 195.039 156.587 194.782 156.153 194.73L156.187 194.732C156.103 194.455 156.008 194.178 155.924 193.902L155.919 193.895C155.979 193.842 156.033 193.794 156.093 193.74L156.104 193.753C156.137 193.668 156.165 193.578 156.244 193.388C156.437 193.666 156.593 193.878 156.749 194.102C156.779 194.075 156.833 194.027 156.829 193.998C156.759 193.544 156.657 193.076 157.261 192.847C157.39 193.017 157.52 193.187 157.693 193.406C157.717 193.264 157.757 193.175 157.749 193.093C157.72 192.867 157.623 192.635 157.656 192.43C157.685 192.208 157.839 192.005 157.936 191.798C158.124 191.938 158.366 192.041 158.484 192.222C158.633 192.463 158.693 192.761 158.764 193.048C159.067 194.238 159.363 195.434 159.654 196.623C159.688 196.856 159.722 197.089 159.757 197.322C159.831 197.552 159.895 197.781 159.958 198.01C159.889 198.114 159.827 198.214 159.764 198.313C159.878 198.442 159.998 198.577 160.113 198.706C160.067 198.812 160.021 198.918 159.97 199.019L159.936 199.016C159.987 198.916 160.044 198.811 160.095 198.71C159.975 198.575 159.855 198.452 159.735 198.317C159.804 198.212 159.866 198.113 159.923 198.007C159.855 197.772 159.785 197.548 159.717 197.313C159.955 197.047 159.88 196.817 159.614 196.615C159.649 196.375 159.742 196.128 159.702 195.901C159.505 194.781 159.274 193.659 159.055 192.538C159.014 192.322 158.979 192.1 158.939 191.873C159.633 191.805 159.785 191.868 159.957 192.571C160.247 193.772 160.583 194.987 160.717 196.206C161.105 199.569 161.481 202.942 161.719 206.317C162.612 218.904 162.695 231.486 162.294 244.07C162.103 249.888 161.919 255.7 161.384 261.494C160.945 266.182 160.501 270.864 160.056 275.558C160.006 276.085 159.951 276.617 159.791 277.153C159.266 276.622 159.287 275.978 159.335 275.365C159.557 272.228 159.813 269.095 160.064 265.955C160.142 264.986 160.22 264.018 160.275 263.048C160.295 262.767 160.234 262.481 160.208 262.197C160.213 262.105 160.218 262.013 160.228 261.916C160.445 261.723 160.432 261.526 160.182 261.354C160.288 261.073 160.463 260.797 160.484 260.504C160.72 256.522 160.933 252.55 161.157 248.567C161.235 247.149 161.341 245.728 161.378 244.313C161.407 243.18 161.332 242.051 161.337 240.917C161.351 238.711 161.388 236.507 161.402 234.301C161.406 233.991 161.324 233.68 161.271 233.365C161.315 233.281 161.399 233.207 161.403 233.126C161.408 231.565 161.406 230.009 161.393 228.453C161.392 228.344 161.3 228.228 161.249 228.109C161.253 228.017 161.258 227.925 161.269 227.828C161.268 227.05 161.267 226.261 161.267 225.483C161.394 224.789 161.579 224.087 161.194 223.398C161.262 223.063 161.418 222.728 161.388 222.403C161.304 221.447 161.584 220.464 161.142 219.529C161.385 218.929 161.335 218.326 161.078 217.733C161.094 217.63 161.116 217.534 161.133 217.431C161.138 217.097 161.272 216.738 160.928 216.472C161.211 216.353 161.203 216.163 161.042 215.933C161.059 215.83 161.075 215.727 161.098 215.631C161.063 215.41 161.033 215.195 160.999 214.973C160.946 214.877 160.899 214.776 160.858 214.681C160.914 214.587 160.965 214.499 161.01 214.404C161.027 214.301 161.037 214.204 161.06 214.107C161.085 213.833 161.075 213.578 160.758 213.465C160.788 213.34 160.816 213.227 160.846 213.102C160.924 212.923 161.002 212.744 161.074 212.57C161.057 212.575 161.04 212.568 161.023 212.561C161.039 212.579 161.056 212.586 161.078 212.599C161.012 212.768 160.94 212.941 160.874 213.11C160.834 213.222 160.793 213.346 160.753 213.458C160.869 213.674 160.973 213.888 161.089 214.104C161.072 214.206 161.055 214.309 161.044 214.406C160.982 214.494 160.926 214.588 160.87 214.671L161.033 214.976C160.911 215.215 160.854 215.442 161.133 215.622C161.116 215.725 161.099 215.827 161.082 215.93L160.958 216.457C161.028 216.779 161.104 217.095 161.174 217.417C161.152 217.513 161.135 217.616 161.113 217.712C161.135 218.307 161.156 218.913 161.178 219.508C161.141 220.001 161.076 220.498 161.085 220.994C161.102 221.79 161.178 222.579 161.229 223.378C161.033 224.078 161.073 224.767 161.302 225.462C161.033 226.239 161.073 227.025 161.304 227.807C161.3 227.899 161.295 227.991 161.284 228.088C161.25 228.207 161.174 228.329 161.174 228.45C161.164 230.004 161.161 231.554 161.169 233.104C161.165 233.185 161.252 233.271 161.3 233.35C161.248 233.692 161.151 234.031 161.145 234.376C161.06 237.303 160.987 240.219 160.914 243.146C160.835 246.298 160.785 249.446 160.666 252.589C160.553 255.508 160.376 258.429 160.223 261.351C160.236 261.536 160.25 261.721 160.263 261.907C160.259 261.998 160.254 262.09 160.255 262.188C160.125 263.17 159.954 264.155 159.869 265.152C159.543 268.972 159.247 272.789 158.938 276.605C158.915 276.943 158.824 277.277 158.72 277.84C158.495 277.404 158.375 277.16 158.213 276.843C158.047 277.276 157.908 277.629 157.736 278.078C158.349 278.806 158.988 279.599 159.658 280.353C160.132 280.887 160.537 280.846 160.91 280.295C161.766 279.063 162.645 277.845 163.469 276.587C164.099 275.622 164.618 274.581 165.225 273.603C166.065 272.254 167.01 270.965 167.805 269.591C168.55 268.294 169.499 267.167 170.514 266.101C170.8 265.804 171.152 265.557 171.513 265.357C172.099 265.035 172.712 264.743 173.34 264.503C173.569 264.41 173.985 264.38 174.105 264.515C174.334 264.773 174.492 264.721 174.764 264.687C175.215 264.638 175.455 264.896 175.364 265.339C175.303 265.635 175.176 265.989 174.959 266.181C172.774 268.077 171.365 270.544 169.902 272.973C168.142 275.906 166.421 278.858 164.322 281.555C163.928 282.058 163.484 282.528 163.035 282.993C162.398 283.646 161.508 283.833 160.686 284.036C158.711 284.517 156.825 284.249 155.192 282.858C154.894 282.607 154.621 282.312 154.389 282.002C152.805 279.877 150.912 278.048 149.008 276.206C148.042 275.276 147.252 274.167 146.334 273.194C144.881 271.665 143.506 270.067 141.84 268.749C141.159 268.212 140.546 267.594 139.896 267.02C139.736 266.876 139.435 266.804 139.075 266.75C138.978 266.738 138.881 266.714 138.797 266.668C138.707 266.627 138.636 266.559 138.514 266.47C138.497 266.111 138.476 265.735 138.457 265.204C139.019 265.582 139.533 265.664 140.064 265.631L140.042 265.618C140.145 265.625 140.248 265.632 140.352 265.639L140.317 265.648L140.278 265.726ZM156.712 196.416C156.712 196.416 156.67 196.453 156.646 196.475C156.659 196.441 156.678 196.413 156.691 196.38C156.673 196.384 156.662 196.383 156.644 196.388C156.667 196.401 156.69 196.403 156.712 196.416ZM156.907 275.809C156.98 275.722 157.065 275.635 157.139 275.548C157.075 275.44 157.011 275.332 156.948 275.224C157.032 275.149 157.123 275.069 157.207 274.994C157.114 274.89 157.022 274.785 156.935 274.687C157.019 274.612 157.103 274.538 157.182 274.468C157.122 274.28 157.068 274.097 157.02 273.91C157.044 273.888 157.079 273.879 157.115 273.858C157.091 273.88 157.073 273.896 157.043 273.911C157.097 274.093 157.151 274.276 157.205 274.458C157.115 274.538 157.031 274.613 156.94 274.693C157.027 274.792 157.12 274.896 157.207 274.994C157.117 275.074 157.026 275.154 156.947 275.247C157.016 275.35 157.092 275.447 157.156 275.555C157.07 275.653 156.99 275.757 156.91 275.849L156.973 275.859L156.906 275.832L156.907 275.809ZM160.152 199.746C160.152 199.746 160.112 199.737 160.089 199.735C160.101 199.725 160.125 199.715 160.148 199.716C160.142 199.71 160.125 199.703 160.114 199.703C160.125 199.715 160.141 199.733 160.152 199.746ZM160.214 200.677C160.214 200.677 160.168 200.686 160.139 200.69C160.157 200.673 160.175 200.657 160.193 200.641C160.181 200.641 160.164 200.645 160.153 200.644C160.163 200.657 160.186 200.67 160.203 200.677L160.214 200.677ZM157.787 221.563C157.787 221.563 157.769 221.59 157.762 221.607C157.769 221.579 157.777 221.551 157.783 221.534C157.778 221.528 157.772 221.521 157.761 221.521L157.793 221.557L157.787 221.563ZM157.843 228.302C157.797 228.42 157.751 228.537 157.705 228.644C157.752 228.745 157.799 228.846 157.851 228.942C157.835 228.923 157.818 228.916 157.796 228.903C157.819 228.905 157.836 228.912 157.853 228.919C157.799 228.834 157.741 228.744 157.687 228.66C157.734 228.53 157.781 228.39 157.828 228.26C157.817 228.26 157.794 228.258 157.782 228.257C157.799 228.276 157.822 228.277 157.838 228.296L157.843 228.302ZM157.894 230.373C157.854 230.486 157.808 230.604 157.767 230.716C157.808 230.823 157.849 230.929 157.889 231.036C157.805 231.111 157.726 231.192 157.653 231.267C157.723 231.37 157.798 231.467 157.868 231.57C157.778 231.65 157.693 231.725 157.603 231.805C157.621 231.789 157.645 231.768 157.663 231.752C157.667 231.792 157.659 231.832 157.663 231.873C157.646 231.854 157.63 231.836 157.614 231.818C157.693 231.725 157.779 231.627 157.858 231.535C157.787 231.455 157.723 231.358 157.659 231.273C157.733 231.175 157.806 231.088 157.869 230.988C157.821 230.899 157.78 230.804 157.744 230.715C157.791 230.585 157.833 230.45 157.873 230.326C157.861 230.337 157.838 230.335 157.821 230.34C157.849 230.347 157.866 230.354 157.895 230.362L157.894 230.373ZM157.919 232.72C157.884 232.839 157.844 232.951 157.809 233.07C157.845 233.17 157.879 233.282 157.914 233.382C157.83 233.457 157.746 233.532 157.655 233.612C157.742 233.71 157.823 233.814 157.905 233.917C157.808 234.003 157.718 234.083 157.621 234.169C157.708 234.267 157.784 234.376 157.865 234.468C157.775 234.548 157.684 234.628 157.583 234.708C157.601 234.692 157.619 234.676 157.643 234.654C157.641 234.689 157.639 234.735 157.637 234.769C157.621 234.751 157.604 234.732 157.588 234.714C157.679 234.622 157.77 234.53 157.861 234.439C157.779 234.347 157.703 234.261 157.621 234.169C157.718 234.083 157.815 233.986 157.906 233.894C157.824 233.802 157.742 233.71 157.661 233.618C157.74 233.526 157.808 233.433 157.882 233.334C157.847 233.245 157.811 233.156 157.776 233.056C157.811 232.926 157.846 232.796 157.882 232.666C157.87 232.676 157.847 232.675 157.829 232.679C157.852 232.681 157.88 232.689 157.897 232.696L157.919 232.72ZM157.896 235.899C157.856 236.011 157.821 236.13 157.781 236.242C157.816 236.343 157.846 236.448 157.881 236.549C157.807 236.636 157.734 236.712 157.661 236.799C157.731 236.901 157.806 236.999 157.881 237.108C157.791 237.188 157.7 237.268 157.61 237.348C157.686 237.446 157.761 237.555 157.836 237.652C157.746 237.732 157.656 237.812 157.571 237.899C157.646 237.996 157.716 238.099 157.792 238.196L157.757 238.205C157.757 238.205 157.793 238.173 157.787 238.179C157.711 238.093 157.646 238.008 157.576 237.916C157.661 237.818 157.746 237.732 157.826 237.628C157.75 237.542 157.68 237.451 157.615 237.366C157.706 237.274 157.791 237.188 157.876 237.09C157.8 237.004 157.736 236.908 157.666 236.816C157.728 236.717 157.796 236.624 157.847 236.523C157.818 236.429 157.787 236.346 157.764 236.247C157.799 236.117 157.834 235.987 157.875 235.863C157.863 235.873 157.84 235.872 157.823 235.876C157.846 235.878 157.868 235.891 157.891 235.893L157.896 235.899ZM157.885 239.078C158.11 239.295 157.94 239.359 157.758 239.421C157.799 239.528 157.84 239.634 157.886 239.747C157.795 239.827 157.711 239.902 157.621 239.982C157.708 240.08 157.783 240.189 157.87 240.287C157.774 240.373 157.683 240.453 157.581 240.532C157.668 240.63 157.761 240.735 157.848 240.833C157.752 240.919 157.661 240.999 157.559 241.078C157.647 241.176 157.722 241.274 157.803 241.377C157.713 241.457 157.616 241.543 157.526 241.623C157.602 241.721 157.683 241.824 157.752 241.927L157.742 241.903C157.666 241.817 157.596 241.726 157.531 241.641C157.627 241.555 157.713 241.457 157.804 241.366C157.722 241.274 157.646 241.188 157.564 241.096C157.661 241.01 157.763 240.919 157.854 240.828C157.767 240.729 157.685 240.637 157.604 240.545C157.7 240.46 157.796 240.374 157.882 240.276C157.8 240.184 157.719 240.092 157.637 240C157.722 239.914 157.807 239.828 157.892 239.73C157.84 239.634 157.798 239.539 157.752 239.438C157.793 239.302 157.834 239.178 157.875 239.055C157.863 239.065 157.84 239.064 157.822 239.068C157.851 239.076 157.874 239.077 157.902 239.085L157.885 239.078ZM157.104 272.256C157.16 272.162 157.217 272.056 157.274 271.962C157.282 271.911 157.296 271.866 157.305 271.815C157.286 271.831 157.262 271.852 157.262 271.864C157.266 271.893 157.282 271.923 157.286 271.952C157.228 272.069 157.171 272.186 157.114 272.291C157.136 272.293 157.148 272.294 157.171 272.295C157.155 272.277 157.126 272.269 157.104 272.256ZM158.351 246.485C158.374 246.584 158.404 246.678 158.422 246.772C158.348 246.871 158.274 246.981 158.2 247.079C158.216 247.098 158.227 247.11 158.249 247.123C158.238 247.111 158.222 247.092 158.205 247.085C158.262 246.98 158.319 246.874 158.382 246.763C158.359 246.664 158.335 246.564 158.323 246.466L158.387 246.453L158.351 246.485ZM157.805 264.647L157.794 264.768C157.794 264.768 157.743 264.747 157.709 264.733C157.734 264.689 157.76 264.644 157.784 264.611C157.772 264.622 157.755 264.615 157.738 264.62C157.755 264.627 157.783 264.634 157.8 264.641L157.805 264.647ZM165.405 274.145C165.428 274.256 165.411 274.37 165.45 274.39C165.517 274.429 165.61 274.413 165.696 274.413C165.695 274.338 165.729 274.231 165.69 274.199C165.64 274.155 165.531 274.165 165.405 274.145ZM158.399 247.571C158.399 247.571 158.379 247.622 158.372 247.65C158.395 247.652 158.429 247.665 158.447 247.649C158.465 247.633 158.472 247.605 158.479 247.577C158.456 247.575 158.428 247.567 158.405 247.566L158.399 247.571ZM141.06 265.636C141.119 265.605 141.154 265.596 141.189 265.576C141.173 265.557 141.14 265.532 141.134 265.537C141.116 265.553 141.097 265.581 141.066 265.631L141.06 265.636ZM153.527 280.278C153.527 280.278 153.577 280.31 153.599 280.323C153.589 280.288 153.58 280.253 153.565 280.212C153.547 280.228 153.539 280.256 153.521 280.272L153.527 280.278Z" fill="black"/>
<path d="M157.177 257.045C157.151 256.312 157.091 255.576 157.116 254.84C157.147 253.782 157.241 252.723 157.306 251.667L157.283 251.666C157.375 251.77 157.468 251.874 157.56 251.979L157.562 251.944C157.557 252.048 157.552 252.151 157.547 252.254L157.548 252.22C157.543 252.323 157.538 252.427 157.533 252.53L157.534 252.495C157.529 252.599 157.524 252.702 157.519 252.805L157.515 252.765C157.51 252.868 157.504 252.972 157.499 253.075L157.501 253.04C157.496 253.144 157.491 253.247 157.485 253.362L157.487 253.316C157.482 253.419 157.471 253.528 157.471 253.638L157.473 253.592C157.468 253.695 157.462 253.81 157.457 253.913L157.459 253.867C157.454 253.971 157.449 254.074 157.443 254.189L157.445 254.143C157.44 254.246 157.435 254.349 157.429 254.464L157.431 254.418C157.426 254.522 157.421 254.625 157.415 254.74L157.417 254.694C157.412 254.797 157.406 254.912 157.401 255.015L157.403 254.97C157.398 255.073 157.392 255.188 157.387 255.291L157.389 255.245C157.384 255.348 157.378 255.463 157.373 255.567L157.375 255.521C157.37 255.624 157.364 255.739 157.359 255.842L157.362 255.796C157.356 255.9 157.35 256.015 157.345 256.118L157.348 256.072C157.342 256.175 157.337 256.29 157.331 256.393L157.334 256.347C157.328 256.451 157.323 256.566 157.317 256.669L157.32 256.623C157.314 256.726 157.309 256.841 157.303 256.945L157.311 256.905C157.257 256.953 157.203 257.001 157.148 257.049L157.183 257.052L157.177 257.045Z" fill="black"/>
<path d="M156.945 264.358C156.945 264.358 156.896 264.303 156.904 264.274C156.949 262.699 156.994 261.112 157.046 259.531L157.023 259.529C157.115 259.634 157.208 259.738 157.3 259.842L157.297 259.802C157.292 259.905 157.286 260.008 157.281 260.112L157.283 260.077C157.278 260.181 157.272 260.284 157.267 260.387L157.269 260.353C157.264 260.456 157.258 260.56 157.253 260.663L157.255 260.629C157.25 260.732 157.244 260.835 157.239 260.939L157.241 260.904C157.236 261.008 157.231 261.111 157.225 261.214L157.233 261.174C157.228 261.278 157.223 261.381 157.217 261.496L157.219 261.45C157.214 261.553 157.203 261.662 157.203 261.771L157.205 261.726C157.2 261.829 157.194 261.944 157.189 262.047L157.191 262.001C157.186 262.104 157.18 262.219 157.175 262.323L157.177 262.277C157.172 262.38 157.166 262.495 157.161 262.598L157.163 262.552C157.158 262.656 157.152 262.771 157.147 262.874L157.149 262.828C157.144 262.931 157.138 263.046 157.133 263.149L157.135 263.103C157.13 263.207 157.124 263.322 157.119 263.425L157.121 263.379C157.116 263.482 157.11 263.597 157.105 263.701L157.108 263.655C157.102 263.758 157.096 263.873 157.091 263.976L157.094 263.93C157.088 264.034 157.083 264.148 157.077 264.252L157.08 264.206C157.025 264.254 156.965 264.307 156.911 264.356L156.951 264.353L156.945 264.358Z" fill="black"/>
<path d="M157.32 251.392C157.313 250.498 157.301 249.599 157.317 248.707C157.315 248.632 157.503 248.564 157.604 248.496L157.593 248.484C157.582 248.593 157.582 248.702 157.571 248.811L157.573 248.765C157.568 248.868 157.562 248.983 157.557 249.086L157.56 249.04C157.554 249.144 157.548 249.259 157.543 249.362L157.546 249.316C157.54 249.419 157.535 249.534 157.529 249.637L157.532 249.592C157.526 249.695 157.521 249.81 157.515 249.913L157.518 249.867C157.512 249.97 157.507 250.074 157.501 250.189L157.504 250.143C157.499 250.246 157.493 250.349 157.487 250.464L157.484 250.424C157.416 250.747 157.353 251.077 157.291 251.396L157.314 251.397L157.32 251.392Z" fill="black"/>
<path d="M156.932 267.013C156.498 266.609 156.727 266.175 156.881 265.754L156.841 265.745C156.89 265.8 156.944 265.862 156.993 265.917L156.996 265.871C156.99 265.974 156.985 266.089 156.979 266.192L156.982 266.146C156.976 266.25 156.971 266.365 156.965 266.468L156.968 266.422C156.962 266.525 156.957 266.64 156.951 266.744L156.954 266.698C156.948 266.801 156.943 266.916 156.937 267.019L156.932 267.013Z" fill="black"/>
<path d="M156.881 265.753C156.904 265.294 156.928 264.823 156.951 264.364L156.911 264.367C156.96 264.422 157.014 264.483 157.063 264.539L157.059 264.498C157.054 264.601 157.048 264.716 157.043 264.82L157.045 264.774C157.04 264.877 157.034 264.992 157.029 265.095L157.031 265.049C157.026 265.153 157.02 265.267 157.015 265.371L157.018 265.325C157.012 265.428 157.006 265.543 157.001 265.646L157.004 265.6C156.949 265.649 156.889 265.702 156.835 265.75L156.875 265.759L156.881 265.753Z" fill="black"/>
<path d="M156.689 269.312C156.59 269.115 156.58 268.959 156.847 268.92L156.831 268.901C156.826 269.005 156.82 269.12 156.815 269.223L156.817 269.177C156.763 269.225 156.702 269.279 156.648 269.327L156.683 269.318L156.689 269.312Z" fill="black"/>
<path d="M157.66 247.394C157.524 247.459 157.383 247.519 157.248 247.584L157.235 247.595C157.29 247.438 157.344 247.28 157.398 247.122L157.369 247.115L157.652 247.434L157.66 247.394Z" fill="black"/>
<path d="M157.454 246.008C157.463 245.825 157.473 245.641 157.487 245.463L157.459 245.456C157.508 245.511 157.557 245.566 157.606 245.621L157.602 245.581C157.597 245.684 157.591 245.799 157.586 245.902L157.594 245.863C157.539 245.911 157.485 245.959 157.431 246.007L157.454 246.008Z" fill="black"/>
<path d="M156.647 270.139C156.656 269.967 156.671 269.789 156.679 269.617L156.646 269.603C156.695 269.658 156.744 269.714 156.798 269.775L156.8 269.729C156.801 269.839 156.789 269.947 156.79 270.057L156.792 270.011C156.738 270.059 156.677 270.112 156.623 270.161L156.647 270.151L156.647 270.139Z" fill="black"/>
<path d="M156.288 195.465C156.249 195.324 156.211 195.183 156.177 195.048L156.143 195.034C156.236 195.139 156.328 195.243 156.421 195.347L156.423 195.301C156.369 195.349 156.315 195.398 156.255 195.451L156.289 195.453L156.288 195.465Z" fill="black"/>
<path d="M156.767 267.653C156.816 267.61 156.869 267.573 156.923 267.537L156.912 267.524C156.858 267.572 156.797 267.626 156.743 267.674L156.761 267.658L156.767 267.653Z" fill="black"/>
<path d="M156.674 269.611C156.679 269.508 156.684 269.416 156.689 269.313L156.654 269.322C156.703 269.377 156.757 269.438 156.806 269.494L156.809 269.448C156.754 269.496 156.694 269.549 156.64 269.597L156.674 269.611Z" fill="black"/>
<path d="M156.875 268.369C156.831 268.32 156.788 268.271 156.75 268.228L156.71 268.219C156.759 268.274 156.813 268.336 156.862 268.391L156.88 268.375L156.875 268.369Z" fill="black"/>
<path d="M156.75 268.228C156.748 268.141 156.753 268.049 156.752 267.963L156.729 267.95C156.778 268.005 156.827 268.06 156.882 268.121L156.884 268.076C156.83 268.124 156.77 268.177 156.715 268.225L156.755 268.234L156.75 268.228Z" fill="black"/>
<path d="M156.751 267.963C156.757 267.86 156.762 267.756 156.767 267.664L156.748 267.68C156.797 267.736 156.852 267.797 156.901 267.852L156.903 267.806C156.849 267.854 156.789 267.908 156.735 267.956L156.757 267.969L156.751 267.963Z" fill="black"/>
<path d="M156.633 270.415C156.638 270.323 156.642 270.231 156.647 270.139L156.623 270.149L156.776 270.321L156.778 270.275C156.724 270.323 156.664 270.377 156.61 270.425L156.634 270.403L156.633 270.415Z" fill="black"/>
<path d="M156.596 270.7C156.606 270.603 156.622 270.512 156.633 270.415L156.604 270.43C156.653 270.485 156.707 270.547 156.756 270.602L156.758 270.556C156.704 270.604 156.644 270.657 156.59 270.706L156.596 270.7Z" fill="black"/>
<path d="M156.749 270.861C156.7 270.805 156.651 270.75 156.602 270.695L156.596 270.7C156.645 270.755 156.699 270.817 156.748 270.872L156.76 270.861L156.749 270.861Z" fill="black"/>
<path d="M157.046 259.531C157.05 259.44 157.055 259.348 157.06 259.256L157.037 259.254C157.032 259.346 157.028 259.438 157.023 259.53L157.046 259.531Z" fill="black"/>
<path d="M157.06 259.256C157.064 259.164 157.069 259.072 157.074 258.98L157.051 258.978C157.046 259.07 157.042 259.162 157.037 259.254L157.06 259.256Z" fill="black"/>
<path d="M157.074 258.98C157.078 258.888 157.083 258.796 157.088 258.704L157.053 258.702C157.049 258.794 157.044 258.886 157.039 258.978L157.062 258.979L157.074 258.98Z" fill="black"/>
<path d="M157.093 258.71C157.098 258.619 157.102 258.527 157.107 258.435L157.079 258.427C157.074 258.519 157.069 258.611 157.065 258.703L157.099 258.705L157.093 258.71Z" fill="black"/>
<path d="M157.102 258.429C157.106 258.337 157.111 258.245 157.116 258.153L157.087 258.145C157.083 258.237 157.078 258.329 157.073 258.421L157.102 258.429Z" fill="black"/>
<path d="M157.116 258.153C157.12 258.061 157.125 257.969 157.13 257.877L157.095 257.875C157.144 257.93 157.193 257.985 157.242 258.041L157.245 257.995C157.19 258.043 157.136 258.091 157.082 258.139L157.11 258.147L157.116 258.153Z" fill="black"/>
<path d="M157.135 257.884C157.14 257.792 157.144 257.7 157.149 257.608L157.115 257.606C157.164 257.661 157.213 257.716 157.262 257.771L157.264 257.725C157.21 257.774 157.155 257.822 157.095 257.875L157.13 257.878L157.135 257.884Z" fill="black"/>
<path d="M157.149 257.608C157.153 257.516 157.158 257.424 157.163 257.333L157.128 257.33C157.124 257.422 157.119 257.514 157.108 257.611L157.143 257.613L157.149 257.608Z" fill="black"/>
<path d="M157.169 257.327C157.174 257.235 157.178 257.143 157.183 257.051L157.148 257.049C157.197 257.104 157.246 257.16 157.295 257.215L157.298 257.169C157.244 257.217 157.189 257.265 157.135 257.313L157.17 257.316L157.169 257.327Z" fill="black"/>
<path d="M156.577 271.517C156.609 271.468 156.64 271.418 156.683 271.369L156.723 271.377C156.668 271.426 156.608 271.479 156.554 271.527L156.583 271.512L156.577 271.517Z" fill="black"/>
<path d="M157.3 251.673C157.304 251.581 157.309 251.489 157.314 251.397L157.291 251.395C157.286 251.487 157.282 251.579 157.277 251.671L157.3 251.673Z" fill="black"/>
<path d="M156.534 271.808C156.545 271.711 156.561 271.608 156.572 271.511L156.542 271.526C156.591 271.582 156.646 271.643 156.695 271.698L156.703 271.658C156.648 271.706 156.588 271.76 156.534 271.808Z" fill="black"/>
<path d="M140.361 265.456C140.334 265.546 140.3 265.642 140.267 265.726L140.302 265.717C140.253 265.661 140.198 265.6 140.149 265.545L140.16 265.569C140.23 265.539 140.301 265.509 140.371 265.479L140.361 265.456Z" fill="black"/>
<path d="M140.371 265.48L140.316 265.429L140.361 265.456L140.371 265.48Z" fill="black"/>
<path d="M140.02 265.703C140.069 265.66 140.123 265.612 140.171 265.569L140.161 265.546C140.107 265.594 140.052 265.642 139.998 265.69L140.014 265.708L140.02 265.703Z" fill="black"/>
<path d="M157.232 248.004C157.232 248.004 157.271 248.024 157.282 248.036C157.266 248.018 157.243 248.005 157.221 247.991L157.232 248.004Z" fill="black"/>
<path d="M157.248 247.584C157.241 247.722 157.239 247.866 157.232 248.004L157.221 247.992C157.222 247.859 157.223 247.727 157.23 247.589L157.242 247.578L157.248 247.584Z" fill="black"/>
<path d="M157.404 247.117C157.408 247.025 157.413 246.933 157.424 246.836L157.389 246.834C157.385 246.925 157.38 247.017 157.375 247.109L157.404 247.117Z" fill="black"/>
<path d="M157.418 246.841C157.422 246.749 157.427 246.658 157.432 246.566L157.397 246.563C157.393 246.655 157.388 246.747 157.383 246.839L157.418 246.841Z" fill="black"/>
<path d="M157.431 246.566C157.436 246.474 157.441 246.382 157.44 246.284L157.406 246.282C157.401 246.374 157.396 246.465 157.392 246.557L157.426 246.56L157.431 246.566Z" fill="black"/>
<path d="M157.445 246.29C157.45 246.198 157.455 246.106 157.459 246.015L157.436 246.013C157.432 246.105 157.427 246.197 157.422 246.289L157.457 246.291L157.445 246.29Z" fill="black"/>
<path d="M156.678 272.722C156.678 272.722 156.637 272.725 156.614 272.724C156.62 272.718 156.637 272.725 156.649 272.715L156.672 272.716L156.678 272.722Z" fill="black"/>
<path d="M157.487 245.463C157.492 245.372 157.503 245.274 157.507 245.182L157.467 245.185C157.516 245.241 157.57 245.302 157.619 245.357L157.622 245.311C157.567 245.359 157.513 245.408 157.453 245.461L157.481 245.469L157.487 245.463Z" fill="black"/>
<path d="M156.438 274.273C156.486 274.23 156.534 274.188 156.582 274.145L156.577 274.139C156.523 274.187 156.463 274.24 156.408 274.288L156.443 274.279L156.438 274.273Z" fill="black"/>
<path d="M156.394 274.564C156.411 274.461 156.427 274.37 156.444 274.268L156.409 274.277C156.458 274.332 156.512 274.393 156.561 274.449L156.564 274.403C156.509 274.451 156.449 274.504 156.395 274.552L156.394 274.564Z" fill="black"/>
<path d="M157.411 216.842C157.422 216.744 157.421 216.646 157.431 216.549L157.403 216.541C157.398 216.645 157.387 216.742 157.388 216.84L157.417 216.836L157.411 216.842Z" fill="black"/>
<path d="M156.172 195.042C156.183 194.945 156.182 194.847 156.192 194.75L156.158 194.747C156.153 194.839 156.143 194.936 156.143 195.034L156.177 195.048L156.172 195.042Z" fill="black"/>
<path d="M155.918 193.919C155.972 193.87 156.032 193.828 156.091 193.786L156.08 193.774C156.02 193.828 155.966 193.876 155.906 193.929L155.911 193.935L155.918 193.919Z" fill="black"/>
<defs>
<clipPath id="clip0_20_7872">
<rect width="155" height="122" fill="white" transform="translate(80 55)"/>
</clipPath>
</defs>
</svg>
