<svg width="132" height="132" viewBox="0 0 132 132" fill="none" xmlns="http://www.w3.org/2000/svg">
<path d="M69.0056 63.3623C73.0276 66.8454 78.7751 83.5067 73.8905 88.8171C69.0058 94.1274 66.7892 84.7269 62.5939 84.7269C58.3986 84.7269 55.2023 89.9249 55.6282 83.7947C55.9689 78.8905 58.9297 78.9647 59.4975 78.7325" stroke="black" stroke-width="2" stroke-linecap="round" stroke-linejoin="round"/>
<path d="M116.875 40.2156C118.877 40.2156 124.905 40.8762 123.189 50.6208C122.436 54.8984 121.715 57.2306 120.114 60.1526C118.759 62.6236 116.821 64.6674 114.365 63.5101" stroke="black" stroke-width="2" stroke-linecap="round" stroke-linejoin="round"/>
<path d="M14.6638 43.0227C11.2514 43.0226 5.82367 47.6844 7.61951 56.975C9.54673 66.9452 13.4213 67.7694 15.4524 67.1737" stroke="black" stroke-width="2" stroke-linecap="round" stroke-linejoin="round"/>
<path d="M23.3731 26.4718C19.6769 30.774 17.8167 32.5099 14.256 50.7792C10.6953 69.0486 48.9073 131 65.4184 131C77.9254 131 87.0513 120.093 95.7067 105.935C101.696 96.1375 118.977 52.1183 116.62 41.577C114.262 31.0357 114.106 25.2682 109.286 22.0801" stroke="black" stroke-width="2" stroke-linecap="round" stroke-linejoin="round"/>
<path d="M23.2157 27.108C33.0598 10.8595 85.8602 -2.18756 109.128 21.9736" stroke="black" stroke-width="2" stroke-linecap="round" stroke-linejoin="round"/>
<path d="M20.9422 25.3606C14.2155 22.3894 6.56881 22.753 1 22.5845" stroke="#FFC700" stroke-width="2" stroke-linecap="round" stroke-linejoin="round"/>
<path d="M22.0377 28.7658C18.2927 28.0168 14.7859 27.5797 8.13845 29.1263" stroke="#FFC700" stroke-width="2" stroke-linecap="round" stroke-linejoin="round"/>
<path d="M25.0375 25.8469C20.0918 22.5435 13.1688 15.3827 10.9364 13.3843" stroke="#FFC700" stroke-width="2" stroke-linecap="round" stroke-linejoin="round"/>
<path d="M20.6721 17.87C18.8592 14.3113 15.8376 10.7526 13.4204 6.60083" stroke="#FFC700" stroke-width="2" stroke-linecap="round" stroke-linejoin="round"/>
<path d="M22.8447 9.48364C23.4508 11.4602 23.7596 17.5007 26.199 23.99" stroke="#FFC700" stroke-width="2" stroke-linecap="round" stroke-linejoin="round"/>
<path d="M25.9922 6.91089C28.4092 11.6559 29.0128 18.1801 28.4087 21.1458" stroke="#FFC700" stroke-width="2" stroke-linecap="round" stroke-linejoin="round"/>
<path d="M10.7978 18.6595C7.71692 18.6305 5.00367 17.3255 2.29041 16.0205" stroke="#FFC700" stroke-width="2" stroke-linecap="round" stroke-linejoin="round"/>
<path d="M106.96 19.3131C107.114 16.2023 108.148 5.29609 113.24 1.58215" stroke="#FFC700" stroke-width="2" stroke-linecap="round" stroke-linejoin="round"/>
<path d="M110.283 23.235C111.104 21.0035 113.402 14.7552 116.028 7.61426" stroke="#FFC700" stroke-width="2" stroke-linecap="round" stroke-linejoin="round"/>
<path d="M125.075 12.7109C122.581 13.0883 114.655 16.5863 110.283 23.2347" stroke="#FFC700" stroke-width="2" stroke-linecap="round" stroke-linejoin="round"/>
<path d="M125.976 5.11464C124.288 5.89249 120.359 8.44449 118.146 12.4298" stroke="#FFC700" stroke-width="2" stroke-linecap="round" stroke-linejoin="round"/>
<path d="M129.828 16.0721C125.965 16.9863 117.198 19.8039 113.027 23.761" stroke="#FFC700" stroke-width="2" stroke-linecap="round" stroke-linejoin="round"/>
<path d="M131 22.3836C126.153 22.5822 115.856 23.2211 113.446 24.1875" stroke="#FFC700" stroke-width="2" stroke-linecap="round" stroke-linejoin="round"/>
<path d="M124.008 30.677C124.008 30.677 118.505 27.6489 112.103 27.1224" stroke="#FFC700" stroke-width="2" stroke-linecap="round" stroke-linejoin="round"/>
<path d="M38.1461 41.569C39.6543 40.4694 43.6273 39.2969 48.2297 39.9196C52.2505 40.4636 53.9885 41.8909 55.152 43.6672" stroke="black" stroke-width="2" stroke-linecap="round" stroke-linejoin="round"/>
<path d="M80.5712 43.2017C82.505 40.7424 85.8809 40.2581 87.9971 40.1422C90.1133 40.0262 92.5081 40.1418 94.4091 40.7424" stroke="black" stroke-width="2" stroke-linecap="round" stroke-linejoin="round"/>
<path d="M58.4828 54.5415C63.0841 51.645 74.2527 51.6392 76.7876 52.9291" stroke="black" stroke-width="2" stroke-linecap="round" stroke-linejoin="round"/>
<path d="M102.018 50.8923C104.295 49.7306 113.274 41.6948 115.55 40.0864" stroke="black" stroke-width="2" stroke-linecap="round" stroke-linejoin="round"/>
<path d="M31.5584 51.6964C31.2543 54.9479 31.184 63.217 35.4363 66.2943C39.696 69.3771 56.5049 65.9949 58.0375 65.4624C59.4847 64.9595 59.5279 58.612 57.2378 52.8379C55.3143 47.9881 38.8897 49.5903 32.0925 50.7826" stroke="black" stroke-width="2" stroke-linecap="round" stroke-linejoin="round"/>
<path d="M78.3983 50.1462C83.7571 47.7976 98.0312 49.3556 100.745 50.1463C104.137 51.1346 104.455 59.2296 104.147 62.1943C103.839 65.159 85.8377 65.2124 81.6752 65.0477C78.3451 64.916 77.2771 54.8212 78.0481 50.5389" stroke="black" stroke-width="2" stroke-linecap="round" stroke-linejoin="round"/>
<path d="M45.2365 53.9639C44.8772 54.1809 44.2249 54.8103 44.4901 55.5915C44.8216 56.5679 47.5578 57.7884 47.6408 56.3237C47.7237 54.859 47.2262 54.2894 46.563 54.9404" stroke="black" stroke-width="2" stroke-linecap="round" stroke-linejoin="round"/>
<path d="M88.3562 53.0017C87.8032 53.4899 86.8633 54.5802 87.5268 55.0359C88.3562 55.6055 91.2577 57.07 91.009 55.0359C90.81 53.4085 90.0417 53.5441 89.6825 53.8153L88.9363 54.4663" stroke="black" stroke-width="2" stroke-linecap="round" stroke-linejoin="round"/>
<path d="M75.1275 109.422C67.8919 110.676 56.7405 110.214 55.0412 111.468C52.0305 114.763 69.5606 112.666 73.355 112.227C81.3068 111.307 83.9133 107.9 75.1275 109.422Z" stroke="black" stroke-width="2" stroke-linecap="round" stroke-linejoin="round"/>
<path d="M63.531 94.7437C62.9975 98.257 62.7498 99.832 62.7498 99.832" stroke="black" stroke-width="2" stroke-linecap="round" stroke-linejoin="round"/>
<path d="M65.6106 94.5815C66.1553 97.0927 65.772 98.5065 66.8009 100.211" stroke="black" stroke-width="2" stroke-linecap="round" stroke-linejoin="round"/>
<path d="M69.437 99.832C69.437 99.832 68.4948 97.3075 68.4948 94.481" stroke="black" stroke-width="2" stroke-linecap="round" stroke-linejoin="round"/>
<path d="M71.5168 94.1045C72.0735 97.6232 73.231 99.3272 73.231 99.3272" stroke="black" stroke-width="2" stroke-linecap="round" stroke-linejoin="round"/>
</svg>
