<svg width="18" height="18" viewBox="0 0 18 18" fill="none" xmlns="http://www.w3.org/2000/svg">
<path d="M1.10368 10.418V3.47391C1.0859 2.81471 1.40462 1.46935 2.8218 1.36149C5.0735 1.12178 10.7934 0.759219 15.6597 1.22665C16.2679 1.31654 17.1323 1.5525 16.9829 3.11435V16.6092H15.9051L1.72264 16.9912C1.45229 17.0474 0.930808 16.8609 1.00764 15.6653L1.10368 10.418Z" fill="#70C836"/>
<path d="M15.6597 1.22665C10.7934 0.759219 5.0735 1.12178 2.8218 1.36149C1.40462 1.46935 1.0859 2.81471 1.10368 3.47391V10.418L1.00764 15.6653C0.930808 16.8609 1.45229 17.0474 1.72264 16.9912L15.9051 16.6092M15.6597 1.22665C16.2679 1.31654 17.1323 1.5525 16.9829 3.11435V16.6092H15.9051M15.6597 1.22665L15.9051 16.6092" stroke="#552204" stroke-linecap="round"/>
<path d="M11.6667 15.2143H13.6836C14.1496 15.1918 14.9919 14.9042 14.6334 13.9333" stroke="#552102" stroke-width="0.5" stroke-linecap="round"/>
<path d="M7.01569 9.38423C7.12952 9.02842 7.6389 8.23363 8.76582 7.90104C9.89273 7.56844 10.2029 7.08828 10.2171 6.88977" stroke="#CDDE86" stroke-width="0.5" stroke-linecap="round"/>
<path d="M9.06488 3.12368C9.18227 3.08248 9.42534 3.0745 9.57711 3.12368C9.71584 3.16862 10.0146 3.16488 10.1534 3.12368" stroke="#DCEAAE" stroke-width="0.5" stroke-linecap="round"/>
<path d="M8.61646 9.53033C8.80854 9.30935 9.32718 8.83593 9.86503 8.71008" stroke="#D1DB89" stroke-width="0.5" stroke-linecap="round"/>
<path d="M3.43005 15.0816V6.67787C3.43005 5.91972 2.7938 5.14051 2.5123 5.84446C2.42693 6.05795 2.34155 12.6986 2.34155 13.3391C2.34155 13.796 2.47734 14.6622 2.56728 15.1631C2.58638 15.2695 2.64542 15.364 2.73163 15.4292C3.01864 15.6461 3.43005 15.4414 3.43005 15.0816Z" fill="#FFF4AA" stroke="#512200" stroke-width="0.5"/>
<path d="M6.48235 3.1388C6.1124 3.14629 5.24445 3.00002 4.75356 3.00002C2.97516 3.00003 2.84188 2.34432 3 4" stroke="#DCECAB" stroke-width="0.5" stroke-linecap="round"/>
<path d="M16.8976 3.12557V16.5193H15.9692L15.7451 1.32776C16.889 1.42664 17.0043 2.51881 16.8976 3.12557Z" fill="#447921"/>
</svg>
