<svg width="38" height="27" viewBox="0 0 38 27" fill="none" xmlns="http://www.w3.org/2000/svg">
<g clip-path="url(#clip0_74_10935)">
<path d="M0.02846 25.0593C-0.067283 25.6738 0.440146 26.3747 1.13625 26.5903C1.50069 26.7032 1.87846 26.7681 2.25989 26.7835C2.57832 26.7951 2.89676 26.8091 3.21519 26.8234C3.96054 26.8561 4.72377 26.8899 5.48674 26.8899C5.79329 26.8899 6.0998 26.8844 6.40464 26.8711C7.88877 26.8078 9.39563 26.7133 10.8528 26.622C12.5982 26.5129 14.4029 26.4003 16.1783 26.3391C20.8003 26.1803 25.4399 25.5485 29.9269 24.9376L30.509 24.8583C31.5609 24.7155 32.6486 24.5674 33.7092 24.3584C33.7561 24.3493 33.8046 24.3411 33.8538 24.3329C34.2799 24.2607 34.9235 24.1521 35.0893 23.1799C35.0983 23.1271 35.0874 23.0731 35.0588 23.028C35.0301 22.9829 34.9857 22.9497 34.9339 22.9352C34.8225 22.9036 34.7193 22.8687 34.6214 22.8356C34.421 22.7574 34.2107 22.7063 33.9965 22.6842L33.3203 22.6445C31.7604 22.553 30.1474 22.4585 28.5578 22.4163C24.0532 22.2939 19.5452 22.4104 15.053 22.765C12.159 22.997 9.21244 23.1868 6.36265 23.3706C4.91908 23.4636 3.47542 23.5585 2.03185 23.6553C1.72357 23.6688 1.4183 23.7211 1.12329 23.811C0.839575 23.8929 0.58557 24.054 0.391468 24.2755C0.197368 24.4968 0.0713081 24.7689 0.02846 25.0593Z" fill="black"/>
<path d="M0.800981 14.0247C0.793945 14.2546 0.852652 14.4818 0.970255 14.68C1.08786 14.8782 1.25951 15.0392 1.46543 15.1443C1.81519 15.3151 2.19533 15.4157 2.58421 15.4407C3.09986 15.4721 3.64097 15.4991 4.19037 15.4991C4.45913 15.4991 4.72968 15.4926 5.00014 15.477C6.61354 15.385 8.25113 15.2762 9.83567 15.1711C12.802 14.9745 15.8692 14.7704 18.8878 14.6676C22.9968 14.5271 27.1279 14.0257 31.123 13.5408C32.1705 13.4142 33.2171 13.2893 34.2632 13.1659C34.3464 13.1564 34.4309 13.1487 34.5167 13.1409C35.129 13.085 35.8913 13.0154 36.6693 12.1874C36.6933 12.1618 36.7109 12.1306 36.7201 12.0968C36.7294 12.063 36.7305 12.0275 36.7228 11.9933C36.7154 11.959 36.6995 11.9271 36.6768 11.9002C36.6543 11.8733 36.6254 11.8523 36.5927 11.8389C35.1714 11.258 33.9422 11.1785 32.704 11.1428L31.6232 11.1118C28.2002 11.0129 24.6613 10.9106 21.1662 11.0441C15.2913 11.269 9.53806 11.8371 3.16531 12.5015C2.56625 12.5665 1.98235 12.7309 1.43806 12.9879C1.24424 13.0834 1.08154 13.2314 0.968803 13.4149C0.856068 13.5983 0.797903 13.8097 0.800981 14.0247Z" fill="black"/>
<path d="M2.01021 3.02758C2.42453 3.22839 2.87267 3.35108 3.33205 3.38936C3.58397 3.40792 3.83603 3.42706 4.08823 3.44674C5.25222 3.53617 6.45276 3.62852 7.64201 3.62852C7.73393 3.62852 7.82603 3.62856 7.91795 3.62688C10.1661 3.59882 12.451 3.5467 14.6608 3.49629C17.5925 3.42963 20.6242 3.36063 23.6052 3.34692C27.8722 3.3273 32.1588 2.84257 36.3046 2.37387L36.4375 2.35893C36.6988 2.30917 36.9485 2.21153 37.1739 2.07101C37.3249 1.99169 37.496 1.90224 37.7061 1.80563C37.7437 1.78848 37.7756 1.76108 37.7981 1.72664C37.8206 1.69219 37.8327 1.65213 37.8331 1.61107C37.8337 1.57002 37.8225 1.52968 37.8008 1.49474C37.779 1.4598 37.7478 1.43167 37.7106 1.41368C37.4941 1.30821 37.3119 1.20697 37.1512 1.11669C36.899 0.948059 36.6158 0.830831 36.3176 0.771804L35.503 0.674368C33.9206 0.484524 32.2843 0.287283 30.6651 0.220204C21.9415 -0.141765 13.0834 0.198077 4.51727 0.526929L2.97992 0.585791C2.74742 0.594888 2.51645 0.627457 2.29059 0.68302C2.03223 0.731367 1.79618 0.860377 1.61672 1.05129C1.43726 1.24219 1.32373 1.48504 1.29279 1.74445C1.25299 2.00702 1.30183 2.27529 1.43159 2.50741C1.56135 2.73953 1.76483 2.92243 2.01021 3.02758Z" fill="black"/>
</g>
<defs>
<clipPath id="clip0_74_10935">
<rect width="38" height="27" fill="white"/>
</clipPath>
</defs>
</svg>
