<svg width="166" height="166" viewBox="0 0 166 166" fill="none" xmlns="http://www.w3.org/2000/svg">
<g clip-path="url(#clip0_33_10196)">
<path d="M54.9122 56.6959C57.8486 59.412 61.4433 60.6231 66.5707 60.6231C66.5953 60.6256 66.62 60.6256 66.6445 60.6231C66.8022 60.6086 66.9958 60.5948 67.2148 60.5796C67.7962 60.5388 68.5924 60.4813 69.3743 60.3652C71.6246 60.065 73.7915 59.3134 75.7463 58.1549C77.7018 56.9963 79.4045 55.4545 80.7539 53.6214C82.0406 51.8047 82.9505 49.7467 83.4285 47.5696C83.9065 45.3926 83.943 43.1411 83.5366 40.9495C82.6791 35.9412 80.2993 32.7407 76.4737 31.4397C73.8645 30.5592 71.1004 30.2352 68.3596 30.4887C65.6185 30.7422 62.9601 31.5674 60.5548 32.9116C58.2426 34.1764 56.2235 35.9186 54.6302 38.0236C53.037 40.1286 51.9058 42.5486 51.3112 45.1243C50.2642 49.6229 51.4758 53.5177 54.9122 56.6959ZM69.0616 39.1435C69.1993 39.1435 69.3412 39.1435 69.4783 39.1435C71.7933 39.1435 73.6221 39.4285 74.5065 41.7573C74.9542 43.0242 75.0155 44.3966 74.6808 45.6984C74.3467 47.0003 73.6324 48.1721 72.6302 49.0634C70.1223 51.35 64.7613 51.9607 61.8092 50.2973C59.9198 49.2335 59.3439 47.9097 59.8213 45.7289C60.7959 41.2759 63.7316 39.185 69.0616 39.1435Z" fill="#1E1E1E"/>
<path d="M35.2224 164.007C36.9244 163.937 38.6884 163.868 40.4001 163.868C50.8615 163.921 60.4221 164.025 69.6275 164.188C84.3678 164.448 99.4173 164.767 114.352 165.135C115.572 165.202 116.784 165.372 117.975 165.644C118.56 165.759 119.146 165.874 119.729 165.968C119.766 165.974 119.804 165.977 119.841 165.977H126.888C126.923 165.977 126.957 165.974 126.992 165.97C128.405 165.762 129.822 165.572 131.24 165.385C134.304 164.98 137.474 164.562 140.555 163.908C154.704 160.907 166.053 146.364 165.852 131.489C165.719 121.542 165.745 111.424 165.77 101.639C165.788 94.6165 165.806 87.356 165.766 80.2139C165.728 73.6846 165.498 67.0514 165.274 60.6397L165.132 56.5207C165.081 54.9769 165.035 53.4322 164.994 51.8866C164.856 46.8036 164.712 41.5474 164.212 36.4007C163.685 31.3303 162.74 26.3124 161.388 21.3986C157.628 7.4269 144.306 0.862344 132.777 0.558703C129.482 0.472244 126.146 0.705903 122.918 0.931386C120.49 1.10154 117.98 1.27722 115.522 1.31319C108.83 1.4114 102.022 1.45153 95.4415 1.49303C86.7799 1.54559 77.8235 1.60102 69.0152 1.78431L67.6895 1.81269C55.0618 2.07552 42.0029 2.34658 29.2057 3.34327C15.4085 4.41743 6.26195 11.0492 2.01896 23.0558C1.30698 24.8818 0.889786 26.8102 0.783222 28.7683L0.714356 34.5478C0.504273 51.4321 0.286616 68.8919 0.337587 86.0661C0.359628 93.7782 0.618597 101.613 0.869322 109.191C1.00708 113.438 1.15518 117.83 1.25643 122.147C1.36802 126.85 1.40731 130.805 1.23717 134.811C0.61726 149.347 13.2484 163.298 27.7324 164.081C30.2334 164.214 32.7703 164.109 35.2224 164.007ZM9.28919 41.1077C9.20371 34.9675 10.6516 28.9038 13.5005 23.4702C16.1014 18.6423 19.9318 15.6314 24.5791 14.764C31.9348 13.3911 39.1368 12.142 46.3898 11.9456C64.8227 11.4448 83.5708 11.1515 101.7 10.8679C110.841 10.7244 119.981 10.5729 129.122 10.4134C134.012 10.3221 138.857 11.765 144.394 14.9495C150.436 18.423 152.363 24.6875 153.451 30.3578C155.734 42.2655 156.743 52.2483 156.627 61.7725C156.581 65.5279 156.546 69.2925 156.523 73.0676C156.264 72.8276 156.012 72.5786 155.741 72.3524C152.165 69.3706 148.488 66.3943 144.93 63.5162C140.643 60.0468 136.21 56.4612 131.931 52.8417C126.348 48.1217 123.09 48.2422 117.983 53.3591C105.838 65.5248 93.4144 77.921 81.3997 89.909L67.8163 103.466L67.5759 103.267C67.133 102.901 66.7734 102.605 66.4111 102.313C64.5128 100.776 62.6174 99.2368 60.7251 97.6944C56.1101 93.9359 51.3313 90.0501 46.5662 86.3096C43.1084 83.5955 40.6343 83.6328 37.4403 86.4396C28.0768 94.6704 18.6127 103.062 9.41517 111.223C9.3215 89.5645 9.25269 65.5802 9.28919 41.1077ZM10.363 119.919C12.1539 118.408 13.941 116.892 15.7246 115.372C19.0956 112.506 22.5809 109.543 26.0462 106.679C29.7568 103.611 33.5927 100.528 37.3026 97.5491C38.8303 96.3207 40.3645 95.0854 41.9051 93.8439C43.9646 95.5122 46.008 97.1666 48.0354 98.8052C53.3267 103.083 58.3254 107.123 63.3894 111.29C67.403 114.594 69.8403 114.471 73.4228 110.796C74.6233 109.563 75.8046 108.311 76.9852 107.061C78.5309 105.421 80.1289 103.726 81.7441 102.111C93.9462 89.9145 106.377 77.5385 118.398 65.5698L123.64 60.3511C124.146 59.8462 124.691 59.3606 125.129 58.9678L125.169 58.9318C127.409 60.6914 129.632 62.4437 131.839 64.1885C138.439 69.4011 144.673 74.3251 151.142 79.2297C152.78 80.3695 154.58 81.2576 156.479 81.8649C156.438 94.8613 156.485 107.855 156.534 120.563C156.549 124.428 156.563 128.292 156.575 132.156C156.605 141.52 149.095 151.772 140.175 154.542C133.5 156.569 126.53 157.436 119.564 157.106C110.081 156.715 100.438 156.256 91.1166 155.814C87.2359 155.629 83.3545 155.444 79.4725 155.26H79.4401L68.9594 155.256C63.3147 155.253 57.6705 155.251 52.027 155.25C45.9022 155.25 39.7775 155.254 33.6527 155.264H33.5796C26.631 155.264 21.4203 153.511 17.1863 149.751C11.9935 145.137 9.55369 138.817 9.50754 129.86C9.4917 126.859 9.47655 123.787 9.46139 120.661C9.76515 120.419 10.0689 120.167 10.363 119.919Z" fill="#1E1E1E"/>
</g>
<defs>
<clipPath id="clip0_33_10196">
<rect width="166" height="166" fill="white"/>
</clipPath>
</defs>
</svg>
