<svg width="44" height="43" viewBox="0 0 44 43" fill="none" xmlns="http://www.w3.org/2000/svg">
<path d="M31.344 22.4187C32.5439 22.3558 33.6738 22.1519 34.7718 22.2641C39.7329 22.7709 43.4379 26.5638 43.942 31.5349C44.3955 36.009 42.1704 39.6902 37.986 41.3173C34.8687 42.5297 31.7241 42.7214 28.5817 41.3925C26.3986 40.4693 24.7025 39.0191 23.7323 36.8049C23.6839 36.6951 23.6155 36.5926 23.543 36.4624C22.6238 36.5118 21.7228 36.5625 20.8217 36.6087C15.8587 36.8618 10.8964 37.1302 5.93216 37.3549C4.5917 37.4154 3.24574 37.3505 1.90144 37.3232C1.58972 37.3148 1.28064 37.2634 0.98295 37.1704C0.102832 36.8991 -0.189553 36.2902 0.11911 35.4299C1.44442 31.6745 3.48353 28.2116 6.12385 25.2323C9.34535 21.6096 13.2761 19.325 18.1487 18.8247C21.4823 18.4826 24.6837 19.043 27.7614 20.3433C28.4301 20.6037 29.0819 20.9052 29.7135 21.2463C30.2775 21.6076 30.8217 21.999 31.344 22.4187ZM28.8719 23.7222C26.2744 22.5545 23.7628 21.5917 20.9812 21.4633C17.1113 21.2845 13.6094 22.2592 10.5504 24.6454C7.26294 27.2098 4.85466 30.5037 2.90747 34.1577C2.82317 34.3453 2.75157 34.5381 2.69313 34.7352C4.45921 34.8953 22.0514 33.6939 23.1625 33.3403C23.1901 33.21 23.2314 33.0614 23.2519 32.9103C23.5245 31.0492 24.1387 29.2546 25.0633 27.6171C25.3736 27.0761 25.7601 26.5826 26.2109 26.1519C27.0291 25.3461 27.9054 24.5982 28.8723 23.7222H28.8719ZM33.2104 39.0347C34.7152 39.0252 36.2005 38.6922 37.5658 38.0582C38.602 37.5969 39.4701 36.8254 40.0501 35.8496C41.3937 33.5783 41.1349 29.9049 39.435 27.8857C38.0805 26.2769 36.3879 25.1656 34.2523 24.9896C31.7749 24.7855 29.6696 25.663 28.2387 27.7168C26.8054 29.7741 26.4598 32.1559 26.7232 34.6186C26.8458 35.6262 27.348 36.5489 28.1271 37.1984C29.5764 38.4887 31.299 39.0239 33.2108 39.0347H33.2104Z" fill="#FFF6DF"/>
<path d="M18.7385 16.6475C16.6141 16.5603 14.5332 16.1189 12.704 14.8195C10.6379 13.3518 9.00666 10.6208 10.2874 7.21072C10.6101 6.33183 11.0474 5.49951 11.5878 4.73524C12.3267 3.72517 13.1422 2.77358 14.0271 1.88902C16.0191 -0.123595 19.4183 -0.622535 21.8189 0.85198C24.9675 2.78537 26.7972 5.68898 27.1568 9.35359C27.3705 11.5287 26.403 13.3821 24.6767 14.7652C22.9644 16.1369 20.9494 16.5987 18.7385 16.6475ZM18.4536 13.8743C19.7827 13.8408 21.0748 13.6814 22.2327 12.9676C23.808 11.9968 24.4439 10.3993 23.971 8.61522C23.602 7.22066 22.8432 6.04928 21.8675 5.01461C20.8955 3.98379 19.7582 3.2874 18.2785 3.24258C16.6494 3.19318 15.4164 4.06868 14.2815 5.0223C13.45 5.72104 12.9462 6.73448 12.607 7.79733C11.8548 10.1541 12.6777 12.0709 14.9146 13.1399C16.0367 13.6773 17.2373 13.8233 18.4536 13.8741V13.8743Z" fill="#FFF6DF"/>
<path d="M34.9945 33.1475C34.9945 34.0356 35.0086 34.7545 34.9879 35.4724C34.9834 35.784 34.9335 36.093 34.8401 36.3904C34.7813 36.5885 34.6588 36.7618 34.4918 36.8834C34.3247 37.0051 34.1223 37.0684 33.9158 37.0635C33.7091 37.0754 33.5046 37.0165 33.3357 36.8966C33.1668 36.7766 33.0439 36.6028 32.9868 36.4035C32.8916 36.0433 32.8434 35.6722 32.8434 35.2997C32.822 34.6196 32.8374 33.9383 32.8374 33.155C32.0062 33.155 31.2317 33.176 30.4592 33.1473C29.9607 33.136 29.4645 33.075 28.9781 32.966C28.7643 32.9179 28.5727 32.7993 28.4344 32.6291C28.2962 32.459 28.2189 32.2473 28.2155 32.0279C28.212 31.8085 28.2822 31.5945 28.415 31.4199C28.5479 31.2454 28.7354 31.1208 28.9475 31.0659C29.3375 30.9592 29.7396 30.9021 30.1438 30.8961C31.0104 30.8718 31.8783 30.8886 32.7796 30.8886C32.7796 30.0056 32.7758 29.2317 32.7816 28.4581C32.7679 28.1782 32.7851 27.8977 32.8328 27.6216C32.9242 27.2326 33.1531 26.9364 33.6056 26.9318C33.7966 26.9179 33.9861 26.973 34.14 27.0868C34.294 27.2008 34.402 27.3662 34.4448 27.553C34.5625 28.0702 34.646 28.5948 34.6948 29.1232C34.7597 29.6744 34.7929 30.2294 34.841 30.8044C35.3867 30.8044 35.8494 30.8176 36.3109 30.8008C36.8419 30.7816 37.3719 30.7102 37.9024 30.7069C38.7498 30.7018 39.2844 31.1111 39.3311 31.7526C39.3748 32.3532 38.937 32.8449 38.1508 32.9744C37.5327 33.0624 36.9105 33.1188 36.2867 33.1431C35.8882 33.1671 35.4872 33.1475 34.9945 33.1475Z" fill="#FFF6DF"/>
</svg>
