<svg width="99" height="99" viewBox="0 0 99 99" fill="none" xmlns="http://www.w3.org/2000/svg">
<circle cx="49.5" cy="49.5" r="47.5" fill="#1E1E1E" stroke="#FFF6DF" stroke-width="4"/>
<path d="M45.2773 19.7734C47.7409 20.1094 48.9727 21.2292 48.9727 23.1328L48.8047 23.6367L46.957 23.3008C46.3971 23.4128 46.0052 23.6927 45.7812 24.1406V24.8125H47.4609L49.9805 24.4766C58.4909 35.0026 63.138 41.7214 63.9219 44.6328C66.1615 47.5443 67.2812 49.3359 67.2812 50.0078C67.2812 50.6797 67.9531 51.4635 69.2969 52.3594L70.6406 54.7109C70.3047 56.8385 67.0573 60.5339 60.8984 65.7969C55.0755 72.1797 51.4362 76.7148 49.9805 79.4023H49.3086V79.2344L49.4766 77.0508L49.3086 76.8828H48.9727C48.3008 77.4427 45.9492 78.7305 41.918 80.7461L41.582 80.4102V80.2422L42.0859 77.7227C42.0859 77.3867 41.0221 76.8828 38.8945 76.2109L38.0547 75.2031V72.6836L37.3828 71.1719C38.0547 68.0365 42.3659 62.2135 50.3164 53.7031C50.8763 53.7031 51.1562 53.5352 51.1562 53.1992V53.0312C51.1562 51.7995 46.8451 44.5208 38.2227 31.1953C36.319 28.3958 35.3672 26.7161 35.3672 26.1562L36.207 25.8203L38.3906 26.6602H38.7266L40.2383 24.8125C41.582 23.9167 42.2539 23.1328 42.2539 22.4609H41.582L38.0547 24.1406V23.9727L37.8867 23.6367C39.2305 21.0612 41.694 19.7734 45.2773 19.7734ZM40.4062 30.3555C40.4062 31.1393 41.582 32.819 43.9336 35.3945C43.9336 35.9544 45.5573 38.362 48.8047 42.6172L55.6914 53.1992C55.6914 54.0951 56.4193 54.599 57.875 54.7109H58.2109L58.8828 54.0391L51.1562 41.9453C49.1406 40.8255 48.1328 39.4818 48.1328 37.9141C46.2292 35.4505 44.8294 33.2109 43.9336 31.1953C42.8138 29.7396 41.974 29.0117 41.4141 29.0117C41.0781 29.0117 40.7422 29.4596 40.4062 30.3555ZM56.3633 37.9141V38.082C56.9232 39.9857 59.4987 44.5768 64.0898 51.8555L63.9219 52.3594H63.7539C62.8581 52.3594 61.0104 50.8477 58.2109 47.8242V48.1602C59.5547 52.1914 61.2344 54.207 63.25 54.207L66.9453 54.375V54.0391C65.4896 52.4714 62.9701 48.2721 59.3867 41.4414C58.043 39.0898 57.0352 37.9141 56.3633 37.9141ZM39.7344 72.1797V72.8516L39.9023 73.1875H40.4062C41.1901 73.1875 43.4857 71.5078 47.293 68.1484C52.332 64.3411 55.6914 60.4779 57.3711 56.5586H56.8672C55.9714 56.5586 50.4844 61.5977 40.4062 71.6758C39.9583 71.6758 39.7344 71.8438 39.7344 72.1797ZM59.5547 59.2461V59.582H59.8906C63.138 59.582 64.7617 58.9102 64.7617 57.5664V57.3984L64.0898 56.5586H63.25C62.2422 56.5586 61.0104 57.4544 59.5547 59.2461ZM44.2695 74.3633V74.8672L44.7734 75.2031C47.013 75.2031 49.6445 73.0195 52.668 68.6523C53.1159 68.6523 53.6198 68.0365 54.1797 66.8047C56.6432 66.8047 58.4349 65.4049 59.5547 62.6055V61.5977H58.8828C49.1406 69.6602 44.2695 73.9154 44.2695 74.3633Z" fill="#FFF6DF"/>
</svg>
