<svg width="43" height="42" viewBox="0 0 43 42" fill="none" xmlns="http://www.w3.org/2000/svg">
<path d="M36.0298 7.54217C36.1293 7.45328 36.2087 7.34416 36.2626 7.2221C36.3165 7.10003 36.3438 6.96785 36.3424 6.83442C36.3411 6.70099 36.3113 6.56937 36.255 6.4484C36.1987 6.32742 36.1172 6.21989 36.0159 6.13298C35.9092 6.04149 35.8034 5.95049 35.6984 5.85996C34.8969 5.17091 34.0684 4.45744 33.2017 3.84885C26.5804 -0.811232 19.7007 -0.837449 12.7547 1.63398C6.46574 3.87001 2.42709 8.3435 0.749209 14.9277C-1.12249 22.284 0.516518 28.7736 5.6241 34.2188C5.75699 34.3595 5.8926 34.5001 6.02802 34.6347C8.77174 37.3784 12.1892 39.0723 14.8969 40.251C16.0591 40.7587 22.0224 41.3751 23.636 41.1346C33.2246 39.7028 39.5347 34.2945 41.7324 25.2467C42.1521 23.4744 42.361 21.6588 42.3549 19.8375C42.3455 17.9248 42.0238 16.0264 41.4026 14.2173C41.3574 14.082 41.2828 13.9584 41.1842 13.8552C41.0856 13.7521 40.9655 13.672 40.8323 13.6208C40.6992 13.5695 40.5563 13.5483 40.414 13.5587C40.2717 13.5691 40.1335 13.6108 40.0092 13.6809L39.9831 13.6957C39.7856 13.8088 39.6342 13.9878 39.5553 14.2013C39.4764 14.4147 39.4751 14.6492 39.5516 14.8635C40.1122 16.4185 40.3981 18.0592 40.3965 19.7122C40.377 21.6953 40.1085 23.6681 39.5973 25.5842C38.0823 31.0907 34.4604 35.1038 28.5244 37.8488C22.4898 40.7381 13.8357 37.8172 11.5332 36.297C8.98818 34.557 6.7613 32.3925 4.94987 29.8979C2.10905 25.8757 1.47171 20.0944 2.99826 14.8091C3.71262 12.3688 4.9611 10.1181 6.65317 8.2201C8.34524 6.32213 10.4385 4.82451 12.7811 3.83583C18.8755 1.3031 24.9906 0.856334 30.9548 4.64946C31.7545 5.1586 33.7934 6.75964 34.824 7.57724C34.9969 7.7144 35.2128 7.78601 35.4333 7.77939C35.6539 7.77277 35.8651 7.68836 36.0295 7.54109L36.0298 7.54217Z" fill="#FFF6DF"/>
<path d="M18.8078 26.3782C19.2162 25.99 19.4406 25.7937 19.646 25.579C26.2311 18.6992 33.4429 12.5054 40.6974 6.35942C40.9715 6.12726 41.2521 5.83111 41.5766 5.74794C41.9679 5.64796 42.6059 5.76296 42.7808 5.97541C42.8957 6.1324 42.9683 6.31628 42.9917 6.50941C43.015 6.70255 42.9884 6.89845 42.9142 7.07832C42.7437 7.52545 42.3284 7.9084 41.9516 8.24307C39.7029 10.2412 37.3915 12.1703 35.1826 14.2097C30.5651 18.4741 25.977 22.7703 21.4182 27.0982C19.4207 28.9905 18.6519 29.0672 16.8138 27.0452C15.6039 25.7136 11.9523 21.2256 10.8341 19.8115C10.6761 19.5917 10.5353 19.36 10.4131 19.1185C10.1609 18.6712 9.99603 18.1783 10.4974 17.8315C11.0559 17.4453 11.4522 17.8484 11.7833 18.268C12.1183 18.6929 12.404 19.1596 12.7627 19.5622C13.8763 20.8118 17.6045 25.0603 18.8078 26.3782Z" fill="#FFF6DF"/>
</svg>
