<svg width="134" height="154" viewBox="0 0 134 154" fill="none" xmlns="http://www.w3.org/2000/svg">
<path d="M130.753 32.3105C128.598 30.7681 125.554 30.6795 122.402 32.0696C120.137 33.1115 118.001 34.4122 116.036 35.9459C110.859 39.8596 106.466 45.1071 102.208 52.4607C101.834 53.1065 101.447 53.7438 101.059 54.3811L101.047 54.4021C100.905 52.3048 100.883 50.2011 100.981 48.1012C101.001 47.4265 101.021 46.7557 101.032 46.0843L101.084 43.0508C101.176 37.8657 101.271 32.5002 101.13 27.2278C101.002 22.4831 100.106 18.6015 98.3873 15.3605C97.009 12.7628 95.04 11.0943 92.6916 10.5424C90.3433 9.99039 87.8407 10.5988 85.4503 12.3059C84.6108 12.9382 83.818 13.6305 83.0783 14.3774C82.8394 14.6071 82.5945 14.842 82.3399 15.0809C82.3025 14.825 82.2683 14.5768 82.2342 14.3346C82.1325 13.4703 81.9796 12.6129 81.7748 11.767C81.6514 11.3017 81.5352 10.8318 81.4177 10.3606C81.0502 8.62626 80.5041 6.93461 79.7887 5.31263C78.3907 2.42868 76.2576 0.583755 73.7825 0.118409C71.2379 -0.36203 68.4807 0.629665 66.0214 2.90913C62.5146 6.15931 61.0411 10.4937 60.1498 13.9073C57.5382 23.9073 56.7217 34.0314 55.9925 45.2804C55.7398 49.1823 55.6388 53.05 55.5331 57.1462C55.4885 58.8442 55.4432 60.5698 55.3861 62.3314L54.8013 62.0124C54.2257 61.698 53.7833 61.4558 53.3311 61.2333C49.2028 59.1954 44.2277 57.1509 38.6698 57.4594L37.9931 57.4954C35.3959 57.5646 32.8088 57.8447 30.2569 58.3329C20.2661 60.5402 13.2538 66.5169 9.41484 76.0968C8.2413 79.0254 8.27734 81.7682 9.51979 84.0293C10.7885 86.3376 13.2689 87.9424 16.5033 88.5469C19.5955 89.15 22.8013 88.5652 25.482 86.9106C26.1383 86.5168 26.7901 86.1112 27.4412 85.7069C28.2196 85.2225 28.9974 84.7388 29.7863 84.2735C33.8366 81.8857 38.1985 81.593 42.7496 83.4038C44.3133 84.0372 45.7233 84.9987 46.8849 86.2221C48.0465 87.4462 48.9327 88.9039 49.4843 90.4988C50.0427 92.0353 50.2658 93.6742 50.1387 95.3039C50.0116 96.9342 49.5371 98.5186 48.7472 99.9501C47.7108 101.767 46.411 103.421 44.8899 104.857C42.9277 106.796 40.3331 107.964 37.5806 108.148C34.8281 108.331 32.1014 107.518 29.8991 105.856C28.0551 104.39 26.3308 102.778 24.7423 101.038C23.9974 100.263 23.2262 99.4624 22.4451 98.7017C21.8026 98.0776 21.1678 97.4107 20.5535 96.7655C19.2023 95.2514 17.7076 93.8724 16.0904 92.647C12.8008 90.3229 8.91412 89.8386 5.69343 91.3521C2.47278 92.8656 0.377023 96.1433 0.0698567 100.135C-0.105223 102.734 0.0491151 105.345 0.529261 107.906C1.53543 113.558 4.08858 118.69 6.83996 123.887C12.7096 134.973 20.7013 142.814 30.593 147.192C40.058 151.381 49.5139 153.48 58.87 153.479C65.2816 153.472 71.6547 152.492 77.7724 150.572C89.0962 147.05 97.0832 139.587 101.51 128.391C104.566 120.663 106.498 112.076 107.417 102.138C108.06 95.187 108.721 88.9512 109.437 83.075C109.563 81.4571 110.058 79.8898 110.881 78.4924C113.408 74.6975 116.045 70.8789 118.596 67.1923C120.938 63.8042 123.36 60.3006 125.692 56.822C127.95 53.4626 130.016 49.9785 131.881 46.3863C132.869 44.4515 133.48 42.3456 133.679 40.1819C133.984 36.7217 132.916 33.8581 130.753 32.3105ZM55.4182 104.33C58.5883 99.4946 58.9387 93.4412 56.3797 87.7219C53.5233 81.3396 47.6564 76.612 41.4323 75.6768C35.394 74.7703 30.1433 75.7785 25.3848 78.7615C25.0186 78.9913 24.6589 79.2367 24.2986 79.4835C23.4923 80.0808 22.6208 80.5842 21.7008 80.9846C20.4263 81.5168 19.0488 81.7564 17.6695 81.6868C16.5538 81.5694 15.7905 81.2195 15.4098 80.6465C15.0003 80.0302 14.9826 79.089 15.3567 77.8499C16.9503 72.5775 20.5154 68.6828 25.9545 66.2754C33.1486 63.0901 39.8688 63.0592 46.4933 66.1736L46.8411 66.3371C50.1976 67.9123 53.3684 69.4002 55.3046 72.7495C56.3029 74.477 57.9405 75.1924 59.6876 74.662C61.8535 74.0057 61.9579 72.0091 62.0334 70.5534C62.1975 67.3872 62.3426 64.2189 62.4883 61.0508C62.8197 53.8081 63.1636 46.3193 63.7353 38.9749C64.3082 31.6554 65.2397 23.0258 67.8046 14.5151C68.4452 12.5204 69.3254 10.6108 70.426 8.82801C70.8638 8.21007 71.4125 7.67877 72.0439 7.26127C72.269 7.08931 72.4928 6.91873 72.7042 6.74283C74.3818 7.93277 74.6351 9.51257 74.7703 11.2965C74.8517 12.3657 74.9403 13.4355 75.0289 14.506C75.4916 19.0021 75.6846 23.5218 75.6072 28.041C75.2619 37.1391 74.664 46.3823 74.0858 55.3216C73.8698 58.6602 73.6578 61.9988 73.4498 65.3373C73.4163 65.8894 73.3277 66.4532 73.2417 67.0026C73.1728 67.4443 73.1039 67.8854 73.0593 68.329C72.7711 71.2137 73.7576 73.2063 75.6964 73.6598C76.0909 73.7491 76.4998 73.7543 76.8962 73.6756C77.2926 73.5962 77.6681 73.434 77.9976 73.2004C78.5974 72.7357 79.0969 72.1542 79.4671 71.4919C79.8366 70.829 80.069 70.0985 80.1497 69.3444C80.6203 66.3955 80.9557 63.2102 81.1736 59.6063C81.5707 53.0311 81.9218 46.343 82.2618 39.8754C82.4042 37.1525 82.5479 34.4295 82.6943 31.7066C82.9332 27.2684 84.7145 23.1742 88.1419 19.185C89.177 17.9799 90.1109 17.4319 90.8565 17.6025C91.5667 17.7653 92.1436 18.6081 92.5236 20.0402C93.3552 22.9177 93.8087 25.8911 93.873 28.8857C93.8855 35.8252 93.6105 42.8847 93.3434 49.7119L93.2902 51.0837C93.1465 54.7953 92.9325 58.566 92.7264 62.2172C92.6004 64.4441 92.4744 66.6711 92.3628 68.8994C92.3182 69.8156 92.353 70.7345 92.4659 71.6449C92.4967 72.3406 92.7599 73.0068 93.2134 73.5351C93.667 74.0641 94.2846 74.4258 94.9678 74.5623C96.5082 74.8826 97.7048 74.2689 98.6249 72.6878C101.792 67.2454 105.117 61.5877 108.508 55.8716C112.334 49.4224 116.259 44.8649 120.859 41.5287C121.968 40.7566 123.118 40.0456 124.305 39.3989C124.787 39.1246 125.27 38.8502 125.749 38.5673L126.311 38.9513C126.166 39.3904 126.034 39.8366 125.903 40.2829C125.619 41.4101 125.205 42.5004 124.67 43.5319C122.523 47.254 120.186 50.7923 118.389 53.4596L117.849 54.2597C114.451 59.305 110.937 64.5222 107.305 69.5223C102.531 76.0942 100.873 83.4366 99.8444 92.435C98.7654 101.906 97.5426 112.64 94.0496 122.684C90.2428 133.624 82.6142 140.246 71.3699 142.369C59.8904 144.605 48.0146 143.6 37.0749 139.464C27.6236 135.908 20.1604 129.232 14.8979 119.62C12.0756 114.463 9.46669 109.351 8.57276 103.533C8.36608 102.239 8.34553 100.923 8.51172 99.6239C8.52084 99.3915 8.587 99.1658 8.70448 98.9649C8.82197 98.7647 8.98697 98.5967 9.18505 98.4753C9.31829 98.4123 9.46432 98.3801 9.61174 98.3821C9.92114 98.3946 10.2217 98.4884 10.4833 98.6538C11.5016 99.2819 12.4292 100.047 13.24 100.927L13.6745 101.378C15.4466 103.216 17.2758 105.115 18.8969 107.121C21.943 110.89 26.0707 113.618 31.517 115.464C37.533 117.499 43.4505 116.399 48.6323 112.275C51.5983 109.908 53.9257 106.607 55.4182 104.33Z" fill="#4C4C4C"/>
</svg>
