<svg width="805" height="1024" viewBox="0 0 805 1024" fill="none" xmlns="http://www.w3.org/2000/svg">
<rect x="-0.000244141" width="805" height="1024" fill="url(#paint0_linear_112_148)"/>
<path d="M262.425 9.25674C262.425 12.7408 265.07 15.4783 264.805 18.9624C258.459 28.668 252.378 38.6226 246.296 48.5771C242.066 55.2964 238.893 62.5134 234.662 69.2327C230.432 75.952 226.465 82.9202 222.235 89.8883C219.062 95.3633 214.302 100.092 211.923 106.064C211.394 107.558 210.072 109.051 209.807 110.793C209.543 112.535 208.75 113.779 207.428 115.023C203.99 118.01 200.553 117.512 197.909 114.028C191.298 104.571 184.424 95.1144 176.756 86.4042C173.583 82.9202 170.939 79.1872 169.088 74.9565C164.064 64.5043 159.304 54.0521 153.487 43.8487C148.728 35.3873 143.704 26.926 136.565 19.709C137.094 16.9715 135.772 14.234 135.243 11.7454C138.416 12.492 141.06 11.2476 142.911 9.00788C144.233 8.75902 145.555 8.759 146.613 8.51014C147.67 9.50559 148.464 9.25673 148.992 8.26128C160.362 5.77265 172.261 5.52379 183.895 4.52834C198.702 3.28402 213.774 3.78176 228.581 2.78631C238.1 2.03972 247.883 1.54199 257.402 1.54199C258.988 1.54199 260.31 1.54198 261.632 2.28857C262.161 3.53288 262.954 4.52835 264.276 5.02608C264.541 5.27494 264.805 5.52379 265.07 5.77265C265.334 7.26583 261.632 6.51925 262.425 9.25674Z" fill="#FA5457"/>
<path d="M535.034 16.4738C534.77 19.2113 535.563 21.9487 536.356 24.6862C533.977 24.4374 532.919 26.1794 531.597 27.1749C525.251 32.8987 518.905 38.6226 513.881 45.5907C510.973 49.5725 507.271 52.8077 504.363 56.5407C498.81 63.7577 494.579 71.7213 489.027 78.9383C485.854 83.169 481.623 86.902 477.657 90.8838C475.806 92.6258 473.955 94.3678 472.897 96.3587C468.667 105.567 459.148 105.318 453.331 97.1053C445.927 86.4042 437.466 76.6986 430.856 65.4997C426.625 58.2827 421.337 51.5634 416.049 44.8441C411.818 39.618 408.381 33.8942 404.943 28.1703C402.299 23.4419 398.862 19.2113 394.896 15.2294C393.045 12.9897 395.16 10.7499 394.896 8.51014C397.275 6.51924 400.184 5.77265 403.092 6.02151C411.554 7.01696 420.015 5.52379 428.476 5.77265C439.053 6.27038 449.894 6.02153 460.47 6.27039C470.782 6.51925 481.359 5.52379 491.935 6.02151C501.454 6.27037 510.708 6.27037 520.227 7.26583C524.722 7.76355 529.482 8.75902 533.184 11.2476C533.977 12.9897 532.919 14.9806 535.034 16.4738Z" fill="#FF8041"/>
<path d="M135.242 7.76361C130.483 5.27498 125.195 3.78179 119.642 3.53293C108.272 3.0352 96.9025 2.53749 85.5328 2.78635C70.9901 3.03521 56.4474 2.78635 42.1691 3.03521C30.5349 3.28407 18.9007 3.0352 7.26658 3.28407C4.88686 3.28407 1.97832 3.28406 0.656259 6.02156C-0.665805 8.75905 0.127434 10.9988 1.97832 13.2386C3.30039 14.7318 4.62245 16.2249 5.94451 17.967C12.026 27.1749 18.3719 36.3828 24.7178 45.3419C35.5588 60.5225 46.3996 75.952 56.9761 91.3815C61.7356 98.3497 71.2544 99.3451 74.4274 93.1236C77.0715 88.1463 81.0377 84.4134 85.2683 80.6804C90.821 75.4543 94.7872 68.9839 98.7534 63.0112C102.72 56.7896 106.95 50.8169 111.974 45.093C119.642 36.134 127.046 27.1749 136.564 19.9579C137.093 17.2204 135.771 14.4829 135.242 11.9943C138.415 12.7409 141.059 11.4965 142.91 9.25678C140.266 9.25678 137.622 8.5102 135.242 7.76361Z" fill="#FF8041"/>
<path d="M146.877 8.26131C147.934 9.25676 148.728 9.0079 149.256 8.01245C148.199 7.017 147.406 7.017 146.877 8.26131Z" fill="#FF8041"/>
<path d="M395.425 8.51014C393.309 6.7681 391.194 5.52379 388.285 5.27493C375.065 4.03062 361.58 2.53743 348.359 2.03971C339.105 1.54198 329.85 0.546541 320.86 1.29313C318.745 1.04427 316.63 1.04426 314.514 1.54199C313.721 1.54199 312.664 1.54199 311.87 1.54199C309.491 4.03062 306.318 4.03061 303.409 3.53288C306.318 4.03061 309.226 4.03062 311.87 1.54199C311.341 0.546537 310.548 0.0488151 309.491 0.0488151C297.856 -0.200048 286.487 0.546541 274.853 1.29313C271.415 1.54199 268.507 3.03516 266.127 5.52379C265.863 7.26583 262.161 6.51924 262.954 9.25673C262.954 12.7408 265.598 15.4783 265.334 18.9624C268.242 21.6999 268.771 25.4328 270.093 28.9169C273.002 36.3828 276.703 43.3509 280.405 50.3191C281.992 53.0566 281.198 56.2918 283.314 58.7805C286.751 62.5134 288.073 67.4906 291.246 71.4725C294.155 75.2054 294.948 80.1826 298.385 83.169C303.938 88.1463 305.26 95.6122 310.284 100.838C313.457 104.571 316.101 109.051 319.009 113.033C320.067 115.77 322.182 117.014 325.091 117.761C327.471 120.25 329.586 120.25 331.701 117.263C333.817 114.775 335.139 112.037 336.99 109.3C337.783 108.304 338.84 107.309 339.634 106.064C345.715 95.6122 351.797 84.911 357.878 74.4588C364.488 63.0111 371.363 51.8123 377.445 40.1157C380.618 34.143 384.848 28.668 387.228 22.1976C389.343 16.7226 389.608 16.9715 395.954 15.2294C393.574 12.9897 395.689 10.7499 395.425 8.51014Z" fill="#FACF71"/>
<path d="M264.805 4.52831C265.862 2.03968 264.805 1.04423 262.16 1.79082C262.425 3.284 263.482 4.03058 264.805 4.52831Z" fill="#FACF71"/>
<path d="M667.241 8.01244C666.977 7.76357 667.241 7.26585 666.977 6.76812C664.597 3.78177 661.16 4.52836 657.987 5.27495C655.871 4.2795 653.756 5.5238 651.641 5.77267C645.295 5.02608 638.949 5.77266 632.603 6.02153C630.752 5.5238 629.166 6.2704 627.579 6.76812C626.786 6.02153 625.728 6.02153 624.935 6.76812C622.291 6.51926 619.911 6.76811 617.267 7.26584C615.945 6.76811 614.623 6.76812 613.565 7.01698C611.45 6.51926 609.599 6.51926 607.484 7.01698C606.162 7.01698 604.575 7.01698 603.253 7.01698C594.792 7.01698 586.331 6.51926 577.87 8.2613C577.076 8.2613 576.283 8.2613 575.49 8.2613C567.293 8.51016 559.096 8.51016 551.164 10.9988C550.371 11.2476 549.578 11.2477 548.52 11.4965C547.462 10.5011 546.669 10.5011 546.14 11.7454C545.347 11.7454 544.554 11.9942 543.496 11.9942C542.438 15.4783 539.794 15.7272 537.15 15.7272C539.794 15.7272 542.438 15.2295 543.496 11.9942C540.059 11.4965 536.357 12.9897 533.184 10.7499C533.448 12.492 532.391 14.4829 534.506 15.976C534.242 18.7135 535.035 21.451 535.828 24.1885C536.886 27.1749 540.059 28.4192 541.645 30.9078C544.289 34.6408 546.14 38.8714 548.784 42.6044C555.923 52.8078 560.154 64.2555 565.971 74.9566C568.88 80.6804 571.524 86.4043 575.754 91.3815C583.951 100.838 591.619 110.544 598.23 120.996C600.08 123.983 603.782 124.48 606.955 122.241C608.806 120.996 609.335 119.254 610.128 117.263C611.979 112.784 613.83 107.806 616.738 104.074C620.176 100.092 622.82 95.6122 625.728 91.1327C629.959 84.4134 633.661 77.1963 637.627 70.477C641.064 64.7532 643.973 58.5316 648.204 52.8078C652.699 46.5862 655.871 39.618 659.838 33.1476C661.953 29.6635 664.861 26.6772 666.448 22.9442C666.448 22.4465 666.448 22.1976 666.448 21.6999C666.712 18.4647 664.333 15.4783 665.126 12.2431C665.126 11.4965 664.862 10.7499 664.862 9.75447C667.506 10.5011 669.885 10.7499 667.241 8.01244ZM658.78 6.2704C659.309 6.76813 659.838 7.51471 660.366 8.01244C659.838 7.26585 659.309 6.76813 658.78 6.2704Z" fill="#FA5457"/>
<path d="M801.827 11.7454C800.769 10.0033 798.918 9.00787 796.538 9.5056C795.745 9.5056 794.952 9.5056 794.159 9.5056C793.365 9.5056 792.308 9.5056 791.514 9.25674C790.457 8.75902 789.135 8.51016 787.813 8.75902C785.697 7.51471 783.582 8.01243 781.467 8.01243C779.88 7.5147 778.029 7.51471 776.443 7.51471C773.27 6.51926 769.833 5.5238 766.395 6.51925C765.602 6.51925 764.544 6.51925 763.751 6.51925C763.751 6.76812 763.751 7.01697 763.751 7.01697C763.751 6.76811 763.751 6.51925 763.751 6.51925C761.371 4.77721 758.727 5.5238 756.083 5.5238C753.175 5.02607 750.266 5.02608 747.358 5.27494C742.334 3.28404 737.31 4.27948 732.022 4.52834C731.228 4.03062 730.435 4.03062 729.642 4.27948C726.205 4.03062 722.767 3.78175 719.33 4.7772C718.537 4.52834 717.479 4.27948 716.686 4.52834C712.984 2.53744 706.902 2.53744 701.879 4.27948C701.085 4.27948 700.028 4.27948 699.234 4.27948C692.36 2.78631 685.485 4.27948 678.875 4.27948C675.173 4.27948 671.471 6.51926 667.505 6.27039C667.505 6.76812 667.505 7.26585 667.769 7.51471C670.413 10.2522 668.298 10.0033 666.183 10.0033C666.183 10.7499 666.447 11.4965 666.447 12.492C665.918 15.7272 668.034 18.7135 667.769 21.9487C667.769 22.4465 667.769 22.6953 667.769 23.1931C669.62 25.6817 671.736 27.9215 672 31.4055C672.264 33.1476 673.057 34.8896 675.173 35.3873C675.173 35.8851 675.437 36.1339 675.702 36.3828C675.966 38.3737 676.231 40.1157 676.759 42.1066C678.081 46.0884 679.403 50.3191 683.105 53.0566C682.841 54.5498 683.634 55.7941 684.692 56.7895C684.427 58.7805 683.634 60.7714 686.543 61.7668C686.543 63.26 687.336 64.2554 688.129 65.002C688.658 66.7441 689.187 68.735 689.715 70.477C690.244 72.219 691.302 72.9656 693.153 73.2145C693.946 73.9611 694.475 74.7077 695.268 75.7031C694.475 77.4452 695.533 78.4406 697.119 79.1872C697.648 79.9338 698.441 80.9292 698.97 81.6758C699.234 84.9111 700.028 88.1463 703.465 89.8883C706.638 92.3769 707.431 96.3588 709.546 99.594C709.018 104.322 713.777 105.567 716.157 108.055C716.421 108.802 716.686 109.548 716.686 110.295C716.157 111.788 717.214 112.535 718.537 112.784C719.33 114.028 719.859 115.023 720.652 116.268C719.859 118.756 721.974 119.254 723.825 120.001C724.089 120.25 724.089 120.747 724.354 120.996C725.411 123.485 727.791 124.729 730.171 126.222C732.286 127.467 734.401 127.218 735.988 125.476C739.161 121.992 742.334 118.508 743.656 113.779C744.185 113.033 744.449 112.286 744.978 111.788C748.944 106.562 752.646 101.336 754.761 95.1144C755.819 94.8656 756.612 94.119 757.141 93.1235C758.463 89.1417 761.371 85.9065 763.487 82.1736C770.89 69.7304 777.765 57.0384 784.904 44.5953C785.433 43.3509 785.962 42.3555 786.491 41.1112C788.606 39.618 789.399 37.3783 789.928 34.8896C790.721 33.8942 791.779 33.1476 791.779 31.9033C794.159 30.4101 794.423 27.6726 795.745 25.4328C797.332 22.9442 798.125 19.9578 802.355 20.4556C803.677 20.7044 804.735 19.709 805 18.2158C803.413 16.2249 802.884 13.9851 801.827 11.7454Z" fill="#FACF71"/>
<path d="M762.665 979.382C754.44 980.015 747.48 976.008 740.099 973.055C738.201 972.422 737.99 971.156 738.412 969.469C738.834 967.993 739.466 966.727 741.364 966.727C746.004 966.727 750.855 967.149 755.494 968.203C756.549 968.414 757.392 969.047 758.447 968.203C759.079 966.727 758.025 965.672 757.603 964.407C754.44 957.868 750.011 952.173 746.215 946.056C745.372 944.791 744.317 944.158 742.841 944.58C734.405 946.478 727.656 942.47 720.697 938.885C719.432 938.252 717.323 937.619 718.166 935.299C719.01 932.768 721.33 932.346 723.439 932.557C727.235 932.979 731.031 931.924 734.827 933.19C735.249 933.401 735.67 932.979 736.303 932.768C735.881 930.869 734.194 929.604 733.14 928.338C729.976 924.753 726.391 921.378 724.071 917.159C723.017 915.261 721.33 915.683 719.642 916.105C716.057 916.948 712.683 918.425 708.887 918.847C706.145 919.058 703.825 918.214 701.717 917.37C699.819 916.527 698.342 915.05 698.553 912.73C698.764 910.41 700.24 908.933 702.56 908.089C705.513 907.035 708.887 907.668 712.05 906.402C712.472 906.824 712.894 907.035 713.105 906.613C713.527 906.191 713.105 905.769 712.894 905.558C712.05 902.816 709.309 902.394 707.411 901.34C704.458 899.652 701.928 897.543 699.819 895.012C697.499 892.059 694.968 889.739 690.539 892.059C688.22 893.325 685.267 892.481 682.736 893.957C682.314 894.168 681.26 894.168 680.838 893.957C678.097 892.481 675.144 891.004 673.246 888.473C672.402 887.419 671.77 886.153 672.824 884.677C673.668 883.411 674.301 881.935 676.409 882.778C677.042 882.989 677.886 882.989 678.308 882.567C679.784 881.724 682.736 883.2 682.947 880.88C683.158 878.982 680.627 878.349 679.362 877.083C677.464 875.396 674.722 875.396 672.192 875.396C669.239 875.607 666.497 875.818 664.81 872.443C664.389 871.599 663.123 871.599 662.28 870.966C659.116 869.068 656.375 867.17 655.742 863.162C655.531 861.475 654.055 860.631 653.422 859.366C652.157 856.413 653.844 854.514 657.007 854.092C661.647 853.46 665.021 856.202 668.185 858.522C674.09 862.74 679.784 866.959 685.056 872.021C686.954 873.919 688.22 873.287 688.641 870.545C688.641 869.912 688.641 869.279 688.852 868.435C689.485 862.951 690.75 862.318 696.023 862.74C698.764 862.951 699.608 864.639 700.24 866.959C701.506 871.599 701.927 876.451 701.506 881.513C701.295 884.044 701.717 886.364 703.615 887.841C707.622 891.004 711.418 894.59 715.425 898.176C716.057 898.809 716.901 899.652 718.377 899.231C718.799 895.645 720.064 892.27 721.541 888.895C722.173 887.63 722.806 885.942 723.86 885.942C725.969 885.942 728.078 885.52 730.187 885.731C731.031 885.731 731.453 886.786 731.663 887.63C732.507 889.95 732.929 892.27 732.296 894.59C731.031 899.442 731.242 904.715 728.922 909.355C728.711 909.988 728.289 910.621 728.922 911.253C734.616 916.737 738.623 923.698 744.739 929.604C745.161 926.651 745.582 923.909 746.004 921.378C746.215 920.323 746.215 919.269 746.848 918.425C747.691 916.948 748.535 915.05 750.855 915.261C756.127 915.894 756.549 916.316 757.181 919.901C758.236 925.385 757.182 930.869 756.971 936.564C756.971 937.197 756.338 937.83 756.338 938.463C756.76 940.994 751.698 941.416 753.807 944.158C755.283 946.056 755.916 948.376 757.392 950.064C759.712 952.806 761.61 955.759 762.665 959.134C762.876 959.977 763.719 960.399 764.984 960.821C766.039 958.29 767.094 955.548 768.359 952.806C770.046 949.22 770.89 949.009 773.631 949.642C778.271 950.697 778.692 951.118 778.692 955.548C778.692 960.61 777.427 965.461 776.795 970.524C776.162 974.531 773.209 977.062 771.311 980.226C770.678 980.437 769.835 980.648 770.046 981.492C770.257 982.335 770.89 982.335 771.522 982.335C770.89 983.179 770.89 984.656 769.413 984.867C768.359 984.867 767.937 983.812 767.937 983.179C767.304 978.75 764.774 979.593 762.665 979.382Z" fill="#FACF71"/>
<path d="M30.0272 979.384C38.2518 980.017 45.211 976.009 52.5921 973.056C54.4901 972.423 54.7011 971.158 54.2793 969.47C53.8575 967.994 53.2248 966.728 51.3268 966.728C46.6873 966.728 41.8369 967.15 37.1974 968.205C36.143 968.416 35.2994 969.049 34.2449 968.205C33.6123 966.728 34.6667 965.674 35.0885 964.408C38.2518 957.869 42.6803 952.174 46.4763 946.057C47.3198 944.792 48.3745 944.159 49.8507 944.581C58.2862 946.479 65.0347 942.472 71.994 938.886C73.2593 938.253 75.3681 937.62 74.5245 935.3C73.681 932.769 71.3612 932.347 69.2523 932.558C65.4563 932.98 61.6603 931.925 57.8643 933.191C57.4425 933.402 57.0209 932.98 56.3882 932.769C56.81 930.87 58.4971 929.605 59.5515 928.339C62.7148 924.754 66.2998 921.379 68.6196 917.16C69.674 915.262 71.3613 915.684 73.0484 916.105C76.6335 916.949 80.0077 918.426 83.8037 918.848C86.5452 919.058 88.865 918.215 90.9739 917.371C92.8719 916.527 94.3481 915.051 94.1372 912.731C93.9264 910.41 92.4501 908.934 90.1303 908.09C87.1779 907.035 83.8037 907.668 80.6403 906.403C80.2186 906.825 79.7968 907.035 79.5859 906.614C79.1641 906.192 79.5858 905.77 79.7967 905.559C80.6403 902.817 83.3818 902.395 85.2798 901.34C88.2322 899.653 90.7628 897.544 92.8717 895.013C95.1915 892.059 97.7222 889.739 102.151 892.06C104.471 893.325 107.423 892.481 109.954 893.958C110.376 894.169 111.43 894.169 111.852 893.958C114.593 892.481 117.546 891.005 119.444 888.474C120.287 887.419 120.92 886.154 119.866 884.677C119.022 883.411 118.389 881.935 116.281 882.779C115.648 882.99 114.804 882.99 114.382 882.568C112.906 881.724 109.954 883.201 109.743 880.88C109.532 878.982 112.063 878.349 113.328 877.084C115.226 875.396 117.968 875.396 120.498 875.396C123.451 875.607 126.192 875.818 127.879 872.443C128.301 871.6 129.566 871.599 130.41 870.967C133.573 869.068 136.315 867.17 136.947 863.162C137.158 861.475 138.634 860.631 139.267 859.366C140.532 856.413 138.845 854.514 135.682 854.092C131.043 853.46 127.668 856.202 124.505 858.522C118.6 862.74 112.906 866.959 107.634 872.021C105.736 873.92 104.471 873.287 104.049 870.545C104.049 869.912 104.049 869.279 103.838 868.436C103.205 862.951 101.94 862.319 96.6678 862.74C93.9263 862.951 93.0827 864.639 92.45 866.959C91.1847 871.599 90.763 876.451 91.1848 881.513C91.3956 884.044 90.9739 886.364 89.0759 887.841C85.069 891.005 81.2731 894.591 77.2662 898.176C76.6335 898.809 75.7899 899.653 74.3137 899.231C73.8919 895.645 72.6266 892.271 71.1504 888.896C70.5177 887.63 69.8851 885.943 68.8307 885.943C66.7218 885.943 64.6129 885.521 62.504 885.732C61.6604 885.732 61.2385 886.786 61.0276 887.63C60.1841 889.95 59.7625 892.271 60.3951 894.591C61.6604 899.442 61.4495 904.715 63.7693 909.356C63.9802 909.989 64.4019 910.621 63.7693 911.254C58.0753 916.738 54.0684 923.699 47.9527 929.605C47.5309 926.652 47.1092 923.91 46.6874 921.379C46.4765 920.324 46.4764 919.269 45.8438 918.426C45.0002 916.949 44.1566 915.051 41.8368 915.262C36.5646 915.895 36.1429 916.316 35.5102 919.902C34.4558 925.386 35.5101 930.87 35.721 936.566C35.721 937.198 36.3538 937.831 36.3538 938.464C35.932 940.995 40.9932 941.417 38.8844 944.159C37.4081 946.057 36.7756 948.378 35.2994 950.065C32.9796 952.807 31.0816 955.76 30.0272 959.135C29.8163 959.979 28.9728 960.4 27.7074 960.822C26.653 958.291 25.5983 955.549 24.333 952.807C22.6459 949.221 21.8024 949.01 19.0608 949.643C14.4213 950.698 13.9997 951.12 13.9997 955.549C13.9997 960.611 15.2648 965.463 15.8975 970.525C16.5301 974.533 19.4828 977.064 21.3808 980.228C22.0135 980.439 22.8569 980.65 22.6461 981.493C22.4352 982.337 21.8024 982.337 21.1697 982.337C21.8024 983.181 21.8024 984.657 23.2786 984.868C24.333 984.868 24.7549 983.814 24.7549 983.181C25.3876 978.751 27.9183 979.595 30.0272 979.384Z" fill="#FACF71"/>
<path d="M30.0266 979.384C27.9177 979.384 25.3871 978.541 25.598 982.337C25.598 982.97 25.1761 984.025 24.1216 984.025C22.8563 983.814 22.6454 982.548 22.0128 981.493C19.2712 983.814 19.904 987.399 19.2714 990.352C18.6387 994.36 18.6386 998.368 18.4278 1002.38C18.2169 1003.85 18.8495 1004.91 19.4822 1006.17C20.1149 1007.02 20.7475 1007.86 21.8019 1007.44C22.8564 1007.23 22.8564 1006.38 22.8564 1005.33C23.2781 997.735 26.2305 990.774 27.285 983.392C27.4958 981.704 28.7613 980.439 30.0266 979.384Z" fill="#FACF71"/>
<path d="M22.2242 981.493C22.8569 981.493 23.7006 981.283 23.7006 980.65C23.9115 979.806 23.068 979.595 22.4353 979.384C22.2244 980.228 22.2242 980.861 22.2242 981.493Z" fill="#FACF71"/>
<path d="M647.379 677.183C646.114 683.932 649.699 692.158 650.543 700.595C650.754 702.283 651.808 703.127 653.495 703.548C660.244 705.447 666.992 707.556 673.741 709.243C675.85 709.876 677.326 710.931 679.013 712.196C681.755 714.095 681.122 717.259 677.959 718.313C674.163 719.579 670.156 720.633 666.36 721.477C664.251 721.899 662.142 722.321 660.244 723.586C659.4 724.219 658.346 724.43 657.291 724.43C651.808 725.274 651.597 725.274 650.754 730.547C649.488 738.562 648.434 746.788 647.59 755.014C647.379 757.756 645.903 759.866 644.849 761.975C643.372 764.717 636.413 763.241 635.569 760.288C633.039 750.163 627.766 741.093 625.868 730.758C625.447 728.86 624.392 728.227 622.705 727.383C618.909 725.485 614.691 724.852 611.106 722.743C608.997 721.477 607.099 720.422 604.779 719.79C601.405 718.946 600.561 717.048 601.194 713.251C601.616 710.298 602.67 709.243 606.044 709.454C609.419 709.665 612.793 709.243 615.956 708.4C618.487 707.767 620.385 706.501 621.44 703.759C625.658 693.846 629.453 683.721 632.617 673.597C633.882 669.589 636.202 666.003 637.467 661.996C638.1 659.676 643.583 658.199 645.692 659.465C646.325 659.887 646.325 660.519 646.536 661.152C648.223 665.793 647.379 670.644 647.379 677.183Z" fill="#FACF71"/>
<path d="M172.055 270.063C170.157 269.009 168.048 267.743 165.517 268.165C163.408 268.587 161.721 268.165 159.823 267.321C154.34 265.212 148.646 263.525 144.639 258.884C144.428 258.463 143.795 258.463 143.373 258.252C137.258 254.455 131.142 250.447 127.767 243.909C126.924 242.221 125.869 240.745 125.026 239.268C121.019 232.097 117.012 224.925 116.168 216.488C116.168 215.434 115.746 214.168 115.325 213.113C114.27 210.371 111.74 211.004 109.631 211.215C107.733 211.215 106.046 212.27 106.046 214.801C106.467 221.34 105.413 227.878 104.358 234.417C103.093 242.432 101.827 250.236 99.5076 258.041C98.2423 262.47 95.9225 266.689 95.2898 271.54C93.1809 273.438 92.5482 276.391 91.0719 278.922C90.861 279.344 90.8611 279.555 90.6502 279.977C89.8067 280.399 89.8067 281.243 89.5958 281.875C88.5413 282.93 87.4869 283.985 86.2216 285.039C82.8473 287.359 80.1057 290.734 75.6769 291.367C71.67 292 71.4589 292.633 71.0371 296.429C70.8262 299.171 71.4589 300.226 74.2005 300.437C78.4184 300.648 82.6363 301.281 86.6432 300.015C88.1195 299.593 89.5957 299.804 91.0719 299.804C99.7185 300.437 106.678 304.233 112.794 310.139C118.277 315.623 121.652 322.373 125.026 329.123C127.978 334.607 130.087 340.513 131.353 346.63C131.985 349.583 133.672 350.215 136.414 349.161C141.475 347.051 141.897 346.419 140.632 341.146C139.366 335.451 138.734 329.545 139.788 323.639C142.952 303.601 152.653 287.992 169.735 276.813C170.368 276.391 171.211 275.969 171.844 275.548C173.953 273.438 174.164 271.118 172.055 270.063ZM102.249 271.118C101.828 271.118 101.406 271.118 100.984 271.118C101.406 270.907 101.828 271.118 102.249 271.118ZM131.142 318.576C122.073 302.968 109.842 294.109 92.5483 292C93.8137 288.203 96.3442 285.883 98.4532 283.352C99.0859 282.508 100.14 281.664 100.14 280.399C99.9295 279.766 99.7187 279.133 99.7187 278.711C99.7187 279.344 99.7186 279.766 100.14 280.399C101.406 278.501 103.304 276.813 103.304 274.282C103.515 274.071 103.725 273.86 103.725 273.438C103.936 272.806 104.147 271.962 104.358 271.329C109.42 261.837 111.318 251.502 113.005 240.956C113.216 240.112 113.216 239.479 113.427 238.003C117.645 243.909 120.808 249.815 125.237 254.666C126.291 255.931 127.346 257.197 128.822 258.041C134.094 261.626 139.156 265.423 144.639 268.376C148.646 270.696 153.496 271.54 157.503 274.704C143.373 285.883 134.938 300.226 131.142 318.576Z" fill="#FF8041"/>
<path d="M77.0258 577.182C76.8149 572.331 77.8694 567.268 80.8219 562.417C81.8764 560.519 83.5635 559.464 85.0398 558.198C87.7814 555.878 90.523 553.347 94.1081 551.871C100.857 548.918 106.762 549.55 113.299 553.136C117.728 555.667 121.524 558.831 125.109 562.417C127.64 564.948 127.851 564.948 130.171 562.417C134.599 557.355 140.294 555.035 146.831 553.769C154.423 552.293 160.539 555.246 166.023 560.097C171.717 565.159 174.247 571.698 174.458 579.291C174.458 583.931 174.669 588.572 173.193 593.212C171.084 599.962 166.444 604.813 162.648 610.086C159.274 614.938 154.845 619.156 152.104 624.429C151.893 624.851 151.682 625.273 151.26 625.695C146.199 630.124 142.403 635.608 138.817 641.303C137.13 643.835 135.021 645.944 133.545 648.475C132.069 651.006 128.905 652.272 126.164 653.537C124.477 654.17 122.789 653.959 122.368 651.639C122.157 650.373 121.946 649.108 120.47 648.897C116.885 648.475 114.986 645.522 112.878 643.413C105.707 636.874 99.1695 629.492 93.8972 621.265C90.7338 616.203 87.3596 611.141 84.618 605.657C79.7674 597.009 77.0258 587.728 77.0258 577.182ZM164.968 584.986C164.757 583.088 164.968 581.189 164.546 579.502C164.124 576.971 163.492 574.651 162.859 572.12C161.594 566.846 151.049 559.886 145.777 561.151C141.137 562.206 138.396 565.37 135.021 568.323C132.28 570.854 131.858 573.385 133.123 576.971C135.021 582.244 136.076 587.517 136.709 593.212C137.552 601.227 134.178 606.079 126.375 609.032C119.204 611.774 111.19 607.555 111.19 598.485C111.19 594.9 111.19 591.103 113.299 587.728C115.197 584.564 116.674 581.189 118.572 578.236C121.313 574.018 121.313 572.963 117.939 569.589C114.143 565.581 110.558 561.573 105.285 559.464C101.7 557.987 98.5369 557.988 95.5844 559.675C90.7339 562.628 87.1487 566.636 86.7269 572.963C86.0942 582.033 87.9922 590.681 91.1556 599.118C93.8972 606.29 98.1151 612.828 102.544 619.156C108.66 627.593 115.408 635.397 123.211 642.358C125.531 644.467 126.797 644.467 128.273 641.725C131.436 635.186 137.341 630.546 141.137 624.64C144.511 619.367 149.784 615.359 152.736 609.664C153.791 607.766 155.267 606.079 156.532 604.391C161.172 598.064 165.39 592.579 164.968 584.986ZM124.688 582.666C121.946 588.361 119.837 592.79 120.47 598.064C120.681 599.751 121.313 600.806 123.211 601.227C124.688 601.649 125.953 600.806 126.797 599.751C127.429 598.907 127.429 597.853 127.429 596.798C127.218 592.579 126.797 588.15 124.688 582.666Z" fill="#FF8041"/>
<path d="M164.968 584.986C165.179 592.579 160.961 598.064 156.743 603.337C155.267 605.024 154.002 606.712 152.947 608.61C149.995 614.305 144.722 618.101 141.348 623.586C137.552 629.702 131.647 634.132 128.484 640.671C127.007 643.623 125.953 643.624 123.422 641.303C115.619 634.343 108.871 626.539 102.755 618.102C98.115 611.985 94.1081 605.446 91.3665 598.064C87.9922 589.626 86.305 580.978 86.9377 571.909C87.3595 565.792 90.9447 561.573 95.7952 558.62C98.7477 556.933 101.911 556.933 105.496 558.409C110.979 560.519 114.354 564.737 118.15 568.534C121.524 571.909 121.313 572.963 118.783 577.182C116.885 580.346 115.408 583.721 113.51 586.673C111.612 590.048 111.401 593.845 111.401 597.431C111.401 606.5 119.415 610.719 126.586 607.977C134.389 605.024 137.763 600.173 136.919 592.158C136.287 586.673 135.232 581.189 133.334 575.916C132.069 572.541 132.491 569.799 135.232 567.268C138.606 564.315 141.348 561.151 145.988 560.097C151.26 559.042 161.805 566.003 163.07 571.065C163.703 573.596 164.335 575.916 164.757 578.447C164.968 581.4 164.968 583.299 164.968 584.986Z" fill="#FACF71"/>
<path d="M124.688 582.666C126.796 588.15 127.218 592.369 127.429 597.009C127.429 598.064 127.429 599.118 126.796 599.962C125.953 601.016 124.898 601.649 123.211 601.438C121.524 601.017 120.681 599.962 120.47 598.274C119.837 592.79 121.946 588.361 124.688 582.666Z" fill="#FFC0C0"/>
<path d="M657.396 270.1C653.6 270.1 652.756 268.835 654.654 265.46C655.287 264.405 655.92 263.351 656.974 262.718C661.825 259.343 666.675 255.757 671.737 252.593C673.846 251.117 678.063 252.593 679.118 254.913C680.383 257.234 678.907 258.71 677.22 259.976C672.369 263.14 667.308 266.093 662.246 269.256C660.77 270.1 659.083 270.1 657.396 270.1Z" fill="#FACF71"/>
<path d="M640.946 270.311C642.633 270.522 644.953 269.678 645.797 271.998C646.43 273.897 644.532 274.951 643.266 276.006C639.259 279.803 634.62 282.756 629.769 285.498C627.027 287.185 623.864 286.131 620.912 286.131C619.857 286.131 619.646 285.287 619.435 284.443C619.224 282.967 619.435 281.701 620.701 280.857C622.81 279.592 624.919 278.115 627.027 276.639C629.558 274.951 632.3 273.686 634.831 271.998C636.729 270.733 638.627 270.1 640.946 270.311Z" fill="#FACF71"/>
<path d="M600.033 258.71C597.924 258.71 596.659 257.234 597.081 255.335C597.291 254.492 597.713 253.859 598.346 253.226C602.775 249.007 607.625 245.211 613.53 243.102C614.585 242.68 615.85 242.258 616.905 241.836C618.17 241.203 619.435 240.781 620.49 242.258C621.544 243.945 621.755 245.844 620.068 247.32C618.592 248.586 617.115 249.429 615.428 250.484C613.53 251.75 611.21 252.593 609.523 254.492C607.203 257.866 602.986 257.234 600.033 258.71Z" fill="#FACF71"/>
<path d="M658.45 232.977C658.45 234.243 657.607 234.876 656.552 235.508C650.858 239.516 644.321 241.203 637.572 242.258C636.096 242.469 635.252 242.047 634.83 240.781C634.198 239.305 634.62 238.039 635.885 237.196C637.994 235.719 639.892 234.243 642.212 233.188C644.532 232.134 646.851 231.079 648.96 229.813C651.913 228.126 654.654 229.391 657.607 230.657C658.24 231.29 658.661 231.923 658.45 232.977Z" fill="#FACF71"/>
<path d="M660.77 250.906C659.716 250.906 658.661 251.117 658.029 249.851C657.396 248.586 658.24 247.742 659.083 246.687C660.349 245.211 662.247 244.578 663.723 243.734C666.886 241.836 670.471 240.36 673.846 238.461C675.111 237.828 676.798 238.25 678.274 238.039C679.751 238.039 681.016 238.672 681.227 240.149C681.649 241.625 681.016 243.313 679.962 243.734C673.635 246.476 667.941 250.484 660.77 250.906Z" fill="#FACF71"/>
<path d="M643.477 247.32C643.899 247.32 644.11 247.32 644.321 247.32C645.797 247.531 647.906 247.109 648.327 249.429C648.749 251.539 647.484 253.015 645.586 253.648C640.524 255.546 636.096 258.499 630.402 258.71C628.504 258.71 627.66 258.288 626.816 256.812C625.973 255.124 626.816 253.226 628.082 253.015C633.143 251.96 637.361 248.586 642.212 247.32C642.844 247.109 643.266 247.32 643.477 247.32Z" fill="#FACF71"/>
<path d="M602.985 276.85C601.509 276.85 600.455 276.639 600.244 275.162C600.033 273.897 599.822 272.209 601.298 271.577C606.149 269.257 610.578 265.671 616.061 264.827C617.115 264.616 618.17 264.827 618.592 265.882C619.224 267.358 619.646 269.046 618.17 270.1C613.53 273.475 608.469 275.584 602.985 276.85Z" fill="#FACF71"/>
<path d="M440.577 726.788C446.04 726.461 451.24 726.105 456.115 725.732C459.133 725.732 462.733 725.532 466.64 725.06M440.577 726.788C431.809 727.314 422.365 727.767 412.509 728.104M440.577 726.788L447.656 1006.61C447.856 1014.5 441.514 1021 433.622 1021V1021C426.008 1021 419.782 1014.93 419.589 1007.32L412.509 728.104M412.509 728.104C391.949 728.807 369.597 729.004 347.851 728.301M261.641 717.564C244.114 712.304 232.826 704.833 232.069 694.444C229.262 655.904 312.431 649.58 354.367 651.235L479.672 659.678C493.038 660.837 518.467 669.413 513.254 694.444C510.973 705.394 502.982 712.752 493.3 717.564M261.641 717.564C269.923 720.05 279.597 722.042 290.211 723.615M261.641 717.564L237.527 1005.17C236.813 1013.69 243.537 1021 252.09 1021V1021C259.692 1021 266.025 1015.17 266.654 1007.59L290.211 723.615M290.211 723.615C299.322 724.966 309.127 726.008 319.337 726.788M319.337 726.788C328.58 727.495 338.155 727.988 347.851 728.301M319.337 726.788L307.097 1006.1C306.742 1014.22 313.229 1021 321.357 1021V1021C328.997 1021 335.282 1014.98 335.617 1007.35L337.075 974.097L347.851 728.301M493.3 717.564C484.81 721.784 475.019 724.047 466.64 725.06M493.3 717.564L521.513 1005.81C522.31 1013.95 515.916 1021 507.74 1021V1021C500.611 1021 494.649 1015.58 493.965 1008.49L466.64 725.06" stroke="black" stroke-width="5"/>
<path d="M400.715 379.05C397.102 379.05 362.954 373.595 342.214 372.716C341.466 372.684 340.805 372.244 340.486 371.566L321.291 330.771C320.88 329.897 319.588 330.06 319.404 331.01L310.104 379.05C298.78 412.303 306.202 442.847 311.653 454.813C311.898 455.352 311.99 455.939 311.908 456.526L309.993 470.202C309.964 470.411 309.913 470.616 309.84 470.814L291.329 521.566C280.303 547.092 262.349 609.629 278.746 655.574C299.243 713.006 453.708 704.497 480.555 659.828C501.975 624.187 461.104 519.287 437.814 470.9C437.687 470.637 437.605 470.37 437.559 470.082L435.855 459.41C435.691 458.381 436.083 457.346 436.832 456.619C455.074 438.916 447.915 397.782 441.902 379.05L429.683 330.201C429.472 329.357 428.372 329.166 427.912 329.904C417.701 346.299 404.193 379.05 400.715 379.05Z" fill="#FFF6DF" stroke="black" stroke-width="5" stroke-linecap="round"/>
<path d="M311.521 462.007C337.59 471.934 398.796 486.682 435.075 466.262" stroke="black" stroke-width="5" stroke-linecap="round"/>
<path d="M356.602 596.015L356.451 685.355" stroke="black" stroke-width="5" stroke-linecap="round"/>
<path d="M377.182 604.524L377.031 693.863" stroke="black" stroke-width="5" stroke-linecap="round"/>
<path d="M401.91 593.888L401.741 693.863" stroke="black" stroke-width="5" stroke-linecap="round"/>
<path d="M375.338 476.897C372.586 480.442 368.245 490.511 374.829 493.914C380.856 497.029 383.904 493.253 384.907 490.416C385.079 489.927 385.059 489.398 384.918 488.9L381.516 476.897" stroke="#FA5457" stroke-width="5" stroke-linecap="round"/>
<ellipse cx="4.11868" cy="4.25421" rx="4.11868" ry="4.25421" transform="matrix(1 0 -0.00169132 0.999999 354.854 410.957)" fill="black"/>
<ellipse cx="4.11868" cy="4.25421" rx="4.11868" ry="4.25421" transform="matrix(1 0 -0.00169132 0.999999 383.688 410.957)" fill="black"/>
<ellipse cx="4.11868" cy="4.25421" rx="4.11868" ry="4.25421" transform="matrix(1 0 -0.00169132 0.999999 371.309 423.72)" fill="black"/>
<path d="M375.416 430.101C373.337 442.154 365.888 462.858 352.731 449.245" stroke="black" stroke-width="5" stroke-linecap="round"/>
<path d="M375.42 427.974C377.644 441.003 385.694 463.382 400.097 448.667" stroke="black" stroke-width="5" stroke-linecap="round"/>
<path d="M426.908 425.847L470.147 430.101" stroke="black" stroke-width="5" stroke-linecap="round"/>
<path d="M431 440.737L457.761 447.118" stroke="black" stroke-width="5" stroke-linecap="round"/>
<path d="M323.946 421.592L282.781 408.83" stroke="black" stroke-width="5" stroke-linecap="round"/>
<path d="M313.63 434.355H282.74" stroke="black" stroke-width="5" stroke-linecap="round"/>
<path d="M507.133 477.791C524.787 519.401 498.573 562.191 481.331 579.969C480.618 580.704 480.316 581.731 480.529 582.731L483.594 597.09C483.96 598.803 485.721 599.841 487.369 599.243C524.038 585.941 527.837 542.236 535.891 520.333C548.292 493.915 519.979 440.737 515.485 409.724C507.343 353.526 522.343 356.129 544.395 362.927C567.749 370.127 561.077 350.235 557.39 342.053C557.018 341.228 556.239 340.633 555.356 340.435C492.956 326.426 491.73 362.702 488.775 373.563C486.703 381.178 484.57 424.613 507.133 477.791Z" fill="#FFF6DF" stroke="black" stroke-width="5" stroke-linecap="round"/>
<defs>
<linearGradient id="paint0_linear_112_148" x1="-0.000244141" y1="0" x2="687" y2="1024" gradientUnits="userSpaceOnUse">
<stop stop-color="#FFC12B"/>
<stop offset="1" stop-color="#F3722C"/>
</linearGradient>
</defs>
</svg>
