<svg width="805" height="1024" viewBox="0 0 805 1024" fill="none" xmlns="http://www.w3.org/2000/svg">
<rect width="805" height="1024" fill="url(#paint0_linear_112_149)"/>
<path d="M262.426 9.25676C262.426 12.7408 265.07 15.4783 264.805 18.9624C258.46 28.6681 252.378 38.6226 246.297 48.5771C242.066 55.2964 238.893 62.5134 234.662 69.2327C230.432 75.952 226.466 82.9202 222.235 89.8883C219.062 95.3633 214.303 100.092 211.923 106.064C211.394 107.558 210.072 109.051 209.808 110.793C209.543 112.535 208.75 113.779 207.428 115.023C203.991 118.01 200.553 117.512 197.909 114.028C191.299 104.571 184.424 95.1145 176.756 86.4043C173.583 82.9202 170.939 79.1872 169.088 74.9566C164.064 64.5043 159.305 54.0521 153.488 43.8487C148.728 35.3874 143.704 26.926 136.565 19.709C137.094 16.9715 135.772 14.234 135.243 11.7454C138.416 12.492 141.06 11.2477 142.911 9.0079C144.233 8.75904 145.555 8.75902 146.613 8.51016C147.671 9.50561 148.464 9.25675 148.993 8.2613C160.362 5.77267 172.261 5.52381 183.895 4.52836C198.702 3.28404 213.774 3.78178 228.581 2.78633C238.1 2.03974 247.883 1.54201 257.402 1.54201C258.988 1.54201 260.31 1.542 261.632 2.28859C262.161 3.5329 262.955 4.52837 264.277 5.0261C264.541 5.27496 264.805 5.52381 265.07 5.77267C265.334 7.26585 261.632 6.51927 262.426 9.25676Z" fill="#FA5457"/>
<path d="M535.035 16.4737C534.77 19.2112 535.563 21.9487 536.357 24.6862C533.977 24.4373 532.919 26.1794 531.597 27.1748C525.251 32.8987 518.905 38.6225 513.882 45.5907C510.973 49.5725 507.271 52.8077 504.363 56.5407C498.81 63.7577 494.58 71.7213 489.027 78.9383C485.854 83.169 481.623 86.9019 477.657 90.8837C475.806 92.6258 473.955 94.3678 472.898 96.3587C468.667 105.567 459.148 105.318 453.331 97.1053C445.928 86.4042 437.466 76.6986 430.856 65.4997C426.625 58.2827 421.337 51.5634 416.049 44.8441C411.818 39.618 408.381 33.8941 404.944 28.1703C402.3 23.4419 398.862 19.2112 394.896 15.2294C393.045 12.9897 395.16 10.7499 394.896 8.51011C397.276 6.51921 400.184 5.77262 403.093 6.02148C411.554 7.01694 420.015 5.52376 428.476 5.77263C439.053 6.27035 449.894 6.0215 460.47 6.27036C470.782 6.51923 481.359 5.52376 491.935 6.02148C501.454 6.27035 510.709 6.27035 520.228 7.2658C524.723 7.76352 529.482 8.75899 533.184 11.2476C533.977 12.9897 532.919 14.9806 535.035 16.4737Z" fill="#FF8041"/>
<path d="M135.243 7.76359C130.483 5.27496 125.195 3.78177 119.642 3.53291C108.272 3.03519 96.9027 2.53747 85.533 2.78633C70.9903 3.0352 56.4476 2.78633 42.1693 3.03519C30.5352 3.28406 18.901 3.03519 7.26682 3.28405C4.88711 3.28405 1.97857 3.28405 0.656503 6.02154C-0.66556 8.75903 0.127678 10.9988 1.97857 13.2386C3.30063 14.7317 4.62269 16.2249 5.94476 17.967C12.0262 27.1749 18.3722 36.3828 24.7181 45.3419C35.559 60.5225 46.3999 75.952 56.9764 91.3815C61.7358 98.3497 71.2547 99.3451 74.4276 93.1236C77.0718 88.1463 81.038 84.4134 85.2686 80.6804C90.8212 75.4543 94.7874 68.9839 98.7536 63.0111C102.72 56.7896 106.95 50.8169 111.974 45.093C119.642 36.134 127.046 27.1749 136.565 19.9579C137.093 17.2204 135.771 14.4829 135.243 11.9943C138.416 12.7408 141.06 11.4965 142.911 9.25676C140.266 9.25676 137.622 8.51018 135.243 7.76359Z" fill="#FF8041"/>
<path d="M146.877 8.26132C147.935 9.25677 148.728 9.00791 149.257 8.01246C148.199 7.01701 147.406 7.01701 146.877 8.26132Z" fill="#FF8041"/>
<path d="M395.425 8.51014C393.31 6.7681 391.194 5.52379 388.286 5.27493C375.065 4.03062 361.58 2.53743 348.359 2.03971C339.105 1.54198 329.851 0.546541 320.86 1.29313C318.745 1.04427 316.63 1.04426 314.515 1.54199C313.721 1.54199 312.664 1.54199 311.871 1.54199C309.491 4.03062 306.318 4.03061 303.409 3.53288C306.318 4.03061 309.226 4.03062 311.871 1.54199C311.342 0.546537 310.548 0.0488151 309.491 0.0488151C297.857 -0.200048 286.487 0.546541 274.853 1.29313C271.415 1.54199 268.507 3.03516 266.127 5.52379C265.863 7.26583 262.161 6.51924 262.954 9.25673C262.954 12.7408 265.598 15.4783 265.334 18.9624C268.242 21.6999 268.771 25.4328 270.093 28.9169C273.002 36.3828 276.704 43.3509 280.405 50.3191C281.992 53.0566 281.199 56.2918 283.314 58.7805C286.751 62.5134 288.073 67.4906 291.246 71.4725C294.155 75.2054 294.948 80.1826 298.385 83.169C303.938 88.1463 305.26 95.6122 310.284 100.838C313.457 104.571 316.101 109.051 319.01 113.033C320.067 115.77 322.183 117.014 325.091 117.761C327.471 120.25 329.586 120.25 331.702 117.263C333.817 114.775 335.139 112.037 336.99 109.3C337.783 108.304 338.841 107.309 339.634 106.064C345.715 95.6122 351.797 84.911 357.878 74.4588C364.489 63.0111 371.363 51.8123 377.445 40.1157C380.618 34.143 384.848 28.668 387.228 22.1976C389.343 16.7226 389.608 16.9715 395.954 15.2294C393.574 12.9897 395.689 10.7499 395.425 8.51014Z" fill="#FACF71"/>
<path d="M264.805 4.52832C265.862 2.03969 264.805 1.04424 262.161 1.79083C262.425 3.28401 263.483 4.03059 264.805 4.52832Z" fill="#FACF71"/>
<path d="M667.241 8.01242C666.977 7.76356 667.241 7.26583 666.977 6.76811C664.597 3.78175 661.16 4.52834 657.987 5.27493C655.872 4.27948 653.756 5.52379 651.641 5.77265C645.295 5.02606 638.949 5.77265 632.603 6.02151C630.753 5.52378 629.166 6.27038 627.579 6.76811C626.786 6.02152 625.729 6.02152 624.935 6.76811C622.291 6.51924 619.912 6.7681 617.268 7.26583C615.945 6.7681 614.623 6.7681 613.566 7.01697C611.45 6.51924 609.6 6.51924 607.484 7.01697C606.162 7.01697 604.576 7.01697 603.254 7.01697C594.792 7.01697 586.331 6.51924 577.87 8.26128C577.077 8.26128 576.284 8.26128 575.49 8.26128C567.294 8.51014 559.097 8.51014 551.164 10.9988C550.371 11.2476 549.578 11.2476 548.52 11.4965C547.463 10.5011 546.669 10.5011 546.14 11.7454C545.347 11.7454 544.554 11.9942 543.496 11.9942C542.439 15.4783 539.795 15.7272 537.15 15.7272C539.795 15.7272 542.439 15.2294 543.496 11.9942C540.059 11.4965 536.357 12.9897 533.184 10.7499C533.449 12.492 532.391 14.4828 534.506 15.976C534.242 18.7135 535.035 21.451 535.828 24.1885C536.886 27.1749 540.059 28.4192 541.645 30.9078C544.289 34.6407 546.14 38.8714 548.785 42.6044C555.924 52.8077 560.154 64.2554 565.971 74.9566C568.88 80.6804 571.524 86.4042 575.755 91.3815C583.951 100.838 591.619 110.544 598.23 120.996C600.081 123.983 603.782 124.48 606.955 122.241C608.806 120.996 609.335 119.254 610.128 117.263C611.979 112.784 613.83 107.806 616.739 104.074C620.176 100.092 622.82 95.6122 625.729 91.1326C629.959 84.4133 633.661 77.1963 637.627 70.477C641.065 64.7532 643.973 58.5316 648.204 52.8077C652.699 46.5862 655.872 39.618 659.838 33.1476C661.953 29.6635 664.862 26.6771 666.448 22.9442C666.448 22.4465 666.448 22.1976 666.448 21.6999C666.713 18.4647 664.333 15.4783 665.126 12.2431C665.126 11.4965 664.862 10.7499 664.862 9.75445C667.506 10.501 669.886 10.7499 667.241 8.01242ZM658.78 6.27039C659.309 6.76811 659.838 7.5147 660.367 8.01242C659.838 7.26583 659.309 6.76811 658.78 6.27039Z" fill="#FA5457"/>
<path d="M801.827 11.7454C800.769 10.0033 798.918 9.00787 796.539 9.5056C795.745 9.5056 794.952 9.5056 794.159 9.5056C793.366 9.5056 792.308 9.5056 791.515 9.25674C790.457 8.75902 789.135 8.51016 787.813 8.75902C785.698 7.51471 783.582 8.01243 781.467 8.01243C779.881 7.5147 778.03 7.51471 776.443 7.51471C773.27 6.51926 769.833 5.5238 766.395 6.51925C765.602 6.51925 764.545 6.51925 763.751 6.51925C763.751 6.76812 763.751 7.01697 763.751 7.01697C763.751 6.76811 763.751 6.51925 763.751 6.51925C761.372 4.77721 758.728 5.5238 756.083 5.5238C753.175 5.02607 750.266 5.02608 747.358 5.27494C742.334 3.28404 737.31 4.27948 732.022 4.52834C731.229 4.03062 730.435 4.03062 729.642 4.27948C726.205 4.03062 722.767 3.78175 719.33 4.7772C718.537 4.52834 717.479 4.27948 716.686 4.52834C712.984 2.53744 706.903 2.53744 701.879 4.27948C701.086 4.27948 700.028 4.27948 699.235 4.27948C692.36 2.78631 685.485 4.27948 678.875 4.27948C675.173 4.27948 671.471 6.51926 667.505 6.27039C667.505 6.76812 667.505 7.26585 667.77 7.51471C670.414 10.2522 668.298 10.0033 666.183 10.0033C666.183 10.7499 666.447 11.4965 666.447 12.492C665.919 15.7272 668.034 18.7135 667.77 21.9487C667.77 22.4465 667.77 22.6953 667.77 23.1931C669.62 25.6817 671.736 27.9215 672 31.4055C672.265 33.1476 673.058 34.8896 675.173 35.3873C675.173 35.8851 675.437 36.1339 675.702 36.3828C675.966 38.3737 676.231 40.1157 676.76 42.1066C678.082 46.0884 679.404 50.3191 683.105 53.0566C682.841 54.5498 683.634 55.7941 684.692 56.7895C684.428 58.7805 683.634 60.7714 686.543 61.7668C686.543 63.26 687.336 64.2554 688.129 65.002C688.658 66.7441 689.187 68.735 689.716 70.477C690.245 72.219 691.302 72.9656 693.153 73.2145C693.946 73.9611 694.475 74.7077 695.269 75.7031C694.475 77.4452 695.533 78.4406 697.119 79.1872C697.648 79.9338 698.441 80.9292 698.97 81.6758C699.235 84.9111 700.028 88.1463 703.465 89.8883C706.638 92.3769 707.431 96.3588 709.547 99.594C709.018 104.322 713.777 105.567 716.157 108.055C716.421 108.802 716.686 109.548 716.686 110.295C716.157 111.788 717.215 112.535 718.537 112.784C719.33 114.028 719.859 115.023 720.652 116.268C719.859 118.756 721.974 119.254 723.825 120.001C724.089 120.25 724.089 120.747 724.354 120.996C725.412 123.485 727.791 124.729 730.171 126.222C732.286 127.467 734.401 127.218 735.988 125.476C739.161 121.992 742.334 118.508 743.656 113.779C744.185 113.033 744.449 112.286 744.978 111.788C748.944 106.562 752.646 101.336 754.761 95.1144C755.819 94.8656 756.612 94.119 757.141 93.1235C758.463 89.1417 761.372 85.9065 763.487 82.1736C770.89 69.7304 777.765 57.0384 784.904 44.5953C785.433 43.3509 785.962 42.3555 786.491 41.1112C788.606 39.618 789.399 37.3783 789.928 34.8896C790.721 33.8942 791.779 33.1476 791.779 31.9033C794.159 30.4101 794.423 27.6726 795.745 25.4328C797.332 22.9442 798.125 19.9578 802.356 20.4556C803.678 20.7044 804.735 19.709 805 18.2158C803.413 16.2249 802.884 13.9851 801.827 11.7454Z" fill="#FACF71"/>
<path d="M762.665 979.382C754.44 980.015 747.481 976.008 740.099 973.055C738.201 972.422 737.99 971.156 738.412 969.469C738.834 967.993 739.467 966.727 741.365 966.727C746.004 966.727 750.855 967.149 755.494 968.203C756.549 968.414 757.393 969.047 758.447 968.203C759.08 966.727 758.025 965.672 757.603 964.407C754.44 957.868 750.011 952.173 746.215 946.056C745.372 944.791 744.317 944.158 742.841 944.58C734.405 946.478 727.657 942.47 720.697 938.885C719.432 938.252 717.323 937.619 718.167 935.299C719.01 932.768 721.33 932.346 723.439 932.557C727.235 932.979 731.031 931.924 734.827 933.19C735.249 933.401 735.671 932.979 736.303 932.768C735.881 930.869 734.194 929.604 733.14 928.338C729.976 924.753 726.391 921.378 724.072 917.159C723.017 915.261 721.33 915.683 719.643 916.105C716.058 916.948 712.683 918.425 708.887 918.847C706.146 919.058 703.826 918.214 701.717 917.37C699.819 916.527 698.343 915.05 698.553 912.73C698.764 910.41 700.241 908.933 702.56 908.089C705.513 907.035 708.887 907.668 712.051 906.402C712.472 906.824 712.894 907.035 713.105 906.613C713.527 906.191 713.105 905.769 712.894 905.558C712.051 902.816 709.309 902.394 707.411 901.34C704.459 899.652 701.928 897.543 699.819 895.012C697.499 892.059 694.968 889.739 690.54 892.059C688.22 893.325 685.267 892.481 682.736 893.957C682.315 894.168 681.26 894.168 680.839 893.957C678.097 892.481 675.144 891.004 673.246 888.473C672.403 887.419 671.77 886.153 672.825 884.677C673.668 883.411 674.301 881.935 676.41 882.778C677.042 882.989 677.886 882.989 678.308 882.567C679.784 881.724 682.737 883.2 682.948 880.88C683.158 878.982 680.628 878.349 679.362 877.083C677.464 875.396 674.723 875.396 672.192 875.396C669.239 875.607 666.498 875.818 664.811 872.443C664.389 871.599 663.124 871.599 662.28 870.966C659.117 869.068 656.375 867.17 655.742 863.162C655.531 861.475 654.055 860.631 653.423 859.366C652.157 856.413 653.844 854.514 657.008 854.092C661.647 853.46 665.022 856.202 668.185 858.522C674.09 862.74 679.784 866.959 685.056 872.021C686.955 873.919 688.22 873.287 688.642 870.545C688.642 869.912 688.642 869.279 688.852 868.435C689.485 862.951 690.75 862.318 696.023 862.74C698.764 862.951 699.608 864.639 700.241 866.959C701.506 871.599 701.928 876.451 701.506 881.513C701.295 884.044 701.717 886.364 703.615 887.841C707.622 891.004 711.418 894.59 715.425 898.176C716.058 898.809 716.901 899.652 718.377 899.231C718.799 895.645 720.065 892.27 721.541 888.895C722.173 887.63 722.806 885.942 723.861 885.942C725.969 885.942 728.078 885.52 730.187 885.731C731.031 885.731 731.453 886.786 731.664 887.63C732.507 889.95 732.929 892.27 732.296 894.59C731.031 899.442 731.242 904.715 728.922 909.355C728.711 909.988 728.289 910.621 728.922 911.253C734.616 916.737 738.623 923.698 744.739 929.604C745.161 926.651 745.582 923.909 746.004 921.378C746.215 920.323 746.215 919.269 746.848 918.425C747.691 916.948 748.535 915.05 750.855 915.261C756.127 915.894 756.549 916.316 757.182 919.901C758.236 925.385 757.182 930.869 756.971 936.564C756.971 937.197 756.338 937.83 756.338 938.463C756.76 940.994 751.699 941.416 753.807 944.158C755.284 946.056 755.916 948.376 757.393 950.064C759.712 952.806 761.61 955.759 762.665 959.134C762.876 959.977 763.719 960.399 764.985 960.821C766.039 958.29 767.094 955.548 768.359 952.806C770.046 949.22 770.89 949.009 773.631 949.642C778.271 950.697 778.693 951.118 778.693 955.548C778.693 960.61 777.427 965.461 776.795 970.524C776.162 974.531 773.209 977.062 771.311 980.226C770.679 980.437 769.835 980.648 770.046 981.492C770.257 982.335 770.89 982.335 771.522 982.335C770.89 983.179 770.89 984.656 769.414 984.867C768.359 984.867 767.937 983.812 767.937 983.179C767.304 978.75 764.774 979.593 762.665 979.382Z" fill="#FACF71"/>
<path d="M762.665 979.383C764.774 979.383 767.304 978.539 767.093 982.336C767.093 982.968 767.515 984.023 768.57 984.023C769.835 983.812 770.046 982.546 770.679 981.492C773.42 983.812 772.788 987.398 773.42 990.351C774.053 994.358 774.053 998.366 774.264 1002.37C774.475 1003.85 773.842 1004.9 773.209 1006.17C772.577 1007.01 771.944 1007.86 770.89 1007.44C769.835 1007.22 769.835 1006.38 769.835 1005.33C769.413 997.733 766.461 990.773 765.407 983.39C765.196 981.703 763.93 980.437 762.665 979.383Z" fill="#FACF71"/>
<path d="M770.468 981.492C769.835 981.492 768.992 981.281 768.992 980.648C768.781 979.804 769.624 979.593 770.257 979.383C770.468 980.226 770.468 980.859 770.468 981.492Z" fill="#FACF71"/>
<path d="M30.0274 979.384C38.252 980.017 45.2113 976.009 52.5923 973.056C54.4903 972.423 54.7013 971.158 54.2795 969.47C53.8578 967.994 53.2251 966.728 51.3271 966.728C46.6875 966.728 41.8372 967.15 37.1976 968.205C36.1432 968.416 35.2996 969.049 34.2452 968.205C33.6125 966.728 34.667 965.674 35.0888 964.408C38.2521 957.869 42.6805 952.174 46.4765 946.057C47.3201 944.792 48.3747 944.159 49.8509 944.581C58.2865 946.479 65.0349 942.472 71.9942 938.886C73.2595 938.253 75.3683 937.62 74.5248 935.3C73.6812 932.769 71.3615 932.347 69.2526 932.558C65.4566 932.98 61.6605 931.925 57.8645 933.191C57.4428 933.402 57.0211 932.98 56.3884 932.769C56.8102 930.87 58.4973 929.605 59.5518 928.339C62.7151 924.754 66.3 921.379 68.6198 917.16C69.6742 915.262 71.3616 915.684 73.0487 916.105C76.6338 916.949 80.0079 918.426 83.8039 918.848C86.5455 919.058 88.8653 918.215 90.9742 917.371C92.8722 916.527 94.3484 915.051 94.1375 912.731C93.9266 910.41 92.4503 908.934 90.1306 908.09C87.1781 907.035 83.8039 907.668 80.6406 906.403C80.2188 906.825 79.797 907.035 79.5861 906.614C79.1644 906.192 79.5861 905.77 79.797 905.559C80.6405 902.817 83.382 902.395 85.28 901.34C88.2325 899.653 90.7631 897.544 92.872 895.013C95.1917 892.059 97.7224 889.739 102.151 892.06C104.471 893.325 107.423 892.481 109.954 893.958C110.376 894.169 111.43 894.169 111.852 893.958C114.593 892.481 117.546 891.005 119.444 888.474C120.288 887.419 120.92 886.154 119.866 884.677C119.022 883.411 118.39 881.935 116.281 882.779C115.648 882.99 114.804 882.99 114.383 882.568C112.906 881.724 109.954 883.201 109.743 880.88C109.532 878.982 112.063 878.349 113.328 877.084C115.226 875.396 117.968 875.396 120.499 875.396C123.451 875.607 126.193 875.818 127.88 872.443C128.301 871.6 129.567 871.599 130.41 870.967C133.573 869.068 136.315 867.17 136.948 863.162C137.159 861.475 138.635 860.631 139.267 859.366C140.533 856.413 138.846 854.514 135.682 854.092C131.043 853.46 127.669 856.202 124.505 858.522C118.6 862.74 112.906 866.959 107.634 872.021C105.736 873.92 104.471 873.287 104.049 870.545C104.049 869.912 104.049 869.279 103.838 868.436C103.206 862.951 101.94 862.319 96.668 862.74C93.9265 862.951 93.0829 864.639 92.4503 866.959C91.185 871.599 90.7632 876.451 91.185 881.513C91.3959 884.044 90.9741 886.364 89.0761 887.841C85.0692 891.005 81.2733 894.591 77.2664 898.176C76.6338 898.809 75.7902 899.653 74.3139 899.231C73.8922 895.645 72.6268 892.271 71.1506 888.896C70.5179 887.63 69.8853 885.943 68.8309 885.943C66.722 885.943 64.6131 885.521 62.5042 885.732C61.6607 885.732 61.2388 886.786 61.0279 887.63C60.1843 889.95 59.7627 892.271 60.3954 894.591C61.6607 899.442 61.4498 904.715 63.7695 909.356C63.9804 909.989 64.4022 910.621 63.7695 911.254C58.0755 916.738 54.0687 923.699 47.9529 929.605C47.5311 926.652 47.1094 923.91 46.6876 921.379C46.4767 920.324 46.4767 919.269 45.844 918.426C45.0005 916.949 44.1569 915.051 41.8371 915.262C36.5649 915.895 36.1431 916.316 35.5104 919.902C34.456 925.386 35.5104 930.87 35.7213 936.566C35.7213 937.198 36.354 937.831 36.354 938.464C35.9323 940.995 40.9935 941.417 38.8846 944.159C37.4084 946.057 36.7758 948.378 35.2996 950.065C32.9798 952.807 31.0818 955.76 30.0274 959.135C29.8165 959.979 28.973 960.4 27.7077 960.822C26.6532 958.291 25.5986 955.549 24.3333 952.807C22.6461 949.221 21.8026 949.01 19.0611 949.643C14.4215 950.698 13.9999 951.12 13.9999 955.549C13.9999 960.611 15.2651 965.463 15.8977 970.525C16.5304 974.533 19.483 977.064 21.381 980.228C22.0137 980.439 22.8572 980.65 22.6463 981.493C22.4354 982.337 21.8026 982.337 21.1699 982.337C21.8026 983.181 21.8026 984.657 23.2788 984.868C24.3333 984.868 24.7552 983.814 24.7552 983.181C25.3879 978.751 27.9185 979.595 30.0274 979.384Z" fill="#FACF71"/>
<path d="M30.0269 979.384C27.918 979.384 25.3874 978.541 25.5983 982.337C25.5983 982.97 25.1763 984.025 24.1219 984.025C22.8566 983.814 22.6457 982.548 22.013 981.493C19.2715 983.814 19.9043 987.4 19.2716 990.353C18.6389 994.36 18.6389 998.368 18.428 1002.38C18.2171 1003.85 18.8498 1004.91 19.4824 1006.17C20.1151 1007.02 20.7477 1007.86 21.8022 1007.44C22.8566 1007.23 22.8566 1006.38 22.8566 1005.33C23.2784 997.735 26.2308 990.774 27.2852 983.392C27.4961 981.704 28.7615 980.439 30.0269 979.384Z" fill="#FACF71"/>
<path d="M22.2245 981.493C22.8571 981.493 23.7009 981.283 23.7009 980.65C23.9117 979.806 23.0682 979.595 22.4356 979.384C22.2247 980.228 22.2245 980.861 22.2245 981.493Z" fill="#FACF71"/>
<path d="M682.38 591.183C681.114 597.932 684.699 606.158 685.543 614.595C685.754 616.283 686.808 617.127 688.496 617.548C695.244 619.447 701.993 621.556 708.741 623.243C710.85 623.876 712.326 624.931 714.013 626.196C716.755 628.095 716.122 631.259 712.959 632.313C709.163 633.579 705.156 634.633 701.36 635.477C699.251 635.899 697.142 636.321 695.244 637.586C694.4 638.219 693.346 638.43 692.292 638.43C686.808 639.274 686.597 639.274 685.754 644.547C684.488 652.562 683.434 660.788 682.59 669.014C682.38 671.756 680.903 673.866 679.849 675.975C678.373 678.717 671.413 677.241 670.57 674.288C668.039 664.163 662.767 655.093 660.869 644.758C660.447 642.86 659.392 642.227 657.705 641.383C653.909 639.485 649.691 638.852 646.106 636.743C643.997 635.477 642.099 634.422 639.779 633.79C636.405 632.946 635.561 631.048 636.194 627.251C636.616 624.298 637.67 623.243 641.045 623.454C644.419 623.665 647.793 623.243 650.956 622.4C653.487 621.767 655.385 620.501 656.44 617.759C660.658 607.846 664.454 597.721 667.617 587.597C668.882 583.589 671.202 580.003 672.468 575.996C673.1 573.676 678.584 572.199 680.693 573.465C681.325 573.887 681.325 574.519 681.536 575.152C683.223 579.793 682.38 584.644 682.38 591.183Z" fill="#FACF71"/>
<path d="M235.055 260.063C233.157 259.009 231.048 257.743 228.517 258.165C226.408 258.587 224.721 258.165 222.823 257.321C217.34 255.212 211.646 253.525 207.639 248.884C207.428 248.463 206.795 248.463 206.374 248.252C200.258 244.455 194.142 240.447 190.768 233.909C189.924 232.221 188.87 230.745 188.026 229.268C184.019 222.097 180.012 214.925 179.168 206.488C179.168 205.434 178.747 204.168 178.325 203.113C177.27 200.371 174.74 201.004 172.631 201.215C170.733 201.215 169.046 202.27 169.046 204.801C169.468 211.34 168.413 217.878 167.359 224.417C166.093 232.432 164.828 240.236 162.508 248.041C161.243 252.47 158.923 256.689 158.29 261.54C156.181 263.438 155.548 266.391 154.072 268.922C153.861 269.344 153.861 269.555 153.65 269.977C152.807 270.399 152.807 271.243 152.596 271.875C151.542 272.93 150.487 273.985 149.222 275.039C145.848 277.359 143.106 280.734 138.677 281.367C134.67 282 134.459 282.633 134.037 286.429C133.826 289.171 134.459 290.226 137.201 290.437C141.419 290.648 145.637 291.281 149.643 290.015C151.12 289.593 152.596 289.804 154.072 289.804C162.719 290.437 169.678 294.233 175.794 300.139C181.277 305.623 184.652 312.373 188.026 319.123C190.979 324.607 193.088 330.513 194.353 336.63C194.986 339.583 196.673 340.215 199.414 339.161C204.476 337.051 204.897 336.419 203.632 331.146C202.367 325.451 201.734 319.545 202.789 313.639C205.952 293.601 215.653 277.992 232.735 266.813C233.368 266.391 234.212 265.969 234.844 265.548C236.953 263.438 237.164 261.118 235.055 260.063ZM165.25 261.118C164.828 261.118 164.406 261.118 163.984 261.118C164.406 260.907 164.828 261.118 165.25 261.118ZM194.142 308.576C185.073 292.968 172.842 284.109 155.549 282C156.814 278.203 159.344 275.883 161.453 273.352C162.086 272.508 163.141 271.664 163.141 270.399C162.93 269.766 162.719 269.133 162.719 268.711C162.719 269.344 162.719 269.766 163.141 270.399C164.406 268.501 166.304 266.813 166.304 264.282C166.515 264.071 166.726 263.86 166.726 263.438C166.937 262.806 167.148 261.962 167.359 261.329C172.42 251.837 174.318 241.502 176.005 230.956C176.216 230.112 176.216 229.479 176.427 228.003C180.645 233.909 183.808 239.815 188.237 244.666C189.291 245.931 190.346 247.197 191.822 248.041C197.094 251.626 202.156 255.423 207.639 258.376C211.646 260.696 216.496 261.54 220.503 264.704C206.374 275.883 197.938 290.226 194.142 308.576Z" fill="#FF8041"/>
<path d="M77.026 577.182C76.8151 572.331 77.8697 567.268 80.8222 562.417C81.8766 560.519 83.5638 559.464 85.04 558.198C87.7816 555.878 90.5232 553.347 94.1084 551.871C100.857 548.918 106.762 549.55 113.3 553.136C117.728 555.667 121.524 558.831 125.11 562.417C127.64 564.948 127.851 564.948 130.171 562.417C134.6 557.355 140.294 555.035 146.832 553.769C154.424 552.293 160.54 555.246 166.023 560.097C171.717 565.159 174.248 571.698 174.458 579.291C174.458 583.931 174.669 588.572 173.193 593.212C171.084 599.962 166.445 604.813 162.649 610.086C159.274 614.938 154.845 619.156 152.104 624.429C151.893 624.851 151.682 625.273 151.26 625.695C146.199 630.124 142.403 635.608 138.818 641.303C137.131 643.835 135.022 645.944 133.545 648.475C132.069 651.006 128.906 652.272 126.164 653.537C124.477 654.17 122.79 653.959 122.368 651.639C122.157 650.373 121.946 649.108 120.47 648.897C116.885 648.475 114.987 645.522 112.878 643.413C105.707 636.874 99.1697 629.492 93.8974 621.265C90.734 616.203 87.3598 611.141 84.6182 605.657C79.7677 597.009 77.026 587.728 77.026 577.182ZM164.968 584.986C164.757 583.088 164.968 581.189 164.546 579.502C164.125 576.971 163.492 574.651 162.859 572.12C161.594 566.846 151.049 559.886 145.777 561.151C141.137 562.206 138.396 565.37 135.022 568.323C132.28 570.854 131.858 573.385 133.124 576.971C135.022 582.244 136.076 587.517 136.709 593.212C137.552 601.227 134.178 606.079 126.375 609.032C119.205 611.774 111.191 607.555 111.191 598.485C111.191 594.9 111.191 591.103 113.3 587.728C115.198 584.564 116.674 581.189 118.572 578.236C121.314 574.018 121.314 572.963 117.939 569.589C114.143 565.581 110.558 561.573 105.286 559.464C101.701 557.987 98.5372 557.988 95.5847 559.675C90.7341 562.628 87.1489 566.636 86.7271 572.963C86.0945 582.033 87.9925 590.681 91.1558 599.118C93.8974 606.29 98.1154 612.828 102.544 619.156C108.66 627.593 115.409 635.397 123.212 642.358C125.531 644.467 126.797 644.467 128.273 641.725C131.436 635.186 137.341 630.546 141.137 624.64C144.512 619.367 149.784 615.359 152.737 609.664C153.791 607.766 155.267 606.079 156.533 604.391C161.172 598.064 165.39 592.579 164.968 584.986ZM124.688 582.666C121.946 588.361 119.837 592.79 120.47 598.064C120.681 599.751 121.314 600.806 123.212 601.227C124.688 601.649 125.953 600.806 126.797 599.751C127.429 598.907 127.429 597.853 127.429 596.798C127.219 592.579 126.797 588.15 124.688 582.666Z" fill="#FF8041"/>
<path d="M164.968 584.986C165.179 592.579 160.961 598.064 156.744 603.337C155.267 605.024 154.002 606.712 152.947 608.61C149.995 614.305 144.723 618.102 141.348 623.586C137.552 629.702 131.647 634.132 128.484 640.671C127.008 643.624 125.953 643.624 123.422 641.303C115.619 634.343 108.871 626.539 102.755 618.102C98.1153 611.985 94.1084 605.446 91.3668 598.064C87.9925 589.627 86.3053 580.979 86.9379 571.909C87.3597 565.792 90.9449 561.573 95.7955 558.62C98.748 556.933 101.911 556.933 105.496 558.409C110.98 560.519 114.354 564.737 118.15 568.534C121.524 571.909 121.314 572.963 118.783 577.182C116.885 580.346 115.409 583.721 113.511 586.674C111.612 590.048 111.402 593.845 111.402 597.431C111.402 606.501 119.415 610.719 126.586 607.977C134.389 605.024 137.763 600.173 136.92 592.158C136.287 586.673 135.232 581.189 133.334 575.916C132.069 572.542 132.491 569.799 135.232 567.268C138.607 564.315 141.348 561.152 145.988 560.097C151.26 559.042 161.805 566.003 163.07 571.065C163.703 573.596 164.336 575.916 164.757 578.447C164.968 581.4 164.968 583.299 164.968 584.986Z" fill="#FACF71"/>
<path d="M124.688 582.666C126.797 588.15 127.218 592.369 127.429 597.009C127.429 598.064 127.429 599.118 126.797 599.962C125.953 601.016 124.899 601.649 123.211 601.438C121.524 601.017 120.681 599.962 120.47 598.274C119.837 592.79 121.946 588.361 124.688 582.666Z" fill="#FFC0C0"/>
<path d="M596.396 311.1C592.6 311.1 591.756 309.835 593.654 306.46C594.287 305.405 594.92 304.351 595.974 303.718C600.825 300.343 605.675 296.757 610.737 293.593C612.846 292.117 617.064 293.593 618.118 295.913C619.383 298.234 617.907 299.71 616.22 300.976C611.369 304.14 606.308 307.093 601.247 310.256C599.77 311.1 598.083 311.1 596.396 311.1Z" fill="#FACF71"/>
<path d="M579.947 311.311C581.634 311.522 583.954 310.678 584.797 312.999C585.43 314.897 583.532 315.952 582.266 317.006C578.26 320.803 573.62 323.756 568.769 326.498C566.028 328.185 562.864 327.131 559.912 327.131C558.857 327.131 558.646 326.287 558.435 325.443C558.225 323.967 558.436 322.701 559.701 321.857C561.81 320.592 563.919 319.115 566.028 317.639C568.558 315.951 571.3 314.686 573.831 312.999C575.729 311.733 577.627 311.1 579.947 311.311Z" fill="#FACF71"/>
<path d="M539.033 299.71C536.924 299.71 535.659 298.234 536.081 296.335C536.292 295.492 536.713 294.859 537.346 294.226C541.775 290.007 546.625 286.211 552.53 284.102C553.585 283.68 554.85 283.258 555.905 282.836C557.17 282.203 558.435 281.781 559.49 283.258C560.544 284.945 560.755 286.844 559.068 288.32C557.592 289.586 556.116 290.429 554.429 291.484C552.53 292.75 550.211 293.593 548.524 295.492C546.204 298.866 541.986 298.234 539.033 299.71Z" fill="#FACF71"/>
<path d="M597.451 273.977C597.451 275.243 596.607 275.876 595.553 276.508C589.859 280.516 583.321 282.203 576.572 283.258C575.096 283.469 574.252 283.047 573.831 281.781C573.198 280.305 573.62 279.039 574.885 278.196C576.994 276.719 578.892 275.243 581.212 274.188C583.532 273.134 585.851 272.079 587.96 270.813C590.913 269.126 593.655 270.391 596.607 271.657C597.24 272.29 597.661 272.923 597.451 273.977Z" fill="#FACF71"/>
<path d="M599.771 291.906C598.716 291.906 597.662 292.117 597.029 290.851C596.396 289.586 597.24 288.742 598.083 287.687C599.349 286.211 601.247 285.578 602.723 284.734C605.886 282.836 609.472 281.36 612.846 279.461C614.111 278.828 615.798 279.25 617.275 279.039C618.751 279.039 620.016 279.672 620.227 281.149C620.649 282.625 620.016 284.313 618.962 284.734C612.635 287.476 606.941 291.484 599.771 291.906Z" fill="#FACF71"/>
<path d="M582.477 288.32C582.899 288.32 583.11 288.32 583.321 288.32C584.797 288.531 586.906 288.109 587.328 290.429C587.749 292.539 586.484 294.015 584.586 294.648C579.525 296.546 575.096 299.499 569.402 299.71C567.504 299.71 566.66 299.288 565.817 297.812C564.973 296.124 565.817 294.226 567.082 294.015C572.143 292.96 576.361 289.586 581.212 288.32C581.845 288.109 582.266 288.32 582.477 288.32Z" fill="#FACF71"/>
<path d="M541.986 317.85C540.509 317.85 539.455 317.639 539.244 316.162C539.033 314.897 538.822 313.209 540.299 312.577C545.149 310.256 549.578 306.671 555.061 305.827C556.116 305.616 557.17 305.827 557.592 306.882C558.224 308.358 558.646 310.046 557.17 311.1C552.53 314.475 547.469 316.584 541.986 317.85Z" fill="#FACF71"/>
<path d="M273.871 529.631C274.361 529.5 274.807 529.551 275.21 529.784C275.638 530.01 275.918 530.368 276.049 530.858C276.173 531.323 276.11 531.772 275.859 532.207C275.627 532.61 275.265 532.877 274.776 533.008L262.92 536.185C262.406 536.323 261.941 536.251 261.525 535.969C261.102 535.663 260.853 535.323 260.779 534.949C260.725 534.649 260.693 534.382 260.683 534.149C260.691 533.884 260.778 533.573 260.944 533.213L267.262 517.594L267.38 518.034L259.195 520.227C258.706 520.359 258.247 520.311 257.819 520.085C257.409 519.827 257.142 519.466 257.018 519.001C256.887 518.512 256.937 518.065 257.17 517.662C257.428 517.252 257.801 516.982 258.29 516.851L269.596 513.821C270.061 513.697 270.501 513.775 270.918 514.057C271.352 514.308 271.614 514.697 271.702 515.224C271.761 515.444 271.784 515.674 271.769 515.914C271.773 516.123 271.701 516.391 271.552 516.72L265.341 532.153L265.135 531.972L273.871 529.631Z" fill="black"/>
<path d="M243.352 569.504C243.859 569.504 244.277 569.669 244.606 569.998C244.961 570.327 245.138 570.745 245.138 571.252C245.138 571.733 244.961 572.151 244.606 572.506C244.277 572.835 243.859 573 243.352 573H231.078C230.546 573 230.115 572.81 229.786 572.43C229.457 572.025 229.305 571.632 229.33 571.252C229.355 570.948 229.393 570.682 229.444 570.454C229.52 570.201 229.685 569.922 229.938 569.618L240.084 556.166V556.622H231.61C231.103 556.622 230.673 556.457 230.318 556.128C229.989 555.773 229.824 555.355 229.824 554.874C229.824 554.367 229.989 553.949 230.318 553.62C230.673 553.291 231.103 553.126 231.61 553.126H243.314C243.795 553.126 244.201 553.316 244.53 553.696C244.885 554.051 245.037 554.494 244.986 555.026C244.986 555.254 244.948 555.482 244.872 555.71C244.821 555.913 244.682 556.153 244.454 556.432L234.46 569.732L234.308 569.504H243.352Z" fill="black"/>
<path d="M231.434 499.661C231.923 499.792 232.285 500.059 232.517 500.462C232.775 500.872 232.838 501.322 232.707 501.811C232.582 502.276 232.303 502.634 231.868 502.885C231.465 503.118 231.019 503.169 230.529 503.038L218.673 499.861C218.16 499.723 217.793 499.428 217.573 498.976C217.36 498.499 217.315 498.08 217.437 497.72C217.541 497.433 217.646 497.186 217.754 496.979C217.893 496.754 218.124 496.527 218.448 496.299L231.729 485.931L231.611 486.372L223.426 484.179C222.937 484.047 222.563 483.777 222.306 483.367C222.08 482.939 222.029 482.493 222.153 482.028C222.285 481.539 222.552 481.177 222.955 480.944C223.383 480.718 223.842 480.671 224.331 480.802L235.636 483.831C236.101 483.956 236.444 484.244 236.663 484.696C236.914 485.131 236.946 485.598 236.76 486.099C236.7 486.319 236.605 486.53 236.472 486.73C236.371 486.913 236.174 487.109 235.882 487.319L222.786 497.58L222.698 497.32L231.434 499.661Z" fill="black"/>
<path d="M440.577 726.788C446.04 726.461 451.241 726.105 456.115 725.732C459.134 725.732 462.734 725.532 466.641 725.06M440.577 726.788C431.809 727.314 422.365 727.767 412.509 728.104M440.577 726.788L447.656 1006.61C447.856 1014.5 441.515 1021 433.622 1021V1021C426.008 1021 419.782 1014.93 419.589 1007.32L412.509 728.104M412.509 728.104C391.949 728.807 369.598 729.004 347.851 728.301M261.642 717.564C244.114 712.304 232.826 704.833 232.069 694.444C229.262 655.904 312.432 649.58 354.367 651.235L479.672 659.678C493.038 660.837 518.467 669.413 513.254 694.444C510.974 705.394 502.982 712.752 493.3 717.564M261.642 717.564C269.923 720.05 279.597 722.042 290.211 723.615M261.642 717.564L237.528 1005.17C236.813 1013.69 243.538 1021 252.09 1021V1021C259.693 1021 266.025 1015.17 266.654 1007.59L290.211 723.615M290.211 723.615C299.323 724.966 309.127 726.008 319.337 726.788M319.337 726.788C328.58 727.495 338.155 727.988 347.851 728.301M319.337 726.788L307.098 1006.1C306.742 1014.22 313.229 1021 321.357 1021V1021C328.997 1021 335.283 1014.98 335.617 1007.35L337.075 974.097L347.851 728.301M493.3 717.564C484.81 721.784 475.02 724.047 466.641 725.06M493.3 717.564L521.514 1005.81C522.31 1013.95 515.916 1021 507.74 1021V1021C500.612 1021 494.649 1015.58 493.965 1008.49L466.641 725.06" stroke="black" stroke-width="5"/>
<path d="M294.55 725.091C246.492 724.811 229.588 678.873 227.143 655.938L224 629.045L247.051 641.654C255.666 611.839 292.454 550.881 370.688 545.573C442.709 540.686 481.185 568.18 494.289 585.929C496.344 588.713 498.353 591.503 500.587 594.145C521.4 618.773 543.698 671.241 487.34 712.518C441.556 741.506 329.323 785.772 242.828 733.988C240.754 732.746 238.809 731.267 237.044 729.615C228.692 721.795 221.792 713.634 247.051 720.201C271.247 726.492 314.385 734.627 358.464 729.509C352.643 729.967 340.372 725.393 337.858 720.201C335.415 715.157 365.962 706.663 382.862 702.723C383.816 702.501 384.703 702.066 385.461 701.447C390.124 697.632 387.274 689.446 381.499 687.733C369.322 684.122 365.169 676.707 364.751 672.353L350.807 676.893C347.423 685.544 343.156 693.919 337.858 701.193C327.619 715.252 313.533 725.201 294.55 725.091Z" fill="#FFF6DF"/>
<path d="M247.051 641.654L224 629.045L227.143 655.938C229.588 678.873 246.492 724.811 294.55 725.091C313.533 725.201 327.619 715.252 337.858 701.193C343.156 693.919 347.423 685.544 350.807 676.893M247.051 641.654V641.654C258.08 647.687 271.574 646.795 284.034 645.121C287.998 644.588 292.303 644.426 296.799 644.855C310.457 646.159 324.951 647.665 337.183 641.451L361.607 629.045C360.674 641.918 357.44 659.936 350.807 676.893M247.051 641.654C255.666 611.839 292.454 550.881 370.688 545.573C442.709 540.686 481.185 568.18 494.289 585.929C496.344 588.713 498.353 591.503 500.587 594.145C521.4 618.773 543.698 671.241 487.34 712.518C441.556 741.506 329.323 785.772 242.828 733.988C240.754 732.746 238.809 731.267 237.044 729.615C228.692 721.795 221.792 713.634 247.051 720.201C271.247 726.492 314.385 734.627 358.464 729.509M416.091 709.374C397.743 718.173 378.011 727.24 358.464 729.509M449.969 626.251C420.981 624.039 363.354 630.163 364.751 672.353M364.751 672.353C365.169 676.707 369.322 684.122 381.499 687.733C387.274 689.446 390.124 697.632 385.461 701.447V701.447C384.703 702.067 383.816 702.501 382.862 702.723C365.962 706.663 335.415 715.157 337.858 720.201C340.372 725.393 352.643 729.967 358.464 729.509M364.751 672.353L350.807 676.893M302.932 687.022C305.493 689.699 312.851 693.448 321.792 687.022" stroke="black" stroke-width="5"/>
<path d="M279 687C275.654 689.264 267.369 692.433 261 687" stroke="black" stroke-width="5"/>
<path d="M289.853 701.191C291.407 710.292 297.03 725.924 307.091 715.646" stroke="black" stroke-width="5" stroke-linecap="round"/>
<path d="M289.851 702.677C288.398 711.096 283.195 725.558 274.005 716.049" stroke="black" stroke-width="5" stroke-linecap="round"/>
<circle cx="290.065" cy="700.493" r="3.49257" fill="black"/>
<defs>
<linearGradient id="paint0_linear_112_149" x1="0" y1="0" x2="687" y2="1024" gradientUnits="userSpaceOnUse">
<stop stop-color="#FFC12B"/>
<stop offset="1" stop-color="#F3722C"/>
</linearGradient>
</defs>
</svg>
