<svg width="140" height="144" viewBox="0 0 140 144" fill="none" xmlns="http://www.w3.org/2000/svg">
<path d="M94.3532 132.588C93.3978 132.683 93.1374 133.588 92.6989 134.187C92.2208 134.855 91.8278 135.427 90.8505 135.148C90.6916 135.809 90.5806 136.328 90.4474 136.854C90.2675 137.609 90.1544 137.671 89.4252 137.547C88.9779 137.465 88.5235 137.446 87.9573 137.383C87.7106 136.93 87.4723 136.214 86.5633 136.558C86.4526 136.599 86.2 136.294 85.9252 136.094C85.5459 137.017 85.1993 137.839 84.8504 138.681C84.1515 138.475 84.146 138.05 84.2558 137.638C84.4333 136.999 84.3894 136.442 84.0985 135.815C83.9113 135.402 83.9547 134.823 84.0413 134.333C84.6483 130.898 85.2867 127.466 85.9146 124.033C85.9977 123.575 85.9863 123.107 86.1101 122.664C86.3075 121.943 86.5666 121.24 86.8048 120.534C86.7649 120.89 86.7251 121.247 86.684 121.614C86.7679 121.623 86.8541 121.612 86.9392 121.61C86.894 121.255 86.8383 120.899 86.7919 120.554C86.8551 120.179 86.9928 119.801 86.9593 119.437C86.7639 117.196 87.0625 115 87.4671 112.805C87.6378 111.848 87.3176 111.483 86.3764 111.356C85.8952 111.292 85.413 111.143 84.9354 111.047C84.6546 110.994 84.3285 110.873 84.0756 110.951C83.0047 111.319 82.0053 111.048 80.9884 110.743L80.9977 110.755C80.6673 110.102 80.338 109.439 80.0075 108.787C80.5954 107.801 80.9084 106.616 82.0343 106.041L82.0133 106.039C82.1088 106.039 82.2032 106.049 82.2976 106.06L82.2742 106.078C82.2848 105.984 82.2953 105.89 82.3059 105.795L82.3035 105.816C82.3141 105.722 82.3235 105.638 82.334 105.544C82.6521 105.452 83.0063 105.417 83.2896 105.258C84.6987 104.428 86.1101 103.577 87.4925 102.702C87.8806 102.459 88.4691 102.323 88.4719 101.538C87.8718 101.683 87.337 101.814 86.8009 101.956L86.8196 101.979C87.062 101.805 87.2858 101.607 87.5457 101.466C88.6972 100.851 89.3864 100.005 89.096 98.6137C89.0612 98.4505 89.0916 98.2735 89.1313 98.1081C89.7877 95.6549 89.4912 93.0846 90.0649 90.6115C90.2074 90.0011 90.152 89.358 90.1908 88.7254C90.3192 86.7227 91.0264 84.8591 91.5578 82.9546C91.8451 81.9039 92.009 80.8182 92.3161 79.7803C92.4877 79.1944 92.6816 78.5048 93.1059 78.1276C93.7529 77.563 94.5595 77.0905 95.3833 76.8429C95.8553 76.7046 96.6043 76.9369 97.013 77.2693C98.1122 78.1671 99.3537 78.7412 100.659 79.2162C100.936 79.3108 101.223 79.4915 101.491 79.4684C102.678 79.3888 103.489 80.0208 104.159 80.8601C105.699 82.752 107.319 84.5998 108.305 86.8863C108.415 87.1427 108.635 87.3583 108.904 87.7069C109.519 87.4254 110.131 87.1753 110.717 86.8692C112.847 85.7592 114.917 84.5256 117.098 83.538C118.764 82.7795 120.494 82.1236 122.463 82.3649C123.646 82.5078 124.886 82.243 126.099 82.2193C126.493 82.2103 126.914 82.3317 127.291 82.4799C128.034 82.7647 128.75 83.0996 129.479 83.4147C129.753 83.5302 130.053 83.5956 130.29 83.7601C132.13 85.0592 132.344 86.1766 131.004 87.4386C130.825 87.6098 130.694 87.8392 130.505 88.0092C129.507 88.9592 128.509 89.9092 127.334 91.0199C127.502 90.4654 127.605 90.116 127.718 89.7677C127.716 89.5976 127.723 89.4391 127.731 89.2702C127.743 89.1654 127.756 89.05 127.767 88.9452C128.575 88.4622 129.05 87.7297 129.501 86.7293C128.586 87.4125 128.398 87.6676 127.775 88.9674C127.765 89.0617 127.753 89.1666 127.743 89.2609L127.738 89.7805C127.467 89.8246 127.198 89.8582 126.928 89.9023L126.926 89.9233C126.806 89.4747 126.622 89.5072 126.401 89.8647L126.425 89.846C126.236 89.9205 126.059 89.9856 125.87 90.06L125.893 90.0414C126.05 90.1545 126.209 90.2572 126.366 90.3703L126.345 90.3679C126.233 90.8968 125.946 91.2787 125.444 91.4986L125.441 91.5196C125.485 91.3227 125.517 91.1247 125.577 90.781C125.28 90.8752 125.035 90.8797 124.948 90.9973C123.943 92.2968 122.594 93.3456 122.02 94.9693C121.926 95.1394 121.821 95.3188 121.728 95.4888C121.532 95.7217 121.337 95.9441 121.131 96.1758C121.032 96.3027 120.943 96.4308 120.843 96.5682C120.873 96.5822 120.913 96.6079 120.943 96.6219C121.003 96.4693 121.052 96.3155 121.111 96.1629C121.307 95.93 121.512 95.7088 121.708 95.4759C121.801 95.3059 121.906 95.1266 122.01 94.9577C122.337 94.7925 122.652 94.6261 122.979 94.4609C123.037 94.5098 123.095 94.5588 123.153 94.6078C122.512 95.5021 121.9 96.4209 121.218 97.3001C119.541 99.48 117.686 101.544 116.422 104.015L116.434 104.005C116.368 104.592 116.302 105.19 116.225 105.776C116.122 105.945 116.027 106.125 115.923 106.294C115.756 106.18 115.577 106.065 115.411 105.94C115.363 105.987 115.315 106.035 115.266 106.093C115.456 106.391 115.655 106.7 115.845 106.997L115.859 107.062L115.833 107.006C115.86 106.765 115.887 106.524 115.914 106.283C116.018 106.114 116.112 105.933 116.216 105.764C116.569 106.027 116.922 106.289 117.314 106.577C117.018 107.139 116.751 107.629 116.484 108.119L116.465 108.096C116.68 108.258 116.741 108.764 117.192 108.432L117.201 108.444C117.212 108.254 117.211 108.073 117.221 107.883C117.309 107.861 117.397 107.829 117.485 107.806C117.681 108.232 117.923 108.63 118.076 109.072C118.34 109.845 118.721 110.514 119.436 110.955L119.427 110.943C119.469 111.139 119.424 111.442 119.552 111.53C120.229 112.03 120.422 112.774 120.53 113.518C120.815 115.525 121.617 117.281 122.77 118.928C123.347 119.746 123.752 120.683 124.204 121.583C124.315 121.819 124.303 122.114 124.364 122.429C123.714 122.547 123.427 122.165 123.113 121.843L123.092 121.841C123.488 121.811 123.749 121.66 123.533 121.221C123.284 120.695 122.992 120.174 122.605 119.451C122.401 120.14 122.28 120.561 122.158 120.983L122.161 120.962C121.542 120.893 120.923 120.824 120.308 120.723C119.317 120.57 118.329 120.385 117.496 120.239C116.834 120.558 116.302 120.859 115.744 121.094C114.665 121.536 113.579 121.945 112.491 122.376C111.935 122.6 111.517 122.352 111.093 122.06C110.196 121.44 109.301 120.809 108.378 120.228C107.853 119.893 107.275 119.648 106.805 119.394C105.996 119.696 105.85 120.816 104.86 120.557L104.87 120.558C104.798 120.348 104.726 120.138 104.575 119.686C103.299 121.03 102.584 122.585 101.432 123.772L101.429 123.708L101.454 123.764C100.786 124.613 100.06 125.413 99.4604 126.312C98.6429 127.547 97.9127 128.856 97.1825 130.07C97.1616 129.972 97.1222 129.755 97.0665 129.399C96.3858 129.79 96.1151 130.407 95.7198 130.904C95.3257 131.391 94.9805 131.915 94.6062 132.415L94.6295 132.396C94.5246 132.48 94.4313 132.554 94.3264 132.638L94.3392 132.618L94.3532 132.588ZM86.9591 107.568C86.9497 107.652 86.9392 107.746 86.9298 107.83C87.0451 107.843 87.1488 107.865 87.263 107.889C87.2421 107.791 87.22 107.703 87.2096 107.607C87.2201 107.512 87.2307 107.418 87.2412 107.324C87.3729 107.285 87.5046 107.247 87.6258 107.207C87.6083 107.174 87.5909 107.14 87.5827 107.118C87.479 107.191 87.3636 107.274 87.2598 107.347C87.1666 107.421 87.0733 107.496 86.9708 107.559L86.9591 107.568ZM106.738 108.505L106.714 108.524C106.631 108.514 106.557 108.506 106.473 108.497C105.927 108.952 105.801 109.416 106.095 109.888C106.657 109.515 106.525 108.98 106.465 108.475C106.559 108.485 106.654 108.496 106.738 108.505ZM117.293 109.707L117.304 109.708C117.371 109.864 117.426 110.04 117.491 110.217C117.576 110.311 117.65 110.415 117.735 110.51L117.748 110.575L117.711 110.528C117.637 110.435 117.553 110.33 117.478 110.237C117.413 110.06 117.357 109.894 117.292 109.717L117.293 109.707ZM118.103 111.58L118.114 111.582L118.14 111.627L118.103 111.58ZM117.5 112.224L117.51 112.236C117.499 112.33 117.487 112.435 117.477 112.53C117.477 112.53 117.465 112.539 117.476 112.54C117.487 112.435 117.5 112.32 117.512 112.215L117.5 112.224ZM100.921 92.0693L100.893 92.0343L100.933 92.06C100.933 92.06 100.979 92.1183 100.997 92.1521C100.968 92.1276 100.949 92.1043 100.921 92.0693ZM107.125 102.476L107.134 102.392L107.138 102.456C107.111 102.698 107.084 102.939 107.057 103.18C106.837 102.773 106.63 102.347 106.386 101.969C106.05 101.454 105.68 100.967 105.323 100.46C105.341 100.016 105.209 99.6719 104.76 99.5155C104.27 100.289 104.303 100.558 104.983 101.409C104.964 102.436 105.377 103.3 106.079 104.047C106.064 103.801 106.037 103.565 106.022 103.319C106.318 103.618 106.603 103.915 107.061 104.38C107.071 103.818 107.074 103.5 107.077 103.193C107.19 102.94 107.292 102.697 107.405 102.444C107.443 102.384 107.48 102.336 107.529 102.277C107.491 102.337 107.463 102.397 107.424 102.457C107.329 102.457 107.233 102.457 107.127 102.455L107.125 102.476ZM118.83 86.9376C118.773 86.9737 118.707 86.9981 118.65 87.0342C118.707 86.9981 118.764 86.962 118.821 86.926L118.832 86.9271L118.83 86.9376ZM95.2521 117.901C95.3043 118.098 95.3683 118.285 95.4206 118.482C95.3643 118.985 95.2638 119.505 95.9906 119.746C96.4221 119.114 96.8047 118.446 96.6584 117.665C96.5261 116.95 96.2306 116.269 96.0202 115.587C95.8192 116.531 95.6135 117.516 95.4078 118.502C95.3555 118.305 95.2927 118.107 95.2392 117.921C95.2253 117.855 95.2113 117.79 95.2137 117.769C95.2125 117.78 95.2369 117.846 95.2625 117.902L95.2521 117.901ZM127.365 88.1783C127.282 88.254 127.199 88.3297 127.294 88.2447C127.218 88.353 127.292 88.2552 127.345 88.1655C127.506 88.1516 127.656 88.1366 127.816 88.1332L127.521 87.8242C127.465 87.9454 127.42 88.0677 127.364 88.1888L127.365 88.1783ZM106.695 88.373L106.684 88.3823C106.613 88.162 106.542 87.9418 106.471 87.7215C106.414 87.7576 106.346 87.7925 106.289 87.8286C106.428 88.0139 106.567 88.1888 106.695 88.373ZM106.792 85.3264L106.768 85.345C106.702 84.9873 106.648 84.6203 106.142 84.585C106.045 85.1686 106.382 85.2912 106.781 85.3253L106.792 85.3264ZM103.612 81.9561C103.23 81.4781 102.849 81.0002 102.466 80.5328L102.489 80.5141C102.512 81.2598 102.791 81.8006 103.604 81.9339L103.645 81.8536L103.613 81.9456L103.612 81.9561ZM113.766 93.4947C114.464 93.1375 115.124 92.7441 115.401 91.5967C114.164 92.4033 113.145 93.0643 111.944 93.843C112.34 94.004 112.513 94.0659 112.686 94.1382C112.387 94.8479 112.519 95.3439 113.082 95.6263C113.668 95.0336 113.958 94.3441 113.766 93.4947ZM103.553 100.527C103.548 99.7197 102.983 99.7415 102.521 99.9765C101.824 100.323 101.102 100.71 100.954 101.648C100.907 101.972 100.653 102.252 100.492 102.552C100.389 101.957 100.395 101.427 99.6122 101.594L99.6227 101.595C99.4666 101.567 99.2371 101.435 99.1893 101.483C98.287 102.338 97.6788 104.17 98.8815 105.281C99.3197 105.16 99.7788 105.041 100.239 104.912C100.116 105.345 99.8751 105.604 99.6151 105.841C99.3528 106.098 99.0812 106.344 98.8096 106.589C98.4981 107.191 98.2391 107.799 98.5753 108.495L98.7898 106.576C98.8188 106.696 98.8782 106.83 98.8653 106.946C98.6381 108.598 99.5872 109.319 100.999 109.7C101.288 109.775 101.563 109.88 101.838 109.985C102.45 110.202 102.983 110.187 103.41 109.598C103.524 109.43 103.727 109.326 103.879 109.194L103.856 109.213C104.38 108.518 104.854 107.785 105.424 107.148C105.908 106.618 106.009 106.003 105.808 105.429C105.414 104.302 104.876 103.223 104.404 102.13L104.414 102.131C104.471 101.436 103.978 100.999 103.575 100.519L103.565 100.518L103.553 100.527ZM94.5812 105.384C94.4424 105.676 93.6071 105.551 94.1146 106.234C94.2171 106.362 94.077 106.761 93.9382 106.958C93.7621 107.203 93.4673 107.372 93.1852 107.617C93.7277 108.176 94.2136 108.103 94.7485 107.876C95.066 107.031 95.1014 106.238 94.5917 105.385L94.5812 105.384ZM97.3041 117.302C97.4054 117.345 97.508 117.378 97.6093 117.421C97.972 116.931 98.3334 116.451 98.6751 115.959C98.8909 115.643 99.1008 115.284 98.6455 114.989C98.2204 114.708 97.6832 114.86 97.5396 115.386C97.3749 116.004 97.3756 116.663 97.3041 117.302ZM92.3843 116.964C93.5104 114.298 93.5759 113.807 92.8691 113.292C92.2905 114.385 92.5099 115.556 92.3843 116.964ZM96.6452 106.103C96.7186 106.111 96.7897 106.14 96.8526 106.147L96.9276 105.476C96.8542 105.468 96.7808 105.46 96.7179 105.453L96.6464 106.093L96.6452 106.103ZM93.2309 122.781C93.0887 122.914 92.9977 122.967 92.9569 123.048C92.9301 123.098 92.9836 123.189 93.0069 123.265C93.0954 123.233 93.2446 123.228 93.2726 123.168C93.3122 123.098 93.2622 122.976 93.2309 122.781ZM95.6377 114.451C95.5619 114.464 95.4967 114.478 95.4209 114.491C95.457 114.643 95.493 114.796 95.5395 114.95L95.7026 114.915C95.6876 114.765 95.662 114.613 95.647 114.463L95.6377 114.451ZM93.614 114.416C93.6769 114.423 93.7398 114.43 93.8027 114.437L93.8801 113.745L93.6599 113.721C93.6434 113.963 93.6281 114.195 93.6128 114.427L93.614 114.416ZM90.9863 116.84C90.9234 116.833 90.871 116.827 90.8069 116.831C90.7986 116.999 90.7904 117.168 90.7833 117.327C90.8462 117.334 90.8986 117.34 90.9627 117.336C90.971 117.167 90.9792 116.998 90.9863 116.84ZM108.39 106.832C108.242 106.731 108.158 106.626 108.054 106.604C107.991 106.597 107.859 106.741 107.861 106.815C107.851 106.899 107.957 106.996 108.021 107.088C108.102 107.034 108.194 106.97 108.4 106.833L108.39 106.832ZM93.273 119.081C93.273 119.081 93.188 118.986 93.1507 118.94C93.1263 118.969 93.0692 119.005 93.0785 119.017C93.1145 119.074 93.1518 119.12 93.189 119.167C93.2135 119.138 93.2368 119.119 93.2835 119.082L93.273 119.081ZM105.804 108.125L105.833 108.054L105.757 108.067L105.804 108.125ZM91.9101 99.6501L91.9881 99.7119L91.9999 99.6071L91.9101 99.6501ZM117.558 87.5915L117.635 87.5683L117.576 87.5193L117.567 87.6032L117.558 87.5915ZM86.5724 122.992C86.5724 122.992 86.5642 123.065 86.57 123.109C86.6155 123.082 86.6609 123.055 86.6866 123.015C86.6878 123.005 86.661 122.959 86.6435 122.926C86.6191 122.955 86.5957 122.973 86.5713 123.003L86.5724 122.992ZM105.465 83.6176C105.405 83.5791 105.356 83.5417 105.297 83.5032C105.283 83.5335 105.245 83.5929 105.254 83.6046C105.302 83.6524 105.362 83.6804 105.422 83.7189C105.425 83.6874 105.451 83.6478 105.465 83.6176ZM96.4285 107.947L96.4739 108.016L96.5135 107.946L96.4296 107.937L96.4285 107.947ZM87.5617 119.366L87.5828 119.177L87.4884 119.167C87.4814 119.229 87.4743 119.292 87.4673 119.355L87.5722 119.367L87.5617 119.366ZM105.402 110.67L105.47 110.635L105.41 110.597L105.402 110.67ZM108.055 87.7925L108.064 87.7191L108.009 87.7342L108.055 87.7925ZM94.5255 84.3267C94.5184 84.3896 94.5126 84.442 94.4951 84.5038C94.5196 84.4747 94.5743 84.4595 94.5778 84.4281C94.5814 84.3966 94.5534 84.3617 94.5255 84.3267Z" fill="#F9C74F"/>
<path d="M56.9918 49.9184C56.1454 50.8429 55.2581 51.7522 54.4501 52.7128C53.0416 54.3919 51.6436 56.0721 50.3224 57.8247C49.1773 59.3315 48.13 60.9129 47.0827 62.4944C46.5474 63.2944 46.1006 64.1574 45.6247 64.9959L45.6154 64.9843C45.6956 65.2162 45.7654 65.4469 45.9165 65.8991C46.7701 64.8161 47.5443 63.873 48.131 62.8027C48.9172 61.3725 49.8211 60.0298 51.1243 59.0077L51.1138 59.0066C50.5593 60.6431 49.4761 61.9764 48.5407 63.4111C48.3215 63.7581 48.1418 64.1308 47.9528 64.4919C47.3838 65.2138 46.7437 65.9066 46.2736 66.6927C46.0392 67.0805 45.9841 67.6688 46.07 68.1349C46.2057 68.9144 46.514 69.6708 46.7686 70.4317C47.3476 72.1844 47.9267 73.937 48.5278 75.6815C48.722 76.2234 49.0258 76.735 49.2642 77.2607C49.79 78.4447 50.3916 79.616 50.7741 80.8477C50.938 81.3756 50.6078 82.0499 50.5084 82.6545C50.4666 82.4588 50.4341 82.2747 50.3923 82.0789C50.3363 82.1045 50.2699 82.129 50.214 82.1546C50.3129 82.3142 50.4223 82.4751 50.5212 82.6347C50.4793 82.6301 50.4338 82.6568 50.4035 82.6428C49.9528 82.4013 49.5208 82.0877 49.0386 81.9382C48.5773 81.7911 48.053 81.828 47.5602 81.7729L47.5707 81.7741C47.4381 81.4408 47.2974 81.0854 47.1671 80.7311L47.1788 80.7218C46.6784 81.5894 46.288 81.7581 45.5042 81.2671C44.3536 80.544 43.1575 80.0387 41.7968 79.8654C41.3879 79.8196 41.0188 79.4175 40.6567 79.1434C40.1967 78.7948 39.7624 78.4065 39.3258 78.0392L39.3351 78.0509C38.5994 77.0345 38.589 77.0333 37.6297 77.6373C37.4246 77.763 37.2276 77.9108 37.0306 78.0587C37.0062 77.9922 36.9817 77.9258 36.9678 77.8605C36.8979 77.9164 36.8279 77.9723 36.758 78.0282C36.5328 78.5232 36.2971 79.017 36.0719 79.512L36.0603 79.4258L36.0836 79.5027C35.4087 80.0323 35.0028 80.7195 34.5898 81.4695C33.8654 82.8216 32.8801 84.0384 32.0742 85.3602C31.2939 86.6425 30.5823 87.9748 29.9022 89.3107C29.698 89.7125 29.7233 90.2461 29.611 90.966C30.0727 90.4444 30.328 90.1545 30.6312 89.8168C31.9002 91.0946 31.4322 92.3374 30.8569 93.7805C30.6043 93.3807 30.4414 93.1289 30.2796 92.8667C30.767 92.2099 30.7477 91.5283 30.4338 90.5378C30.1034 91.4988 30.1647 92.185 30.2994 92.8795C29.9824 92.9608 29.655 93.041 29.2833 93.1375C29.1751 92.9661 29.0599 92.7622 28.9342 92.557C28.8666 92.5919 28.7687 92.6128 28.7302 92.6722C28.6159 92.8399 28.5598 93.1521 28.4281 93.1905C27.2768 93.5182 27.1165 94.477 26.9143 95.431C26.7133 96.3746 26.7157 96.3536 25.6834 96.3762C25.3642 96.383 25.0402 96.5273 24.7232 96.6086C23.8574 96.8515 23.374 96.7125 22.9097 95.9282C22.4628 95.1776 21.876 94.6342 21.1027 94.2399C20.2699 93.8071 19.8699 92.7327 20.1501 91.8404C20.291 91.4032 20.1809 91.0265 19.82 90.7101C20.2838 88.745 20.7208 86.8299 21.1893 84.9183C21.2676 84.598 21.4693 84.3127 21.6198 84.0111L21.5989 84.0087C21.6081 84.1159 21.6162 84.2336 21.6207 84.4783C22.4417 83.3068 23.1997 82.2238 23.9577 81.1408C23.9482 81.4157 23.9492 81.6918 23.9397 81.9668C23.9933 81.9622 24.0469 81.9575 24.1005 81.9529C24.0447 81.6919 24.0006 81.4216 23.9449 81.1606C23.9707 80.9299 23.9976 80.6887 24.0234 80.4581C24.0771 80.3579 24.1412 80.2589 24.0759 80.3684C24.1202 80.2566 24.0759 80.3684 24.0315 80.4802L23.7567 80.3752L23.7672 80.3764C23.198 79.5802 23.4936 78.3606 22.3407 77.5629C22.4162 77.9323 22.4533 78.0745 22.48 78.2155L22.5022 78.2073C21.6443 78.759 22.2415 79.4945 22.2494 79.8988C21.8201 80.7956 21.4899 81.47 21.0734 82.347C21.0923 81.8926 21.0902 81.627 21.109 81.3637C21.2938 78.5712 22.1845 75.9213 22.7223 73.2001C22.8882 72.38 23.024 71.5459 23.1072 70.7059C23.1963 69.9091 23.0124 69.655 22.1713 69.4866C20.9773 69.247 19.7623 69.1006 18.5647 68.8924C17.7213 68.745 16.7927 68.7898 16.071 67.9342C16.4031 67.8121 16.6478 67.712 17.0033 67.5713C16.7902 67.3882 16.6459 67.1598 16.4607 67.1072C14.5375 66.6481 12.6072 66.2518 10.8148 65.3826C9.90866 64.9416 9.00371 64.4902 8.18622 63.9211C7.17075 63.2237 7.17479 62.4279 8.17956 61.7016C10.1996 60.2501 12.2277 58.8208 14.3118 57.4614C18.0113 55.0406 21.7283 52.6536 25.472 50.312C26.5793 49.6183 27.0972 48.689 27.2484 47.432C27.3597 46.4359 27.5771 45.4411 27.7677 44.3053C28.0414 44.5164 28.2067 44.6516 28.3733 44.7764C28.9481 44.002 29.2486 40.7447 28.9542 38.44L28.9635 38.4517C28.4526 37.609 28.4853 37.5065 29.3242 37.4092C29.5072 37.3872 29.6855 37.3116 29.8707 37.2686L29.8603 37.2674C30.2877 37.432 30.4231 37.0756 30.6609 36.8474C31.5306 35.9998 32.0082 36.0956 32.5434 37.1958C33.2252 38.599 34.3186 39.4537 35.8528 39.7845C36.1743 39.8523 36.4887 40.1741 36.7005 40.4631C36.9391 40.7977 37.0507 41.2241 37.2427 41.5959C37.6208 42.2964 38.0809 42.454 38.8139 42.1644C39.0913 42.0574 39.3512 41.9166 39.6018 41.7641C41.6438 40.5911 43.7323 39.4764 45.7196 38.223C47.8432 36.8892 50.1867 36.0578 52.4464 35.0259C53.2855 34.642 54.1514 34.3035 54.9905 33.9196C56.0207 33.4403 57.0168 33.5517 58.093 33.9904C57.9659 34.1779 57.8784 34.2956 57.7898 34.4236C57.8364 34.4819 57.8887 34.5833 57.9412 34.5892C58.6261 34.7294 59.1875 35.0258 59.6694 35.5573C60.1526 36.0785 60.729 36.525 61.2856 36.9588C61.8725 37.4066 62.3347 37.9254 62.5637 38.6304L62.5544 38.6187C62.778 38.8029 62.9771 39.0163 63.2263 39.1609C64.0334 39.6333 64.1624 39.9981 63.902 40.9031C63.2247 43.2584 61.8731 45.188 60.2618 46.9718C59.9831 47.2804 59.7324 47.6239 59.4246 47.908C59.0003 48.2852 58.5189 48.6029 58.0748 48.9673C57.6889 49.2851 57.3322 49.6274 56.9662 49.958L56.9778 49.9487L56.9918 49.9184ZM39.8937 47.7946L39.8844 47.783L39.8948 47.7842L39.8937 47.7946ZM23.6386 58.451L23.6304 58.4289L23.9322 58.4838C24.0706 58.7647 24.2475 58.9862 24.5646 58.7138C24.6113 58.6765 24.4891 58.4399 24.4414 58.2966C24.5289 58.179 24.6047 58.0707 24.6921 57.9531C24.6537 57.9169 24.6165 57.8703 24.5676 57.833C24.3612 57.9692 24.1666 58.096 23.9603 58.2322C23.8565 58.3055 23.754 58.3684 23.6502 58.4417L23.6386 58.451ZM24.5131 78.1667L24.5224 78.1784L24.5119 78.1772L24.5131 78.1667ZM15.9511 59.1309L15.9418 59.1192L15.9522 59.1204L15.9511 59.1309ZM15.1387 59.5603C15.0455 59.6348 14.9522 59.7093 14.8473 59.7931C14.7541 59.8676 14.6608 59.9421 14.5664 60.0271C13.6132 60.2921 12.7845 60.7727 12.1176 61.5155L12.0744 61.6169C12.0744 61.6169 12.1036 61.5458 12.1176 61.5155C13.108 61.2972 13.8727 60.7245 14.5675 60.0166C14.6608 59.9421 14.7541 59.8676 14.8485 59.7826C14.9417 59.7081 15.035 59.6336 15.1399 59.5498L15.1492 59.5614L15.1387 59.5603ZM31.4233 84.8204L31.3766 84.8576L31.4046 84.7971L31.4151 84.7982L31.4233 84.8204ZM36.269 68.8227L36.2224 68.86L36.2504 68.7994L36.2609 68.8006L36.269 68.8227ZM20.532 59.1759C20.532 59.1759 20.5052 59.226 20.4924 59.2458C20.4959 59.2144 20.5099 59.1841 20.5227 59.1643C20.616 59.0898 20.7209 59.0059 20.8142 58.9314C22.1262 58.6853 23.1194 57.8728 24.1603 57.1081C24.5053 56.8706 24.8608 56.6344 25.2058 56.3969C25.2291 56.3783 25.2641 56.3503 25.2874 56.3317C25.2688 56.3084 25.2408 56.2734 25.2408 56.2734C25.2082 56.2804 25.1837 56.3095 25.1604 56.3281C24.7875 56.5306 24.4157 56.7226 24.0322 56.9239C22.9704 57.5908 21.8969 58.2669 20.8351 58.9338C20.7419 59.0083 20.637 59.0921 20.5437 59.1666L20.532 59.1759ZM21.188 55.6824L21.1274 55.7499L21.1682 55.6695L21.1787 55.6707L21.188 55.6824ZM44.8311 58.3255C44.9349 58.1566 45.027 57.997 45.1309 57.8282C45.1693 57.7688 45.2067 57.7199 45.2451 57.6605C45.2067 57.7199 45.1787 57.7804 45.1402 57.8398C45.0364 58.0087 44.9442 58.1682 44.8404 58.3371L44.8311 58.3255ZM41.2956 49.0236C41.3049 48.9397 41.3038 48.8546 41.3027 48.7696C42.2492 48.0898 43.1584 47.3634 44.1329 46.7187C45.3241 45.9389 46.4758 44.9424 47.8031 44.56C49.1525 44.1694 49.7403 43.2797 50.369 42.2141C48.7933 42.919 47.2619 43.7033 45.8352 44.6903L45.8457 44.6914C43.74 45.2947 42.2081 46.8432 40.426 47.9709C40.278 48.0605 40.1857 48.4112 40.2275 48.6069C40.3204 49.0101 40.6653 49.0592 41.0241 48.9826C41.1185 48.9931 41.2024 49.0025 41.2967 49.0131L41.2956 49.0236ZM21.911 87.5787L22.3632 87.332L22.2212 87.1781C22.1209 87.3155 22.0195 87.4634 21.9192 87.6008C21.8632 87.7219 21.7967 87.8419 21.7395 87.9735C21.7814 87.9782 21.8222 87.9934 21.863 88.0086C21.8782 87.8723 21.8946 87.7254 21.9099 87.5891L21.911 87.5787ZM42.9479 43.359C42.5832 43.3925 42.2255 43.4587 42.0295 43.9782C42.5631 43.9529 42.7928 43.7026 42.9386 43.3473L42.9491 43.3485L42.9479 43.359ZM45.742 56.9198C46.0474 56.6567 46.4332 56.4345 46.6606 56.1096C47.5783 54.8321 48.4367 53.5162 49.3242 52.2247C49.7275 51.9407 50.21 51.708 50.5259 51.3506C51.8516 49.8427 53.1389 48.2987 54.4168 46.743C54.9077 46.1504 55.3614 45.5111 55.8231 44.8939C55.4084 44.9006 55.096 45.0355 54.9002 45.2684C53.1127 47.3934 51.3462 49.5208 49.5774 51.6692C49.4538 51.8252 49.4187 52.0442 49.3335 52.2364C48.9605 52.5344 48.5874 52.8324 48.2028 53.1397L48.2144 53.1304C47.9112 53.5636 47.5975 53.9956 47.3036 54.4405C46.7765 55.2626 46.2575 56.107 45.7396 56.9408L45.721 56.9175L45.742 56.9198ZM46.8249 54.2596C46.713 54.3108 46.5616 54.3363 46.4893 54.4131C45.4177 55.7371 44.3449 57.0715 43.292 58.4188C43.243 58.477 43.3326 58.625 43.3802 58.8639C43.6612 58.6299 43.9118 58.4775 44.0739 58.262C44.7572 57.3724 45.4417 56.4723 46.0866 55.5465C46.3758 55.1436 46.5765 54.6777 46.8168 54.2374C46.8599 54.2316 46.903 54.2258 46.9368 54.2084C46.9589 54.2002 46.9438 54.1455 46.9473 54.114C46.91 54.1629 46.8634 54.2002 46.8261 54.2491L46.8249 54.2596ZM43.6584 50.5828C44.1842 50.1533 44.7111 49.7133 45.3883 49.1626C43.6629 49.1184 41.5919 50.1713 41.0121 51.2743C41.7333 51.185 42.4324 51.104 43.121 51.0217C42.72 51.3803 42.3271 51.761 41.9273 52.1091C41.257 52.6923 41.2032 52.9836 41.6289 54.0184C41.848 53.958 42.1975 53.9652 42.2885 53.8161C42.8588 52.8926 43.3686 51.9411 43.8795 50.9791C43.9204 50.8988 43.7399 50.7087 43.6713 50.5631L43.6584 50.5828ZM51.1615 53.927C51.4622 53.7058 51.8224 53.5231 52.0451 53.2401C54.0519 50.6725 56.0482 48.1038 58.0259 45.5117C58.1739 45.3265 58.2254 45.0563 58.3141 44.8326L58.3642 44.7639L58.3339 44.8455C58.0774 45.0504 57.7616 45.2167 57.5738 45.4718C55.4341 48.2793 53.3129 51.1101 51.1825 53.9293L51.1545 53.9899L51.1743 53.9071L51.1615 53.927ZM30.1746 61.8038C29.8978 62.8556 29.621 63.9075 29.3546 64.9606C29.1981 65.6012 29.5974 66.0174 29.9699 66.5792C30.678 65.1828 30.7395 63.7778 30.8581 62.4322C30.9802 61.0552 31.8525 59.8045 31.5566 58.0835C31.2287 58.8324 31.0745 59.3566 30.7911 59.8026C30.3923 60.4268 30.2008 61.0954 30.163 61.8131L30.1735 61.8143L30.1746 61.8038ZM21.2827 63.8565C21.723 64.0013 22.2042 63.8746 22.5814 64.3944C22.8666 64.7873 23.8291 64.5339 24.1009 64.0017C24.4544 63.3087 24.6588 62.5247 24.9016 61.7769C24.932 61.6954 24.7258 61.545 24.6234 61.4167L24.6222 61.4272C24.6935 61.1698 24.8987 60.853 24.801 60.6829C24.7044 60.5022 24.2781 60.3272 24.0905 60.3912C22.452 60.9936 20.7681 61.5272 19.3437 62.5887C19.1817 62.7086 19.1501 62.9917 19.0357 63.255C19.9104 63.5969 20.6654 63.5858 21.4101 63.1913C21.7376 63.0156 22.0919 62.8853 22.438 62.733L22.4275 62.7318C22.0568 63.1044 21.6849 63.4874 21.313 63.8705L21.3025 63.8693L21.2827 63.8565ZM28.514 71.1511C28.369 71.878 28.2439 72.5222 28.1083 73.1652C28.5362 72.7566 28.8289 72.3222 29.0902 71.8843C29.327 71.4755 29.1255 71.2832 28.514 71.1511ZM29.2875 45.2396C29.2875 45.2396 29.3609 45.2478 29.4028 45.2524L29.6068 43.4281C29.6068 43.4281 29.5334 43.4199 29.4915 43.4152L29.2875 45.2396ZM18.9461 68.2344C19.0557 68.1086 19.1408 68.012 19.2376 67.906C19.1491 67.8431 19.0479 67.7043 18.9721 67.7171C18.8521 67.7461 18.7542 67.8626 18.6388 67.9452C18.7156 68.0175 18.8029 68.091 18.9473 68.2239L18.9461 68.2344ZM25.0282 64.0629C25.1121 64.0723 25.2053 64.0933 25.288 64.1131L25.3759 63.3268C25.3025 63.3186 25.2396 63.3115 25.1662 63.3033C25.1171 63.5526 25.068 63.8019 25.0282 64.0629ZM32.8638 82.285L33.1154 82.4087L33.2824 81.8647C33.2311 81.8484 33.1705 81.8203 33.1193 81.804C33.0376 81.9647 32.956 82.1255 32.8638 82.285ZM22.1965 68.4067C22.2723 68.3939 22.3375 68.3799 22.4133 68.3672C22.3784 68.2996 22.3458 68.211 22.2957 68.1842C22.2456 68.1574 22.1559 68.2004 22.0802 68.2132C22.1151 68.2808 22.1616 68.3391 22.1965 68.4067ZM23.0173 76.2585C23.0173 76.2585 23.0767 76.2015 23.1012 76.1724C23.0418 76.1339 22.9836 76.0849 22.9231 76.0569C22.9126 76.0557 22.8741 76.1151 22.8391 76.1431C22.8985 76.1815 22.9579 76.2201 23.0173 76.2585ZM23.7513 76.245C23.813 76.2625 23.8643 76.2789 23.926 76.2964C23.9401 76.1706 23.9332 76.0424 23.9368 75.9155C23.8948 75.9108 23.8634 75.9073 23.8214 75.9026C23.798 76.0167 23.7758 76.1204 23.742 76.2334L23.7513 76.245ZM21.0228 89.921C21.0228 89.921 21.0415 89.8488 21.0346 89.8162C21.0264 89.794 20.9728 89.7987 20.9425 89.7846C20.9367 89.8371 20.9297 89.9 20.9238 89.9524C20.9576 89.935 20.9902 89.928 21.024 89.9105L21.0228 89.921ZM24.5862 75.1388C24.5862 75.1388 24.5932 75.0759 24.5979 75.034C24.5537 75.0502 24.5082 75.077 24.4639 75.0933C24.4825 75.1166 24.4895 75.1492 24.507 75.183C24.5303 75.1644 24.5641 75.147 24.5862 75.1388ZM34.8373 63.3972L34.807 63.4788L34.8944 63.4567L34.8385 63.3867L34.8373 63.3972ZM23.8268 78.228C23.8746 78.1803 23.9096 78.1524 23.9458 78.1139C23.9143 78.1104 23.884 78.0964 23.8537 78.0824C23.8502 78.1139 23.8455 78.1558 23.828 78.2175L23.8268 78.228ZM23.32 85.2309L23.3083 85.3357L23.3887 85.281L23.32 85.2309ZM31.4227 83.971L31.3598 83.964L31.3935 84.0421L31.4332 83.9722L31.4227 83.971ZM25.6674 52.5525L25.6371 52.6341L25.7128 52.6213L25.6569 52.5513L25.6674 52.5525ZM23.205 86.4494L23.2668 86.3714L23.1829 86.3621L23.205 86.4494ZM21.8268 55.1911L21.85 55.268L21.9002 55.1993L21.8268 55.1911Z" fill="#F9C74F"/>
<path d="M104.718 46.6125C104.355 46.8266 103.99 47.0512 103.626 47.2653L103.65 47.2467C103.545 47.3305 103.44 47.4144 103.346 47.4889C102.816 47.6737 102.295 47.8703 101.765 48.0552L101.773 48.0773C101.668 48.1611 101.575 48.2356 101.47 48.3194L101.45 48.3066C100.712 48.362 100.262 48.8743 99.822 49.3878L99.8314 49.3995C99.6893 49.3412 99.4831 49.1907 99.4039 49.235C98.8001 49.6027 98.2336 50.0171 97.6473 50.4186L97.659 50.4093C97.1243 50.3495 96.9295 50.6675 96.857 51.1265L96.7836 51.1182L96.8488 51.1043C97.3287 51.2747 97.2213 51.5706 97.0161 51.8874C96.9589 51.9234 96.9112 51.9711 96.854 52.0072C96.9018 51.9595 96.9496 51.9118 96.9963 51.8745C97.2837 52.3419 97.245 52.7834 96.7659 53.0802C94.077 54.7223 91.721 56.9005 88.6841 57.9517C87.3696 58.4099 86.0646 58.6886 84.5213 58.0596C85.2313 57.4064 85.8585 56.829 86.4961 56.2528C86.4519 56.1735 86.4077 56.0942 86.3518 56.0243C85.9952 56.1755 85.6293 56.3151 85.282 56.478C84.8566 56.6746 84.4803 56.7174 84.1438 56.3082C83.6666 55.7347 83.1632 55.774 82.6049 56.2105C82.1514 56.5632 81.6691 56.5093 81.1952 56.1909C80.9588 56.0265 80.6968 55.8061 80.4428 55.799C79.7018 55.7798 79.8433 55.0844 79.4859 54.6729C79.049 54.6877 78.5596 54.6967 77.8361 54.7114C78.1322 54.4366 78.2477 54.2584 78.4027 54.2015C79.1532 53.9456 79.5695 53.3552 80.1069 52.8208C82.2789 50.6751 82.8599 47.757 84.0325 45.1492C85.4012 42.1175 86.5671 38.9994 87.8147 35.9117C87.845 35.8302 87.8742 35.7591 87.9045 35.6776C88.46 34.3172 88.4357 34.1552 87.0204 33.7104C85.0309 33.0846 83.2281 32.1187 81.4054 31.1399C80.3339 30.5637 79.14 30.2285 78.03 29.7117C76.0023 28.7631 75.7918 28.1769 76.5634 26.0233C76.6089 25.9009 76.6637 25.7903 76.708 25.6785L76.7314 25.6599C77.1824 25.4237 77.5997 25.1094 78.0705 24.9816C80.0176 24.4667 81.9602 23.8983 83.9386 23.5781C86.9891 23.0699 90.0744 22.7247 93.1504 22.368C93.9672 22.2788 94.4428 21.9179 94.7963 21.225C95.0412 20.7428 95.4062 20.3271 95.7106 19.8835L95.7199 19.8951C95.9125 19.3116 96.0259 18.6766 96.3082 18.1456C97.2449 16.4138 98.2317 14.7088 99.2185 13.0038C99.9394 11.7786 100.994 10.8881 102.209 10.1852C102.753 9.87449 103.397 9.80854 103.889 10.1607C104.979 10.9514 106.138 11.6011 107.377 12.1005C108.879 12.7144 109.86 13.9174 110.767 15.1972C110.721 15.2345 110.675 15.2612 110.653 15.2694C110.666 15.2496 110.713 15.2123 110.749 15.1739C111.587 16.032 112.245 16.9866 112.414 18.2263C112.468 18.5933 112.652 18.943 112.771 19.3066C113.26 20.8156 114.072 21.6282 115.877 21.5327C117.489 21.4476 119.149 21.7924 120.759 22.1104C122.474 22.4401 124.004 23.1844 125.281 24.4843C125.882 25.0929 126.704 25.5245 127.487 25.9305C128.349 26.3878 129.152 26.8916 129.789 27.6528C130.266 28.2264 130.873 28.687 131.422 29.1941C131.941 29.6768 132.104 30.3107 131.698 30.9023C130.821 32.1949 129.818 33.378 128.441 34.2007C126.599 35.3005 124.746 36.399 122.904 37.4883C122.211 37.8991 121.529 38.3006 120.836 38.7009C120.655 38.8079 120.454 38.8917 120.291 39.0221C119.266 39.8311 118.888 40.3621 119.927 41.7096C121.112 41.1734 122.31 40.6172 123.519 40.0623L123.509 40.0507C122.733 40.5371 121.973 41.0679 121.161 41.4973C120.101 42.0476 119.961 42.2549 120.346 43.3701C120.674 44.3304 121.091 45.258 121.387 46.2147C121.673 47.1703 121.861 48.1467 122.08 49.0416C121.042 49.8705 120.058 48.9855 119.085 49.3332C119.195 49.5896 119.289 49.7912 119.442 50.1269C118.797 49.8212 118.272 49.582 117.75 49.3113C116.345 48.5811 114.954 47.831 113.549 47.1008C113.438 47.0459 113.316 47.0004 113.192 46.9758C112.007 46.7478 110.815 46.4872 109.625 46.3117C109.29 46.2637 108.916 46.4766 108.556 46.5638L108.564 46.5859C108.554 46.3937 108.543 46.2015 108.527 45.775C107.75 46.1765 107.12 46.4987 106.479 46.8199L106.497 46.8432C106.431 46.581 106.365 46.3188 106.299 46.0566L106.31 46.0473C105.947 46.2614 105.583 46.4756 105.219 46.6897C105.04 46.6803 104.862 46.6603 104.683 46.6404L104.718 46.6125ZM96.7232 31.7165L96.7139 31.7048L96.7244 31.706L96.7232 31.7165ZM91.8805 36.2919L91.8712 36.2803L91.8816 36.2814L91.8805 36.2919ZM97.828 46.9038C97.7347 46.9783 97.6415 47.0528 97.5482 47.1273C97.5167 47.1238 97.4853 47.1202 97.4515 47.1377C97.4293 47.1458 97.4258 47.1773 97.4118 47.2076C97.4573 47.1808 97.4923 47.1529 97.5377 47.1261C97.631 47.0516 97.7242 46.9771 97.8175 46.9026L97.8268 46.9142L97.828 46.9038ZM96.4573 47.7697C96.364 47.8442 96.2708 47.9186 96.1775 47.9931C95.688 48.1932 95.1637 48.3257 94.7091 48.5933C93.8105 49.1298 92.9678 49.7363 92.0971 50.3077C91.8208 50.4998 91.4654 50.6405 91.7074 51.1346C91.8346 50.8516 91.9618 50.5686 92.0889 50.2856C92.4525 50.2625 92.8788 50.342 93.1818 50.1954C94.3053 49.6416 95.4603 49.0913 96.1799 47.9722C96.2731 47.8977 96.3664 47.8232 96.4608 47.7382L96.4701 47.7498L96.4573 47.7697ZM83.0243 49.3253L83.0347 49.3265C83.0254 49.4104 83.0148 49.5047 83.0147 49.6002C82.876 49.797 82.7267 49.9927 82.5891 50.179C82.6497 50.207 82.7102 50.235 82.7708 50.263C82.849 50.0382 82.9272 49.8134 83.0054 49.5886C83.0148 49.5047 83.0242 49.4208 83.0243 49.3253ZM95.5602 51.2362C95.5508 51.3201 95.5298 51.4133 95.5099 51.496C95.4178 51.6556 95.3163 51.8035 95.2241 51.963L95.2148 51.9514C95.3058 51.8023 95.4061 51.6649 95.4971 51.5158C95.5076 51.4215 95.5182 51.3271 95.5404 51.2234L95.559 51.2467L95.5602 51.2362ZM118.538 44.0703L118.529 44.1437L118.536 44.0807L118.511 44.0248L118.548 44.0715L118.538 44.0703ZM94.3755 38.8532L94.4233 38.8055L94.3941 38.8765L94.3836 38.8754L94.3755 38.8532ZM93.1721 54.2708L93.1173 54.2859L93.1628 54.2591L93.1733 54.2603L93.1721 54.2708ZM101.376 19.8162C101.265 20.048 101.144 20.2786 101.033 20.5103L101.023 20.5092C101.135 20.2669 101.256 20.0363 101.367 19.8045L101.395 19.744L101.387 19.8174L101.376 19.8162ZM97.6329 30.3213L97.6434 30.3225C97.7121 30.3727 97.7889 30.445 97.8553 30.5161C97.8798 30.487 97.8926 30.4671 97.9171 30.438C97.8262 30.396 97.7237 30.3633 97.6317 30.3318L97.6329 30.3213ZM93.343 53.0266C93.4165 52.9393 93.4795 52.8508 93.392 52.9684C93.4503 52.8263 93.4072 52.9277 93.3628 53.0395L93.2894 53.0313L93.3523 53.0383L93.343 53.0266ZM90.9708 37.687C90.8181 37.723 90.6643 37.7695 90.5012 37.8044C90.5256 37.8708 90.5605 37.9384 90.5861 37.9944C90.7155 37.8814 90.8437 37.779 90.9731 37.6661C90.9975 37.828 91.0125 37.9783 91.0566 38.2487C91.3656 37.8586 91.5079 37.6303 90.9708 37.687ZM94.0926 43.6624C94.4935 43.4949 94.7756 43.2504 94.5173 42.712C94.3855 43.037 94.2431 43.3607 94.1113 43.6857C94.0437 43.7206 93.9865 43.7567 93.919 43.7916C93.9585 43.8172 94.0075 43.8546 94.047 43.8802C94.0553 43.8068 94.0635 43.7334 94.0821 43.6612L94.0926 43.6624ZM89.4509 42.1668C88.8389 42.608 88.6905 43.2708 88.5211 43.9313C88.6027 43.9616 88.683 44.0025 88.7646 44.0328C88.9828 43.4096 89.2128 42.7771 89.4311 42.154C89.4486 42.0922 89.4661 42.0305 89.4836 41.9688C89.4766 42.0317 89.4579 42.1039 89.4404 42.1657L89.4509 42.1668ZM92.6659 43.0358C92.0422 43.4863 91.9777 44.1585 91.8736 44.805C91.9551 44.8353 92.0273 44.854 92.1089 44.8844C92.2957 44.2577 92.4709 43.6403 92.6577 43.0136L92.695 42.9647L92.6868 43.0381L92.6659 43.0358ZM101.568 29.2113L101.556 29.2207C101.32 29.3428 100.983 29.4113 100.865 29.6105C100.641 29.9995 100.526 30.4643 100.372 30.8929C100.082 31.1048 99.8039 31.3178 99.5148 31.5296C99.6958 30.8598 99.8664 30.1889 100.047 29.5191C99.2663 30.3341 98.6525 31.8366 98.6357 32.5566C98.9412 32.198 99.235 31.8486 99.5276 31.5098C99.4002 32.175 98.9 32.756 99.0754 33.5612C100.133 32.6496 100.455 31.9532 100.352 30.8801C101.078 30.5578 101.283 29.8589 101.568 29.2113ZM89.0691 52.0393L89.0807 52.03C88.956 52.1965 88.83 52.3735 88.6166 52.6681C90.1292 52.1472 90.2796 52.0366 90.6762 51.2423C90.0807 51.5367 89.5749 51.788 89.0691 52.0393ZM99.0147 40.6564L99.003 40.6657C99.1219 40.6471 99.2524 40.6192 99.3712 40.6007C99.8979 40.5428 100.411 40.4196 100.522 39.8057C100.64 39.1289 99.9816 39.0341 99.6078 38.7694C99.2235 38.5035 98.739 38.2795 98.3414 38.7021C97.3691 39.7081 96.8696 40.9473 96.6497 42.3453C97.2789 42.129 97.8092 41.8486 98.1964 41.3292C98.4761 41.1057 98.7571 40.8717 99.0368 40.6482L99.0147 40.6564ZM106.288 32.5734C106.243 32.218 106.196 31.8731 106.151 31.5177L106.141 31.5166C105.958 31.1564 105.744 30.7928 105.584 30.4141C105.392 29.9468 105.245 29.4631 105.052 29.0063C104.602 27.905 103.842 27.767 103.066 28.6357C102.956 28.7614 102.856 28.8988 102.775 29.049C102.104 30.301 101.432 31.5635 100.782 32.8283C100.552 33.2697 100.393 33.7403 100.146 34.339C100.866 34.7274 101.505 35.096 102.18 35.4157C102.977 35.7914 103.79 36.1158 104.599 36.4717L104.513 36.4833L104.591 36.4496C104.786 36.5138 104.986 36.6211 105.186 36.6329C106.442 36.699 107.238 35.6626 106.861 34.474C106.667 33.8366 106.473 33.1991 106.278 32.5617L106.297 32.5851L106.288 32.5734ZM119.77 28.3906C119.357 28.1957 119.017 27.9135 118.667 27.9063C117.96 27.8697 117.247 27.9811 116.539 28.0505C115.97 28.1037 115.499 28.4226 115.584 28.9947C115.657 29.4806 116.032 29.9259 116.311 30.3712C116.347 30.4283 116.735 30.3761 116.75 30.3354C116.914 29.6318 117.558 29.8524 117.98 29.6872C118.61 29.4605 119.275 29.3118 119.769 28.401L119.77 28.3906ZM85.3368 54.6582C86.0825 54.6354 86.9169 54.2934 87.4124 53.7543C87.6048 53.5529 87.6527 53.2186 87.8815 52.6921C86.6602 53.1713 85.686 53.4339 85.3368 54.6582ZM89.1429 39.3192C89.0625 39.2784 88.9705 39.2469 88.8901 39.206C88.2512 39.8883 87.7958 41.3979 87.9488 42.6889C88.3993 41.4123 88.7705 40.371 89.1429 39.3192ZM89.5688 29.6216C89.5128 29.7427 89.4556 29.8743 89.3996 29.9954C89.6116 30.0934 89.8329 30.2031 90.0449 30.3011C90.102 30.1695 90.1592 30.0379 90.2269 29.9074C90.0137 29.8199 89.7913 29.7207 89.5781 29.6332L89.5688 29.6216ZM94.4926 51.86C94.361 51.7073 94.2714 51.5593 94.2283 51.5651C94.0966 51.6034 93.9684 51.7059 93.8437 51.7769C93.8972 51.8678 93.9647 52.0239 94.0183 52.0193C94.1569 52.0136 94.2828 51.9321 94.4937 51.8495L94.4926 51.86ZM92.9265 41.7486L93.1851 41.9049C93.2691 41.7232 93.3636 41.5427 93.4476 41.361C93.3882 41.3225 93.3276 41.2945 93.2682 41.256C93.1539 41.4237 93.0396 41.5914 92.9254 41.7591L92.9265 41.7486ZM94.1804 39.6488C93.924 39.7582 93.804 39.7872 93.8004 39.8187C93.7969 39.9457 93.8352 40.0773 93.8526 40.2067C93.9319 40.0669 94.0229 39.9178 94.1815 39.6383L94.1804 39.6488ZM87.8705 55.0688C87.8111 55.1259 87.7528 55.1724 87.6933 55.2294C87.7422 55.2668 87.8005 55.3157 87.8622 55.3333C87.8832 55.3356 87.9531 55.2797 87.945 55.2576C87.931 55.1923 87.895 55.1352 87.8705 55.0688ZM106.992 45.1682C106.955 45.2171 106.907 45.2648 106.869 45.3242C106.898 45.3487 106.957 45.3872 106.957 45.3872C107.005 45.3394 107.042 45.2905 107.08 45.2416C107.051 45.2171 107.02 45.2031 106.991 45.1786L106.992 45.1682ZM90.2375 53.9321C90.2375 53.9321 90.1921 53.8634 90.1595 53.8703C90.1281 53.8668 90.0931 53.8947 90.0593 53.9122C90.0977 53.9483 90.1361 53.9845 90.1746 54.0206C90.1886 53.9903 90.2131 53.9612 90.2271 53.931L90.2375 53.9321ZM89.2376 54.4254L89.3156 54.4872L89.3273 54.3824L89.2388 54.4149L89.2376 54.4254ZM95.3385 41.2539L95.3491 41.1595L95.2722 41.1828L95.3385 41.2539ZM92.4796 41.0935L92.4294 41.1622L92.5028 41.1704L92.4796 41.0935Z" fill="#F9C74F"/>
<path d="M19.319 92.6281C19.0869 92.8994 18.8537 93.1812 18.4853 93.6283C18.4159 92.8244 18.8053 92.4751 19.1341 92.0979L19.1259 92.0757C19.2004 92.2645 19.2643 92.4522 19.3399 92.6305L19.3295 92.6293L19.319 92.6281Z" fill="#F9C74F"/>
<path d="M48.9136 65.1086C49.2751 64.5333 49.6262 63.9568 49.9878 63.3815L50.2335 63.5576C49.7939 64.0711 49.345 64.573 48.9055 65.0865L48.9148 65.0981L48.9136 65.1086Z" fill="#F9C74F"/>
<path d="M51.7987 57.5327L52.3371 57.37L52.3394 57.349C52.0327 57.8137 51.7271 58.2679 51.4204 58.7325L51.4297 58.7441C51.098 58.293 51.2066 57.8912 51.5378 57.4929C51.6333 57.493 51.7276 57.5036 51.822 57.5141L51.7987 57.5327Z" fill="#F9C74F"/>
<path d="M96.1628 132.546C96.5149 132.15 96.8658 131.765 97.2179 131.369C97.1837 132.055 96.7466 132.356 96.1546 132.524L96.1733 132.547L96.1628 132.546Z" fill="#F9C74F"/>
<path d="M21.6106 83.999C21.4734 83.5166 21.3887 83.04 21.9517 82.6571C21.8384 83.1009 21.7146 83.5436 21.6013 83.9874L21.6211 84.0002L21.6106 83.999Z" fill="#F9C74F"/>
<path d="M103.478 48.7771C103.801 48.6433 104.123 48.52 104.546 48.3444C104.34 48.7955 103.98 48.9429 103.467 48.7864L103.477 48.7876L103.478 48.7771Z" fill="#F9C74F"/>
<path d="M101.315 50.3719C101.157 50.4603 100.998 50.5488 100.849 50.6489C100.794 50.5685 100.729 50.4869 100.674 50.4064C100.834 50.3075 100.994 50.2086 101.153 50.1097C101.207 50.2006 101.26 50.2915 101.314 50.3824L101.315 50.3719Z" fill="#F9C74F"/>
<path d="M86.8163 101.915L86.0572 102.817C85.9909 102.746 85.935 102.676 85.8675 102.616C86.1903 102.386 86.512 102.167 86.8349 101.938C86.8349 101.938 86.8163 101.915 86.8268 101.916L86.8163 101.915Z" fill="#F9C74F"/>
<path d="M22.4731 78.1827C22.5906 78.4613 22.6964 78.7491 22.8139 79.0276C22.2384 78.8571 22.5253 78.4752 22.4952 78.1746L22.4731 78.1827Z" fill="#F9C74F"/>
<path d="M124.272 93.1511C124.559 92.7691 124.856 92.3883 125.143 92.0064L125.133 91.9947C124.836 92.3755 124.549 92.7575 124.252 93.1382L124.271 93.1615L124.272 93.1511Z" fill="#F9C74F"/>
<path d="M94.6213 132.374C95.1351 132.431 95.6488 132.489 96.1731 132.547L96.1544 132.524C95.6624 133.032 95.129 132.77 94.6048 132.616L94.6025 132.637C94.6235 132.544 94.6329 132.46 94.6434 132.366L94.6201 132.384L94.6213 132.374Z" fill="#F9C74F"/>
<path d="M105.129 47.688C105.596 47.4005 106.052 47.1224 106.52 46.8349L106.501 46.8116C106.044 47.1003 105.577 47.3877 105.12 47.6763L105.129 47.688Z" fill="#F9C74F"/>
<path d="M60.3618 49.3078C60.6591 48.927 60.9658 48.5579 61.2632 48.1772L61.255 48.155C60.9577 48.5358 60.6498 48.9154 60.3537 49.2857L60.363 49.2973L60.3618 49.3078Z" fill="#F9C74F"/>
<path d="M127.926 35.2044C128.07 35.1462 128.215 35.088 128.358 35.0404L128.383 35.2023C128.224 35.1952 128.065 35.1986 127.906 35.1915L127.917 35.1927L127.926 35.2044Z" fill="#F9C74F"/>
<path d="M20.8779 84.0025L20.7834 83.992C20.7834 83.992 20.7916 83.9185 20.8056 83.8882C20.8068 83.8777 20.8686 83.8952 20.9001 83.8987C20.8966 83.9302 20.8919 83.9722 20.8884 84.0037L20.8779 84.0025Z" fill="#F9C74F"/>
<path d="M123.097 121.799C122.789 121.51 122.473 121.209 122.165 120.92L122.163 120.941C122.47 121.23 122.778 121.519 123.085 121.808L123.106 121.811L123.097 121.799Z" fill="#F9C74F"/>
<path d="M124.253 93.1279C124.096 93.3014 123.929 93.4632 123.772 93.6367C123.744 93.6017 123.715 93.5772 123.687 93.5423C123.881 93.4154 124.077 93.2781 124.272 93.1512L124.253 93.1279Z" fill="#F9C74F"/>
<path d="M87.6613 61.4998L87.5913 61.5558L87.5797 61.4695L87.6613 61.4998Z" fill="#F9C74F"/>
<path d="M80.0068 110.22L80.0721 110.301L79.9753 110.312L80.0068 110.22Z" fill="#F9C74F"/>
<path d="M38.9886 78.4897C38.8605 78.401 38.7219 78.3113 38.5927 78.2331C38.6183 78.1935 38.6347 78.1423 38.6603 78.1027C38.7815 78.1587 38.8909 78.224 39.0121 78.28L39.0028 78.2683C38.9934 78.3522 38.9852 78.4256 38.9758 78.5095L38.9875 78.5002L38.9886 78.4897Z" fill="#F9C74F"/>
<path d="M20.1296 94.5874C20.1296 94.5874 20.0561 94.5792 20.0363 94.5664C20.0177 94.543 20.0224 94.501 20.0154 94.4684C20.0679 94.4743 20.1203 94.4801 20.1716 94.4965C20.1681 94.5279 20.1436 94.5571 20.1401 94.5886L20.1296 94.5874Z" fill="#F9C74F"/>
<path d="M102.108 49.6432C102.199 49.5896 102.29 49.536 102.187 49.5989C102.297 49.5687 102.187 49.599 102.088 49.6304L102.097 49.642L102.108 49.6432Z" fill="#F9C74F"/>
<path d="M108.578 46.5554C108.49 46.588 108.402 46.6102 108.524 46.5706C108.395 46.5775 108.503 46.5682 108.597 46.5788L108.589 46.5566L108.578 46.5554Z" fill="#F9C74F"/>
<path d="M104.13 47.3214C103.869 47.3772 103.607 47.4329 103.346 47.4887C103.451 47.4049 103.556 47.321 103.65 47.2465L103.626 47.2652C103.794 47.2839 103.972 47.3038 104.14 47.3226L104.13 47.3214Z" fill="#F9C74F"/>
<path d="M27.8301 97.2107L27.8405 97.3075L27.7601 97.2666L27.8301 97.2107Z" fill="#F9C74F"/>
<path d="M126.901 89.8569C126.715 90.0059 126.517 90.1642 126.33 90.3132L126.351 90.3155C126.371 90.1373 126.391 89.959 126.41 89.7913L126.386 89.8099C126.565 89.8298 126.743 89.8497 126.911 89.8685L126.913 89.8475L126.901 89.8569Z" fill="#F9C74F"/>
<path d="M19.1341 92.0979C19.218 92.1073 19.303 92.1062 19.3881 92.1051C19.2937 92.0945 19.2098 92.0851 19.1155 92.0746L19.1131 92.0955L19.1341 92.0979Z" fill="#F9C74F"/>
<path d="M23.7499 80.3426C23.7113 80.4021 23.6845 80.4522 23.6716 80.472C23.6845 80.4522 23.7218 80.4033 23.7697 80.3555L23.7604 80.3438L23.7499 80.3426Z" fill="#F9C74F"/>
<path d="M94.5945 132.615C94.5456 132.673 94.4954 132.742 94.4569 132.801C94.422 132.734 94.3883 132.656 94.3534 132.588L94.3406 132.608C94.4349 132.618 94.5188 132.628 94.6132 132.638L94.605 132.616L94.5945 132.615Z" fill="#F9C74F"/>
<path d="M27.5698 96.3108C27.5967 96.0697 27.6446 95.8309 27.6821 95.5909L27.6716 95.5897C27.6446 95.8309 27.5979 96.0592 27.5709 96.3004L27.5686 96.3213L27.5698 96.3108Z" fill="#F9C74F"/>
<path d="M53.6177 57.2164L53.6377 57.038C53.6377 57.038 53.6633 57.094 53.6505 57.1138C53.6469 57.1453 53.6236 57.1639 53.5991 57.1931L53.6084 57.2048L53.6177 57.2164Z" fill="#F9C74F"/>
<path d="M56.9698 49.9264L56.9942 49.9929L56.9919 49.9182L56.9698 49.9264Z" fill="#F9C74F"/>
<path d="M52.3371 57.3704L52.3558 57.2981L52.329 57.3482L52.3371 57.3704Z" fill="#F9C74F"/>
<path d="M61.2525 48.1758C61.3458 48.0058 61.4379 47.8463 61.5417 47.6774L61.5324 47.6657C61.4391 47.8358 61.347 47.9953 61.2537 48.1654L61.2618 48.1875L61.2525 48.1758Z" fill="#F9C74F"/>
<path d="M125.429 91.4438C125.334 91.6243 125.229 91.8036 125.135 91.9842L125.144 91.9958C125.238 91.8153 125.343 91.6359 125.438 91.4554L125.43 91.4333L125.429 91.4438Z" fill="#F9C74F"/>
<path d="M51.6084 61.3234L51.6783 61.2773L51.6203 61.3139L51.6084 61.3234Z" fill="#F9C74F"/>
<path d="M37.8945 81.446L37.8672 81.4969L37.9146 81.459L37.8945 81.446Z" fill="#F9C74F"/>
<path d="M61.8566 47.4261C61.9476 47.2771 62.049 47.1291 62.14 46.9801L62.1412 46.9696C62.0397 47.1175 61.9383 47.2654 61.8473 47.4145L61.8566 47.4261Z" fill="#F9C74F"/>
<path d="M98.2031 50.7684L98.2517 50.7199L98.1806 50.7767L98.2031 50.7684Z" fill="#F9C74F"/>
<path d="M19.3881 92.1051C19.3681 92.2833 19.3494 92.4511 19.3295 92.6293L19.3399 92.6305C19.3599 92.4523 19.3798 92.274 19.3985 92.1063L19.3881 92.1051Z" fill="#F9C74F"/>
<path d="M39.2285 78.814L39.2794 78.8413L39.2404 78.8045L39.2285 78.814Z" fill="#F9C74F"/>
<path d="M116.601 104.502C116.548 104.315 116.483 104.138 116.429 103.952L116.418 103.961C116.483 104.138 116.536 104.325 116.601 104.502Z" fill="#F9C74F"/>
<path d="M27.5603 96.2994L27.5416 96.3717L27.5696 96.311L27.5603 96.2994Z" fill="#F9C74F"/>
<path d="M105.242 46.6709C105.064 46.651 104.897 46.6322 104.718 46.6123L104.717 46.6228C104.895 46.6427 105.074 46.6626 105.252 46.6825L105.242 46.6709Z" fill="#F9C74F"/>
<path d="M39.3176 78.017C39.2127 78.1008 39.1078 78.1846 39.0029 78.2684L39.0122 78.2801C39.1171 78.1963 39.222 78.1124 39.3269 78.0286L39.3176 78.017Z" fill="#F9C74F"/>
<path d="M38.9772 78.4991C39.061 78.6041 39.1448 78.709 39.2287 78.8139L39.2403 78.8046C39.1565 78.6997 39.0727 78.5947 38.9889 78.4898L38.9772 78.4991Z" fill="#F9C74F"/>
<path d="M51.6203 61.3134L51.6025 61.3762L51.6084 61.3229L51.6203 61.3134Z" fill="#F9C74F"/>
<path d="M51.116 58.9855C51.221 58.9017 51.3142 58.8272 51.4191 58.7434L51.4098 58.7318C51.3049 58.8156 51.2116 58.8901 51.1067 58.9739L51.116 58.9855Z" fill="#F9C74F"/>
<path d="M53.3262 57.449C53.4195 57.3745 53.5244 57.2907 53.6188 57.2057L53.6095 57.194C53.5058 57.2674 53.4114 57.3524 53.3076 57.4257L53.3169 57.4374L53.3262 57.449Z" fill="#F9C74F"/>
<path d="M61.5419 47.6773C61.6468 47.5935 61.7517 47.5097 61.8566 47.4259L61.8473 47.4142C61.7424 47.498 61.6375 47.5818 61.5326 47.6656L61.5419 47.6773Z" fill="#F9C74F"/>
<path d="M122.727 102.129L122.693 102.146L122.727 102.129Z" fill="#F9C74F"/>
<path d="M98.1807 50.7754C98.0968 50.7661 98.0048 50.7345 97.9221 50.7147L97.9116 50.7135C98.0036 50.745 98.1085 50.7567 98.2017 50.7778L98.1807 50.7754Z" fill="#F9C74F"/>
<path d="M97.9221 50.7146C97.8383 50.6097 97.7545 50.5048 97.6706 50.3999L97.659 50.4091C97.7428 50.5141 97.8266 50.619 97.9104 50.7239L97.9221 50.7146Z" fill="#F9C74F"/>
<path d="M103.469 48.7761L103.425 48.782L103.479 48.7773L103.469 48.7761Z" fill="#F9C74F"/>
<path d="M101.765 48.0551C101.66 48.1389 101.555 48.2228 101.462 48.2973L101.482 48.3101C101.587 48.2263 101.68 48.1518 101.785 48.068L101.787 48.047L101.765 48.0551Z" fill="#F9C74F"/>
<path d="M82.0789 105.738C82.0777 105.653 82.0871 105.569 82.107 105.486C82.0964 105.58 82.0871 105.664 82.0765 105.759L82.0998 105.74L82.0789 105.738Z" fill="#F9C74F"/>
<path d="M82.0379 106.009C82.0484 105.915 82.0578 105.831 82.0683 105.737L82.045 105.755C82.1394 105.766 82.2233 105.775 82.3176 105.786L82.32 105.765C82.3094 105.859 82.2989 105.954 82.2883 106.048L82.3116 106.029C82.2173 106.019 82.1229 106.008 82.0285 105.998L82.0495 106L82.0379 106.009Z" fill="#F9C74F"/>
<path d="M119.43 110.922C119.513 110.931 119.605 110.963 119.689 110.972L119.701 110.963C119.607 110.952 119.503 110.93 119.41 110.909L119.42 110.91L119.43 110.922Z" fill="#F9C74F"/>
<path d="M123.819 39.8411C123.726 39.9156 123.633 39.9901 123.54 40.0646L123.549 40.0763C123.642 40.0018 123.735 39.9273 123.83 39.8423L123.82 39.8306L123.819 39.8411Z" fill="#F9C74F"/>
<path d="M106.041 103.342C105.687 102.708 105.324 102.062 104.97 101.428C105.018 101.094 105.066 100.76 105.114 100.425L105.103 100.435C105.188 100.433 105.273 100.432 105.358 100.431C105.589 101.402 105.82 102.373 106.052 103.343L106.041 103.342Z" fill="#F9C74F"/>
<path d="M113.767 93.4842L113.464 93.7263C113.569 93.6425 113.674 93.5587 113.767 93.4842Z" fill="#F9C74F"/>
<path d="M112.956 93.9032C112.851 93.987 112.746 94.0708 112.653 94.1453C112.758 94.0614 112.863 93.9777 112.956 93.9032Z" fill="#F9C74F"/>
<path d="M104.849 100.141C104.933 100.246 105.007 100.339 105.091 100.444C105.091 100.444 105.103 100.435 105.113 100.436C105.029 100.331 104.944 100.237 104.871 100.133L104.859 100.142L104.849 100.141Z" fill="#F9C74F"/>
<path d="M86.9195 107.829C86.93 107.735 86.9394 107.651 86.95 107.557C87.0443 107.567 87.1282 107.576 87.2226 107.587C87.1176 107.671 87.0244 107.745 86.9195 107.829Z" fill="#F9C74F"/>
<path d="M22.4253 62.6571C22.8147 62.3079 23.2052 61.9481 23.5946 61.5989L23.7797 61.8425C23.3251 62.1102 22.8706 62.3778 22.4055 62.6443L22.4149 62.656L22.4253 62.6571Z" fill="#F9C74F"/>
<path d="M24.6109 61.3409L24.5931 61.4037L24.5978 61.361L24.6109 61.3409Z" fill="#F9C74F"/>
<path d="M41.2912 48.9698C41.1968 48.9593 41.1025 48.9487 41.0186 48.9394C41.1235 48.8555 41.2168 48.781 41.3217 48.6972C41.3111 48.7916 41.3006 48.886 41.2912 48.9698Z" fill="#F9C74F"/>
<path d="M23.8996 58.4905C23.9101 58.3961 23.9195 58.3123 23.9301 58.2179C24.1083 58.2378 24.2865 58.2577 24.4648 58.2777C24.276 58.3521 24.0884 58.4161 23.8996 58.4905Z" fill="#F9C74F"/>
<path d="M98.1994 41.3083L98.1592 41.2822L98.1888 41.3071L98.1994 41.3083Z" fill="#F9C74F"/>
</svg>
