<svg width="174" height="140" viewBox="0 0 174 140" fill="none" xmlns="http://www.w3.org/2000/svg">
<g clip-path="url(#clip0_171_150)">
<path d="M173.517 75.7539C173.592 62.3138 173.173 50.5585 172.236 39.8174C170.924 24.7803 162.562 16.4962 148.056 15.8546C141.897 15.5823 135.625 15.7899 129.561 15.9843C126.804 16.0744 123.953 16.1683 121.152 16.215C120.246 16.2299 119.346 16.2252 118.57 16.2213H118.153C117.837 15.3172 117.534 14.4358 117.236 13.5711C116.507 11.4536 115.813 9.45026 115.057 7.46563C115.028 7.36647 115.002 7.26607 114.973 7.16755C114.616 5.79425 113.879 4.54978 112.848 3.57739C110.941 1.36008 108.307 0.283396 104.963 0.368303C100.424 0.486914 95.8066 0.571166 91.3415 0.652186C84.4999 0.77663 77.4247 0.905048 70.4686 1.16171C66.7331 1.29912 64.6884 1.95129 63.3648 3.61379C62.4936 4.13085 61.7801 4.87652 61.3014 5.77059C59.6442 9.30113 58.6921 13.1224 58.4987 17.0192H57.3752C55.5906 17.0192 53.9425 17.0142 52.2937 17.0246C50.3189 17.0356 48.3434 17.0356 46.3679 17.0363C41.5612 17.0363 36.5901 17.0362 31.7019 17.2008C25.7474 17.4207 19.8867 18.7561 14.4229 21.1382C6.73459 24.4437 2.89164 29.8745 2.67366 37.734C2.52618 43.0753 2.31923 48.5063 2.11936 53.7576C1.946 58.3089 1.76638 63.0152 1.62602 67.6469C1.55098 70.1384 1.54684 72.672 1.54232 75.122C1.53455 79.4276 1.52631 83.8804 1.13109 88.21C0.130433 99.167 0.306947 107.959 1.68666 115.879C2.93377 123.034 6.2792 128.816 11.3634 132.601C15.992 136.145 21.6124 138.147 27.4349 138.326C30.4767 138.412 33.5184 138.506 36.5598 138.607C44.1168 138.85 51.9305 139.101 59.6221 139.162C75.9195 139.291 91.2024 139.356 105.875 139.356C112.598 139.356 119.206 139.342 125.698 139.316C133.035 139.287 140.964 138.948 149.94 138.279C161.26 137.436 168.953 131.214 172.18 120.279C173.279 116.619 173.865 112.823 173.922 109.001C173.953 103.443 173.835 97.7949 173.721 92.3329C173.603 86.8962 173.483 81.2781 173.517 75.7539ZM164.031 93.4451C164.09 98.7353 164.152 104.026 164.217 109.317C164.268 113.435 163.304 117.503 161.411 121.159C159.687 124.53 157.142 126.53 153.827 127.102C150.183 127.832 146.487 128.266 142.774 128.402C129.635 128.5 116.274 128.485 103.351 128.472C98.6825 128.467 94.0149 128.464 89.3473 128.462C84.5755 128.462 79.8057 128.464 75.0379 128.468C63.5174 128.476 51.6071 128.486 39.8941 128.421C35.4941 128.389 31.099 128.123 26.7271 127.625C18.6073 126.709 12.8394 121.041 11.2993 112.464C9.58773 102.936 9.78386 93.1612 9.97273 83.7113C10.0057 82.0617 10.0375 80.4135 10.0621 78.7659C10.1013 75.9814 10.1604 73.1873 10.2393 70.3847C11.9764 70.7269 13.7371 70.9375 15.5059 71.014C19.7298 71.1553 24.0228 71.1437 28.1755 71.1326C30.1536 71.1281 32.1309 71.1216 34.107 71.1326C34.8748 71.1372 35.6328 71.1812 36.5105 71.2318C36.746 71.2461 36.9873 71.2597 37.237 71.2733C37.237 72.066 37.232 72.8373 37.2281 73.593C37.2184 75.6671 37.2085 77.6258 37.2493 79.5877C37.3366 83.778 39.0707 85.7743 43.0475 86.2636C46.8065 86.6733 50.5861 86.8651 54.3672 86.8386H54.5011C61.78 86.8386 64.5272 84.0334 64.6184 76.533C64.6345 75.2108 64.6302 73.8866 64.6257 72.5372V71.2908H113.226C113.226 71.4489 113.226 71.6051 113.226 71.7587C113.221 72.5657 113.216 73.3143 113.238 74.0584C113.278 75.424 113.318 76.5622 113.437 77.7424C113.883 82.181 115.83 84.0703 120.164 84.2635C123.621 84.4177 127.325 84.3931 131.17 84.1837C134.928 83.9815 137.203 81.8634 137.75 78.0574C137.987 76.4073 138.09 74.7208 138.198 72.9371C138.238 72.2792 138.279 71.6 138.327 70.8915L143.745 70.8948C149.086 70.898 154.312 70.9025 159.537 70.8773C160.945 70.885 162.354 70.8202 163.756 70.6828C163.859 78.3316 163.945 85.9616 164.031 93.4451ZM76.7074 9.33288C81.1803 9.16761 85.7166 9.10545 90.1688 9.06073C94.8797 9.17675 99.7193 9.29218 104.492 9.36737C104.891 9.36626 105.288 9.40794 105.677 9.49174C106.13 9.97695 106.422 10.5915 106.511 11.2501C106.812 12.558 107.205 13.843 107.686 15.0956C107.775 15.66 107.873 16.2237 107.98 16.7872H67.4815C69.1173 9.61483 69.2254 9.61029 76.7106 9.33353L76.7074 9.33288ZM129.381 71.283C129.356 71.4924 129.332 71.6998 129.308 71.9065C129.215 72.9449 129.047 73.9748 128.807 74.9891C128.646 75.4111 128.33 75.7559 127.924 75.9523C125.97 76.1629 123.998 76.2562 121.912 76.3554C121.359 76.3813 120.8 76.4079 120.231 76.4371L119.648 71.283H129.381ZM55.2193 71.3549V77.5493H45.1898L44.3756 71.6771C46.4843 70.9077 51.597 70.7509 55.2225 71.3549H55.2193ZM162.862 61.0714C162.645 61.087 162.428 61.1019 162.211 61.111C161.075 61.1576 159.941 61.2125 158.806 61.2676C156.342 61.3869 153.793 61.5096 151.292 61.5426C139.661 61.6973 128.03 61.8408 116.399 61.9731C106.018 62.0962 95.6371 62.2232 85.2566 62.3541C65.3527 62.6134 45.449 62.8857 25.5461 63.1712L10.4455 63.3827C10.6079 58.554 10.7968 53.7447 10.9837 49.0158C11.0821 46.536 11.179 44.0568 11.2743 41.5783C11.6327 32.1399 13.3569 29.9349 22.1307 27.6987C27.5344 26.3012 33.0844 25.5497 38.6646 25.46C50.2469 25.3193 62.0265 25.339 73.4195 25.3571C82.6977 25.3727 92.2936 25.3889 101.731 25.3176C107.1 25.278 112.545 25.0323 117.813 24.795C122.003 24.6064 126.335 24.4114 130.593 24.322C136.432 24.1982 142.472 24.0711 148.391 24.6874C157.072 25.5903 161.07 29.6322 162.187 38.6369C162.87 43.5531 163.298 48.5018 163.468 53.4626C163.516 55.9784 163.561 58.5007 163.603 61.0293C163.355 61.0384 163.107 61.0559 162.865 61.0714H162.862Z" fill="#FFF6DF"/>
</g>
<defs>
<clipPath id="clip0_171_150">
<rect width="174" height="140" fill="white"/>
</clipPath>
</defs>
</svg>
